G04 #@! TF.GenerationSoftware,KiCad,Pcbnew,(5.1.4)-1*
G04 #@! TF.CreationDate,2020-11-12T16:18:46-05:00*
G04 #@! TF.ProjectId,UniAmp,556e6941-6d70-42e6-9b69-6361645f7063,rev?*
G04 #@! TF.SameCoordinates,Original*
G04 #@! TF.FileFunction,Soldermask,Top*
G04 #@! TF.FilePolarity,Negative*
%FSLAX46Y46*%
G04 Gerber Fmt 4.6, Leading zero omitted, Abs format (unit mm)*
G04 Created by KiCad (PCBNEW (5.1.4)-1) date 2020-11-12 16:18:46*
%MOMM*%
%LPD*%
G04 APERTURE LIST*
%ADD10C,0.100000*%
G04 APERTURE END LIST*
D10*
G36*
X132480806Y-84232154D02*
G01*
X132509946Y-84240994D01*
X132536798Y-84255347D01*
X132560336Y-84274664D01*
X132579653Y-84298202D01*
X132594006Y-84325054D01*
X132602846Y-84354194D01*
X132606000Y-84386224D01*
X132606000Y-84813776D01*
X132602846Y-84845806D01*
X132594006Y-84874946D01*
X132579653Y-84901798D01*
X132560336Y-84925336D01*
X132536798Y-84944653D01*
X132509946Y-84959006D01*
X132480806Y-84967846D01*
X132448776Y-84971000D01*
X132071224Y-84971000D01*
X132039194Y-84967846D01*
X132010054Y-84959006D01*
X131983202Y-84944653D01*
X131959664Y-84925336D01*
X131940347Y-84901798D01*
X131925994Y-84874946D01*
X131917154Y-84845806D01*
X131914000Y-84813776D01*
X131914000Y-84386224D01*
X131917154Y-84354194D01*
X131925994Y-84325054D01*
X131940347Y-84298202D01*
X131959664Y-84274664D01*
X131983202Y-84255347D01*
X132010054Y-84240994D01*
X132039194Y-84232154D01*
X132071224Y-84229000D01*
X132448776Y-84229000D01*
X132480806Y-84232154D01*
X132480806Y-84232154D01*
G37*
G36*
X131510806Y-84232154D02*
G01*
X131539946Y-84240994D01*
X131566798Y-84255347D01*
X131590336Y-84274664D01*
X131609653Y-84298202D01*
X131624006Y-84325054D01*
X131632846Y-84354194D01*
X131636000Y-84386224D01*
X131636000Y-84813776D01*
X131632846Y-84845806D01*
X131624006Y-84874946D01*
X131609653Y-84901798D01*
X131590336Y-84925336D01*
X131566798Y-84944653D01*
X131539946Y-84959006D01*
X131510806Y-84967846D01*
X131478776Y-84971000D01*
X131101224Y-84971000D01*
X131069194Y-84967846D01*
X131040054Y-84959006D01*
X131013202Y-84944653D01*
X130989664Y-84925336D01*
X130970347Y-84901798D01*
X130955994Y-84874946D01*
X130947154Y-84845806D01*
X130944000Y-84813776D01*
X130944000Y-84386224D01*
X130947154Y-84354194D01*
X130955994Y-84325054D01*
X130970347Y-84298202D01*
X130989664Y-84274664D01*
X131013202Y-84255347D01*
X131040054Y-84240994D01*
X131069194Y-84232154D01*
X131101224Y-84229000D01*
X131478776Y-84229000D01*
X131510806Y-84232154D01*
X131510806Y-84232154D01*
G37*
G36*
X115549993Y-83758753D02*
G01*
X115550000Y-83758753D01*
X115559998Y-83759738D01*
X115569611Y-83762654D01*
X115569613Y-83762655D01*
X115578473Y-83767391D01*
X115586237Y-83773763D01*
X115592609Y-83781527D01*
X115592610Y-83781529D01*
X115597346Y-83790389D01*
X115600262Y-83800002D01*
X115601247Y-83810000D01*
X115601247Y-83810007D01*
X115601416Y-83811724D01*
X115601416Y-84308276D01*
X115601247Y-84309993D01*
X115601247Y-84310000D01*
X115600459Y-84318000D01*
X115600006Y-84322599D01*
X115599008Y-84329325D01*
X115599008Y-84357285D01*
X115598839Y-84359002D01*
X115598839Y-84359009D01*
X115598169Y-84365806D01*
X115597685Y-84370727D01*
X115579233Y-84463486D01*
X115578733Y-84465134D01*
X115578732Y-84465140D01*
X115575816Y-84474753D01*
X115575313Y-84476410D01*
X115539119Y-84563789D01*
X115532760Y-84575688D01*
X115480207Y-84654338D01*
X115471648Y-84664768D01*
X115404768Y-84731648D01*
X115394338Y-84740207D01*
X115315688Y-84792760D01*
X115307840Y-84796954D01*
X115305309Y-84798307D01*
X115305306Y-84798308D01*
X115303789Y-84799119D01*
X115216410Y-84835313D01*
X115214757Y-84835814D01*
X115214753Y-84835816D01*
X115205140Y-84838732D01*
X115205134Y-84838733D01*
X115203486Y-84839233D01*
X115110727Y-84857685D01*
X115106040Y-84858146D01*
X115099009Y-84858839D01*
X115099002Y-84858839D01*
X115097285Y-84859008D01*
X115069325Y-84859008D01*
X115062599Y-84860006D01*
X115059340Y-84860327D01*
X115050000Y-84861247D01*
X115049993Y-84861247D01*
X115048276Y-84861416D01*
X114551724Y-84861416D01*
X114550007Y-84861247D01*
X114550000Y-84861247D01*
X114540660Y-84860327D01*
X114537401Y-84860006D01*
X114530675Y-84859008D01*
X114502715Y-84859008D01*
X114500998Y-84858839D01*
X114500991Y-84858839D01*
X114493960Y-84858146D01*
X114489273Y-84857685D01*
X114396514Y-84839233D01*
X114394866Y-84838733D01*
X114394860Y-84838732D01*
X114385247Y-84835816D01*
X114385243Y-84835814D01*
X114383590Y-84835313D01*
X114296211Y-84799119D01*
X114294694Y-84798308D01*
X114294691Y-84798307D01*
X114292160Y-84796954D01*
X114284312Y-84792760D01*
X114205662Y-84740207D01*
X114195232Y-84731648D01*
X114128352Y-84664768D01*
X114119793Y-84654338D01*
X114067240Y-84575688D01*
X114060881Y-84563789D01*
X114024687Y-84476410D01*
X114024184Y-84474753D01*
X114021268Y-84465140D01*
X114021267Y-84465134D01*
X114020767Y-84463486D01*
X114002315Y-84370727D01*
X114001831Y-84365806D01*
X114001161Y-84359009D01*
X114001161Y-84359002D01*
X114000992Y-84357285D01*
X114000992Y-84329325D01*
X113999994Y-84322599D01*
X113999541Y-84318000D01*
X113998753Y-84310000D01*
X113998753Y-84309993D01*
X113998584Y-84308276D01*
X113998584Y-83811724D01*
X113998753Y-83810007D01*
X113998753Y-83810000D01*
X113999738Y-83800002D01*
X114002654Y-83790389D01*
X114007390Y-83781529D01*
X114007391Y-83781527D01*
X114013763Y-83773763D01*
X114021527Y-83767391D01*
X114030387Y-83762655D01*
X114030389Y-83762654D01*
X114040002Y-83759738D01*
X114050000Y-83758753D01*
X114050007Y-83758753D01*
X114051724Y-83758584D01*
X115548276Y-83758584D01*
X115549993Y-83758753D01*
X115549993Y-83758753D01*
G37*
G36*
X121601000Y-84861000D02*
G01*
X121199000Y-84861000D01*
X121199000Y-83359000D01*
X121601000Y-83359000D01*
X121601000Y-84861000D01*
X121601000Y-84861000D01*
G37*
G36*
X119601000Y-84861000D02*
G01*
X119199000Y-84861000D01*
X119199000Y-83359000D01*
X119601000Y-83359000D01*
X119601000Y-84861000D01*
X119601000Y-84861000D01*
G37*
G36*
X120101000Y-84861000D02*
G01*
X119699000Y-84861000D01*
X119699000Y-83359000D01*
X120101000Y-83359000D01*
X120101000Y-84861000D01*
X120101000Y-84861000D01*
G37*
G36*
X121101000Y-84861000D02*
G01*
X120699000Y-84861000D01*
X120699000Y-83359000D01*
X121101000Y-83359000D01*
X121101000Y-84861000D01*
X121101000Y-84861000D01*
G37*
G36*
X120601000Y-84861000D02*
G01*
X120199000Y-84861000D01*
X120199000Y-83359000D01*
X120601000Y-83359000D01*
X120601000Y-84861000D01*
X120601000Y-84861000D01*
G37*
G36*
X117920806Y-83752154D02*
G01*
X117949946Y-83760994D01*
X117976798Y-83775347D01*
X118000336Y-83794664D01*
X118019653Y-83818202D01*
X118034006Y-83845054D01*
X118042846Y-83874194D01*
X118046000Y-83906224D01*
X118046000Y-84333776D01*
X118042846Y-84365806D01*
X118034006Y-84394946D01*
X118019653Y-84421798D01*
X118000336Y-84445336D01*
X117976798Y-84464653D01*
X117949946Y-84479006D01*
X117920806Y-84487846D01*
X117888776Y-84491000D01*
X117511224Y-84491000D01*
X117479194Y-84487846D01*
X117450054Y-84479006D01*
X117423202Y-84464653D01*
X117399664Y-84445336D01*
X117380347Y-84421798D01*
X117365994Y-84394946D01*
X117357154Y-84365806D01*
X117354000Y-84333776D01*
X117354000Y-83906224D01*
X117357154Y-83874194D01*
X117365994Y-83845054D01*
X117380347Y-83818202D01*
X117399664Y-83794664D01*
X117423202Y-83775347D01*
X117450054Y-83760994D01*
X117479194Y-83752154D01*
X117511224Y-83749000D01*
X117888776Y-83749000D01*
X117920806Y-83752154D01*
X117920806Y-83752154D01*
G37*
G36*
X116950806Y-83752154D02*
G01*
X116979946Y-83760994D01*
X117006798Y-83775347D01*
X117030336Y-83794664D01*
X117049653Y-83818202D01*
X117064006Y-83845054D01*
X117072846Y-83874194D01*
X117076000Y-83906224D01*
X117076000Y-84333776D01*
X117072846Y-84365806D01*
X117064006Y-84394946D01*
X117049653Y-84421798D01*
X117030336Y-84445336D01*
X117006798Y-84464653D01*
X116979946Y-84479006D01*
X116950806Y-84487846D01*
X116918776Y-84491000D01*
X116541224Y-84491000D01*
X116509194Y-84487846D01*
X116480054Y-84479006D01*
X116453202Y-84464653D01*
X116429664Y-84445336D01*
X116410347Y-84421798D01*
X116395994Y-84394946D01*
X116387154Y-84365806D01*
X116384000Y-84333776D01*
X116384000Y-83906224D01*
X116387154Y-83874194D01*
X116395994Y-83845054D01*
X116410347Y-83818202D01*
X116429664Y-83794664D01*
X116453202Y-83775347D01*
X116480054Y-83760994D01*
X116509194Y-83752154D01*
X116541224Y-83749000D01*
X116918776Y-83749000D01*
X116950806Y-83752154D01*
X116950806Y-83752154D01*
G37*
G36*
X112065734Y-82223232D02*
G01*
X112165733Y-82264653D01*
X112275204Y-82309997D01*
X112463721Y-82435960D01*
X112624040Y-82596279D01*
X112750003Y-82784796D01*
X112774356Y-82843590D01*
X112836768Y-82994266D01*
X112881000Y-83216636D01*
X112881000Y-83443364D01*
X112836768Y-83665734D01*
X112800901Y-83752324D01*
X112750003Y-83875204D01*
X112624040Y-84063721D01*
X112463721Y-84224040D01*
X112275204Y-84350003D01*
X112225171Y-84370727D01*
X112065734Y-84436768D01*
X111843364Y-84481000D01*
X111616636Y-84481000D01*
X111394266Y-84436768D01*
X111234829Y-84370727D01*
X111184796Y-84350003D01*
X110996279Y-84224040D01*
X110835960Y-84063721D01*
X110709997Y-83875204D01*
X110659099Y-83752324D01*
X110623232Y-83665734D01*
X110579000Y-83443364D01*
X110579000Y-83216636D01*
X110623232Y-82994266D01*
X110685644Y-82843590D01*
X110709997Y-82784796D01*
X110835960Y-82596279D01*
X110996279Y-82435960D01*
X111184796Y-82309997D01*
X111294267Y-82264653D01*
X111394266Y-82223232D01*
X111616636Y-82179000D01*
X111843364Y-82179000D01*
X112065734Y-82223232D01*
X112065734Y-82223232D01*
G37*
G36*
X134131881Y-82836989D02*
G01*
X134197182Y-82849978D01*
X134320206Y-82900936D01*
X134430925Y-82974916D01*
X134525084Y-83069075D01*
X134599064Y-83179794D01*
X134650022Y-83302818D01*
X134676000Y-83433420D01*
X134676000Y-83566580D01*
X134650022Y-83697182D01*
X134599064Y-83820206D01*
X134525084Y-83930925D01*
X134430925Y-84025084D01*
X134320206Y-84099064D01*
X134197182Y-84150022D01*
X134131881Y-84163011D01*
X134066582Y-84176000D01*
X133933418Y-84176000D01*
X133868119Y-84163011D01*
X133802818Y-84150022D01*
X133679794Y-84099064D01*
X133569075Y-84025084D01*
X133474916Y-83930925D01*
X133400936Y-83820206D01*
X133349978Y-83697182D01*
X133324000Y-83566580D01*
X133324000Y-83433420D01*
X133349978Y-83302818D01*
X133400936Y-83179794D01*
X133474916Y-83069075D01*
X133569075Y-82974916D01*
X133679794Y-82900936D01*
X133802818Y-82849978D01*
X133868119Y-82836989D01*
X133933418Y-82824000D01*
X134066582Y-82824000D01*
X134131881Y-82836989D01*
X134131881Y-82836989D01*
G37*
G36*
X131490806Y-83112154D02*
G01*
X131519946Y-83120994D01*
X131546798Y-83135347D01*
X131570336Y-83154664D01*
X131589653Y-83178202D01*
X131604006Y-83205054D01*
X131612846Y-83234194D01*
X131616000Y-83266224D01*
X131616000Y-83693776D01*
X131612846Y-83725806D01*
X131604006Y-83754946D01*
X131589653Y-83781798D01*
X131570336Y-83805336D01*
X131546798Y-83824653D01*
X131519946Y-83839006D01*
X131490806Y-83847846D01*
X131458776Y-83851000D01*
X131081224Y-83851000D01*
X131049194Y-83847846D01*
X131020054Y-83839006D01*
X130993202Y-83824653D01*
X130969664Y-83805336D01*
X130950347Y-83781798D01*
X130935994Y-83754946D01*
X130927154Y-83725806D01*
X130924000Y-83693776D01*
X130924000Y-83266224D01*
X130927154Y-83234194D01*
X130935994Y-83205054D01*
X130950347Y-83178202D01*
X130969664Y-83154664D01*
X130993202Y-83135347D01*
X131020054Y-83120994D01*
X131049194Y-83112154D01*
X131081224Y-83109000D01*
X131458776Y-83109000D01*
X131490806Y-83112154D01*
X131490806Y-83112154D01*
G37*
G36*
X132460806Y-83112154D02*
G01*
X132489946Y-83120994D01*
X132516798Y-83135347D01*
X132540336Y-83154664D01*
X132559653Y-83178202D01*
X132574006Y-83205054D01*
X132582846Y-83234194D01*
X132586000Y-83266224D01*
X132586000Y-83693776D01*
X132582846Y-83725806D01*
X132574006Y-83754946D01*
X132559653Y-83781798D01*
X132540336Y-83805336D01*
X132516798Y-83824653D01*
X132489946Y-83839006D01*
X132460806Y-83847846D01*
X132428776Y-83851000D01*
X132051224Y-83851000D01*
X132019194Y-83847846D01*
X131990054Y-83839006D01*
X131963202Y-83824653D01*
X131939664Y-83805336D01*
X131920347Y-83781798D01*
X131905994Y-83754946D01*
X131897154Y-83725806D01*
X131894000Y-83693776D01*
X131894000Y-83266224D01*
X131897154Y-83234194D01*
X131905994Y-83205054D01*
X131920347Y-83178202D01*
X131939664Y-83154664D01*
X131963202Y-83135347D01*
X131990054Y-83120994D01*
X132019194Y-83112154D01*
X132051224Y-83109000D01*
X132428776Y-83109000D01*
X132460806Y-83112154D01*
X132460806Y-83112154D01*
G37*
G36*
X129460806Y-83112154D02*
G01*
X129489946Y-83120994D01*
X129516798Y-83135347D01*
X129540336Y-83154664D01*
X129559653Y-83178202D01*
X129574006Y-83205054D01*
X129582846Y-83234194D01*
X129586000Y-83266224D01*
X129586000Y-83693776D01*
X129582846Y-83725806D01*
X129574006Y-83754946D01*
X129559653Y-83781798D01*
X129540336Y-83805336D01*
X129516798Y-83824653D01*
X129489946Y-83839006D01*
X129460806Y-83847846D01*
X129428776Y-83851000D01*
X129051224Y-83851000D01*
X129019194Y-83847846D01*
X128990054Y-83839006D01*
X128963202Y-83824653D01*
X128939664Y-83805336D01*
X128920347Y-83781798D01*
X128905994Y-83754946D01*
X128897154Y-83725806D01*
X128894000Y-83693776D01*
X128894000Y-83266224D01*
X128897154Y-83234194D01*
X128905994Y-83205054D01*
X128920347Y-83178202D01*
X128939664Y-83154664D01*
X128963202Y-83135347D01*
X128990054Y-83120994D01*
X129019194Y-83112154D01*
X129051224Y-83109000D01*
X129428776Y-83109000D01*
X129460806Y-83112154D01*
X129460806Y-83112154D01*
G37*
G36*
X130430806Y-83112154D02*
G01*
X130459946Y-83120994D01*
X130486798Y-83135347D01*
X130510336Y-83154664D01*
X130529653Y-83178202D01*
X130544006Y-83205054D01*
X130552846Y-83234194D01*
X130556000Y-83266224D01*
X130556000Y-83693776D01*
X130552846Y-83725806D01*
X130544006Y-83754946D01*
X130529653Y-83781798D01*
X130510336Y-83805336D01*
X130486798Y-83824653D01*
X130459946Y-83839006D01*
X130430806Y-83847846D01*
X130398776Y-83851000D01*
X130021224Y-83851000D01*
X129989194Y-83847846D01*
X129960054Y-83839006D01*
X129933202Y-83824653D01*
X129909664Y-83805336D01*
X129890347Y-83781798D01*
X129875994Y-83754946D01*
X129867154Y-83725806D01*
X129864000Y-83693776D01*
X129864000Y-83266224D01*
X129867154Y-83234194D01*
X129875994Y-83205054D01*
X129890347Y-83178202D01*
X129909664Y-83154664D01*
X129933202Y-83135347D01*
X129960054Y-83120994D01*
X129989194Y-83112154D01*
X130021224Y-83109000D01*
X130398776Y-83109000D01*
X130430806Y-83112154D01*
X130430806Y-83112154D01*
G37*
G36*
X115049993Y-82458753D02*
G01*
X115050000Y-82458753D01*
X115059340Y-82459673D01*
X115062599Y-82459994D01*
X115069325Y-82460992D01*
X115097285Y-82460992D01*
X115099002Y-82461161D01*
X115099009Y-82461161D01*
X115106040Y-82461854D01*
X115110727Y-82462315D01*
X115203486Y-82480767D01*
X115205134Y-82481267D01*
X115205140Y-82481268D01*
X115214753Y-82484184D01*
X115214757Y-82484186D01*
X115216410Y-82484687D01*
X115303789Y-82520881D01*
X115305306Y-82521692D01*
X115305309Y-82521693D01*
X115307840Y-82523046D01*
X115315688Y-82527240D01*
X115394338Y-82579793D01*
X115404768Y-82588352D01*
X115471648Y-82655232D01*
X115480207Y-82665662D01*
X115532760Y-82744312D01*
X115539119Y-82756211D01*
X115575313Y-82843590D01*
X115575814Y-82845243D01*
X115575816Y-82845247D01*
X115578732Y-82854860D01*
X115578733Y-82854866D01*
X115579233Y-82856514D01*
X115597685Y-82949273D01*
X115597854Y-82950993D01*
X115598839Y-82960991D01*
X115598839Y-82960998D01*
X115599008Y-82962715D01*
X115599008Y-82990675D01*
X115600006Y-82997401D01*
X115600262Y-83000002D01*
X115601247Y-83010000D01*
X115601247Y-83010007D01*
X115601416Y-83011724D01*
X115601416Y-83508276D01*
X115601247Y-83509993D01*
X115601247Y-83510000D01*
X115600262Y-83519998D01*
X115597345Y-83529613D01*
X115592609Y-83538473D01*
X115586237Y-83546237D01*
X115578473Y-83552609D01*
X115578471Y-83552610D01*
X115569611Y-83557346D01*
X115559998Y-83560262D01*
X115550000Y-83561247D01*
X115549993Y-83561247D01*
X115548276Y-83561416D01*
X114051724Y-83561416D01*
X114050007Y-83561247D01*
X114050000Y-83561247D01*
X114040002Y-83560262D01*
X114030389Y-83557346D01*
X114021529Y-83552610D01*
X114021527Y-83552609D01*
X114013763Y-83546237D01*
X114007391Y-83538473D01*
X114002655Y-83529613D01*
X113999738Y-83519998D01*
X113998753Y-83510000D01*
X113998753Y-83509993D01*
X113998584Y-83508276D01*
X113998584Y-83011724D01*
X113998753Y-83010007D01*
X113998753Y-83010000D01*
X113999738Y-83000002D01*
X113999994Y-82997401D01*
X114000992Y-82990675D01*
X114000992Y-82962715D01*
X114001161Y-82960998D01*
X114001161Y-82960991D01*
X114002146Y-82950993D01*
X114002315Y-82949273D01*
X114020767Y-82856514D01*
X114021267Y-82854866D01*
X114021268Y-82854860D01*
X114024184Y-82845247D01*
X114024186Y-82845243D01*
X114024687Y-82843590D01*
X114060881Y-82756211D01*
X114067240Y-82744312D01*
X114119793Y-82665662D01*
X114128352Y-82655232D01*
X114195232Y-82588352D01*
X114205662Y-82579793D01*
X114284312Y-82527240D01*
X114292160Y-82523046D01*
X114294691Y-82521693D01*
X114294694Y-82521692D01*
X114296211Y-82520881D01*
X114383590Y-82484687D01*
X114385243Y-82484186D01*
X114385247Y-82484184D01*
X114394860Y-82481268D01*
X114394866Y-82481267D01*
X114396514Y-82480767D01*
X114489273Y-82462315D01*
X114493960Y-82461854D01*
X114500991Y-82461161D01*
X114500998Y-82461161D01*
X114502715Y-82460992D01*
X114530675Y-82460992D01*
X114537401Y-82459994D01*
X114540660Y-82459673D01*
X114550000Y-82458753D01*
X114550007Y-82458753D01*
X114551724Y-82458584D01*
X115048276Y-82458584D01*
X115049993Y-82458753D01*
X115049993Y-82458753D01*
G37*
G36*
X126045806Y-82647154D02*
G01*
X126074946Y-82655994D01*
X126101798Y-82670347D01*
X126125336Y-82689664D01*
X126144653Y-82713202D01*
X126159006Y-82740054D01*
X126167846Y-82769194D01*
X126171000Y-82801224D01*
X126171000Y-83178776D01*
X126167846Y-83210806D01*
X126159006Y-83239946D01*
X126144653Y-83266798D01*
X126125336Y-83290336D01*
X126101798Y-83309653D01*
X126074946Y-83324006D01*
X126045806Y-83332846D01*
X126013776Y-83336000D01*
X125586224Y-83336000D01*
X125554194Y-83332846D01*
X125525054Y-83324006D01*
X125498202Y-83309653D01*
X125474664Y-83290336D01*
X125455347Y-83266798D01*
X125440994Y-83239946D01*
X125432154Y-83210806D01*
X125429000Y-83178776D01*
X125429000Y-82801224D01*
X125432154Y-82769194D01*
X125440994Y-82740054D01*
X125455347Y-82713202D01*
X125474664Y-82689664D01*
X125498202Y-82670347D01*
X125525054Y-82655994D01*
X125554194Y-82647154D01*
X125586224Y-82644000D01*
X126013776Y-82644000D01*
X126045806Y-82647154D01*
X126045806Y-82647154D01*
G37*
G36*
X124795806Y-82647154D02*
G01*
X124824946Y-82655994D01*
X124851798Y-82670347D01*
X124875336Y-82689664D01*
X124894653Y-82713202D01*
X124909006Y-82740054D01*
X124917846Y-82769194D01*
X124921000Y-82801224D01*
X124921000Y-83178776D01*
X124917846Y-83210806D01*
X124909006Y-83239946D01*
X124894653Y-83266798D01*
X124875336Y-83290336D01*
X124851798Y-83309653D01*
X124824946Y-83324006D01*
X124795806Y-83332846D01*
X124763776Y-83336000D01*
X124336224Y-83336000D01*
X124304194Y-83332846D01*
X124275054Y-83324006D01*
X124248202Y-83309653D01*
X124224664Y-83290336D01*
X124205347Y-83266798D01*
X124190994Y-83239946D01*
X124182154Y-83210806D01*
X124179000Y-83178776D01*
X124179000Y-82801224D01*
X124182154Y-82769194D01*
X124190994Y-82740054D01*
X124205347Y-82713202D01*
X124224664Y-82689664D01*
X124248202Y-82670347D01*
X124275054Y-82655994D01*
X124304194Y-82647154D01*
X124336224Y-82644000D01*
X124763776Y-82644000D01*
X124795806Y-82647154D01*
X124795806Y-82647154D01*
G37*
G36*
X127365806Y-82627154D02*
G01*
X127394946Y-82635994D01*
X127421798Y-82650347D01*
X127445336Y-82669664D01*
X127464653Y-82693202D01*
X127479006Y-82720054D01*
X127487846Y-82749194D01*
X127491000Y-82781224D01*
X127491000Y-83158776D01*
X127487846Y-83190806D01*
X127479006Y-83219946D01*
X127464653Y-83246798D01*
X127445336Y-83270336D01*
X127421798Y-83289653D01*
X127394946Y-83304006D01*
X127365806Y-83312846D01*
X127333776Y-83316000D01*
X126906224Y-83316000D01*
X126874194Y-83312846D01*
X126845054Y-83304006D01*
X126818202Y-83289653D01*
X126794664Y-83270336D01*
X126775347Y-83246798D01*
X126760994Y-83219946D01*
X126752154Y-83190806D01*
X126749000Y-83158776D01*
X126749000Y-82781224D01*
X126752154Y-82749194D01*
X126760994Y-82720054D01*
X126775347Y-82693202D01*
X126794664Y-82669664D01*
X126818202Y-82650347D01*
X126845054Y-82635994D01*
X126874194Y-82627154D01*
X126906224Y-82624000D01*
X127333776Y-82624000D01*
X127365806Y-82627154D01*
X127365806Y-82627154D01*
G37*
G36*
X132460806Y-81932154D02*
G01*
X132489946Y-81940994D01*
X132516798Y-81955347D01*
X132540336Y-81974664D01*
X132559653Y-81998202D01*
X132574006Y-82025054D01*
X132582846Y-82054194D01*
X132586000Y-82086224D01*
X132586000Y-82513776D01*
X132582846Y-82545806D01*
X132574006Y-82574946D01*
X132559653Y-82601798D01*
X132540336Y-82625336D01*
X132516798Y-82644653D01*
X132489946Y-82659006D01*
X132460806Y-82667846D01*
X132428776Y-82671000D01*
X132051224Y-82671000D01*
X132019194Y-82667846D01*
X131990054Y-82659006D01*
X131963202Y-82644653D01*
X131939664Y-82625336D01*
X131920347Y-82601798D01*
X131905994Y-82574946D01*
X131897154Y-82545806D01*
X131894000Y-82513776D01*
X131894000Y-82086224D01*
X131897154Y-82054194D01*
X131905994Y-82025054D01*
X131920347Y-81998202D01*
X131939664Y-81974664D01*
X131963202Y-81955347D01*
X131990054Y-81940994D01*
X132019194Y-81932154D01*
X132051224Y-81929000D01*
X132428776Y-81929000D01*
X132460806Y-81932154D01*
X132460806Y-81932154D01*
G37*
G36*
X131490806Y-81932154D02*
G01*
X131519946Y-81940994D01*
X131546798Y-81955347D01*
X131570336Y-81974664D01*
X131589653Y-81998202D01*
X131604006Y-82025054D01*
X131612846Y-82054194D01*
X131616000Y-82086224D01*
X131616000Y-82513776D01*
X131612846Y-82545806D01*
X131604006Y-82574946D01*
X131589653Y-82601798D01*
X131570336Y-82625336D01*
X131546798Y-82644653D01*
X131519946Y-82659006D01*
X131490806Y-82667846D01*
X131458776Y-82671000D01*
X131081224Y-82671000D01*
X131049194Y-82667846D01*
X131020054Y-82659006D01*
X130993202Y-82644653D01*
X130969664Y-82625336D01*
X130950347Y-82601798D01*
X130935994Y-82574946D01*
X130927154Y-82545806D01*
X130924000Y-82513776D01*
X130924000Y-82086224D01*
X130927154Y-82054194D01*
X130935994Y-82025054D01*
X130950347Y-81998202D01*
X130969664Y-81974664D01*
X130993202Y-81955347D01*
X131020054Y-81940994D01*
X131049194Y-81932154D01*
X131081224Y-81929000D01*
X131458776Y-81929000D01*
X131490806Y-81932154D01*
X131490806Y-81932154D01*
G37*
G36*
X130400806Y-81922154D02*
G01*
X130429946Y-81930994D01*
X130456798Y-81945347D01*
X130480336Y-81964664D01*
X130499653Y-81988202D01*
X130514006Y-82015054D01*
X130522846Y-82044194D01*
X130526000Y-82076224D01*
X130526000Y-82503776D01*
X130522846Y-82535806D01*
X130514006Y-82564946D01*
X130499653Y-82591798D01*
X130480336Y-82615336D01*
X130456798Y-82634653D01*
X130429946Y-82649006D01*
X130400806Y-82657846D01*
X130368776Y-82661000D01*
X129991224Y-82661000D01*
X129959194Y-82657846D01*
X129930054Y-82649006D01*
X129903202Y-82634653D01*
X129879664Y-82615336D01*
X129860347Y-82591798D01*
X129845994Y-82564946D01*
X129837154Y-82535806D01*
X129834000Y-82503776D01*
X129834000Y-82076224D01*
X129837154Y-82044194D01*
X129845994Y-82015054D01*
X129860347Y-81988202D01*
X129879664Y-81964664D01*
X129903202Y-81945347D01*
X129930054Y-81930994D01*
X129959194Y-81922154D01*
X129991224Y-81919000D01*
X130368776Y-81919000D01*
X130400806Y-81922154D01*
X130400806Y-81922154D01*
G37*
G36*
X129430806Y-81922154D02*
G01*
X129459946Y-81930994D01*
X129486798Y-81945347D01*
X129510336Y-81964664D01*
X129529653Y-81988202D01*
X129544006Y-82015054D01*
X129552846Y-82044194D01*
X129556000Y-82076224D01*
X129556000Y-82503776D01*
X129552846Y-82535806D01*
X129544006Y-82564946D01*
X129529653Y-82591798D01*
X129510336Y-82615336D01*
X129486798Y-82634653D01*
X129459946Y-82649006D01*
X129430806Y-82657846D01*
X129398776Y-82661000D01*
X129021224Y-82661000D01*
X128989194Y-82657846D01*
X128960054Y-82649006D01*
X128933202Y-82634653D01*
X128909664Y-82615336D01*
X128890347Y-82591798D01*
X128875994Y-82564946D01*
X128867154Y-82535806D01*
X128864000Y-82503776D01*
X128864000Y-82076224D01*
X128867154Y-82044194D01*
X128875994Y-82015054D01*
X128890347Y-81988202D01*
X128909664Y-81964664D01*
X128933202Y-81945347D01*
X128960054Y-81930994D01*
X128989194Y-81922154D01*
X129021224Y-81919000D01*
X129398776Y-81919000D01*
X129430806Y-81922154D01*
X129430806Y-81922154D01*
G37*
G36*
X134131881Y-81086989D02*
G01*
X134197182Y-81099978D01*
X134320206Y-81150936D01*
X134430925Y-81224916D01*
X134525084Y-81319075D01*
X134599064Y-81429794D01*
X134650022Y-81552818D01*
X134663011Y-81618119D01*
X134676000Y-81683418D01*
X134676000Y-81816582D01*
X134673087Y-81831224D01*
X134650022Y-81947182D01*
X134599064Y-82070206D01*
X134525084Y-82180925D01*
X134430925Y-82275084D01*
X134320206Y-82349064D01*
X134197182Y-82400022D01*
X134131881Y-82413011D01*
X134066582Y-82426000D01*
X133933418Y-82426000D01*
X133868119Y-82413011D01*
X133802818Y-82400022D01*
X133679794Y-82349064D01*
X133569075Y-82275084D01*
X133474916Y-82180925D01*
X133400936Y-82070206D01*
X133349978Y-81947182D01*
X133326913Y-81831224D01*
X133324000Y-81816582D01*
X133324000Y-81683418D01*
X133336989Y-81618119D01*
X133349978Y-81552818D01*
X133400936Y-81429794D01*
X133474916Y-81319075D01*
X133569075Y-81224916D01*
X133679794Y-81150936D01*
X133802818Y-81099978D01*
X133868119Y-81086989D01*
X133933418Y-81074000D01*
X134066582Y-81074000D01*
X134131881Y-81086989D01*
X134131881Y-81086989D01*
G37*
G36*
X124795806Y-81677154D02*
G01*
X124824946Y-81685994D01*
X124851798Y-81700347D01*
X124875336Y-81719664D01*
X124894653Y-81743202D01*
X124909006Y-81770054D01*
X124917846Y-81799194D01*
X124921000Y-81831224D01*
X124921000Y-82208776D01*
X124917846Y-82240806D01*
X124909006Y-82269946D01*
X124894653Y-82296798D01*
X124875336Y-82320336D01*
X124851798Y-82339653D01*
X124824946Y-82354006D01*
X124795806Y-82362846D01*
X124763776Y-82366000D01*
X124336224Y-82366000D01*
X124304194Y-82362846D01*
X124275054Y-82354006D01*
X124248202Y-82339653D01*
X124224664Y-82320336D01*
X124205347Y-82296798D01*
X124190994Y-82269946D01*
X124182154Y-82240806D01*
X124179000Y-82208776D01*
X124179000Y-81831224D01*
X124182154Y-81799194D01*
X124190994Y-81770054D01*
X124205347Y-81743202D01*
X124224664Y-81719664D01*
X124248202Y-81700347D01*
X124275054Y-81685994D01*
X124304194Y-81677154D01*
X124336224Y-81674000D01*
X124763776Y-81674000D01*
X124795806Y-81677154D01*
X124795806Y-81677154D01*
G37*
G36*
X126045806Y-81677154D02*
G01*
X126074946Y-81685994D01*
X126101798Y-81700347D01*
X126125336Y-81719664D01*
X126144653Y-81743202D01*
X126159006Y-81770054D01*
X126167846Y-81799194D01*
X126171000Y-81831224D01*
X126171000Y-82208776D01*
X126167846Y-82240806D01*
X126159006Y-82269946D01*
X126144653Y-82296798D01*
X126125336Y-82320336D01*
X126101798Y-82339653D01*
X126074946Y-82354006D01*
X126045806Y-82362846D01*
X126013776Y-82366000D01*
X125586224Y-82366000D01*
X125554194Y-82362846D01*
X125525054Y-82354006D01*
X125498202Y-82339653D01*
X125474664Y-82320336D01*
X125455347Y-82296798D01*
X125440994Y-82269946D01*
X125432154Y-82240806D01*
X125429000Y-82208776D01*
X125429000Y-81831224D01*
X125432154Y-81799194D01*
X125440994Y-81770054D01*
X125455347Y-81743202D01*
X125474664Y-81719664D01*
X125498202Y-81700347D01*
X125525054Y-81685994D01*
X125554194Y-81677154D01*
X125586224Y-81674000D01*
X126013776Y-81674000D01*
X126045806Y-81677154D01*
X126045806Y-81677154D01*
G37*
G36*
X127365806Y-81657154D02*
G01*
X127394946Y-81665994D01*
X127421798Y-81680347D01*
X127445336Y-81699664D01*
X127464653Y-81723202D01*
X127479006Y-81750054D01*
X127487846Y-81779194D01*
X127491000Y-81811224D01*
X127491000Y-82188776D01*
X127487846Y-82220806D01*
X127479006Y-82249946D01*
X127464653Y-82276798D01*
X127445336Y-82300336D01*
X127421798Y-82319653D01*
X127394946Y-82334006D01*
X127365806Y-82342846D01*
X127333776Y-82346000D01*
X126906224Y-82346000D01*
X126874194Y-82342846D01*
X126845054Y-82334006D01*
X126818202Y-82319653D01*
X126794664Y-82300336D01*
X126775347Y-82276798D01*
X126760994Y-82249946D01*
X126752154Y-82220806D01*
X126749000Y-82188776D01*
X126749000Y-81811224D01*
X126752154Y-81779194D01*
X126760994Y-81750054D01*
X126775347Y-81723202D01*
X126794664Y-81699664D01*
X126818202Y-81680347D01*
X126845054Y-81665994D01*
X126874194Y-81657154D01*
X126906224Y-81654000D01*
X127333776Y-81654000D01*
X127365806Y-81657154D01*
X127365806Y-81657154D01*
G37*
G36*
X116820806Y-81552154D02*
G01*
X116849946Y-81560994D01*
X116876798Y-81575347D01*
X116900336Y-81594664D01*
X116919653Y-81618202D01*
X116934006Y-81645054D01*
X116942846Y-81674194D01*
X116946000Y-81706224D01*
X116946000Y-82133776D01*
X116942846Y-82165806D01*
X116934006Y-82194946D01*
X116919653Y-82221798D01*
X116900336Y-82245336D01*
X116876798Y-82264653D01*
X116849946Y-82279006D01*
X116820806Y-82287846D01*
X116788776Y-82291000D01*
X116411224Y-82291000D01*
X116379194Y-82287846D01*
X116350054Y-82279006D01*
X116323202Y-82264653D01*
X116299664Y-82245336D01*
X116280347Y-82221798D01*
X116265994Y-82194946D01*
X116257154Y-82165806D01*
X116254000Y-82133776D01*
X116254000Y-81706224D01*
X116257154Y-81674194D01*
X116265994Y-81645054D01*
X116280347Y-81618202D01*
X116299664Y-81594664D01*
X116323202Y-81575347D01*
X116350054Y-81560994D01*
X116379194Y-81552154D01*
X116411224Y-81549000D01*
X116788776Y-81549000D01*
X116820806Y-81552154D01*
X116820806Y-81552154D01*
G37*
G36*
X117790806Y-81552154D02*
G01*
X117819946Y-81560994D01*
X117846798Y-81575347D01*
X117870336Y-81594664D01*
X117889653Y-81618202D01*
X117904006Y-81645054D01*
X117912846Y-81674194D01*
X117916000Y-81706224D01*
X117916000Y-82133776D01*
X117912846Y-82165806D01*
X117904006Y-82194946D01*
X117889653Y-82221798D01*
X117870336Y-82245336D01*
X117846798Y-82264653D01*
X117819946Y-82279006D01*
X117790806Y-82287846D01*
X117758776Y-82291000D01*
X117381224Y-82291000D01*
X117349194Y-82287846D01*
X117320054Y-82279006D01*
X117293202Y-82264653D01*
X117269664Y-82245336D01*
X117250347Y-82221798D01*
X117235994Y-82194946D01*
X117227154Y-82165806D01*
X117224000Y-82133776D01*
X117224000Y-81706224D01*
X117227154Y-81674194D01*
X117235994Y-81645054D01*
X117250347Y-81618202D01*
X117269664Y-81594664D01*
X117293202Y-81575347D01*
X117320054Y-81560994D01*
X117349194Y-81552154D01*
X117381224Y-81549000D01*
X117758776Y-81549000D01*
X117790806Y-81552154D01*
X117790806Y-81552154D01*
G37*
G36*
X132460806Y-80812154D02*
G01*
X132489946Y-80820994D01*
X132516798Y-80835347D01*
X132540336Y-80854664D01*
X132559653Y-80878202D01*
X132574006Y-80905054D01*
X132582846Y-80934194D01*
X132586000Y-80966224D01*
X132586000Y-81393776D01*
X132582846Y-81425806D01*
X132574006Y-81454946D01*
X132559653Y-81481798D01*
X132540336Y-81505336D01*
X132516798Y-81524653D01*
X132489946Y-81539006D01*
X132460806Y-81547846D01*
X132428776Y-81551000D01*
X132051224Y-81551000D01*
X132019194Y-81547846D01*
X131990054Y-81539006D01*
X131963202Y-81524653D01*
X131939664Y-81505336D01*
X131920347Y-81481798D01*
X131905994Y-81454946D01*
X131897154Y-81425806D01*
X131894000Y-81393776D01*
X131894000Y-80966224D01*
X131897154Y-80934194D01*
X131905994Y-80905054D01*
X131920347Y-80878202D01*
X131939664Y-80854664D01*
X131963202Y-80835347D01*
X131990054Y-80820994D01*
X132019194Y-80812154D01*
X132051224Y-80809000D01*
X132428776Y-80809000D01*
X132460806Y-80812154D01*
X132460806Y-80812154D01*
G37*
G36*
X131490806Y-80812154D02*
G01*
X131519946Y-80820994D01*
X131546798Y-80835347D01*
X131570336Y-80854664D01*
X131589653Y-80878202D01*
X131604006Y-80905054D01*
X131612846Y-80934194D01*
X131616000Y-80966224D01*
X131616000Y-81393776D01*
X131612846Y-81425806D01*
X131604006Y-81454946D01*
X131589653Y-81481798D01*
X131570336Y-81505336D01*
X131546798Y-81524653D01*
X131519946Y-81539006D01*
X131490806Y-81547846D01*
X131458776Y-81551000D01*
X131081224Y-81551000D01*
X131049194Y-81547846D01*
X131020054Y-81539006D01*
X130993202Y-81524653D01*
X130969664Y-81505336D01*
X130950347Y-81481798D01*
X130935994Y-81454946D01*
X130927154Y-81425806D01*
X130924000Y-81393776D01*
X130924000Y-80966224D01*
X130927154Y-80934194D01*
X130935994Y-80905054D01*
X130950347Y-80878202D01*
X130969664Y-80854664D01*
X130993202Y-80835347D01*
X131020054Y-80820994D01*
X131049194Y-80812154D01*
X131081224Y-80809000D01*
X131458776Y-80809000D01*
X131490806Y-80812154D01*
X131490806Y-80812154D01*
G37*
G36*
X123235806Y-80657154D02*
G01*
X123264946Y-80665994D01*
X123291798Y-80680347D01*
X123315336Y-80699664D01*
X123334653Y-80723202D01*
X123349006Y-80750054D01*
X123357846Y-80779194D01*
X123361000Y-80811224D01*
X123361000Y-81188776D01*
X123357846Y-81220806D01*
X123349006Y-81249946D01*
X123334653Y-81276798D01*
X123315336Y-81300336D01*
X123291798Y-81319653D01*
X123264946Y-81334006D01*
X123235806Y-81342846D01*
X123203776Y-81346000D01*
X122776224Y-81346000D01*
X122744194Y-81342846D01*
X122715054Y-81334006D01*
X122688202Y-81319653D01*
X122664664Y-81300336D01*
X122645347Y-81276798D01*
X122630994Y-81249946D01*
X122622154Y-81220806D01*
X122619000Y-81188776D01*
X122619000Y-80811224D01*
X122622154Y-80779194D01*
X122630994Y-80750054D01*
X122645347Y-80723202D01*
X122664664Y-80699664D01*
X122688202Y-80680347D01*
X122715054Y-80665994D01*
X122744194Y-80657154D01*
X122776224Y-80654000D01*
X123203776Y-80654000D01*
X123235806Y-80657154D01*
X123235806Y-80657154D01*
G37*
G36*
X115059161Y-80090761D02*
G01*
X115074697Y-80095474D01*
X115089020Y-80103129D01*
X115101570Y-80113430D01*
X115111871Y-80125980D01*
X115119526Y-80140303D01*
X115124239Y-80155839D01*
X115126000Y-80173724D01*
X115126000Y-80931276D01*
X115124239Y-80949161D01*
X115119526Y-80964697D01*
X115111871Y-80979020D01*
X115101570Y-80991570D01*
X115089020Y-81001871D01*
X115074697Y-81009526D01*
X115059161Y-81014239D01*
X115041276Y-81016000D01*
X114808724Y-81016000D01*
X114790839Y-81014239D01*
X114775303Y-81009526D01*
X114760980Y-81001871D01*
X114748430Y-80991570D01*
X114738129Y-80979020D01*
X114730474Y-80964697D01*
X114725761Y-80949161D01*
X114724000Y-80931276D01*
X114724000Y-80173724D01*
X114725761Y-80155839D01*
X114730474Y-80140303D01*
X114738129Y-80125980D01*
X114748430Y-80113430D01*
X114760980Y-80103129D01*
X114775303Y-80095474D01*
X114790839Y-80090761D01*
X114808724Y-80089000D01*
X115041276Y-80089000D01*
X115059161Y-80090761D01*
X115059161Y-80090761D01*
G37*
G36*
X115709161Y-80090761D02*
G01*
X115724697Y-80095474D01*
X115739020Y-80103129D01*
X115751570Y-80113430D01*
X115761871Y-80125980D01*
X115769526Y-80140303D01*
X115774239Y-80155839D01*
X115776000Y-80173724D01*
X115776000Y-80931276D01*
X115774239Y-80949161D01*
X115769526Y-80964697D01*
X115761871Y-80979020D01*
X115751570Y-80991570D01*
X115739020Y-81001871D01*
X115724697Y-81009526D01*
X115709161Y-81014239D01*
X115691276Y-81016000D01*
X115458724Y-81016000D01*
X115440839Y-81014239D01*
X115425303Y-81009526D01*
X115410980Y-81001871D01*
X115398430Y-80991570D01*
X115388129Y-80979020D01*
X115380474Y-80964697D01*
X115375761Y-80949161D01*
X115374000Y-80931276D01*
X115374000Y-80173724D01*
X115375761Y-80155839D01*
X115380474Y-80140303D01*
X115388129Y-80125980D01*
X115398430Y-80113430D01*
X115410980Y-80103129D01*
X115425303Y-80095474D01*
X115440839Y-80090761D01*
X115458724Y-80089000D01*
X115691276Y-80089000D01*
X115709161Y-80090761D01*
X115709161Y-80090761D01*
G37*
G36*
X116359161Y-80090761D02*
G01*
X116374697Y-80095474D01*
X116389020Y-80103129D01*
X116401570Y-80113430D01*
X116411871Y-80125980D01*
X116419526Y-80140303D01*
X116424239Y-80155839D01*
X116426000Y-80173724D01*
X116426000Y-80931276D01*
X116424239Y-80949161D01*
X116419526Y-80964697D01*
X116411871Y-80979020D01*
X116401570Y-80991570D01*
X116389020Y-81001871D01*
X116374697Y-81009526D01*
X116359161Y-81014239D01*
X116341276Y-81016000D01*
X116108724Y-81016000D01*
X116090839Y-81014239D01*
X116075303Y-81009526D01*
X116060980Y-81001871D01*
X116048430Y-80991570D01*
X116038129Y-80979020D01*
X116030474Y-80964697D01*
X116025761Y-80949161D01*
X116024000Y-80931276D01*
X116024000Y-80173724D01*
X116025761Y-80155839D01*
X116030474Y-80140303D01*
X116038129Y-80125980D01*
X116048430Y-80113430D01*
X116060980Y-80103129D01*
X116075303Y-80095474D01*
X116090839Y-80090761D01*
X116108724Y-80089000D01*
X116341276Y-80089000D01*
X116359161Y-80090761D01*
X116359161Y-80090761D01*
G37*
G36*
X114409161Y-80090761D02*
G01*
X114424697Y-80095474D01*
X114439020Y-80103129D01*
X114451570Y-80113430D01*
X114461871Y-80125980D01*
X114469526Y-80140303D01*
X114474239Y-80155839D01*
X114476000Y-80173724D01*
X114476000Y-80931276D01*
X114474239Y-80949161D01*
X114469526Y-80964697D01*
X114461871Y-80979020D01*
X114451570Y-80991570D01*
X114439020Y-81001871D01*
X114424697Y-81009526D01*
X114409161Y-81014239D01*
X114391276Y-81016000D01*
X114158724Y-81016000D01*
X114140839Y-81014239D01*
X114125303Y-81009526D01*
X114110980Y-81001871D01*
X114098430Y-80991570D01*
X114088129Y-80979020D01*
X114080474Y-80964697D01*
X114075761Y-80949161D01*
X114074000Y-80931276D01*
X114074000Y-80173724D01*
X114075761Y-80155839D01*
X114080474Y-80140303D01*
X114088129Y-80125980D01*
X114098430Y-80113430D01*
X114110980Y-80103129D01*
X114125303Y-80095474D01*
X114140839Y-80090761D01*
X114158724Y-80089000D01*
X114391276Y-80089000D01*
X114409161Y-80090761D01*
X114409161Y-80090761D01*
G37*
G36*
X125419217Y-79500520D02*
G01*
X125432417Y-79504524D01*
X125444571Y-79511020D01*
X125455231Y-79519769D01*
X125463980Y-79530429D01*
X125470476Y-79542583D01*
X125474480Y-79555783D01*
X125476000Y-79571214D01*
X125476000Y-80403786D01*
X125474480Y-80419217D01*
X125470476Y-80432417D01*
X125463980Y-80444571D01*
X125455231Y-80455231D01*
X125444571Y-80463980D01*
X125432417Y-80470476D01*
X125419217Y-80474480D01*
X125403786Y-80476000D01*
X125196214Y-80476000D01*
X125180783Y-80474480D01*
X125167583Y-80470476D01*
X125155429Y-80463980D01*
X125144769Y-80455231D01*
X125136020Y-80444571D01*
X125129524Y-80432417D01*
X125125520Y-80419217D01*
X125124000Y-80403786D01*
X125124000Y-79571214D01*
X125125520Y-79555783D01*
X125129524Y-79542583D01*
X125136020Y-79530429D01*
X125144769Y-79519769D01*
X125155429Y-79511020D01*
X125167583Y-79504524D01*
X125180783Y-79500520D01*
X125196214Y-79499000D01*
X125403786Y-79499000D01*
X125419217Y-79500520D01*
X125419217Y-79500520D01*
G37*
G36*
X127919217Y-79500520D02*
G01*
X127932417Y-79504524D01*
X127944571Y-79511020D01*
X127955231Y-79519769D01*
X127963980Y-79530429D01*
X127970476Y-79542583D01*
X127974480Y-79555783D01*
X127976000Y-79571214D01*
X127976000Y-80403786D01*
X127974480Y-80419217D01*
X127970476Y-80432417D01*
X127963980Y-80444571D01*
X127955231Y-80455231D01*
X127944571Y-80463980D01*
X127932417Y-80470476D01*
X127919217Y-80474480D01*
X127903786Y-80476000D01*
X127696214Y-80476000D01*
X127680783Y-80474480D01*
X127667583Y-80470476D01*
X127655429Y-80463980D01*
X127644769Y-80455231D01*
X127636020Y-80444571D01*
X127629524Y-80432417D01*
X127625520Y-80419217D01*
X127624000Y-80403786D01*
X127624000Y-79571214D01*
X127625520Y-79555783D01*
X127629524Y-79542583D01*
X127636020Y-79530429D01*
X127644769Y-79519769D01*
X127655429Y-79511020D01*
X127667583Y-79504524D01*
X127680783Y-79500520D01*
X127696214Y-79499000D01*
X127903786Y-79499000D01*
X127919217Y-79500520D01*
X127919217Y-79500520D01*
G37*
G36*
X128919217Y-79500520D02*
G01*
X128932417Y-79504524D01*
X128944571Y-79511020D01*
X128955231Y-79519769D01*
X128963980Y-79530429D01*
X128970476Y-79542583D01*
X128974480Y-79555783D01*
X128976000Y-79571214D01*
X128976000Y-80403786D01*
X128974480Y-80419217D01*
X128970476Y-80432417D01*
X128963980Y-80444571D01*
X128955231Y-80455231D01*
X128944571Y-80463980D01*
X128932417Y-80470476D01*
X128919217Y-80474480D01*
X128903786Y-80476000D01*
X128696214Y-80476000D01*
X128680783Y-80474480D01*
X128667583Y-80470476D01*
X128655429Y-80463980D01*
X128644769Y-80455231D01*
X128636020Y-80444571D01*
X128629524Y-80432417D01*
X128625520Y-80419217D01*
X128624000Y-80403786D01*
X128624000Y-79571214D01*
X128625520Y-79555783D01*
X128629524Y-79542583D01*
X128636020Y-79530429D01*
X128644769Y-79519769D01*
X128655429Y-79511020D01*
X128667583Y-79504524D01*
X128680783Y-79500520D01*
X128696214Y-79499000D01*
X128903786Y-79499000D01*
X128919217Y-79500520D01*
X128919217Y-79500520D01*
G37*
G36*
X125919217Y-79500520D02*
G01*
X125932417Y-79504524D01*
X125944571Y-79511020D01*
X125955231Y-79519769D01*
X125963980Y-79530429D01*
X125970476Y-79542583D01*
X125974480Y-79555783D01*
X125976000Y-79571214D01*
X125976000Y-80403786D01*
X125974480Y-80419217D01*
X125970476Y-80432417D01*
X125963980Y-80444571D01*
X125955231Y-80455231D01*
X125944571Y-80463980D01*
X125932417Y-80470476D01*
X125919217Y-80474480D01*
X125903786Y-80476000D01*
X125696214Y-80476000D01*
X125680783Y-80474480D01*
X125667583Y-80470476D01*
X125655429Y-80463980D01*
X125644769Y-80455231D01*
X125636020Y-80444571D01*
X125629524Y-80432417D01*
X125625520Y-80419217D01*
X125624000Y-80403786D01*
X125624000Y-79571214D01*
X125625520Y-79555783D01*
X125629524Y-79542583D01*
X125636020Y-79530429D01*
X125644769Y-79519769D01*
X125655429Y-79511020D01*
X125667583Y-79504524D01*
X125680783Y-79500520D01*
X125696214Y-79499000D01*
X125903786Y-79499000D01*
X125919217Y-79500520D01*
X125919217Y-79500520D01*
G37*
G36*
X126419217Y-79500520D02*
G01*
X126432417Y-79504524D01*
X126444571Y-79511020D01*
X126455231Y-79519769D01*
X126463980Y-79530429D01*
X126470476Y-79542583D01*
X126474480Y-79555783D01*
X126476000Y-79571214D01*
X126476000Y-80403786D01*
X126474480Y-80419217D01*
X126470476Y-80432417D01*
X126463980Y-80444571D01*
X126455231Y-80455231D01*
X126444571Y-80463980D01*
X126432417Y-80470476D01*
X126419217Y-80474480D01*
X126403786Y-80476000D01*
X126196214Y-80476000D01*
X126180783Y-80474480D01*
X126167583Y-80470476D01*
X126155429Y-80463980D01*
X126144769Y-80455231D01*
X126136020Y-80444571D01*
X126129524Y-80432417D01*
X126125520Y-80419217D01*
X126124000Y-80403786D01*
X126124000Y-79571214D01*
X126125520Y-79555783D01*
X126129524Y-79542583D01*
X126136020Y-79530429D01*
X126144769Y-79519769D01*
X126155429Y-79511020D01*
X126167583Y-79504524D01*
X126180783Y-79500520D01*
X126196214Y-79499000D01*
X126403786Y-79499000D01*
X126419217Y-79500520D01*
X126419217Y-79500520D01*
G37*
G36*
X128419217Y-79500520D02*
G01*
X128432417Y-79504524D01*
X128444571Y-79511020D01*
X128455231Y-79519769D01*
X128463980Y-79530429D01*
X128470476Y-79542583D01*
X128474480Y-79555783D01*
X128476000Y-79571214D01*
X128476000Y-80403786D01*
X128474480Y-80419217D01*
X128470476Y-80432417D01*
X128463980Y-80444571D01*
X128455231Y-80455231D01*
X128444571Y-80463980D01*
X128432417Y-80470476D01*
X128419217Y-80474480D01*
X128403786Y-80476000D01*
X128196214Y-80476000D01*
X128180783Y-80474480D01*
X128167583Y-80470476D01*
X128155429Y-80463980D01*
X128144769Y-80455231D01*
X128136020Y-80444571D01*
X128129524Y-80432417D01*
X128125520Y-80419217D01*
X128124000Y-80403786D01*
X128124000Y-79571214D01*
X128125520Y-79555783D01*
X128129524Y-79542583D01*
X128136020Y-79530429D01*
X128144769Y-79519769D01*
X128155429Y-79511020D01*
X128167583Y-79504524D01*
X128180783Y-79500520D01*
X128196214Y-79499000D01*
X128403786Y-79499000D01*
X128419217Y-79500520D01*
X128419217Y-79500520D01*
G37*
G36*
X126919217Y-79500520D02*
G01*
X126932417Y-79504524D01*
X126944571Y-79511020D01*
X126955231Y-79519769D01*
X126963980Y-79530429D01*
X126970476Y-79542583D01*
X126974480Y-79555783D01*
X126976000Y-79571214D01*
X126976000Y-80403786D01*
X126974480Y-80419217D01*
X126970476Y-80432417D01*
X126963980Y-80444571D01*
X126955231Y-80455231D01*
X126944571Y-80463980D01*
X126932417Y-80470476D01*
X126919217Y-80474480D01*
X126903786Y-80476000D01*
X126696214Y-80476000D01*
X126680783Y-80474480D01*
X126667583Y-80470476D01*
X126655429Y-80463980D01*
X126644769Y-80455231D01*
X126636020Y-80444571D01*
X126629524Y-80432417D01*
X126625520Y-80419217D01*
X126624000Y-80403786D01*
X126624000Y-79571214D01*
X126625520Y-79555783D01*
X126629524Y-79542583D01*
X126636020Y-79530429D01*
X126644769Y-79519769D01*
X126655429Y-79511020D01*
X126667583Y-79504524D01*
X126680783Y-79500520D01*
X126696214Y-79499000D01*
X126903786Y-79499000D01*
X126919217Y-79500520D01*
X126919217Y-79500520D01*
G37*
G36*
X127419217Y-79500520D02*
G01*
X127432417Y-79504524D01*
X127444571Y-79511020D01*
X127455231Y-79519769D01*
X127463980Y-79530429D01*
X127470476Y-79542583D01*
X127474480Y-79555783D01*
X127476000Y-79571214D01*
X127476000Y-80403786D01*
X127474480Y-80419217D01*
X127470476Y-80432417D01*
X127463980Y-80444571D01*
X127455231Y-80455231D01*
X127444571Y-80463980D01*
X127432417Y-80470476D01*
X127419217Y-80474480D01*
X127403786Y-80476000D01*
X127196214Y-80476000D01*
X127180783Y-80474480D01*
X127167583Y-80470476D01*
X127155429Y-80463980D01*
X127144769Y-80455231D01*
X127136020Y-80444571D01*
X127129524Y-80432417D01*
X127125520Y-80419217D01*
X127124000Y-80403786D01*
X127124000Y-79571214D01*
X127125520Y-79555783D01*
X127129524Y-79542583D01*
X127136020Y-79530429D01*
X127144769Y-79519769D01*
X127155429Y-79511020D01*
X127167583Y-79504524D01*
X127180783Y-79500520D01*
X127196214Y-79499000D01*
X127403786Y-79499000D01*
X127419217Y-79500520D01*
X127419217Y-79500520D01*
G37*
G36*
X119601000Y-80461000D02*
G01*
X119199000Y-80461000D01*
X119199000Y-78959000D01*
X119601000Y-78959000D01*
X119601000Y-80461000D01*
X119601000Y-80461000D01*
G37*
G36*
X120101000Y-80461000D02*
G01*
X119699000Y-80461000D01*
X119699000Y-78959000D01*
X120101000Y-78959000D01*
X120101000Y-80461000D01*
X120101000Y-80461000D01*
G37*
G36*
X120601000Y-80461000D02*
G01*
X120199000Y-80461000D01*
X120199000Y-78959000D01*
X120601000Y-78959000D01*
X120601000Y-80461000D01*
X120601000Y-80461000D01*
G37*
G36*
X121101000Y-80461000D02*
G01*
X120699000Y-80461000D01*
X120699000Y-78959000D01*
X121101000Y-78959000D01*
X121101000Y-80461000D01*
X121101000Y-80461000D01*
G37*
G36*
X121601000Y-80461000D02*
G01*
X121199000Y-80461000D01*
X121199000Y-78959000D01*
X121601000Y-78959000D01*
X121601000Y-80461000D01*
X121601000Y-80461000D01*
G37*
G36*
X123235806Y-79687154D02*
G01*
X123264946Y-79695994D01*
X123291798Y-79710347D01*
X123315336Y-79729664D01*
X123334653Y-79753202D01*
X123349006Y-79780054D01*
X123357846Y-79809194D01*
X123361000Y-79841224D01*
X123361000Y-80218776D01*
X123357846Y-80250806D01*
X123349006Y-80279946D01*
X123334653Y-80306798D01*
X123315336Y-80330336D01*
X123291798Y-80349653D01*
X123264946Y-80364006D01*
X123235806Y-80372846D01*
X123203776Y-80376000D01*
X122776224Y-80376000D01*
X122744194Y-80372846D01*
X122715054Y-80364006D01*
X122688202Y-80349653D01*
X122664664Y-80330336D01*
X122645347Y-80306798D01*
X122630994Y-80279946D01*
X122622154Y-80250806D01*
X122619000Y-80218776D01*
X122619000Y-79841224D01*
X122622154Y-79809194D01*
X122630994Y-79780054D01*
X122645347Y-79753202D01*
X122664664Y-79729664D01*
X122688202Y-79710347D01*
X122715054Y-79695994D01*
X122744194Y-79687154D01*
X122776224Y-79684000D01*
X123203776Y-79684000D01*
X123235806Y-79687154D01*
X123235806Y-79687154D01*
G37*
G36*
X134131881Y-78836989D02*
G01*
X134197182Y-78849978D01*
X134320206Y-78900936D01*
X134430925Y-78974916D01*
X134525084Y-79069075D01*
X134599064Y-79179794D01*
X134650022Y-79302818D01*
X134661029Y-79358156D01*
X134676000Y-79433418D01*
X134676000Y-79566582D01*
X134663011Y-79631881D01*
X134650022Y-79697182D01*
X134599064Y-79820206D01*
X134525084Y-79930925D01*
X134430925Y-80025084D01*
X134320206Y-80099064D01*
X134197182Y-80150022D01*
X134131881Y-80163011D01*
X134066582Y-80176000D01*
X133933418Y-80176000D01*
X133868119Y-80163011D01*
X133802818Y-80150022D01*
X133679794Y-80099064D01*
X133569075Y-80025084D01*
X133474916Y-79930925D01*
X133400936Y-79820206D01*
X133349978Y-79697182D01*
X133336989Y-79631881D01*
X133324000Y-79566582D01*
X133324000Y-79433418D01*
X133338971Y-79358156D01*
X133349978Y-79302818D01*
X133400936Y-79179794D01*
X133474916Y-79069075D01*
X133569075Y-78974916D01*
X133679794Y-78900936D01*
X133802818Y-78849978D01*
X133868119Y-78836989D01*
X133933418Y-78824000D01*
X134066582Y-78824000D01*
X134131881Y-78836989D01*
X134131881Y-78836989D01*
G37*
G36*
X131170806Y-79332154D02*
G01*
X131199946Y-79340994D01*
X131226798Y-79355347D01*
X131250336Y-79374664D01*
X131269653Y-79398202D01*
X131284006Y-79425054D01*
X131292846Y-79454194D01*
X131296000Y-79486224D01*
X131296000Y-79913776D01*
X131292846Y-79945806D01*
X131284006Y-79974946D01*
X131269653Y-80001798D01*
X131250336Y-80025336D01*
X131226798Y-80044653D01*
X131199946Y-80059006D01*
X131170806Y-80067846D01*
X131138776Y-80071000D01*
X130761224Y-80071000D01*
X130729194Y-80067846D01*
X130700054Y-80059006D01*
X130673202Y-80044653D01*
X130649664Y-80025336D01*
X130630347Y-80001798D01*
X130615994Y-79974946D01*
X130607154Y-79945806D01*
X130604000Y-79913776D01*
X130604000Y-79486224D01*
X130607154Y-79454194D01*
X130615994Y-79425054D01*
X130630347Y-79398202D01*
X130649664Y-79374664D01*
X130673202Y-79355347D01*
X130700054Y-79340994D01*
X130729194Y-79332154D01*
X130761224Y-79329000D01*
X131138776Y-79329000D01*
X131170806Y-79332154D01*
X131170806Y-79332154D01*
G37*
G36*
X132140806Y-79332154D02*
G01*
X132169946Y-79340994D01*
X132196798Y-79355347D01*
X132220336Y-79374664D01*
X132239653Y-79398202D01*
X132254006Y-79425054D01*
X132262846Y-79454194D01*
X132266000Y-79486224D01*
X132266000Y-79913776D01*
X132262846Y-79945806D01*
X132254006Y-79974946D01*
X132239653Y-80001798D01*
X132220336Y-80025336D01*
X132196798Y-80044653D01*
X132169946Y-80059006D01*
X132140806Y-80067846D01*
X132108776Y-80071000D01*
X131731224Y-80071000D01*
X131699194Y-80067846D01*
X131670054Y-80059006D01*
X131643202Y-80044653D01*
X131619664Y-80025336D01*
X131600347Y-80001798D01*
X131585994Y-79974946D01*
X131577154Y-79945806D01*
X131574000Y-79913776D01*
X131574000Y-79486224D01*
X131577154Y-79454194D01*
X131585994Y-79425054D01*
X131600347Y-79398202D01*
X131619664Y-79374664D01*
X131643202Y-79355347D01*
X131670054Y-79340994D01*
X131699194Y-79332154D01*
X131731224Y-79329000D01*
X132108776Y-79329000D01*
X132140806Y-79332154D01*
X132140806Y-79332154D01*
G37*
G36*
X110764038Y-78655429D02*
G01*
X110837182Y-78669978D01*
X110960206Y-78720936D01*
X111070925Y-78794916D01*
X111165084Y-78889075D01*
X111239064Y-78999794D01*
X111290022Y-79122818D01*
X111298036Y-79163110D01*
X111316000Y-79253418D01*
X111316000Y-79386582D01*
X111305993Y-79436890D01*
X111290022Y-79517182D01*
X111239064Y-79640206D01*
X111165084Y-79750925D01*
X111070925Y-79845084D01*
X110960206Y-79919064D01*
X110837182Y-79970022D01*
X110771881Y-79983011D01*
X110706582Y-79996000D01*
X110573418Y-79996000D01*
X110508119Y-79983011D01*
X110442818Y-79970022D01*
X110319794Y-79919064D01*
X110209075Y-79845084D01*
X110114916Y-79750925D01*
X110040936Y-79640206D01*
X109989978Y-79517182D01*
X109974007Y-79436890D01*
X109964000Y-79386582D01*
X109964000Y-79253418D01*
X109981964Y-79163110D01*
X109989978Y-79122818D01*
X110040936Y-78999794D01*
X110114916Y-78889075D01*
X110209075Y-78794916D01*
X110319794Y-78720936D01*
X110442818Y-78669978D01*
X110515962Y-78655429D01*
X110573418Y-78644000D01*
X110706582Y-78644000D01*
X110764038Y-78655429D01*
X110764038Y-78655429D01*
G37*
G36*
X116465091Y-77193603D02*
G01*
X116508379Y-77206734D01*
X116548274Y-77228059D01*
X116583243Y-77256757D01*
X116611941Y-77291726D01*
X116633266Y-77331621D01*
X116646397Y-77374909D01*
X116651000Y-77421642D01*
X116651000Y-79758358D01*
X116646397Y-79805091D01*
X116633266Y-79848379D01*
X116611941Y-79888274D01*
X116583243Y-79923243D01*
X116548274Y-79951941D01*
X116508379Y-79973266D01*
X116465091Y-79986397D01*
X116418358Y-79991000D01*
X114081642Y-79991000D01*
X114034909Y-79986397D01*
X113991621Y-79973266D01*
X113951726Y-79951941D01*
X113916757Y-79923243D01*
X113888059Y-79888274D01*
X113866734Y-79848379D01*
X113853603Y-79805091D01*
X113849000Y-79758358D01*
X113849000Y-77421642D01*
X113853603Y-77374909D01*
X113866734Y-77331621D01*
X113888059Y-77291726D01*
X113916757Y-77256757D01*
X113951726Y-77228059D01*
X113991621Y-77206734D01*
X114034909Y-77193603D01*
X114081642Y-77189000D01*
X116418358Y-77189000D01*
X116465091Y-77193603D01*
X116465091Y-77193603D01*
G37*
G36*
X113684161Y-79365761D02*
G01*
X113699697Y-79370474D01*
X113714020Y-79378129D01*
X113726570Y-79388430D01*
X113736871Y-79400980D01*
X113744526Y-79415303D01*
X113749239Y-79430839D01*
X113751000Y-79448724D01*
X113751000Y-79681276D01*
X113749239Y-79699161D01*
X113744526Y-79714697D01*
X113736871Y-79729020D01*
X113726570Y-79741570D01*
X113714020Y-79751871D01*
X113699697Y-79759526D01*
X113684161Y-79764239D01*
X113666276Y-79766000D01*
X112908724Y-79766000D01*
X112890839Y-79764239D01*
X112875303Y-79759526D01*
X112860980Y-79751871D01*
X112848430Y-79741570D01*
X112838129Y-79729020D01*
X112830474Y-79714697D01*
X112825761Y-79699161D01*
X112824000Y-79681276D01*
X112824000Y-79448724D01*
X112825761Y-79430839D01*
X112830474Y-79415303D01*
X112838129Y-79400980D01*
X112848430Y-79388430D01*
X112860980Y-79378129D01*
X112875303Y-79370474D01*
X112890839Y-79365761D01*
X112908724Y-79364000D01*
X113666276Y-79364000D01*
X113684161Y-79365761D01*
X113684161Y-79365761D01*
G37*
G36*
X117609161Y-79365761D02*
G01*
X117624697Y-79370474D01*
X117639020Y-79378129D01*
X117651570Y-79388430D01*
X117661871Y-79400980D01*
X117669526Y-79415303D01*
X117674239Y-79430839D01*
X117676000Y-79448724D01*
X117676000Y-79681276D01*
X117674239Y-79699161D01*
X117669526Y-79714697D01*
X117661871Y-79729020D01*
X117651570Y-79741570D01*
X117639020Y-79751871D01*
X117624697Y-79759526D01*
X117609161Y-79764239D01*
X117591276Y-79766000D01*
X116833724Y-79766000D01*
X116815839Y-79764239D01*
X116800303Y-79759526D01*
X116785980Y-79751871D01*
X116773430Y-79741570D01*
X116763129Y-79729020D01*
X116755474Y-79714697D01*
X116750761Y-79699161D01*
X116749000Y-79681276D01*
X116749000Y-79448724D01*
X116750761Y-79430839D01*
X116755474Y-79415303D01*
X116763129Y-79400980D01*
X116773430Y-79388430D01*
X116785980Y-79378129D01*
X116800303Y-79370474D01*
X116815839Y-79365761D01*
X116833724Y-79364000D01*
X117591276Y-79364000D01*
X117609161Y-79365761D01*
X117609161Y-79365761D01*
G37*
G36*
X129919217Y-79125520D02*
G01*
X129932417Y-79129524D01*
X129944571Y-79136020D01*
X129955231Y-79144769D01*
X129963980Y-79155429D01*
X129970476Y-79167583D01*
X129974480Y-79180783D01*
X129976000Y-79196214D01*
X129976000Y-79403786D01*
X129974480Y-79419217D01*
X129970476Y-79432417D01*
X129963980Y-79444571D01*
X129955231Y-79455231D01*
X129944571Y-79463980D01*
X129932417Y-79470476D01*
X129919217Y-79474480D01*
X129903786Y-79476000D01*
X129071214Y-79476000D01*
X129055783Y-79474480D01*
X129042583Y-79470476D01*
X129030429Y-79463980D01*
X129019769Y-79455231D01*
X129011020Y-79444571D01*
X129004524Y-79432417D01*
X129000520Y-79419217D01*
X128999000Y-79403786D01*
X128999000Y-79196214D01*
X129000520Y-79180783D01*
X129004524Y-79167583D01*
X129011020Y-79155429D01*
X129019769Y-79144769D01*
X129030429Y-79136020D01*
X129042583Y-79129524D01*
X129055783Y-79125520D01*
X129071214Y-79124000D01*
X129903786Y-79124000D01*
X129919217Y-79125520D01*
X129919217Y-79125520D01*
G37*
G36*
X125044217Y-79125520D02*
G01*
X125057417Y-79129524D01*
X125069571Y-79136020D01*
X125080231Y-79144769D01*
X125088980Y-79155429D01*
X125095476Y-79167583D01*
X125099480Y-79180783D01*
X125101000Y-79196214D01*
X125101000Y-79403786D01*
X125099480Y-79419217D01*
X125095476Y-79432417D01*
X125088980Y-79444571D01*
X125080231Y-79455231D01*
X125069571Y-79463980D01*
X125057417Y-79470476D01*
X125044217Y-79474480D01*
X125028786Y-79476000D01*
X124196214Y-79476000D01*
X124180783Y-79474480D01*
X124167583Y-79470476D01*
X124155429Y-79463980D01*
X124144769Y-79455231D01*
X124136020Y-79444571D01*
X124129524Y-79432417D01*
X124125520Y-79419217D01*
X124124000Y-79403786D01*
X124124000Y-79196214D01*
X124125520Y-79180783D01*
X124129524Y-79167583D01*
X124136020Y-79155429D01*
X124144769Y-79144769D01*
X124155429Y-79136020D01*
X124167583Y-79129524D01*
X124180783Y-79125520D01*
X124196214Y-79124000D01*
X125028786Y-79124000D01*
X125044217Y-79125520D01*
X125044217Y-79125520D01*
G37*
G36*
X128466743Y-75953563D02*
G01*
X128509653Y-75966579D01*
X128549189Y-75987712D01*
X128583846Y-76016154D01*
X128612288Y-76050811D01*
X128633421Y-76090347D01*
X128646437Y-76133257D01*
X128651000Y-76179585D01*
X128651000Y-78920415D01*
X128646437Y-78966743D01*
X128633421Y-79009653D01*
X128612288Y-79049189D01*
X128583846Y-79083846D01*
X128549189Y-79112288D01*
X128509653Y-79133421D01*
X128466743Y-79146437D01*
X128420415Y-79151000D01*
X125679585Y-79151000D01*
X125633257Y-79146437D01*
X125590347Y-79133421D01*
X125550811Y-79112288D01*
X125516154Y-79083846D01*
X125487712Y-79049189D01*
X125466579Y-79009653D01*
X125453563Y-78966743D01*
X125449000Y-78920415D01*
X125449000Y-76179585D01*
X125453563Y-76133257D01*
X125466579Y-76090347D01*
X125487712Y-76050811D01*
X125516154Y-76016154D01*
X125550811Y-75987712D01*
X125590347Y-75966579D01*
X125633257Y-75953563D01*
X125679585Y-75949000D01*
X128420415Y-75949000D01*
X128466743Y-75953563D01*
X128466743Y-75953563D01*
G37*
G36*
X113684161Y-78715761D02*
G01*
X113699697Y-78720474D01*
X113714020Y-78728129D01*
X113726570Y-78738430D01*
X113736871Y-78750980D01*
X113744526Y-78765303D01*
X113749239Y-78780839D01*
X113751000Y-78798724D01*
X113751000Y-79031276D01*
X113749239Y-79049161D01*
X113744526Y-79064697D01*
X113736871Y-79079020D01*
X113726570Y-79091570D01*
X113714020Y-79101871D01*
X113699697Y-79109526D01*
X113684161Y-79114239D01*
X113666276Y-79116000D01*
X112908724Y-79116000D01*
X112890839Y-79114239D01*
X112875303Y-79109526D01*
X112860980Y-79101871D01*
X112848430Y-79091570D01*
X112838129Y-79079020D01*
X112830474Y-79064697D01*
X112825761Y-79049161D01*
X112824000Y-79031276D01*
X112824000Y-78798724D01*
X112825761Y-78780839D01*
X112830474Y-78765303D01*
X112838129Y-78750980D01*
X112848430Y-78738430D01*
X112860980Y-78728129D01*
X112875303Y-78720474D01*
X112890839Y-78715761D01*
X112908724Y-78714000D01*
X113666276Y-78714000D01*
X113684161Y-78715761D01*
X113684161Y-78715761D01*
G37*
G36*
X117609161Y-78715761D02*
G01*
X117624697Y-78720474D01*
X117639020Y-78728129D01*
X117651570Y-78738430D01*
X117661871Y-78750980D01*
X117669526Y-78765303D01*
X117674239Y-78780839D01*
X117676000Y-78798724D01*
X117676000Y-79031276D01*
X117674239Y-79049161D01*
X117669526Y-79064697D01*
X117661871Y-79079020D01*
X117651570Y-79091570D01*
X117639020Y-79101871D01*
X117624697Y-79109526D01*
X117609161Y-79114239D01*
X117591276Y-79116000D01*
X116833724Y-79116000D01*
X116815839Y-79114239D01*
X116800303Y-79109526D01*
X116785980Y-79101871D01*
X116773430Y-79091570D01*
X116763129Y-79079020D01*
X116755474Y-79064697D01*
X116750761Y-79049161D01*
X116749000Y-79031276D01*
X116749000Y-78798724D01*
X116750761Y-78780839D01*
X116755474Y-78765303D01*
X116763129Y-78750980D01*
X116773430Y-78738430D01*
X116785980Y-78728129D01*
X116800303Y-78720474D01*
X116815839Y-78715761D01*
X116833724Y-78714000D01*
X117591276Y-78714000D01*
X117609161Y-78715761D01*
X117609161Y-78715761D01*
G37*
G36*
X129919217Y-78625520D02*
G01*
X129932417Y-78629524D01*
X129944571Y-78636020D01*
X129955231Y-78644769D01*
X129963980Y-78655429D01*
X129970476Y-78667583D01*
X129974480Y-78680783D01*
X129976000Y-78696214D01*
X129976000Y-78903786D01*
X129974480Y-78919217D01*
X129970476Y-78932417D01*
X129963980Y-78944571D01*
X129955231Y-78955231D01*
X129944571Y-78963980D01*
X129932417Y-78970476D01*
X129919217Y-78974480D01*
X129903786Y-78976000D01*
X129071214Y-78976000D01*
X129055783Y-78974480D01*
X129042583Y-78970476D01*
X129030429Y-78963980D01*
X129019769Y-78955231D01*
X129011020Y-78944571D01*
X129004524Y-78932417D01*
X129000520Y-78919217D01*
X128999000Y-78903786D01*
X128999000Y-78696214D01*
X129000520Y-78680783D01*
X129004524Y-78667583D01*
X129011020Y-78655429D01*
X129019769Y-78644769D01*
X129030429Y-78636020D01*
X129042583Y-78629524D01*
X129055783Y-78625520D01*
X129071214Y-78624000D01*
X129903786Y-78624000D01*
X129919217Y-78625520D01*
X129919217Y-78625520D01*
G37*
G36*
X125044217Y-78625520D02*
G01*
X125057417Y-78629524D01*
X125069571Y-78636020D01*
X125080231Y-78644769D01*
X125088980Y-78655429D01*
X125095476Y-78667583D01*
X125099480Y-78680783D01*
X125101000Y-78696214D01*
X125101000Y-78903786D01*
X125099480Y-78919217D01*
X125095476Y-78932417D01*
X125088980Y-78944571D01*
X125080231Y-78955231D01*
X125069571Y-78963980D01*
X125057417Y-78970476D01*
X125044217Y-78974480D01*
X125028786Y-78976000D01*
X124196214Y-78976000D01*
X124180783Y-78974480D01*
X124167583Y-78970476D01*
X124155429Y-78963980D01*
X124144769Y-78955231D01*
X124136020Y-78944571D01*
X124129524Y-78932417D01*
X124125520Y-78919217D01*
X124124000Y-78903786D01*
X124124000Y-78696214D01*
X124125520Y-78680783D01*
X124129524Y-78667583D01*
X124136020Y-78655429D01*
X124144769Y-78644769D01*
X124155429Y-78636020D01*
X124167583Y-78629524D01*
X124180783Y-78625520D01*
X124196214Y-78624000D01*
X125028786Y-78624000D01*
X125044217Y-78625520D01*
X125044217Y-78625520D01*
G37*
G36*
X129919217Y-78125520D02*
G01*
X129932417Y-78129524D01*
X129944571Y-78136020D01*
X129955231Y-78144769D01*
X129963980Y-78155429D01*
X129970476Y-78167583D01*
X129974480Y-78180783D01*
X129976000Y-78196214D01*
X129976000Y-78403786D01*
X129974480Y-78419217D01*
X129970476Y-78432417D01*
X129963980Y-78444571D01*
X129955231Y-78455231D01*
X129944571Y-78463980D01*
X129932417Y-78470476D01*
X129919217Y-78474480D01*
X129903786Y-78476000D01*
X129071214Y-78476000D01*
X129055783Y-78474480D01*
X129042583Y-78470476D01*
X129030429Y-78463980D01*
X129019769Y-78455231D01*
X129011020Y-78444571D01*
X129004524Y-78432417D01*
X129000520Y-78419217D01*
X128999000Y-78403786D01*
X128999000Y-78196214D01*
X129000520Y-78180783D01*
X129004524Y-78167583D01*
X129011020Y-78155429D01*
X129019769Y-78144769D01*
X129030429Y-78136020D01*
X129042583Y-78129524D01*
X129055783Y-78125520D01*
X129071214Y-78124000D01*
X129903786Y-78124000D01*
X129919217Y-78125520D01*
X129919217Y-78125520D01*
G37*
G36*
X125044217Y-78125520D02*
G01*
X125057417Y-78129524D01*
X125069571Y-78136020D01*
X125080231Y-78144769D01*
X125088980Y-78155429D01*
X125095476Y-78167583D01*
X125099480Y-78180783D01*
X125101000Y-78196214D01*
X125101000Y-78403786D01*
X125099480Y-78419217D01*
X125095476Y-78432417D01*
X125088980Y-78444571D01*
X125080231Y-78455231D01*
X125069571Y-78463980D01*
X125057417Y-78470476D01*
X125044217Y-78474480D01*
X125028786Y-78476000D01*
X124196214Y-78476000D01*
X124180783Y-78474480D01*
X124167583Y-78470476D01*
X124155429Y-78463980D01*
X124144769Y-78455231D01*
X124136020Y-78444571D01*
X124129524Y-78432417D01*
X124125520Y-78419217D01*
X124124000Y-78403786D01*
X124124000Y-78196214D01*
X124125520Y-78180783D01*
X124129524Y-78167583D01*
X124136020Y-78155429D01*
X124144769Y-78144769D01*
X124155429Y-78136020D01*
X124167583Y-78129524D01*
X124180783Y-78125520D01*
X124196214Y-78124000D01*
X125028786Y-78124000D01*
X125044217Y-78125520D01*
X125044217Y-78125520D01*
G37*
G36*
X113684161Y-78065761D02*
G01*
X113699697Y-78070474D01*
X113714020Y-78078129D01*
X113726570Y-78088430D01*
X113736871Y-78100980D01*
X113744526Y-78115303D01*
X113749239Y-78130839D01*
X113751000Y-78148724D01*
X113751000Y-78381276D01*
X113749239Y-78399161D01*
X113744526Y-78414697D01*
X113736871Y-78429020D01*
X113726570Y-78441570D01*
X113714020Y-78451871D01*
X113699697Y-78459526D01*
X113684161Y-78464239D01*
X113666276Y-78466000D01*
X112908724Y-78466000D01*
X112890839Y-78464239D01*
X112875303Y-78459526D01*
X112860980Y-78451871D01*
X112848430Y-78441570D01*
X112838129Y-78429020D01*
X112830474Y-78414697D01*
X112825761Y-78399161D01*
X112824000Y-78381276D01*
X112824000Y-78148724D01*
X112825761Y-78130839D01*
X112830474Y-78115303D01*
X112838129Y-78100980D01*
X112848430Y-78088430D01*
X112860980Y-78078129D01*
X112875303Y-78070474D01*
X112890839Y-78065761D01*
X112908724Y-78064000D01*
X113666276Y-78064000D01*
X113684161Y-78065761D01*
X113684161Y-78065761D01*
G37*
G36*
X117609161Y-78065761D02*
G01*
X117624697Y-78070474D01*
X117639020Y-78078129D01*
X117651570Y-78088430D01*
X117661871Y-78100980D01*
X117669526Y-78115303D01*
X117674239Y-78130839D01*
X117676000Y-78148724D01*
X117676000Y-78381276D01*
X117674239Y-78399161D01*
X117669526Y-78414697D01*
X117661871Y-78429020D01*
X117651570Y-78441570D01*
X117639020Y-78451871D01*
X117624697Y-78459526D01*
X117609161Y-78464239D01*
X117591276Y-78466000D01*
X116833724Y-78466000D01*
X116815839Y-78464239D01*
X116800303Y-78459526D01*
X116785980Y-78451871D01*
X116773430Y-78441570D01*
X116763129Y-78429020D01*
X116755474Y-78414697D01*
X116750761Y-78399161D01*
X116749000Y-78381276D01*
X116749000Y-78148724D01*
X116750761Y-78130839D01*
X116755474Y-78115303D01*
X116763129Y-78100980D01*
X116773430Y-78088430D01*
X116785980Y-78078129D01*
X116800303Y-78070474D01*
X116815839Y-78065761D01*
X116833724Y-78064000D01*
X117591276Y-78064000D01*
X117609161Y-78065761D01*
X117609161Y-78065761D01*
G37*
G36*
X134131881Y-77086989D02*
G01*
X134197182Y-77099978D01*
X134320206Y-77150936D01*
X134430925Y-77224916D01*
X134525084Y-77319075D01*
X134599064Y-77429794D01*
X134650022Y-77552818D01*
X134650022Y-77552820D01*
X134675476Y-77680783D01*
X134676000Y-77683420D01*
X134676000Y-77816580D01*
X134650022Y-77947182D01*
X134599064Y-78070206D01*
X134525084Y-78180925D01*
X134430925Y-78275084D01*
X134320206Y-78349064D01*
X134197182Y-78400022D01*
X134131881Y-78413011D01*
X134066582Y-78426000D01*
X133933418Y-78426000D01*
X133868119Y-78413011D01*
X133802818Y-78400022D01*
X133679794Y-78349064D01*
X133569075Y-78275084D01*
X133474916Y-78180925D01*
X133400936Y-78070206D01*
X133349978Y-77947182D01*
X133324000Y-77816580D01*
X133324000Y-77683420D01*
X133324525Y-77680783D01*
X133349978Y-77552820D01*
X133349978Y-77552818D01*
X133400936Y-77429794D01*
X133474916Y-77319075D01*
X133569075Y-77224916D01*
X133679794Y-77150936D01*
X133802818Y-77099978D01*
X133868119Y-77086989D01*
X133933418Y-77074000D01*
X134066582Y-77074000D01*
X134131881Y-77086989D01*
X134131881Y-77086989D01*
G37*
G36*
X110759725Y-76944571D02*
G01*
X110837182Y-76959978D01*
X110960206Y-77010936D01*
X111070925Y-77084916D01*
X111165084Y-77179075D01*
X111239064Y-77289794D01*
X111290022Y-77412818D01*
X111302597Y-77476040D01*
X111316000Y-77543418D01*
X111316000Y-77676582D01*
X111304358Y-77735107D01*
X111290022Y-77807182D01*
X111239064Y-77930206D01*
X111165084Y-78040925D01*
X111070925Y-78135084D01*
X110960206Y-78209064D01*
X110837182Y-78260022D01*
X110771881Y-78273011D01*
X110706582Y-78286000D01*
X110573418Y-78286000D01*
X110508119Y-78273011D01*
X110442818Y-78260022D01*
X110319794Y-78209064D01*
X110209075Y-78135084D01*
X110114916Y-78040925D01*
X110040936Y-77930206D01*
X109989978Y-77807182D01*
X109975642Y-77735107D01*
X109964000Y-77676582D01*
X109964000Y-77543418D01*
X109977403Y-77476040D01*
X109989978Y-77412818D01*
X110040936Y-77289794D01*
X110114916Y-77179075D01*
X110209075Y-77084916D01*
X110319794Y-77010936D01*
X110442818Y-76959978D01*
X110520275Y-76944571D01*
X110573418Y-76934000D01*
X110706582Y-76934000D01*
X110759725Y-76944571D01*
X110759725Y-76944571D01*
G37*
G36*
X125044217Y-77625520D02*
G01*
X125057417Y-77629524D01*
X125069571Y-77636020D01*
X125080231Y-77644769D01*
X125088980Y-77655429D01*
X125095476Y-77667583D01*
X125099480Y-77680783D01*
X125101000Y-77696214D01*
X125101000Y-77903786D01*
X125099480Y-77919217D01*
X125095476Y-77932417D01*
X125088980Y-77944571D01*
X125080231Y-77955231D01*
X125069571Y-77963980D01*
X125057417Y-77970476D01*
X125044217Y-77974480D01*
X125028786Y-77976000D01*
X124196214Y-77976000D01*
X124180783Y-77974480D01*
X124167583Y-77970476D01*
X124155429Y-77963980D01*
X124144769Y-77955231D01*
X124136020Y-77944571D01*
X124129524Y-77932417D01*
X124125520Y-77919217D01*
X124124000Y-77903786D01*
X124124000Y-77696214D01*
X124125520Y-77680783D01*
X124129524Y-77667583D01*
X124136020Y-77655429D01*
X124144769Y-77644769D01*
X124155429Y-77636020D01*
X124167583Y-77629524D01*
X124180783Y-77625520D01*
X124196214Y-77624000D01*
X125028786Y-77624000D01*
X125044217Y-77625520D01*
X125044217Y-77625520D01*
G37*
G36*
X129919217Y-77625520D02*
G01*
X129932417Y-77629524D01*
X129944571Y-77636020D01*
X129955231Y-77644769D01*
X129963980Y-77655429D01*
X129970476Y-77667583D01*
X129974480Y-77680783D01*
X129976000Y-77696214D01*
X129976000Y-77903786D01*
X129974480Y-77919217D01*
X129970476Y-77932417D01*
X129963980Y-77944571D01*
X129955231Y-77955231D01*
X129944571Y-77963980D01*
X129932417Y-77970476D01*
X129919217Y-77974480D01*
X129903786Y-77976000D01*
X129071214Y-77976000D01*
X129055783Y-77974480D01*
X129042583Y-77970476D01*
X129030429Y-77963980D01*
X129019769Y-77955231D01*
X129011020Y-77944571D01*
X129004524Y-77932417D01*
X129000520Y-77919217D01*
X128999000Y-77903786D01*
X128999000Y-77696214D01*
X129000520Y-77680783D01*
X129004524Y-77667583D01*
X129011020Y-77655429D01*
X129019769Y-77644769D01*
X129030429Y-77636020D01*
X129042583Y-77629524D01*
X129055783Y-77625520D01*
X129071214Y-77624000D01*
X129903786Y-77624000D01*
X129919217Y-77625520D01*
X129919217Y-77625520D01*
G37*
G36*
X117609161Y-77415761D02*
G01*
X117624697Y-77420474D01*
X117639020Y-77428129D01*
X117651570Y-77438430D01*
X117661871Y-77450980D01*
X117669526Y-77465303D01*
X117674239Y-77480839D01*
X117676000Y-77498724D01*
X117676000Y-77731276D01*
X117674239Y-77749161D01*
X117669526Y-77764697D01*
X117661871Y-77779020D01*
X117651570Y-77791570D01*
X117639020Y-77801871D01*
X117624697Y-77809526D01*
X117609161Y-77814239D01*
X117591276Y-77816000D01*
X116833724Y-77816000D01*
X116815839Y-77814239D01*
X116800303Y-77809526D01*
X116785980Y-77801871D01*
X116773430Y-77791570D01*
X116763129Y-77779020D01*
X116755474Y-77764697D01*
X116750761Y-77749161D01*
X116749000Y-77731276D01*
X116749000Y-77498724D01*
X116750761Y-77480839D01*
X116755474Y-77465303D01*
X116763129Y-77450980D01*
X116773430Y-77438430D01*
X116785980Y-77428129D01*
X116800303Y-77420474D01*
X116815839Y-77415761D01*
X116833724Y-77414000D01*
X117591276Y-77414000D01*
X117609161Y-77415761D01*
X117609161Y-77415761D01*
G37*
G36*
X113684161Y-77415761D02*
G01*
X113699697Y-77420474D01*
X113714020Y-77428129D01*
X113726570Y-77438430D01*
X113736871Y-77450980D01*
X113744526Y-77465303D01*
X113749239Y-77480839D01*
X113751000Y-77498724D01*
X113751000Y-77731276D01*
X113749239Y-77749161D01*
X113744526Y-77764697D01*
X113736871Y-77779020D01*
X113726570Y-77791570D01*
X113714020Y-77801871D01*
X113699697Y-77809526D01*
X113684161Y-77814239D01*
X113666276Y-77816000D01*
X112908724Y-77816000D01*
X112890839Y-77814239D01*
X112875303Y-77809526D01*
X112860980Y-77801871D01*
X112848430Y-77791570D01*
X112838129Y-77779020D01*
X112830474Y-77764697D01*
X112825761Y-77749161D01*
X112824000Y-77731276D01*
X112824000Y-77498724D01*
X112825761Y-77480839D01*
X112830474Y-77465303D01*
X112838129Y-77450980D01*
X112848430Y-77438430D01*
X112860980Y-77428129D01*
X112875303Y-77420474D01*
X112890839Y-77415761D01*
X112908724Y-77414000D01*
X113666276Y-77414000D01*
X113684161Y-77415761D01*
X113684161Y-77415761D01*
G37*
G36*
X125044217Y-77125520D02*
G01*
X125057417Y-77129524D01*
X125069571Y-77136020D01*
X125080231Y-77144769D01*
X125088980Y-77155429D01*
X125095476Y-77167583D01*
X125099480Y-77180783D01*
X125101000Y-77196214D01*
X125101000Y-77403786D01*
X125099480Y-77419217D01*
X125095476Y-77432417D01*
X125088980Y-77444571D01*
X125080231Y-77455231D01*
X125069571Y-77463980D01*
X125057417Y-77470476D01*
X125044217Y-77474480D01*
X125028786Y-77476000D01*
X124196214Y-77476000D01*
X124180783Y-77474480D01*
X124167583Y-77470476D01*
X124155429Y-77463980D01*
X124144769Y-77455231D01*
X124136020Y-77444571D01*
X124129524Y-77432417D01*
X124125520Y-77419217D01*
X124124000Y-77403786D01*
X124124000Y-77196214D01*
X124125520Y-77180783D01*
X124129524Y-77167583D01*
X124136020Y-77155429D01*
X124144769Y-77144769D01*
X124155429Y-77136020D01*
X124167583Y-77129524D01*
X124180783Y-77125520D01*
X124196214Y-77124000D01*
X125028786Y-77124000D01*
X125044217Y-77125520D01*
X125044217Y-77125520D01*
G37*
G36*
X129919217Y-77125520D02*
G01*
X129932417Y-77129524D01*
X129944571Y-77136020D01*
X129955231Y-77144769D01*
X129963980Y-77155429D01*
X129970476Y-77167583D01*
X129974480Y-77180783D01*
X129976000Y-77196214D01*
X129976000Y-77403786D01*
X129974480Y-77419217D01*
X129970476Y-77432417D01*
X129963980Y-77444571D01*
X129955231Y-77455231D01*
X129944571Y-77463980D01*
X129932417Y-77470476D01*
X129919217Y-77474480D01*
X129903786Y-77476000D01*
X129071214Y-77476000D01*
X129055783Y-77474480D01*
X129042583Y-77470476D01*
X129030429Y-77463980D01*
X129019769Y-77455231D01*
X129011020Y-77444571D01*
X129004524Y-77432417D01*
X129000520Y-77419217D01*
X128999000Y-77403786D01*
X128999000Y-77196214D01*
X129000520Y-77180783D01*
X129004524Y-77167583D01*
X129011020Y-77155429D01*
X129019769Y-77144769D01*
X129030429Y-77136020D01*
X129042583Y-77129524D01*
X129055783Y-77125520D01*
X129071214Y-77124000D01*
X129903786Y-77124000D01*
X129919217Y-77125520D01*
X129919217Y-77125520D01*
G37*
G36*
X116359161Y-76165761D02*
G01*
X116374697Y-76170474D01*
X116389020Y-76178129D01*
X116401570Y-76188430D01*
X116411871Y-76200980D01*
X116419526Y-76215303D01*
X116424239Y-76230839D01*
X116426000Y-76248724D01*
X116426000Y-77006276D01*
X116424239Y-77024161D01*
X116419526Y-77039697D01*
X116411871Y-77054020D01*
X116401570Y-77066570D01*
X116389020Y-77076871D01*
X116374697Y-77084526D01*
X116359161Y-77089239D01*
X116341276Y-77091000D01*
X116108724Y-77091000D01*
X116090839Y-77089239D01*
X116075303Y-77084526D01*
X116060980Y-77076871D01*
X116048430Y-77066570D01*
X116038129Y-77054020D01*
X116030474Y-77039697D01*
X116025761Y-77024161D01*
X116024000Y-77006276D01*
X116024000Y-76248724D01*
X116025761Y-76230839D01*
X116030474Y-76215303D01*
X116038129Y-76200980D01*
X116048430Y-76188430D01*
X116060980Y-76178129D01*
X116075303Y-76170474D01*
X116090839Y-76165761D01*
X116108724Y-76164000D01*
X116341276Y-76164000D01*
X116359161Y-76165761D01*
X116359161Y-76165761D01*
G37*
G36*
X115059161Y-76165761D02*
G01*
X115074697Y-76170474D01*
X115089020Y-76178129D01*
X115101570Y-76188430D01*
X115111871Y-76200980D01*
X115119526Y-76215303D01*
X115124239Y-76230839D01*
X115126000Y-76248724D01*
X115126000Y-77006276D01*
X115124239Y-77024161D01*
X115119526Y-77039697D01*
X115111871Y-77054020D01*
X115101570Y-77066570D01*
X115089020Y-77076871D01*
X115074697Y-77084526D01*
X115059161Y-77089239D01*
X115041276Y-77091000D01*
X114808724Y-77091000D01*
X114790839Y-77089239D01*
X114775303Y-77084526D01*
X114760980Y-77076871D01*
X114748430Y-77066570D01*
X114738129Y-77054020D01*
X114730474Y-77039697D01*
X114725761Y-77024161D01*
X114724000Y-77006276D01*
X114724000Y-76248724D01*
X114725761Y-76230839D01*
X114730474Y-76215303D01*
X114738129Y-76200980D01*
X114748430Y-76188430D01*
X114760980Y-76178129D01*
X114775303Y-76170474D01*
X114790839Y-76165761D01*
X114808724Y-76164000D01*
X115041276Y-76164000D01*
X115059161Y-76165761D01*
X115059161Y-76165761D01*
G37*
G36*
X115709161Y-76165761D02*
G01*
X115724697Y-76170474D01*
X115739020Y-76178129D01*
X115751570Y-76188430D01*
X115761871Y-76200980D01*
X115769526Y-76215303D01*
X115774239Y-76230839D01*
X115776000Y-76248724D01*
X115776000Y-77006276D01*
X115774239Y-77024161D01*
X115769526Y-77039697D01*
X115761871Y-77054020D01*
X115751570Y-77066570D01*
X115739020Y-77076871D01*
X115724697Y-77084526D01*
X115709161Y-77089239D01*
X115691276Y-77091000D01*
X115458724Y-77091000D01*
X115440839Y-77089239D01*
X115425303Y-77084526D01*
X115410980Y-77076871D01*
X115398430Y-77066570D01*
X115388129Y-77054020D01*
X115380474Y-77039697D01*
X115375761Y-77024161D01*
X115374000Y-77006276D01*
X115374000Y-76248724D01*
X115375761Y-76230839D01*
X115380474Y-76215303D01*
X115388129Y-76200980D01*
X115398430Y-76188430D01*
X115410980Y-76178129D01*
X115425303Y-76170474D01*
X115440839Y-76165761D01*
X115458724Y-76164000D01*
X115691276Y-76164000D01*
X115709161Y-76165761D01*
X115709161Y-76165761D01*
G37*
G36*
X114409161Y-76165761D02*
G01*
X114424697Y-76170474D01*
X114439020Y-76178129D01*
X114451570Y-76188430D01*
X114461871Y-76200980D01*
X114469526Y-76215303D01*
X114474239Y-76230839D01*
X114476000Y-76248724D01*
X114476000Y-77006276D01*
X114474239Y-77024161D01*
X114469526Y-77039697D01*
X114461871Y-77054020D01*
X114451570Y-77066570D01*
X114439020Y-77076871D01*
X114424697Y-77084526D01*
X114409161Y-77089239D01*
X114391276Y-77091000D01*
X114158724Y-77091000D01*
X114140839Y-77089239D01*
X114125303Y-77084526D01*
X114110980Y-77076871D01*
X114098430Y-77066570D01*
X114088129Y-77054020D01*
X114080474Y-77039697D01*
X114075761Y-77024161D01*
X114074000Y-77006276D01*
X114074000Y-76248724D01*
X114075761Y-76230839D01*
X114080474Y-76215303D01*
X114088129Y-76200980D01*
X114098430Y-76188430D01*
X114110980Y-76178129D01*
X114125303Y-76170474D01*
X114140839Y-76165761D01*
X114158724Y-76164000D01*
X114391276Y-76164000D01*
X114409161Y-76165761D01*
X114409161Y-76165761D01*
G37*
G36*
X125044217Y-76625520D02*
G01*
X125057417Y-76629524D01*
X125069571Y-76636020D01*
X125080231Y-76644769D01*
X125088980Y-76655429D01*
X125095476Y-76667583D01*
X125099480Y-76680783D01*
X125101000Y-76696214D01*
X125101000Y-76903786D01*
X125099480Y-76919217D01*
X125095476Y-76932417D01*
X125088980Y-76944571D01*
X125080231Y-76955231D01*
X125069571Y-76963980D01*
X125057417Y-76970476D01*
X125044217Y-76974480D01*
X125028786Y-76976000D01*
X124196214Y-76976000D01*
X124180783Y-76974480D01*
X124167583Y-76970476D01*
X124155429Y-76963980D01*
X124144769Y-76955231D01*
X124136020Y-76944571D01*
X124129524Y-76932417D01*
X124125520Y-76919217D01*
X124124000Y-76903786D01*
X124124000Y-76696214D01*
X124125520Y-76680783D01*
X124129524Y-76667583D01*
X124136020Y-76655429D01*
X124144769Y-76644769D01*
X124155429Y-76636020D01*
X124167583Y-76629524D01*
X124180783Y-76625520D01*
X124196214Y-76624000D01*
X125028786Y-76624000D01*
X125044217Y-76625520D01*
X125044217Y-76625520D01*
G37*
G36*
X129919217Y-76625520D02*
G01*
X129932417Y-76629524D01*
X129944571Y-76636020D01*
X129955231Y-76644769D01*
X129963980Y-76655429D01*
X129970476Y-76667583D01*
X129974480Y-76680783D01*
X129976000Y-76696214D01*
X129976000Y-76903786D01*
X129974480Y-76919217D01*
X129970476Y-76932417D01*
X129963980Y-76944571D01*
X129955231Y-76955231D01*
X129944571Y-76963980D01*
X129932417Y-76970476D01*
X129919217Y-76974480D01*
X129903786Y-76976000D01*
X129071214Y-76976000D01*
X129055783Y-76974480D01*
X129042583Y-76970476D01*
X129030429Y-76963980D01*
X129019769Y-76955231D01*
X129011020Y-76944571D01*
X129004524Y-76932417D01*
X129000520Y-76919217D01*
X128999000Y-76903786D01*
X128999000Y-76696214D01*
X129000520Y-76680783D01*
X129004524Y-76667583D01*
X129011020Y-76655429D01*
X129019769Y-76644769D01*
X129030429Y-76636020D01*
X129042583Y-76629524D01*
X129055783Y-76625520D01*
X129071214Y-76624000D01*
X129903786Y-76624000D01*
X129919217Y-76625520D01*
X129919217Y-76625520D01*
G37*
G36*
X134131881Y-75336989D02*
G01*
X134197182Y-75349978D01*
X134320206Y-75400936D01*
X134430925Y-75474916D01*
X134525084Y-75569075D01*
X134599064Y-75679794D01*
X134650022Y-75802818D01*
X134658770Y-75846798D01*
X134675801Y-75932417D01*
X134676000Y-75933420D01*
X134676000Y-76066580D01*
X134650022Y-76197182D01*
X134599064Y-76320206D01*
X134525084Y-76430925D01*
X134430925Y-76525084D01*
X134320206Y-76599064D01*
X134197182Y-76650022D01*
X134131881Y-76663011D01*
X134066582Y-76676000D01*
X133933418Y-76676000D01*
X133868119Y-76663011D01*
X133802818Y-76650022D01*
X133679794Y-76599064D01*
X133569075Y-76525084D01*
X133474916Y-76430925D01*
X133400936Y-76320206D01*
X133349978Y-76197182D01*
X133324000Y-76066580D01*
X133324000Y-75933420D01*
X133324200Y-75932417D01*
X133341230Y-75846798D01*
X133349978Y-75802818D01*
X133400936Y-75679794D01*
X133474916Y-75569075D01*
X133569075Y-75474916D01*
X133679794Y-75400936D01*
X133802818Y-75349978D01*
X133868119Y-75336989D01*
X133933418Y-75324000D01*
X134066582Y-75324000D01*
X134131881Y-75336989D01*
X134131881Y-75336989D01*
G37*
G36*
X129919217Y-76125520D02*
G01*
X129932417Y-76129524D01*
X129944571Y-76136020D01*
X129955231Y-76144769D01*
X129963980Y-76155429D01*
X129970476Y-76167583D01*
X129974480Y-76180783D01*
X129976000Y-76196214D01*
X129976000Y-76403786D01*
X129974480Y-76419217D01*
X129970476Y-76432417D01*
X129963980Y-76444571D01*
X129955231Y-76455231D01*
X129944571Y-76463980D01*
X129932417Y-76470476D01*
X129919217Y-76474480D01*
X129903786Y-76476000D01*
X129071214Y-76476000D01*
X129055783Y-76474480D01*
X129042583Y-76470476D01*
X129030429Y-76463980D01*
X129019769Y-76455231D01*
X129011020Y-76444571D01*
X129004524Y-76432417D01*
X129000520Y-76419217D01*
X128999000Y-76403786D01*
X128999000Y-76196214D01*
X129000520Y-76180783D01*
X129004524Y-76167583D01*
X129011020Y-76155429D01*
X129019769Y-76144769D01*
X129030429Y-76136020D01*
X129042583Y-76129524D01*
X129055783Y-76125520D01*
X129071214Y-76124000D01*
X129903786Y-76124000D01*
X129919217Y-76125520D01*
X129919217Y-76125520D01*
G37*
G36*
X125044217Y-76125520D02*
G01*
X125057417Y-76129524D01*
X125069571Y-76136020D01*
X125080231Y-76144769D01*
X125088980Y-76155429D01*
X125095476Y-76167583D01*
X125099480Y-76180783D01*
X125101000Y-76196214D01*
X125101000Y-76403786D01*
X125099480Y-76419217D01*
X125095476Y-76432417D01*
X125088980Y-76444571D01*
X125080231Y-76455231D01*
X125069571Y-76463980D01*
X125057417Y-76470476D01*
X125044217Y-76474480D01*
X125028786Y-76476000D01*
X124196214Y-76476000D01*
X124180783Y-76474480D01*
X124167583Y-76470476D01*
X124155429Y-76463980D01*
X124144769Y-76455231D01*
X124136020Y-76444571D01*
X124129524Y-76432417D01*
X124125520Y-76419217D01*
X124124000Y-76403786D01*
X124124000Y-76196214D01*
X124125520Y-76180783D01*
X124129524Y-76167583D01*
X124136020Y-76155429D01*
X124144769Y-76144769D01*
X124155429Y-76136020D01*
X124167583Y-76129524D01*
X124180783Y-76125520D01*
X124196214Y-76124000D01*
X125028786Y-76124000D01*
X125044217Y-76125520D01*
X125044217Y-76125520D01*
G37*
G36*
X129919217Y-75625520D02*
G01*
X129932417Y-75629524D01*
X129944571Y-75636020D01*
X129955231Y-75644769D01*
X129963980Y-75655429D01*
X129970476Y-75667583D01*
X129974480Y-75680783D01*
X129976000Y-75696214D01*
X129976000Y-75903786D01*
X129974480Y-75919217D01*
X129970476Y-75932417D01*
X129963980Y-75944571D01*
X129955231Y-75955231D01*
X129944571Y-75963980D01*
X129932417Y-75970476D01*
X129919217Y-75974480D01*
X129903786Y-75976000D01*
X129071214Y-75976000D01*
X129055783Y-75974480D01*
X129042583Y-75970476D01*
X129030429Y-75963980D01*
X129019769Y-75955231D01*
X129011020Y-75944571D01*
X129004524Y-75932417D01*
X129000520Y-75919217D01*
X128999000Y-75903786D01*
X128999000Y-75696214D01*
X129000520Y-75680783D01*
X129004524Y-75667583D01*
X129011020Y-75655429D01*
X129019769Y-75644769D01*
X129030429Y-75636020D01*
X129042583Y-75629524D01*
X129055783Y-75625520D01*
X129071214Y-75624000D01*
X129903786Y-75624000D01*
X129919217Y-75625520D01*
X129919217Y-75625520D01*
G37*
G36*
X125044217Y-75625520D02*
G01*
X125057417Y-75629524D01*
X125069571Y-75636020D01*
X125080231Y-75644769D01*
X125088980Y-75655429D01*
X125095476Y-75667583D01*
X125099480Y-75680783D01*
X125101000Y-75696214D01*
X125101000Y-75903786D01*
X125099480Y-75919217D01*
X125095476Y-75932417D01*
X125088980Y-75944571D01*
X125080231Y-75955231D01*
X125069571Y-75963980D01*
X125057417Y-75970476D01*
X125044217Y-75974480D01*
X125028786Y-75976000D01*
X124196214Y-75976000D01*
X124180783Y-75974480D01*
X124167583Y-75970476D01*
X124155429Y-75963980D01*
X124144769Y-75955231D01*
X124136020Y-75944571D01*
X124129524Y-75932417D01*
X124125520Y-75919217D01*
X124124000Y-75903786D01*
X124124000Y-75696214D01*
X124125520Y-75680783D01*
X124129524Y-75667583D01*
X124136020Y-75655429D01*
X124144769Y-75644769D01*
X124155429Y-75636020D01*
X124167583Y-75629524D01*
X124180783Y-75625520D01*
X124196214Y-75624000D01*
X125028786Y-75624000D01*
X125044217Y-75625520D01*
X125044217Y-75625520D01*
G37*
G36*
X111538012Y-74856972D02*
G01*
X111641882Y-74888480D01*
X111737597Y-74939641D01*
X111821501Y-75008499D01*
X111890359Y-75092403D01*
X111941520Y-75188118D01*
X111973028Y-75291988D01*
X111983666Y-75400000D01*
X111973028Y-75508012D01*
X111941520Y-75611882D01*
X111890359Y-75707597D01*
X111821501Y-75791501D01*
X111737597Y-75860359D01*
X111641882Y-75911520D01*
X111641879Y-75911521D01*
X111589947Y-75927274D01*
X111538012Y-75943028D01*
X111457071Y-75951000D01*
X111402929Y-75951000D01*
X111321988Y-75943028D01*
X111270053Y-75927274D01*
X111218121Y-75911521D01*
X111218118Y-75911520D01*
X111122403Y-75860359D01*
X111038499Y-75791501D01*
X110969641Y-75707597D01*
X110918480Y-75611882D01*
X110886972Y-75508012D01*
X110876334Y-75400000D01*
X110886972Y-75291988D01*
X110918480Y-75188118D01*
X110969641Y-75092403D01*
X111038499Y-75008499D01*
X111122403Y-74939641D01*
X111218118Y-74888480D01*
X111321988Y-74856972D01*
X111402929Y-74849000D01*
X111457071Y-74849000D01*
X111538012Y-74856972D01*
X111538012Y-74856972D01*
G37*
G36*
X131865806Y-75227154D02*
G01*
X131894946Y-75235994D01*
X131921798Y-75250347D01*
X131945336Y-75269664D01*
X131964653Y-75293202D01*
X131979006Y-75320054D01*
X131987846Y-75349194D01*
X131991000Y-75381224D01*
X131991000Y-75758776D01*
X131987846Y-75790806D01*
X131979006Y-75819946D01*
X131964653Y-75846798D01*
X131945336Y-75870336D01*
X131921798Y-75889653D01*
X131894946Y-75904006D01*
X131865806Y-75912846D01*
X131833776Y-75916000D01*
X131406224Y-75916000D01*
X131374194Y-75912846D01*
X131345054Y-75904006D01*
X131318202Y-75889653D01*
X131294664Y-75870336D01*
X131275347Y-75846798D01*
X131260994Y-75819946D01*
X131252154Y-75790806D01*
X131249000Y-75758776D01*
X131249000Y-75381224D01*
X131252154Y-75349194D01*
X131260994Y-75320054D01*
X131275347Y-75293202D01*
X131294664Y-75269664D01*
X131318202Y-75250347D01*
X131345054Y-75235994D01*
X131374194Y-75227154D01*
X131406224Y-75224000D01*
X131833776Y-75224000D01*
X131865806Y-75227154D01*
X131865806Y-75227154D01*
G37*
G36*
X127419217Y-74625520D02*
G01*
X127432417Y-74629524D01*
X127444571Y-74636020D01*
X127455231Y-74644769D01*
X127463980Y-74655429D01*
X127470476Y-74667583D01*
X127474480Y-74680783D01*
X127476000Y-74696214D01*
X127476000Y-75528786D01*
X127474480Y-75544217D01*
X127470476Y-75557417D01*
X127463980Y-75569571D01*
X127455231Y-75580231D01*
X127444571Y-75588980D01*
X127432417Y-75595476D01*
X127419217Y-75599480D01*
X127403786Y-75601000D01*
X127196214Y-75601000D01*
X127180783Y-75599480D01*
X127167583Y-75595476D01*
X127155429Y-75588980D01*
X127144769Y-75580231D01*
X127136020Y-75569571D01*
X127129524Y-75557417D01*
X127125520Y-75544217D01*
X127124000Y-75528786D01*
X127124000Y-74696214D01*
X127125520Y-74680783D01*
X127129524Y-74667583D01*
X127136020Y-74655429D01*
X127144769Y-74644769D01*
X127155429Y-74636020D01*
X127167583Y-74629524D01*
X127180783Y-74625520D01*
X127196214Y-74624000D01*
X127403786Y-74624000D01*
X127419217Y-74625520D01*
X127419217Y-74625520D01*
G37*
G36*
X126919217Y-74625520D02*
G01*
X126932417Y-74629524D01*
X126944571Y-74636020D01*
X126955231Y-74644769D01*
X126963980Y-74655429D01*
X126970476Y-74667583D01*
X126974480Y-74680783D01*
X126976000Y-74696214D01*
X126976000Y-75528786D01*
X126974480Y-75544217D01*
X126970476Y-75557417D01*
X126963980Y-75569571D01*
X126955231Y-75580231D01*
X126944571Y-75588980D01*
X126932417Y-75595476D01*
X126919217Y-75599480D01*
X126903786Y-75601000D01*
X126696214Y-75601000D01*
X126680783Y-75599480D01*
X126667583Y-75595476D01*
X126655429Y-75588980D01*
X126644769Y-75580231D01*
X126636020Y-75569571D01*
X126629524Y-75557417D01*
X126625520Y-75544217D01*
X126624000Y-75528786D01*
X126624000Y-74696214D01*
X126625520Y-74680783D01*
X126629524Y-74667583D01*
X126636020Y-74655429D01*
X126644769Y-74644769D01*
X126655429Y-74636020D01*
X126667583Y-74629524D01*
X126680783Y-74625520D01*
X126696214Y-74624000D01*
X126903786Y-74624000D01*
X126919217Y-74625520D01*
X126919217Y-74625520D01*
G37*
G36*
X126419217Y-74625520D02*
G01*
X126432417Y-74629524D01*
X126444571Y-74636020D01*
X126455231Y-74644769D01*
X126463980Y-74655429D01*
X126470476Y-74667583D01*
X126474480Y-74680783D01*
X126476000Y-74696214D01*
X126476000Y-75528786D01*
X126474480Y-75544217D01*
X126470476Y-75557417D01*
X126463980Y-75569571D01*
X126455231Y-75580231D01*
X126444571Y-75588980D01*
X126432417Y-75595476D01*
X126419217Y-75599480D01*
X126403786Y-75601000D01*
X126196214Y-75601000D01*
X126180783Y-75599480D01*
X126167583Y-75595476D01*
X126155429Y-75588980D01*
X126144769Y-75580231D01*
X126136020Y-75569571D01*
X126129524Y-75557417D01*
X126125520Y-75544217D01*
X126124000Y-75528786D01*
X126124000Y-74696214D01*
X126125520Y-74680783D01*
X126129524Y-74667583D01*
X126136020Y-74655429D01*
X126144769Y-74644769D01*
X126155429Y-74636020D01*
X126167583Y-74629524D01*
X126180783Y-74625520D01*
X126196214Y-74624000D01*
X126403786Y-74624000D01*
X126419217Y-74625520D01*
X126419217Y-74625520D01*
G37*
G36*
X125919217Y-74625520D02*
G01*
X125932417Y-74629524D01*
X125944571Y-74636020D01*
X125955231Y-74644769D01*
X125963980Y-74655429D01*
X125970476Y-74667583D01*
X125974480Y-74680783D01*
X125976000Y-74696214D01*
X125976000Y-75528786D01*
X125974480Y-75544217D01*
X125970476Y-75557417D01*
X125963980Y-75569571D01*
X125955231Y-75580231D01*
X125944571Y-75588980D01*
X125932417Y-75595476D01*
X125919217Y-75599480D01*
X125903786Y-75601000D01*
X125696214Y-75601000D01*
X125680783Y-75599480D01*
X125667583Y-75595476D01*
X125655429Y-75588980D01*
X125644769Y-75580231D01*
X125636020Y-75569571D01*
X125629524Y-75557417D01*
X125625520Y-75544217D01*
X125624000Y-75528786D01*
X125624000Y-74696214D01*
X125625520Y-74680783D01*
X125629524Y-74667583D01*
X125636020Y-74655429D01*
X125644769Y-74644769D01*
X125655429Y-74636020D01*
X125667583Y-74629524D01*
X125680783Y-74625520D01*
X125696214Y-74624000D01*
X125903786Y-74624000D01*
X125919217Y-74625520D01*
X125919217Y-74625520D01*
G37*
G36*
X125419217Y-74625520D02*
G01*
X125432417Y-74629524D01*
X125444571Y-74636020D01*
X125455231Y-74644769D01*
X125463980Y-74655429D01*
X125470476Y-74667583D01*
X125474480Y-74680783D01*
X125476000Y-74696214D01*
X125476000Y-75528786D01*
X125474480Y-75544217D01*
X125470476Y-75557417D01*
X125463980Y-75569571D01*
X125455231Y-75580231D01*
X125444571Y-75588980D01*
X125432417Y-75595476D01*
X125419217Y-75599480D01*
X125403786Y-75601000D01*
X125196214Y-75601000D01*
X125180783Y-75599480D01*
X125167583Y-75595476D01*
X125155429Y-75588980D01*
X125144769Y-75580231D01*
X125136020Y-75569571D01*
X125129524Y-75557417D01*
X125125520Y-75544217D01*
X125124000Y-75528786D01*
X125124000Y-74696214D01*
X125125520Y-74680783D01*
X125129524Y-74667583D01*
X125136020Y-74655429D01*
X125144769Y-74644769D01*
X125155429Y-74636020D01*
X125167583Y-74629524D01*
X125180783Y-74625520D01*
X125196214Y-74624000D01*
X125403786Y-74624000D01*
X125419217Y-74625520D01*
X125419217Y-74625520D01*
G37*
G36*
X127919217Y-74625520D02*
G01*
X127932417Y-74629524D01*
X127944571Y-74636020D01*
X127955231Y-74644769D01*
X127963980Y-74655429D01*
X127970476Y-74667583D01*
X127974480Y-74680783D01*
X127976000Y-74696214D01*
X127976000Y-75528786D01*
X127974480Y-75544217D01*
X127970476Y-75557417D01*
X127963980Y-75569571D01*
X127955231Y-75580231D01*
X127944571Y-75588980D01*
X127932417Y-75595476D01*
X127919217Y-75599480D01*
X127903786Y-75601000D01*
X127696214Y-75601000D01*
X127680783Y-75599480D01*
X127667583Y-75595476D01*
X127655429Y-75588980D01*
X127644769Y-75580231D01*
X127636020Y-75569571D01*
X127629524Y-75557417D01*
X127625520Y-75544217D01*
X127624000Y-75528786D01*
X127624000Y-74696214D01*
X127625520Y-74680783D01*
X127629524Y-74667583D01*
X127636020Y-74655429D01*
X127644769Y-74644769D01*
X127655429Y-74636020D01*
X127667583Y-74629524D01*
X127680783Y-74625520D01*
X127696214Y-74624000D01*
X127903786Y-74624000D01*
X127919217Y-74625520D01*
X127919217Y-74625520D01*
G37*
G36*
X128419217Y-74625520D02*
G01*
X128432417Y-74629524D01*
X128444571Y-74636020D01*
X128455231Y-74644769D01*
X128463980Y-74655429D01*
X128470476Y-74667583D01*
X128474480Y-74680783D01*
X128476000Y-74696214D01*
X128476000Y-75528786D01*
X128474480Y-75544217D01*
X128470476Y-75557417D01*
X128463980Y-75569571D01*
X128455231Y-75580231D01*
X128444571Y-75588980D01*
X128432417Y-75595476D01*
X128419217Y-75599480D01*
X128403786Y-75601000D01*
X128196214Y-75601000D01*
X128180783Y-75599480D01*
X128167583Y-75595476D01*
X128155429Y-75588980D01*
X128144769Y-75580231D01*
X128136020Y-75569571D01*
X128129524Y-75557417D01*
X128125520Y-75544217D01*
X128124000Y-75528786D01*
X128124000Y-74696214D01*
X128125520Y-74680783D01*
X128129524Y-74667583D01*
X128136020Y-74655429D01*
X128144769Y-74644769D01*
X128155429Y-74636020D01*
X128167583Y-74629524D01*
X128180783Y-74625520D01*
X128196214Y-74624000D01*
X128403786Y-74624000D01*
X128419217Y-74625520D01*
X128419217Y-74625520D01*
G37*
G36*
X128919217Y-74625520D02*
G01*
X128932417Y-74629524D01*
X128944571Y-74636020D01*
X128955231Y-74644769D01*
X128963980Y-74655429D01*
X128970476Y-74667583D01*
X128974480Y-74680783D01*
X128976000Y-74696214D01*
X128976000Y-75528786D01*
X128974480Y-75544217D01*
X128970476Y-75557417D01*
X128963980Y-75569571D01*
X128955231Y-75580231D01*
X128944571Y-75588980D01*
X128932417Y-75595476D01*
X128919217Y-75599480D01*
X128903786Y-75601000D01*
X128696214Y-75601000D01*
X128680783Y-75599480D01*
X128667583Y-75595476D01*
X128655429Y-75588980D01*
X128644769Y-75580231D01*
X128636020Y-75569571D01*
X128629524Y-75557417D01*
X128625520Y-75544217D01*
X128624000Y-75528786D01*
X128624000Y-74696214D01*
X128625520Y-74680783D01*
X128629524Y-74667583D01*
X128636020Y-74655429D01*
X128644769Y-74644769D01*
X128655429Y-74636020D01*
X128667583Y-74629524D01*
X128680783Y-74625520D01*
X128696214Y-74624000D01*
X128903786Y-74624000D01*
X128919217Y-74625520D01*
X128919217Y-74625520D01*
G37*
G36*
X120135806Y-74907154D02*
G01*
X120164946Y-74915994D01*
X120191798Y-74930347D01*
X120215336Y-74949664D01*
X120234653Y-74973202D01*
X120249006Y-75000054D01*
X120257846Y-75029194D01*
X120261000Y-75061224D01*
X120261000Y-75438776D01*
X120257846Y-75470806D01*
X120249006Y-75499946D01*
X120234653Y-75526798D01*
X120215336Y-75550336D01*
X120191798Y-75569653D01*
X120164946Y-75584006D01*
X120135806Y-75592846D01*
X120103776Y-75596000D01*
X119676224Y-75596000D01*
X119644194Y-75592846D01*
X119615054Y-75584006D01*
X119588202Y-75569653D01*
X119564664Y-75550336D01*
X119545347Y-75526798D01*
X119530994Y-75499946D01*
X119522154Y-75470806D01*
X119519000Y-75438776D01*
X119519000Y-75061224D01*
X119522154Y-75029194D01*
X119530994Y-75000054D01*
X119545347Y-74973202D01*
X119564664Y-74949664D01*
X119588202Y-74930347D01*
X119615054Y-74915994D01*
X119644194Y-74907154D01*
X119676224Y-74904000D01*
X120103776Y-74904000D01*
X120135806Y-74907154D01*
X120135806Y-74907154D01*
G37*
G36*
X118626000Y-75431000D02*
G01*
X117874000Y-75431000D01*
X117874000Y-74269000D01*
X118626000Y-74269000D01*
X118626000Y-75431000D01*
X118626000Y-75431000D01*
G37*
G36*
X116726000Y-75431000D02*
G01*
X115974000Y-75431000D01*
X115974000Y-74269000D01*
X116726000Y-74269000D01*
X116726000Y-75431000D01*
X116726000Y-75431000D01*
G37*
G36*
X123095806Y-74407154D02*
G01*
X123124946Y-74415994D01*
X123151798Y-74430347D01*
X123175336Y-74449664D01*
X123194653Y-74473202D01*
X123209006Y-74500054D01*
X123217846Y-74529194D01*
X123221000Y-74561224D01*
X123221000Y-74938776D01*
X123217846Y-74970806D01*
X123209006Y-74999946D01*
X123194653Y-75026798D01*
X123175336Y-75050336D01*
X123151798Y-75069653D01*
X123124946Y-75084006D01*
X123095806Y-75092846D01*
X123063776Y-75096000D01*
X122636224Y-75096000D01*
X122604194Y-75092846D01*
X122575054Y-75084006D01*
X122548202Y-75069653D01*
X122524664Y-75050336D01*
X122505347Y-75026798D01*
X122490994Y-74999946D01*
X122482154Y-74970806D01*
X122479000Y-74938776D01*
X122479000Y-74561224D01*
X122482154Y-74529194D01*
X122490994Y-74500054D01*
X122505347Y-74473202D01*
X122524664Y-74449664D01*
X122548202Y-74430347D01*
X122575054Y-74415994D01*
X122604194Y-74407154D01*
X122636224Y-74404000D01*
X123063776Y-74404000D01*
X123095806Y-74407154D01*
X123095806Y-74407154D01*
G37*
G36*
X131865806Y-74257154D02*
G01*
X131894946Y-74265994D01*
X131921798Y-74280347D01*
X131945336Y-74299664D01*
X131964653Y-74323202D01*
X131979006Y-74350054D01*
X131987846Y-74379194D01*
X131991000Y-74411224D01*
X131991000Y-74788776D01*
X131987846Y-74820806D01*
X131979006Y-74849946D01*
X131964653Y-74876798D01*
X131945336Y-74900336D01*
X131921798Y-74919653D01*
X131894946Y-74934006D01*
X131865806Y-74942846D01*
X131833776Y-74946000D01*
X131406224Y-74946000D01*
X131374194Y-74942846D01*
X131345054Y-74934006D01*
X131318202Y-74919653D01*
X131294664Y-74900336D01*
X131275347Y-74876798D01*
X131260994Y-74849946D01*
X131252154Y-74820806D01*
X131249000Y-74788776D01*
X131249000Y-74411224D01*
X131252154Y-74379194D01*
X131260994Y-74350054D01*
X131275347Y-74323202D01*
X131294664Y-74299664D01*
X131318202Y-74280347D01*
X131345054Y-74265994D01*
X131374194Y-74257154D01*
X131406224Y-74254000D01*
X131833776Y-74254000D01*
X131865806Y-74257154D01*
X131865806Y-74257154D01*
G37*
G36*
X134131796Y-73586972D02*
G01*
X134197182Y-73599978D01*
X134320206Y-73650936D01*
X134430925Y-73724916D01*
X134525084Y-73819075D01*
X134599064Y-73929794D01*
X134650022Y-74052818D01*
X134657661Y-74091224D01*
X134676000Y-74183418D01*
X134676000Y-74316582D01*
X134670968Y-74341879D01*
X134650022Y-74447182D01*
X134599064Y-74570206D01*
X134525084Y-74680925D01*
X134430925Y-74775084D01*
X134320206Y-74849064D01*
X134197182Y-74900022D01*
X134131881Y-74913011D01*
X134066582Y-74926000D01*
X133933418Y-74926000D01*
X133868119Y-74913011D01*
X133802818Y-74900022D01*
X133679794Y-74849064D01*
X133569075Y-74775084D01*
X133474916Y-74680925D01*
X133400936Y-74570206D01*
X133349978Y-74447182D01*
X133329032Y-74341879D01*
X133324000Y-74316582D01*
X133324000Y-74183418D01*
X133342339Y-74091224D01*
X133349978Y-74052818D01*
X133400936Y-73929794D01*
X133474916Y-73819075D01*
X133569075Y-73724916D01*
X133679794Y-73650936D01*
X133802818Y-73599978D01*
X133868204Y-73586972D01*
X133933418Y-73574000D01*
X134066582Y-73574000D01*
X134131796Y-73586972D01*
X134131796Y-73586972D01*
G37*
G36*
X113855806Y-74157154D02*
G01*
X113884946Y-74165994D01*
X113911798Y-74180347D01*
X113935336Y-74199664D01*
X113954653Y-74223202D01*
X113969006Y-74250054D01*
X113977846Y-74279194D01*
X113981000Y-74311224D01*
X113981000Y-74688776D01*
X113977846Y-74720806D01*
X113969006Y-74749946D01*
X113954653Y-74776798D01*
X113935336Y-74800336D01*
X113911798Y-74819653D01*
X113884946Y-74834006D01*
X113855806Y-74842846D01*
X113823776Y-74846000D01*
X113396224Y-74846000D01*
X113364194Y-74842846D01*
X113335054Y-74834006D01*
X113308202Y-74819653D01*
X113284664Y-74800336D01*
X113265347Y-74776798D01*
X113250994Y-74749946D01*
X113242154Y-74720806D01*
X113239000Y-74688776D01*
X113239000Y-74311224D01*
X113242154Y-74279194D01*
X113250994Y-74250054D01*
X113265347Y-74223202D01*
X113284664Y-74199664D01*
X113308202Y-74180347D01*
X113335054Y-74165994D01*
X113364194Y-74157154D01*
X113396224Y-74154000D01*
X113823776Y-74154000D01*
X113855806Y-74157154D01*
X113855806Y-74157154D01*
G37*
G36*
X111538012Y-73586972D02*
G01*
X111641882Y-73618480D01*
X111737597Y-73669641D01*
X111821501Y-73738499D01*
X111890359Y-73822403D01*
X111941520Y-73918118D01*
X111973028Y-74021988D01*
X111983666Y-74130000D01*
X111973028Y-74238012D01*
X111941520Y-74341882D01*
X111890359Y-74437597D01*
X111821501Y-74521501D01*
X111737597Y-74590359D01*
X111641882Y-74641520D01*
X111641879Y-74641521D01*
X111596029Y-74655429D01*
X111538012Y-74673028D01*
X111457071Y-74681000D01*
X111402929Y-74681000D01*
X111321988Y-74673028D01*
X111263971Y-74655429D01*
X111218121Y-74641521D01*
X111218118Y-74641520D01*
X111122403Y-74590359D01*
X111038499Y-74521501D01*
X110969641Y-74437597D01*
X110918480Y-74341882D01*
X110886972Y-74238012D01*
X110876334Y-74130000D01*
X110886972Y-74021988D01*
X110918480Y-73918118D01*
X110969641Y-73822403D01*
X111038499Y-73738499D01*
X111122403Y-73669641D01*
X111218118Y-73618480D01*
X111321988Y-73586972D01*
X111402929Y-73579000D01*
X111457071Y-73579000D01*
X111538012Y-73586972D01*
X111538012Y-73586972D01*
G37*
G36*
X120135806Y-73937154D02*
G01*
X120164946Y-73945994D01*
X120191798Y-73960347D01*
X120215336Y-73979664D01*
X120234653Y-74003202D01*
X120249006Y-74030054D01*
X120257846Y-74059194D01*
X120261000Y-74091224D01*
X120261000Y-74468776D01*
X120257846Y-74500806D01*
X120249006Y-74529946D01*
X120234653Y-74556798D01*
X120215336Y-74580336D01*
X120191798Y-74599653D01*
X120164946Y-74614006D01*
X120135806Y-74622846D01*
X120103776Y-74626000D01*
X119676224Y-74626000D01*
X119644194Y-74622846D01*
X119615054Y-74614006D01*
X119588202Y-74599653D01*
X119564664Y-74580336D01*
X119545347Y-74556798D01*
X119530994Y-74529946D01*
X119522154Y-74500806D01*
X119519000Y-74468776D01*
X119519000Y-74091224D01*
X119522154Y-74059194D01*
X119530994Y-74030054D01*
X119545347Y-74003202D01*
X119564664Y-73979664D01*
X119588202Y-73960347D01*
X119615054Y-73945994D01*
X119644194Y-73937154D01*
X119676224Y-73934000D01*
X120103776Y-73934000D01*
X120135806Y-73937154D01*
X120135806Y-73937154D01*
G37*
G36*
X123095806Y-73437154D02*
G01*
X123124946Y-73445994D01*
X123151798Y-73460347D01*
X123175336Y-73479664D01*
X123194653Y-73503202D01*
X123209006Y-73530054D01*
X123217846Y-73559194D01*
X123221000Y-73591224D01*
X123221000Y-73968776D01*
X123217846Y-74000806D01*
X123209006Y-74029946D01*
X123194653Y-74056798D01*
X123175336Y-74080336D01*
X123151798Y-74099653D01*
X123124946Y-74114006D01*
X123095806Y-74122846D01*
X123063776Y-74126000D01*
X122636224Y-74126000D01*
X122604194Y-74122846D01*
X122575054Y-74114006D01*
X122548202Y-74099653D01*
X122524664Y-74080336D01*
X122505347Y-74056798D01*
X122490994Y-74029946D01*
X122482154Y-74000806D01*
X122479000Y-73968776D01*
X122479000Y-73591224D01*
X122482154Y-73559194D01*
X122490994Y-73530054D01*
X122505347Y-73503202D01*
X122524664Y-73479664D01*
X122548202Y-73460347D01*
X122575054Y-73445994D01*
X122604194Y-73437154D01*
X122636224Y-73434000D01*
X123063776Y-73434000D01*
X123095806Y-73437154D01*
X123095806Y-73437154D01*
G37*
G36*
X113855806Y-73187154D02*
G01*
X113884946Y-73195994D01*
X113911798Y-73210347D01*
X113935336Y-73229664D01*
X113954653Y-73253202D01*
X113969006Y-73280054D01*
X113977846Y-73309194D01*
X113981000Y-73341224D01*
X113981000Y-73718776D01*
X113977846Y-73750806D01*
X113969006Y-73779946D01*
X113954653Y-73806798D01*
X113935336Y-73830336D01*
X113911798Y-73849653D01*
X113884946Y-73864006D01*
X113855806Y-73872846D01*
X113823776Y-73876000D01*
X113396224Y-73876000D01*
X113364194Y-73872846D01*
X113335054Y-73864006D01*
X113308202Y-73849653D01*
X113284664Y-73830336D01*
X113265347Y-73806798D01*
X113250994Y-73779946D01*
X113242154Y-73750806D01*
X113239000Y-73718776D01*
X113239000Y-73341224D01*
X113242154Y-73309194D01*
X113250994Y-73280054D01*
X113265347Y-73253202D01*
X113284664Y-73229664D01*
X113308202Y-73210347D01*
X113335054Y-73195994D01*
X113364194Y-73187154D01*
X113396224Y-73184000D01*
X113823776Y-73184000D01*
X113855806Y-73187154D01*
X113855806Y-73187154D01*
G37*
G36*
X120145806Y-72877154D02*
G01*
X120174946Y-72885994D01*
X120201798Y-72900347D01*
X120225336Y-72919664D01*
X120244653Y-72943202D01*
X120259006Y-72970054D01*
X120267846Y-72999194D01*
X120271000Y-73031224D01*
X120271000Y-73408776D01*
X120267846Y-73440806D01*
X120259006Y-73469946D01*
X120244653Y-73496798D01*
X120225336Y-73520336D01*
X120201798Y-73539653D01*
X120174946Y-73554006D01*
X120145806Y-73562846D01*
X120113776Y-73566000D01*
X119686224Y-73566000D01*
X119654194Y-73562846D01*
X119625054Y-73554006D01*
X119598202Y-73539653D01*
X119574664Y-73520336D01*
X119555347Y-73496798D01*
X119540994Y-73469946D01*
X119532154Y-73440806D01*
X119529000Y-73408776D01*
X119529000Y-73031224D01*
X119532154Y-72999194D01*
X119540994Y-72970054D01*
X119555347Y-72943202D01*
X119574664Y-72919664D01*
X119598202Y-72900347D01*
X119625054Y-72885994D01*
X119654194Y-72877154D01*
X119686224Y-72874000D01*
X120113776Y-72874000D01*
X120145806Y-72877154D01*
X120145806Y-72877154D01*
G37*
G36*
X111538012Y-72316972D02*
G01*
X111641882Y-72348480D01*
X111737597Y-72399641D01*
X111821501Y-72468499D01*
X111890359Y-72552403D01*
X111941520Y-72648118D01*
X111973028Y-72751988D01*
X111983666Y-72860000D01*
X111973028Y-72968012D01*
X111941520Y-73071882D01*
X111890359Y-73167597D01*
X111821501Y-73251501D01*
X111737597Y-73320359D01*
X111641882Y-73371520D01*
X111641879Y-73371521D01*
X111600720Y-73384006D01*
X111538012Y-73403028D01*
X111457071Y-73411000D01*
X111402929Y-73411000D01*
X111321988Y-73403028D01*
X111259280Y-73384006D01*
X111218121Y-73371521D01*
X111218118Y-73371520D01*
X111122403Y-73320359D01*
X111038499Y-73251501D01*
X110969641Y-73167597D01*
X110918480Y-73071882D01*
X110886972Y-72968012D01*
X110876334Y-72860000D01*
X110886972Y-72751988D01*
X110918480Y-72648118D01*
X110969641Y-72552403D01*
X111038499Y-72468499D01*
X111122403Y-72399641D01*
X111218118Y-72348480D01*
X111321988Y-72316972D01*
X111402929Y-72309000D01*
X111457071Y-72309000D01*
X111538012Y-72316972D01*
X111538012Y-72316972D01*
G37*
G36*
X124895806Y-72717154D02*
G01*
X124924946Y-72725994D01*
X124951798Y-72740347D01*
X124975336Y-72759664D01*
X124994653Y-72783202D01*
X125009006Y-72810054D01*
X125017846Y-72839194D01*
X125021000Y-72871224D01*
X125021000Y-73248776D01*
X125017846Y-73280806D01*
X125009006Y-73309946D01*
X124994653Y-73336798D01*
X124975336Y-73360336D01*
X124951798Y-73379653D01*
X124924946Y-73394006D01*
X124895806Y-73402846D01*
X124863776Y-73406000D01*
X124436224Y-73406000D01*
X124404194Y-73402846D01*
X124375054Y-73394006D01*
X124348202Y-73379653D01*
X124324664Y-73360336D01*
X124305347Y-73336798D01*
X124290994Y-73309946D01*
X124282154Y-73280806D01*
X124279000Y-73248776D01*
X124279000Y-72871224D01*
X124282154Y-72839194D01*
X124290994Y-72810054D01*
X124305347Y-72783202D01*
X124324664Y-72759664D01*
X124348202Y-72740347D01*
X124375054Y-72725994D01*
X124404194Y-72717154D01*
X124436224Y-72714000D01*
X124863776Y-72714000D01*
X124895806Y-72717154D01*
X124895806Y-72717154D01*
G37*
G36*
X126425806Y-72707154D02*
G01*
X126454946Y-72715994D01*
X126481798Y-72730347D01*
X126505336Y-72749664D01*
X126524653Y-72773202D01*
X126539006Y-72800054D01*
X126547846Y-72829194D01*
X126551000Y-72861224D01*
X126551000Y-73238776D01*
X126547846Y-73270806D01*
X126539006Y-73299946D01*
X126524653Y-73326798D01*
X126505336Y-73350336D01*
X126481798Y-73369653D01*
X126454946Y-73384006D01*
X126425806Y-73392846D01*
X126393776Y-73396000D01*
X125966224Y-73396000D01*
X125934194Y-73392846D01*
X125905054Y-73384006D01*
X125878202Y-73369653D01*
X125854664Y-73350336D01*
X125835347Y-73326798D01*
X125820994Y-73299946D01*
X125812154Y-73270806D01*
X125809000Y-73238776D01*
X125809000Y-72861224D01*
X125812154Y-72829194D01*
X125820994Y-72800054D01*
X125835347Y-72773202D01*
X125854664Y-72749664D01*
X125878202Y-72730347D01*
X125905054Y-72715994D01*
X125934194Y-72707154D01*
X125966224Y-72704000D01*
X126393776Y-72704000D01*
X126425806Y-72707154D01*
X126425806Y-72707154D01*
G37*
G36*
X128225806Y-72697154D02*
G01*
X128254946Y-72705994D01*
X128281798Y-72720347D01*
X128305336Y-72739664D01*
X128324653Y-72763202D01*
X128339006Y-72790054D01*
X128347846Y-72819194D01*
X128351000Y-72851224D01*
X128351000Y-73228776D01*
X128347846Y-73260806D01*
X128339006Y-73289946D01*
X128324653Y-73316798D01*
X128305336Y-73340336D01*
X128281798Y-73359653D01*
X128254946Y-73374006D01*
X128225806Y-73382846D01*
X128193776Y-73386000D01*
X127766224Y-73386000D01*
X127734194Y-73382846D01*
X127705054Y-73374006D01*
X127678202Y-73359653D01*
X127654664Y-73340336D01*
X127635347Y-73316798D01*
X127620994Y-73289946D01*
X127612154Y-73260806D01*
X127609000Y-73228776D01*
X127609000Y-72851224D01*
X127612154Y-72819194D01*
X127620994Y-72790054D01*
X127635347Y-72763202D01*
X127654664Y-72739664D01*
X127678202Y-72720347D01*
X127705054Y-72705994D01*
X127734194Y-72697154D01*
X127766224Y-72694000D01*
X128193776Y-72694000D01*
X128225806Y-72697154D01*
X128225806Y-72697154D01*
G37*
G36*
X117676000Y-73231000D02*
G01*
X116924000Y-73231000D01*
X116924000Y-72069000D01*
X117676000Y-72069000D01*
X117676000Y-73231000D01*
X117676000Y-73231000D01*
G37*
G36*
X116726000Y-73231000D02*
G01*
X115974000Y-73231000D01*
X115974000Y-72069000D01*
X116726000Y-72069000D01*
X116726000Y-73231000D01*
X116726000Y-73231000D01*
G37*
G36*
X118626000Y-73231000D02*
G01*
X117874000Y-73231000D01*
X117874000Y-72069000D01*
X118626000Y-72069000D01*
X118626000Y-73231000D01*
X118626000Y-73231000D01*
G37*
G36*
X120145806Y-71907154D02*
G01*
X120174946Y-71915994D01*
X120201798Y-71930347D01*
X120225336Y-71949664D01*
X120244653Y-71973202D01*
X120259006Y-72000054D01*
X120267846Y-72029194D01*
X120271000Y-72061224D01*
X120271000Y-72438776D01*
X120267846Y-72470806D01*
X120259006Y-72499946D01*
X120244653Y-72526798D01*
X120225336Y-72550336D01*
X120201798Y-72569653D01*
X120174946Y-72584006D01*
X120145806Y-72592846D01*
X120113776Y-72596000D01*
X119686224Y-72596000D01*
X119654194Y-72592846D01*
X119625054Y-72584006D01*
X119598202Y-72569653D01*
X119574664Y-72550336D01*
X119555347Y-72526798D01*
X119540994Y-72499946D01*
X119532154Y-72470806D01*
X119529000Y-72438776D01*
X119529000Y-72061224D01*
X119532154Y-72029194D01*
X119540994Y-72000054D01*
X119555347Y-71973202D01*
X119574664Y-71949664D01*
X119598202Y-71930347D01*
X119625054Y-71915994D01*
X119654194Y-71907154D01*
X119686224Y-71904000D01*
X120113776Y-71904000D01*
X120145806Y-71907154D01*
X120145806Y-71907154D01*
G37*
G36*
X124895806Y-71747154D02*
G01*
X124924946Y-71755994D01*
X124951798Y-71770347D01*
X124975336Y-71789664D01*
X124994653Y-71813202D01*
X125009006Y-71840054D01*
X125017846Y-71869194D01*
X125021000Y-71901224D01*
X125021000Y-72278776D01*
X125017846Y-72310806D01*
X125009006Y-72339946D01*
X124994653Y-72366798D01*
X124975336Y-72390336D01*
X124951798Y-72409653D01*
X124924946Y-72424006D01*
X124895806Y-72432846D01*
X124863776Y-72436000D01*
X124436224Y-72436000D01*
X124404194Y-72432846D01*
X124375054Y-72424006D01*
X124348202Y-72409653D01*
X124324664Y-72390336D01*
X124305347Y-72366798D01*
X124290994Y-72339946D01*
X124282154Y-72310806D01*
X124279000Y-72278776D01*
X124279000Y-71901224D01*
X124282154Y-71869194D01*
X124290994Y-71840054D01*
X124305347Y-71813202D01*
X124324664Y-71789664D01*
X124348202Y-71770347D01*
X124375054Y-71755994D01*
X124404194Y-71747154D01*
X124436224Y-71744000D01*
X124863776Y-71744000D01*
X124895806Y-71747154D01*
X124895806Y-71747154D01*
G37*
G36*
X126425806Y-71737154D02*
G01*
X126454946Y-71745994D01*
X126481798Y-71760347D01*
X126505336Y-71779664D01*
X126524653Y-71803202D01*
X126539006Y-71830054D01*
X126547846Y-71859194D01*
X126551000Y-71891224D01*
X126551000Y-72268776D01*
X126547846Y-72300806D01*
X126539006Y-72329946D01*
X126524653Y-72356798D01*
X126505336Y-72380336D01*
X126481798Y-72399653D01*
X126454946Y-72414006D01*
X126425806Y-72422846D01*
X126393776Y-72426000D01*
X125966224Y-72426000D01*
X125934194Y-72422846D01*
X125905054Y-72414006D01*
X125878202Y-72399653D01*
X125854664Y-72380336D01*
X125835347Y-72356798D01*
X125820994Y-72329946D01*
X125812154Y-72300806D01*
X125809000Y-72268776D01*
X125809000Y-71891224D01*
X125812154Y-71859194D01*
X125820994Y-71830054D01*
X125835347Y-71803202D01*
X125854664Y-71779664D01*
X125878202Y-71760347D01*
X125905054Y-71745994D01*
X125934194Y-71737154D01*
X125966224Y-71734000D01*
X126393776Y-71734000D01*
X126425806Y-71737154D01*
X126425806Y-71737154D01*
G37*
G36*
X128225806Y-71727154D02*
G01*
X128254946Y-71735994D01*
X128281798Y-71750347D01*
X128305336Y-71769664D01*
X128324653Y-71793202D01*
X128339006Y-71820054D01*
X128347846Y-71849194D01*
X128351000Y-71881224D01*
X128351000Y-72258776D01*
X128347846Y-72290806D01*
X128339006Y-72319946D01*
X128324653Y-72346798D01*
X128305336Y-72370336D01*
X128281798Y-72389653D01*
X128254946Y-72404006D01*
X128225806Y-72412846D01*
X128193776Y-72416000D01*
X127766224Y-72416000D01*
X127734194Y-72412846D01*
X127705054Y-72404006D01*
X127678202Y-72389653D01*
X127654664Y-72370336D01*
X127635347Y-72346798D01*
X127620994Y-72319946D01*
X127612154Y-72290806D01*
X127609000Y-72258776D01*
X127609000Y-71881224D01*
X127612154Y-71849194D01*
X127620994Y-71820054D01*
X127635347Y-71793202D01*
X127654664Y-71769664D01*
X127678202Y-71750347D01*
X127705054Y-71735994D01*
X127734194Y-71727154D01*
X127766224Y-71724000D01*
X128193776Y-71724000D01*
X128225806Y-71727154D01*
X128225806Y-71727154D01*
G37*
G36*
X133275734Y-69913232D02*
G01*
X133398439Y-69964058D01*
X133485204Y-69999997D01*
X133673721Y-70125960D01*
X133834040Y-70286279D01*
X133960003Y-70474796D01*
X133972928Y-70506000D01*
X134046768Y-70684266D01*
X134091000Y-70906636D01*
X134091000Y-71133364D01*
X134046768Y-71355734D01*
X134037496Y-71378118D01*
X133960003Y-71565204D01*
X133834040Y-71753721D01*
X133673721Y-71914040D01*
X133485204Y-72040003D01*
X133433971Y-72061224D01*
X133275734Y-72126768D01*
X133053364Y-72171000D01*
X132826636Y-72171000D01*
X132604266Y-72126768D01*
X132446029Y-72061224D01*
X132394796Y-72040003D01*
X132206279Y-71914040D01*
X132045960Y-71753721D01*
X131919997Y-71565204D01*
X131842504Y-71378118D01*
X131833232Y-71355734D01*
X131789000Y-71133364D01*
X131789000Y-70906636D01*
X131833232Y-70684266D01*
X131907072Y-70506000D01*
X131919997Y-70474796D01*
X132045960Y-70286279D01*
X132206279Y-70125960D01*
X132394796Y-69999997D01*
X132481561Y-69964058D01*
X132604266Y-69913232D01*
X132826636Y-69869000D01*
X133053364Y-69869000D01*
X133275734Y-69913232D01*
X133275734Y-69913232D01*
G37*
G36*
X111538012Y-71046972D02*
G01*
X111641882Y-71078480D01*
X111737597Y-71129641D01*
X111821501Y-71198499D01*
X111890359Y-71282403D01*
X111941520Y-71378118D01*
X111973028Y-71481988D01*
X111983666Y-71590000D01*
X111973028Y-71698012D01*
X111961155Y-71737154D01*
X111956130Y-71753720D01*
X111941520Y-71801882D01*
X111890359Y-71897597D01*
X111821501Y-71981501D01*
X111737597Y-72050359D01*
X111641882Y-72101520D01*
X111538012Y-72133028D01*
X111457071Y-72141000D01*
X111402929Y-72141000D01*
X111321988Y-72133028D01*
X111218118Y-72101520D01*
X111122403Y-72050359D01*
X111038499Y-71981501D01*
X110969641Y-71897597D01*
X110918480Y-71801882D01*
X110903871Y-71753720D01*
X110898845Y-71737154D01*
X110886972Y-71698012D01*
X110876334Y-71590000D01*
X110886972Y-71481988D01*
X110918480Y-71378118D01*
X110969641Y-71282403D01*
X111038499Y-71198499D01*
X111122403Y-71129641D01*
X111218118Y-71078480D01*
X111321988Y-71046972D01*
X111402929Y-71039000D01*
X111457071Y-71039000D01*
X111538012Y-71046972D01*
X111538012Y-71046972D01*
G37*
G36*
X111981000Y-70871000D02*
G01*
X110879000Y-70871000D01*
X110879000Y-69769000D01*
X111981000Y-69769000D01*
X111981000Y-70871000D01*
X111981000Y-70871000D01*
G37*
G36*
X130711881Y-69176989D02*
G01*
X130777182Y-69189978D01*
X130900206Y-69240936D01*
X131010925Y-69314916D01*
X131105084Y-69409075D01*
X131179064Y-69519794D01*
X131230022Y-69642818D01*
X131230022Y-69642820D01*
X131250033Y-69743418D01*
X131256000Y-69773420D01*
X131256000Y-69906580D01*
X131230022Y-70037182D01*
X131179064Y-70160206D01*
X131105084Y-70270925D01*
X131010925Y-70365084D01*
X130900206Y-70439064D01*
X130777182Y-70490022D01*
X130711881Y-70503011D01*
X130646582Y-70516000D01*
X130513418Y-70516000D01*
X130448119Y-70503011D01*
X130382818Y-70490022D01*
X130259794Y-70439064D01*
X130149075Y-70365084D01*
X130054916Y-70270925D01*
X129980936Y-70160206D01*
X129929978Y-70037182D01*
X129904000Y-69906580D01*
X129904000Y-69773420D01*
X129909968Y-69743418D01*
X129929978Y-69642820D01*
X129929978Y-69642818D01*
X129980936Y-69519794D01*
X130054916Y-69409075D01*
X130149075Y-69314916D01*
X130259794Y-69240936D01*
X130382818Y-69189978D01*
X130448119Y-69176989D01*
X130513418Y-69164000D01*
X130646582Y-69164000D01*
X130711881Y-69176989D01*
X130711881Y-69176989D01*
G37*
G36*
X125461881Y-69176989D02*
G01*
X125527182Y-69189978D01*
X125650206Y-69240936D01*
X125760925Y-69314916D01*
X125855084Y-69409075D01*
X125929064Y-69519794D01*
X125980022Y-69642818D01*
X125980022Y-69642820D01*
X126000033Y-69743418D01*
X126006000Y-69773420D01*
X126006000Y-69906580D01*
X125980022Y-70037182D01*
X125929064Y-70160206D01*
X125855084Y-70270925D01*
X125760925Y-70365084D01*
X125650206Y-70439064D01*
X125527182Y-70490022D01*
X125461881Y-70503011D01*
X125396582Y-70516000D01*
X125263418Y-70516000D01*
X125198119Y-70503011D01*
X125132818Y-70490022D01*
X125009794Y-70439064D01*
X124899075Y-70365084D01*
X124804916Y-70270925D01*
X124730936Y-70160206D01*
X124679978Y-70037182D01*
X124654000Y-69906580D01*
X124654000Y-69773420D01*
X124659968Y-69743418D01*
X124679978Y-69642820D01*
X124679978Y-69642818D01*
X124730936Y-69519794D01*
X124804916Y-69409075D01*
X124899075Y-69314916D01*
X125009794Y-69240936D01*
X125132818Y-69189978D01*
X125198119Y-69176989D01*
X125263418Y-69164000D01*
X125396582Y-69164000D01*
X125461881Y-69176989D01*
X125461881Y-69176989D01*
G37*
G36*
X127211881Y-69176989D02*
G01*
X127277182Y-69189978D01*
X127400206Y-69240936D01*
X127510925Y-69314916D01*
X127605084Y-69409075D01*
X127679064Y-69519794D01*
X127730022Y-69642818D01*
X127730022Y-69642820D01*
X127750033Y-69743418D01*
X127756000Y-69773420D01*
X127756000Y-69906580D01*
X127730022Y-70037182D01*
X127679064Y-70160206D01*
X127605084Y-70270925D01*
X127510925Y-70365084D01*
X127400206Y-70439064D01*
X127277182Y-70490022D01*
X127211881Y-70503011D01*
X127146582Y-70516000D01*
X127013418Y-70516000D01*
X126948119Y-70503011D01*
X126882818Y-70490022D01*
X126759794Y-70439064D01*
X126649075Y-70365084D01*
X126554916Y-70270925D01*
X126480936Y-70160206D01*
X126429978Y-70037182D01*
X126404000Y-69906580D01*
X126404000Y-69773420D01*
X126409968Y-69743418D01*
X126429978Y-69642820D01*
X126429978Y-69642818D01*
X126480936Y-69519794D01*
X126554916Y-69409075D01*
X126649075Y-69314916D01*
X126759794Y-69240936D01*
X126882818Y-69189978D01*
X126948119Y-69176989D01*
X127013418Y-69164000D01*
X127146582Y-69164000D01*
X127211881Y-69176989D01*
X127211881Y-69176989D01*
G37*
G36*
X128961881Y-69176989D02*
G01*
X129027182Y-69189978D01*
X129150206Y-69240936D01*
X129260925Y-69314916D01*
X129355084Y-69409075D01*
X129429064Y-69519794D01*
X129480022Y-69642818D01*
X129480022Y-69642820D01*
X129500033Y-69743418D01*
X129506000Y-69773420D01*
X129506000Y-69906580D01*
X129480022Y-70037182D01*
X129429064Y-70160206D01*
X129355084Y-70270925D01*
X129260925Y-70365084D01*
X129150206Y-70439064D01*
X129027182Y-70490022D01*
X128961881Y-70503011D01*
X128896582Y-70516000D01*
X128763418Y-70516000D01*
X128698119Y-70503011D01*
X128632818Y-70490022D01*
X128509794Y-70439064D01*
X128399075Y-70365084D01*
X128304916Y-70270925D01*
X128230936Y-70160206D01*
X128179978Y-70037182D01*
X128154000Y-69906580D01*
X128154000Y-69773420D01*
X128159968Y-69743418D01*
X128179978Y-69642820D01*
X128179978Y-69642818D01*
X128230936Y-69519794D01*
X128304916Y-69409075D01*
X128399075Y-69314916D01*
X128509794Y-69240936D01*
X128632818Y-69189978D01*
X128698119Y-69176989D01*
X128763418Y-69164000D01*
X128896582Y-69164000D01*
X128961881Y-69176989D01*
X128961881Y-69176989D01*
G37*
G36*
X117241881Y-69166989D02*
G01*
X117307182Y-69179978D01*
X117430206Y-69230936D01*
X117540925Y-69304916D01*
X117635084Y-69399075D01*
X117709064Y-69509794D01*
X117760022Y-69632818D01*
X117760022Y-69632820D01*
X117782022Y-69743418D01*
X117786000Y-69763420D01*
X117786000Y-69896580D01*
X117760022Y-70027182D01*
X117709064Y-70150206D01*
X117635084Y-70260925D01*
X117540925Y-70355084D01*
X117430206Y-70429064D01*
X117307182Y-70480022D01*
X117241881Y-70493011D01*
X117176582Y-70506000D01*
X117043418Y-70506000D01*
X116978119Y-70493011D01*
X116912818Y-70480022D01*
X116789794Y-70429064D01*
X116679075Y-70355084D01*
X116584916Y-70260925D01*
X116510936Y-70150206D01*
X116459978Y-70027182D01*
X116434000Y-69896580D01*
X116434000Y-69763420D01*
X116437979Y-69743418D01*
X116459978Y-69632820D01*
X116459978Y-69632818D01*
X116510936Y-69509794D01*
X116584916Y-69399075D01*
X116679075Y-69304916D01*
X116789794Y-69230936D01*
X116912818Y-69179978D01*
X116978119Y-69166989D01*
X117043418Y-69154000D01*
X117176582Y-69154000D01*
X117241881Y-69166989D01*
X117241881Y-69166989D01*
G37*
G36*
X119101881Y-69146989D02*
G01*
X119167182Y-69159978D01*
X119290206Y-69210936D01*
X119400925Y-69284916D01*
X119495084Y-69379075D01*
X119569064Y-69489794D01*
X119620022Y-69612818D01*
X119633011Y-69678119D01*
X119646000Y-69743418D01*
X119646000Y-69876582D01*
X119633011Y-69941881D01*
X119620022Y-70007182D01*
X119569064Y-70130206D01*
X119495084Y-70240925D01*
X119400925Y-70335084D01*
X119290206Y-70409064D01*
X119167182Y-70460022D01*
X119101881Y-70473011D01*
X119036582Y-70486000D01*
X118903418Y-70486000D01*
X118838119Y-70473011D01*
X118772818Y-70460022D01*
X118649794Y-70409064D01*
X118539075Y-70335084D01*
X118444916Y-70240925D01*
X118370936Y-70130206D01*
X118319978Y-70007182D01*
X118306989Y-69941881D01*
X118294000Y-69876582D01*
X118294000Y-69743418D01*
X118306989Y-69678119D01*
X118319978Y-69612818D01*
X118370936Y-69489794D01*
X118444916Y-69379075D01*
X118539075Y-69284916D01*
X118649794Y-69210936D01*
X118772818Y-69159978D01*
X118838119Y-69146989D01*
X118903418Y-69134000D01*
X119036582Y-69134000D01*
X119101881Y-69146989D01*
X119101881Y-69146989D01*
G37*
G36*
X122601881Y-69146989D02*
G01*
X122667182Y-69159978D01*
X122790206Y-69210936D01*
X122900925Y-69284916D01*
X122995084Y-69379075D01*
X123069064Y-69489794D01*
X123120022Y-69612818D01*
X123133011Y-69678119D01*
X123146000Y-69743418D01*
X123146000Y-69876582D01*
X123133011Y-69941881D01*
X123120022Y-70007182D01*
X123069064Y-70130206D01*
X122995084Y-70240925D01*
X122900925Y-70335084D01*
X122790206Y-70409064D01*
X122667182Y-70460022D01*
X122601881Y-70473011D01*
X122536582Y-70486000D01*
X122403418Y-70486000D01*
X122338119Y-70473011D01*
X122272818Y-70460022D01*
X122149794Y-70409064D01*
X122039075Y-70335084D01*
X121944916Y-70240925D01*
X121870936Y-70130206D01*
X121819978Y-70007182D01*
X121806989Y-69941881D01*
X121794000Y-69876582D01*
X121794000Y-69743418D01*
X121806989Y-69678119D01*
X121819978Y-69612818D01*
X121870936Y-69489794D01*
X121944916Y-69379075D01*
X122039075Y-69284916D01*
X122149794Y-69210936D01*
X122272818Y-69159978D01*
X122338119Y-69146989D01*
X122403418Y-69134000D01*
X122536582Y-69134000D01*
X122601881Y-69146989D01*
X122601881Y-69146989D01*
G37*
G36*
X120851881Y-69146989D02*
G01*
X120917182Y-69159978D01*
X121040206Y-69210936D01*
X121150925Y-69284916D01*
X121245084Y-69379075D01*
X121319064Y-69489794D01*
X121370022Y-69612818D01*
X121383011Y-69678119D01*
X121396000Y-69743418D01*
X121396000Y-69876582D01*
X121383011Y-69941881D01*
X121370022Y-70007182D01*
X121319064Y-70130206D01*
X121245084Y-70240925D01*
X121150925Y-70335084D01*
X121040206Y-70409064D01*
X120917182Y-70460022D01*
X120851881Y-70473011D01*
X120786582Y-70486000D01*
X120653418Y-70486000D01*
X120588119Y-70473011D01*
X120522818Y-70460022D01*
X120399794Y-70409064D01*
X120289075Y-70335084D01*
X120194916Y-70240925D01*
X120120936Y-70130206D01*
X120069978Y-70007182D01*
X120056989Y-69941881D01*
X120044000Y-69876582D01*
X120044000Y-69743418D01*
X120056989Y-69678119D01*
X120069978Y-69612818D01*
X120120936Y-69489794D01*
X120194916Y-69379075D01*
X120289075Y-69284916D01*
X120399794Y-69210936D01*
X120522818Y-69159978D01*
X120588119Y-69146989D01*
X120653418Y-69134000D01*
X120786582Y-69134000D01*
X120851881Y-69146989D01*
X120851881Y-69146989D01*
G37*
G36*
X115391881Y-69146989D02*
G01*
X115457182Y-69159978D01*
X115580206Y-69210936D01*
X115690925Y-69284916D01*
X115785084Y-69379075D01*
X115859064Y-69489794D01*
X115910022Y-69612818D01*
X115923011Y-69678119D01*
X115936000Y-69743418D01*
X115936000Y-69876582D01*
X115923011Y-69941881D01*
X115910022Y-70007182D01*
X115859064Y-70130206D01*
X115785084Y-70240925D01*
X115690925Y-70335084D01*
X115580206Y-70409064D01*
X115457182Y-70460022D01*
X115391881Y-70473011D01*
X115326582Y-70486000D01*
X115193418Y-70486000D01*
X115128119Y-70473011D01*
X115062818Y-70460022D01*
X114939794Y-70409064D01*
X114829075Y-70335084D01*
X114734916Y-70240925D01*
X114660936Y-70130206D01*
X114609978Y-70007182D01*
X114596989Y-69941881D01*
X114584000Y-69876582D01*
X114584000Y-69743418D01*
X114596989Y-69678119D01*
X114609978Y-69612818D01*
X114660936Y-69489794D01*
X114734916Y-69379075D01*
X114829075Y-69284916D01*
X114939794Y-69210936D01*
X115062818Y-69159978D01*
X115128119Y-69146989D01*
X115193418Y-69134000D01*
X115326582Y-69134000D01*
X115391881Y-69146989D01*
X115391881Y-69146989D01*
G37*
M02*
