G04 #@! TF.GenerationSoftware,KiCad,Pcbnew,(5.1.4)-1*
G04 #@! TF.CreationDate,2020-11-12T16:18:46-05:00*
G04 #@! TF.ProjectId,UniAmp,556e6941-6d70-42e6-9b69-6361645f7063,rev?*
G04 #@! TF.SameCoordinates,Original*
G04 #@! TF.FileFunction,Legend,Bot*
G04 #@! TF.FilePolarity,Positive*
%FSLAX46Y46*%
G04 Gerber Fmt 4.6, Leading zero omitted, Abs format (unit mm)*
G04 Created by KiCad (PCBNEW (5.1.4)-1) date 2020-11-12 16:18:46*
%MOMM*%
%LPD*%
G04 APERTURE LIST*
%ADD10C,0.125000*%
G04 APERTURE END LIST*
D10*
X122002857Y-69748690D02*
X122098095Y-69748690D01*
X122145714Y-69772500D01*
X122169523Y-69796309D01*
X122217142Y-69867738D01*
X122240952Y-69962976D01*
X122240952Y-70153452D01*
X122217142Y-70201071D01*
X122193333Y-70224880D01*
X122145714Y-70248690D01*
X122050476Y-70248690D01*
X122002857Y-70224880D01*
X121979047Y-70201071D01*
X121955238Y-70153452D01*
X121955238Y-70034404D01*
X121979047Y-69986785D01*
X122002857Y-69962976D01*
X122050476Y-69939166D01*
X122145714Y-69939166D01*
X122193333Y-69962976D01*
X122217142Y-69986785D01*
X122240952Y-70034404D01*
X121526666Y-69915357D02*
X121526666Y-70248690D01*
X121645714Y-69724880D02*
X121764761Y-70082023D01*
X121455238Y-70082023D01*
X121288571Y-70105833D02*
X121050476Y-70105833D01*
X121336190Y-70248690D02*
X121169523Y-69748690D01*
X121002857Y-70248690D01*
X120836190Y-70248690D02*
X120836190Y-69748690D01*
X120669523Y-70105833D01*
X120502857Y-69748690D01*
X120502857Y-70248690D01*
X120264761Y-70248690D02*
X120264761Y-69748690D01*
X120074285Y-69748690D01*
X120026666Y-69772500D01*
X120002857Y-69796309D01*
X119979047Y-69843928D01*
X119979047Y-69915357D01*
X120002857Y-69962976D01*
X120026666Y-69986785D01*
X120074285Y-70010595D01*
X120264761Y-70010595D01*
X123026666Y-71123690D02*
X123026666Y-70623690D01*
X123026666Y-70814166D02*
X122979047Y-70790357D01*
X122883809Y-70790357D01*
X122836190Y-70814166D01*
X122812380Y-70837976D01*
X122788571Y-70885595D01*
X122788571Y-71028452D01*
X122812380Y-71076071D01*
X122836190Y-71099880D01*
X122883809Y-71123690D01*
X122979047Y-71123690D01*
X123026666Y-71099880D01*
X122574285Y-71123690D02*
X122574285Y-70790357D01*
X122574285Y-70623690D02*
X122598095Y-70647500D01*
X122574285Y-70671309D01*
X122550476Y-70647500D01*
X122574285Y-70623690D01*
X122574285Y-70671309D01*
X122407619Y-70790357D02*
X122217142Y-70790357D01*
X122336190Y-70623690D02*
X122336190Y-71052261D01*
X122312380Y-71099880D01*
X122264761Y-71123690D01*
X122217142Y-71123690D01*
X122050476Y-71123690D02*
X122050476Y-70623690D01*
X122050476Y-70814166D02*
X122002857Y-70790357D01*
X121907619Y-70790357D01*
X121860000Y-70814166D01*
X121836190Y-70837976D01*
X121812380Y-70885595D01*
X121812380Y-71028452D01*
X121836190Y-71076071D01*
X121860000Y-71099880D01*
X121907619Y-71123690D01*
X122002857Y-71123690D01*
X122050476Y-71099880D01*
X121383809Y-70790357D02*
X121383809Y-71123690D01*
X121598095Y-70790357D02*
X121598095Y-71052261D01*
X121574285Y-71099880D01*
X121526666Y-71123690D01*
X121455238Y-71123690D01*
X121407619Y-71099880D01*
X121383809Y-71076071D01*
X121145714Y-71123690D02*
X121145714Y-70790357D01*
X121145714Y-70623690D02*
X121169523Y-70647500D01*
X121145714Y-70671309D01*
X121121904Y-70647500D01*
X121145714Y-70623690D01*
X121145714Y-70671309D01*
X120836190Y-71123690D02*
X120883809Y-71099880D01*
X120907619Y-71052261D01*
X120907619Y-70623690D01*
X120717142Y-70790357D02*
X120526666Y-70790357D01*
X120645714Y-70623690D02*
X120645714Y-71052261D01*
X120621904Y-71099880D01*
X120574285Y-71123690D01*
X120526666Y-71123690D01*
X120360000Y-71076071D02*
X120336190Y-71099880D01*
X120360000Y-71123690D01*
X120383809Y-71099880D01*
X120360000Y-71076071D01*
X120360000Y-71123690D01*
X120121904Y-70790357D02*
X120121904Y-71123690D01*
X120121904Y-70837976D02*
X120098095Y-70814166D01*
X120050476Y-70790357D01*
X119979047Y-70790357D01*
X119931428Y-70814166D01*
X119907619Y-70861785D01*
X119907619Y-71123690D01*
X119479047Y-71099880D02*
X119526666Y-71123690D01*
X119621904Y-71123690D01*
X119669523Y-71099880D01*
X119693333Y-71052261D01*
X119693333Y-70861785D01*
X119669523Y-70814166D01*
X119621904Y-70790357D01*
X119526666Y-70790357D01*
X119479047Y-70814166D01*
X119455238Y-70861785D01*
X119455238Y-70909404D01*
X119693333Y-70957023D01*
X119312380Y-70790357D02*
X119121904Y-70790357D01*
X119240952Y-70623690D02*
X119240952Y-71052261D01*
X119217142Y-71099880D01*
X119169523Y-71123690D01*
X119121904Y-71123690D01*
X118045714Y-78886190D02*
X118045714Y-79243333D01*
X118069523Y-79314761D01*
X118117142Y-79362380D01*
X118188571Y-79386190D01*
X118236190Y-79386190D01*
X117545714Y-79386190D02*
X117831428Y-79386190D01*
X117688571Y-79386190D02*
X117688571Y-78886190D01*
X117736190Y-78957619D01*
X117783809Y-79005238D01*
X117831428Y-79029047D01*
X117331428Y-79338571D02*
X117307619Y-79362380D01*
X117331428Y-79386190D01*
X117355238Y-79362380D01*
X117331428Y-79338571D01*
X117331428Y-79386190D01*
X117331428Y-79076666D02*
X117307619Y-79100476D01*
X117331428Y-79124285D01*
X117355238Y-79100476D01*
X117331428Y-79076666D01*
X117331428Y-79124285D01*
X118124464Y-79718690D02*
X118029226Y-79718690D01*
X117981607Y-79742500D01*
X117933988Y-79790119D01*
X117910178Y-79885357D01*
X117910178Y-80052023D01*
X117933988Y-80147261D01*
X117981607Y-80194880D01*
X118029226Y-80218690D01*
X118124464Y-80218690D01*
X118172083Y-80194880D01*
X118219702Y-80147261D01*
X118243511Y-80052023D01*
X118243511Y-79885357D01*
X118219702Y-79790119D01*
X118172083Y-79742500D01*
X118124464Y-79718690D01*
X117695892Y-80218690D02*
X117695892Y-79718690D01*
X117505416Y-79718690D01*
X117457797Y-79742500D01*
X117433988Y-79766309D01*
X117410178Y-79813928D01*
X117410178Y-79885357D01*
X117433988Y-79932976D01*
X117457797Y-79956785D01*
X117505416Y-79980595D01*
X117695892Y-79980595D01*
X117195892Y-79956785D02*
X117029226Y-79956785D01*
X116957797Y-80218690D02*
X117195892Y-80218690D01*
X117195892Y-79718690D01*
X116957797Y-79718690D01*
X116743511Y-80218690D02*
X116743511Y-79718690D01*
X116457797Y-80218690D01*
X116457797Y-79718690D01*
X116219702Y-80171071D02*
X116195892Y-80194880D01*
X116219702Y-80218690D01*
X116243511Y-80194880D01*
X116219702Y-80171071D01*
X116219702Y-80218690D01*
X116219702Y-79909166D02*
X116195892Y-79932976D01*
X116219702Y-79956785D01*
X116243511Y-79932976D01*
X116219702Y-79909166D01*
X116219702Y-79956785D01*
X115600654Y-80218690D02*
X115600654Y-79718690D01*
X115481607Y-79718690D01*
X115410178Y-79742500D01*
X115362559Y-79790119D01*
X115338750Y-79837738D01*
X115314940Y-79932976D01*
X115314940Y-80004404D01*
X115338750Y-80099642D01*
X115362559Y-80147261D01*
X115410178Y-80194880D01*
X115481607Y-80218690D01*
X115600654Y-80218690D01*
X115100654Y-80218690D02*
X115100654Y-79718690D01*
X114600654Y-79742500D02*
X114648273Y-79718690D01*
X114719702Y-79718690D01*
X114791130Y-79742500D01*
X114838750Y-79790119D01*
X114862559Y-79837738D01*
X114886369Y-79932976D01*
X114886369Y-80004404D01*
X114862559Y-80099642D01*
X114838750Y-80147261D01*
X114791130Y-80194880D01*
X114719702Y-80218690D01*
X114672083Y-80218690D01*
X114600654Y-80194880D01*
X114576845Y-80171071D01*
X114576845Y-80004404D01*
X114672083Y-80004404D01*
X114362559Y-80218690D02*
X114362559Y-79718690D01*
X114195892Y-79718690D02*
X113910178Y-79718690D01*
X114053035Y-80218690D02*
X114053035Y-79718690D01*
X113767321Y-80075833D02*
X113529226Y-80075833D01*
X113814940Y-80218690D02*
X113648273Y-79718690D01*
X113481607Y-80218690D01*
X113076845Y-80218690D02*
X113314940Y-80218690D01*
X113314940Y-79718690D01*
X117933988Y-81046071D02*
X117957797Y-81069880D01*
X118029226Y-81093690D01*
X118076845Y-81093690D01*
X118148273Y-81069880D01*
X118195892Y-81022261D01*
X118219702Y-80974642D01*
X118243511Y-80879404D01*
X118243511Y-80807976D01*
X118219702Y-80712738D01*
X118195892Y-80665119D01*
X118148273Y-80617500D01*
X118076845Y-80593690D01*
X118029226Y-80593690D01*
X117957797Y-80617500D01*
X117933988Y-80641309D01*
X117481607Y-81093690D02*
X117719702Y-81093690D01*
X117719702Y-80593690D01*
X117219702Y-80593690D02*
X117124464Y-80593690D01*
X117076845Y-80617500D01*
X117029226Y-80665119D01*
X117005416Y-80760357D01*
X117005416Y-80927023D01*
X117029226Y-81022261D01*
X117076845Y-81069880D01*
X117124464Y-81093690D01*
X117219702Y-81093690D01*
X117267321Y-81069880D01*
X117314940Y-81022261D01*
X117338750Y-80927023D01*
X117338750Y-80760357D01*
X117314940Y-80665119D01*
X117267321Y-80617500D01*
X117219702Y-80593690D01*
X116814940Y-81069880D02*
X116743511Y-81093690D01*
X116624464Y-81093690D01*
X116576845Y-81069880D01*
X116553035Y-81046071D01*
X116529226Y-80998452D01*
X116529226Y-80950833D01*
X116553035Y-80903214D01*
X116576845Y-80879404D01*
X116624464Y-80855595D01*
X116719702Y-80831785D01*
X116767321Y-80807976D01*
X116791130Y-80784166D01*
X116814940Y-80736547D01*
X116814940Y-80688928D01*
X116791130Y-80641309D01*
X116767321Y-80617500D01*
X116719702Y-80593690D01*
X116600654Y-80593690D01*
X116529226Y-80617500D01*
X116314940Y-80831785D02*
X116148273Y-80831785D01*
X116076845Y-81093690D02*
X116314940Y-81093690D01*
X116314940Y-80593690D01*
X116076845Y-80593690D01*
X115862559Y-81093690D02*
X115862559Y-80593690D01*
X115743511Y-80593690D01*
X115672083Y-80617500D01*
X115624464Y-80665119D01*
X115600654Y-80712738D01*
X115576845Y-80807976D01*
X115576845Y-80879404D01*
X115600654Y-80974642D01*
X115624464Y-81022261D01*
X115672083Y-81069880D01*
X115743511Y-81093690D01*
X115862559Y-81093690D01*
X115362559Y-81046071D02*
X115338750Y-81069880D01*
X115362559Y-81093690D01*
X115386369Y-81069880D01*
X115362559Y-81046071D01*
X115362559Y-81093690D01*
X115362559Y-80784166D02*
X115338750Y-80807976D01*
X115362559Y-80831785D01*
X115386369Y-80807976D01*
X115362559Y-80784166D01*
X115362559Y-80831785D01*
X114767321Y-80950833D02*
X114529226Y-80950833D01*
X114814940Y-81093690D02*
X114648273Y-80593690D01*
X114481607Y-81093690D01*
X114314940Y-81093690D02*
X114314940Y-80593690D01*
X114029226Y-81093690D01*
X114029226Y-80593690D01*
X113814940Y-80950833D02*
X113576845Y-80950833D01*
X113862559Y-81093690D02*
X113695892Y-80593690D01*
X113529226Y-81093690D01*
X113124464Y-81093690D02*
X113362559Y-81093690D01*
X113362559Y-80593690D01*
X112862559Y-80593690D02*
X112767321Y-80593690D01*
X112719702Y-80617500D01*
X112672083Y-80665119D01*
X112648273Y-80760357D01*
X112648273Y-80927023D01*
X112672083Y-81022261D01*
X112719702Y-81069880D01*
X112767321Y-81093690D01*
X112862559Y-81093690D01*
X112910178Y-81069880D01*
X112957797Y-81022261D01*
X112981607Y-80927023D01*
X112981607Y-80760357D01*
X112957797Y-80665119D01*
X112910178Y-80617500D01*
X112862559Y-80593690D01*
X112172083Y-80617500D02*
X112219702Y-80593690D01*
X112291130Y-80593690D01*
X112362559Y-80617500D01*
X112410178Y-80665119D01*
X112433988Y-80712738D01*
X112457797Y-80807976D01*
X112457797Y-80879404D01*
X112433988Y-80974642D01*
X112410178Y-81022261D01*
X112362559Y-81069880D01*
X112291130Y-81093690D01*
X112243511Y-81093690D01*
X112172083Y-81069880D01*
X112148273Y-81046071D01*
X112148273Y-80879404D01*
X112243511Y-80879404D01*
M02*
