M48
; DRILL file {KiCad (5.1.4)-1} date 11/12/2020 4:18:48 PM
; FORMAT={-:-/ absolute / inch / decimal}
; #@! TF.CreationDate,2020-11-12T16:18:48-05:00
; #@! TF.GenerationSoftware,Kicad,Pcbnew,(5.1.4)-1
; #@! TF.FileFunction,Plated,1,2,PTH
FMAT,2
INCH
T1C0.0157
T2C0.0256
%
G90
G05
T1
X4.4071Y-3.1524
X4.4748Y-2.7488
X4.4846Y-2.9689
X4.5193Y-2.8614
X4.5476Y-3.2154
X4.587Y-3.2713
X4.6295Y-3.2681
X4.6496Y-2.8035
X4.6563Y-3.0079
X4.6689Y-3.0566
X4.6693Y-3.0961
X4.6807Y-3.2295
X4.6835Y-2.9028
X4.7167Y-3.2588
X4.7201Y-2.998
X4.7417Y-3.1929
X4.781Y-3.0604
X4.787Y-3.2035
X4.8098Y-2.9756
X4.8231Y-3.2833
X4.8413Y-3.2258
X4.852Y-2.9972
X4.8681Y-2.8762
X4.878Y-2.9333
X4.8819Y-2.7992
X4.8984Y-3.1787
X4.961Y-3.1913
X4.978Y-3.3134
X5.002Y-3.0531
X5.0186Y-2.9052
X5.0272Y-2.806
X5.097Y-2.8661
X5.102Y-3.1921
X5.1209Y-2.9059
X5.1398Y-2.9754
X5.148Y-2.8417
X5.1711Y-3.1022
X5.2299Y-3.1634
X5.2457Y-3.3311
T2
X4.387Y-2.7685
X4.387Y-2.8185
X4.387Y-2.8685
X4.387Y-2.9185
X4.387Y-2.9685
T0
M30
