G04 #@! TF.GenerationSoftware,KiCad,Pcbnew,(5.1.4)-1*
G04 #@! TF.CreationDate,2020-11-12T16:18:46-05:00*
G04 #@! TF.ProjectId,UniAmp,556e6941-6d70-42e6-9b69-6361645f7063,rev?*
G04 #@! TF.SameCoordinates,Original*
G04 #@! TF.FileFunction,Copper,L2,Bot*
G04 #@! TF.FilePolarity,Positive*
%FSLAX46Y46*%
G04 Gerber Fmt 4.6, Leading zero omitted, Abs format (unit mm)*
G04 Created by KiCad (PCBNEW (5.1.4)-1) date 2020-11-12 16:18:46*
%MOMM*%
%LPD*%
G04 APERTURE LIST*
%ADD10R,1.000000X1.000000*%
%ADD11O,1.000000X1.000000*%
%ADD12C,0.800000*%
%ADD13C,0.250000*%
%ADD14C,0.500000*%
%ADD15C,0.254000*%
G04 APERTURE END LIST*
D10*
X111430000Y-70320000D03*
D11*
X111430000Y-71590000D03*
X111430000Y-72860000D03*
X111430000Y-74130000D03*
X111430000Y-75400000D03*
D12*
X127691693Y-71273180D03*
X130070000Y-73810000D03*
X132840000Y-80350000D03*
X120440000Y-81100000D03*
X122970000Y-81935000D03*
X116510000Y-83090000D03*
X118270000Y-76400000D03*
X124000000Y-71100000D03*
X119804837Y-82774473D03*
X118960000Y-73730000D03*
X113660000Y-69820000D03*
X127050000Y-77550000D03*
X114790000Y-72680000D03*
X130760000Y-72180000D03*
X126440000Y-84160000D03*
X133240000Y-84610000D03*
X124420001Y-80740000D03*
X129590000Y-81080000D03*
X131345433Y-78796285D03*
X130550000Y-75575000D03*
X126010000Y-81060000D03*
X121590000Y-81370000D03*
X117590000Y-83010000D03*
X113910000Y-75410000D03*
X118100000Y-71210000D03*
X127472631Y-73792631D03*
X123900000Y-74505000D03*
X123650000Y-73055000D03*
X119890000Y-76150000D03*
X111940000Y-80070000D03*
X118590166Y-77638678D03*
X118600000Y-78640000D03*
X118890000Y-82030000D03*
X123240000Y-76130000D03*
X122505892Y-83394736D03*
X115510000Y-81670000D03*
X129465000Y-72800000D03*
X122170000Y-75580000D03*
X121436783Y-77733217D03*
D13*
X122130527Y-82774473D02*
X122970000Y-81935000D01*
X119804837Y-82774473D02*
X122130527Y-82774473D01*
X122970000Y-81369315D02*
X121490685Y-79890000D01*
X122970000Y-81935000D02*
X122970000Y-81369315D01*
X116510000Y-81470000D02*
X116510000Y-83090000D01*
X118090000Y-79890000D02*
X116510000Y-81470000D01*
X118835685Y-76400000D02*
X119460000Y-77024315D01*
X118270000Y-76400000D02*
X118835685Y-76400000D01*
X119460000Y-79780000D02*
X119350000Y-79890000D01*
X121490685Y-79890000D02*
X119350000Y-79890000D01*
X119350000Y-79890000D02*
X118090000Y-79890000D01*
X118270000Y-74420000D02*
X118960000Y-73730000D01*
X118270000Y-76400000D02*
X118270000Y-74420000D01*
X127518513Y-71100000D02*
X127691693Y-71273180D01*
X124000000Y-71100000D02*
X127518513Y-71100000D01*
X127691693Y-71273180D02*
X129853180Y-71273180D01*
X129853180Y-71273180D02*
X130760000Y-72180000D01*
X132840000Y-74260000D02*
X132840000Y-80350000D01*
X130760000Y-72180000D02*
X132840000Y-74260000D01*
X132840000Y-80350000D02*
X132840000Y-80915685D01*
X132840000Y-80915685D02*
X132565009Y-81190676D01*
X132565009Y-83935009D02*
X132565009Y-81835009D01*
X133240000Y-84610000D02*
X132565009Y-83935009D01*
X132565009Y-81190676D02*
X132565009Y-81835009D01*
X132790000Y-84160000D02*
X133240000Y-84610000D01*
X126440000Y-84160000D02*
X132790000Y-84160000D01*
X122720000Y-69820000D02*
X113660000Y-69820000D01*
X124000000Y-71100000D02*
X122720000Y-69820000D01*
X115840000Y-73730000D02*
X118960000Y-73730000D01*
X114790000Y-72680000D02*
X115840000Y-73730000D01*
X119460000Y-80140000D02*
X119460000Y-79780000D01*
X120440000Y-81120000D02*
X119460000Y-80140000D01*
X120088687Y-77024315D02*
X119460000Y-77024315D01*
X127050000Y-77550000D02*
X125733002Y-77550000D01*
X125733002Y-77550000D02*
X123038001Y-74854999D01*
X123038001Y-74854999D02*
X121821999Y-74854999D01*
X121821999Y-74854999D02*
X121150000Y-75526998D01*
X121150000Y-75526998D02*
X121150000Y-75963002D01*
X121150000Y-75963002D02*
X120088687Y-77024315D01*
X117590000Y-83010000D02*
X117590000Y-82256998D01*
X113910000Y-74844315D02*
X113910000Y-71590000D01*
X113910000Y-75410000D02*
X113910000Y-74844315D01*
D14*
X130150001Y-75175001D02*
X130550000Y-75575000D01*
X127179999Y-72204999D02*
X130150001Y-75175001D01*
X126030000Y-81080000D02*
X126010000Y-81060000D01*
X129590000Y-81080000D02*
X126030000Y-81080000D01*
X113910000Y-71630000D02*
X113950000Y-71590000D01*
X113910000Y-75410000D02*
X113910000Y-71630000D01*
D13*
X113910000Y-71590000D02*
X113950000Y-71590000D01*
D14*
X121009999Y-81950001D02*
X121590000Y-81370000D01*
X120031999Y-81950001D02*
X121009999Y-81950001D01*
X119261997Y-81179999D02*
X120031999Y-81950001D01*
X118481999Y-81179999D02*
X119261997Y-81179999D01*
X117590000Y-82071998D02*
X118481999Y-81179999D01*
X117590000Y-83010000D02*
X117590000Y-82071998D01*
X131345433Y-79324567D02*
X129590000Y-81080000D01*
X131345433Y-78796285D02*
X131345433Y-79324567D01*
X131345433Y-76370433D02*
X130550000Y-75575000D01*
X131345433Y-78796285D02*
X131345433Y-76370433D01*
X119094999Y-72204999D02*
X118100000Y-71210000D01*
X121245001Y-72204999D02*
X119094999Y-72204999D01*
X121245001Y-72204999D02*
X127179999Y-72204999D01*
X111430000Y-71590000D02*
X113910000Y-71590000D01*
X114290000Y-71210000D02*
X118100000Y-71210000D01*
X113910000Y-71590000D02*
X114290000Y-71210000D01*
X122913893Y-84244737D02*
X123549315Y-83609315D01*
X118824737Y-84244737D02*
X117590000Y-83010000D01*
X122913893Y-84244737D02*
X118824737Y-84244737D01*
X125610001Y-81548629D02*
X122913893Y-84244737D01*
X125610001Y-81459999D02*
X125610001Y-81548629D01*
X126010000Y-81060000D02*
X125610001Y-81459999D01*
D13*
X123650000Y-74255000D02*
X123900000Y-74505000D01*
X123650000Y-73055000D02*
X123650000Y-73700000D01*
X123650000Y-73700000D02*
X123650000Y-74255000D01*
D14*
X119890000Y-76150000D02*
X119890000Y-74760000D01*
X121595000Y-73055000D02*
X123650000Y-73055000D01*
X119890000Y-74760000D02*
X121595000Y-73055000D01*
X123900000Y-73305000D02*
X123650000Y-73055000D01*
X123900000Y-74505000D02*
X123900000Y-73305000D01*
X126735000Y-73055000D02*
X127472631Y-73792631D01*
X123650000Y-73055000D02*
X126735000Y-73055000D01*
D13*
X111940000Y-80070000D02*
X111940000Y-79504315D01*
X110680000Y-70320000D02*
X110340000Y-70660000D01*
X111430000Y-70320000D02*
X110680000Y-70320000D01*
X110340000Y-77904314D02*
X110592843Y-78157157D01*
X110340000Y-70660000D02*
X110340000Y-77904314D01*
X111940000Y-79504315D02*
X110592843Y-78157157D01*
X118024481Y-77638678D02*
X117453169Y-78209990D01*
X118590166Y-77638678D02*
X118024481Y-77638678D01*
X117453169Y-78209990D02*
X114169294Y-78209990D01*
X114169294Y-78209990D02*
X112520000Y-76560696D01*
X112520000Y-75220000D02*
X111430000Y-74130000D01*
X112520000Y-76560696D02*
X112520000Y-75220000D01*
X111430000Y-76107106D02*
X113982894Y-78660000D01*
X111430000Y-75400000D02*
X111430000Y-76107106D01*
X113982894Y-78660000D02*
X118580000Y-78660000D01*
X118580000Y-78660000D02*
X118600000Y-78640000D01*
X118890000Y-82030000D02*
X118890000Y-82932638D01*
X123227347Y-76152653D02*
X123397347Y-76322653D01*
X123397347Y-76322653D02*
X123695001Y-76620307D01*
X121940207Y-83394736D02*
X122505892Y-83394736D01*
X121835469Y-83499474D02*
X121940207Y-83394736D01*
X119456836Y-83499474D02*
X121835469Y-83499474D01*
X118890000Y-82932638D02*
X119456836Y-83499474D01*
X122505892Y-83394736D02*
X122805264Y-83394736D01*
X123695001Y-82504999D02*
X123695001Y-81585001D01*
X122805264Y-83394736D02*
X123695001Y-82504999D01*
X123695001Y-76620307D02*
X123695001Y-81585001D01*
X130133002Y-72800000D02*
X132114999Y-74781997D01*
X129465000Y-72800000D02*
X130133002Y-72800000D01*
X132114999Y-74781997D02*
X132114999Y-79625001D01*
X132114999Y-79625001D02*
X129900000Y-81840000D01*
X129900000Y-81840000D02*
X126432094Y-81840000D01*
X126131816Y-81840000D02*
X123152069Y-84819747D01*
X126432094Y-81840000D02*
X126131816Y-81840000D01*
X115510000Y-83163002D02*
X115510000Y-83060000D01*
X117166745Y-84819747D02*
X115510000Y-83163002D01*
X123152069Y-84819747D02*
X117166745Y-84819747D01*
X115510000Y-83060000D02*
X115510000Y-81670000D01*
X122170000Y-75580000D02*
X122170000Y-77000000D01*
X122170000Y-77000000D02*
X121436783Y-77733217D01*
D15*
G36*
X117731952Y-71898569D02*
G01*
X117873357Y-71957141D01*
X117982049Y-71978761D01*
X118629865Y-72626577D01*
X118649498Y-72650500D01*
X118744971Y-72728852D01*
X118853896Y-72787074D01*
X118972086Y-72822926D01*
X119094998Y-72835032D01*
X119125792Y-72831999D01*
X120931289Y-72831999D01*
X119468422Y-74294866D01*
X119444500Y-74314499D01*
X119366148Y-74409972D01*
X119335539Y-74467237D01*
X119307926Y-74518897D01*
X119272073Y-74637088D01*
X119259967Y-74760000D01*
X119263001Y-74790804D01*
X119263000Y-75689807D01*
X119201431Y-75781952D01*
X119142859Y-75923357D01*
X119113000Y-76073472D01*
X119113000Y-76226528D01*
X119142859Y-76376643D01*
X119201431Y-76518048D01*
X119286464Y-76645309D01*
X119394691Y-76753536D01*
X119521952Y-76838569D01*
X119663357Y-76897141D01*
X119813472Y-76927000D01*
X119966528Y-76927000D01*
X120116643Y-76897141D01*
X120258048Y-76838569D01*
X120385309Y-76753536D01*
X120493536Y-76645309D01*
X120578569Y-76518048D01*
X120637141Y-76376643D01*
X120667000Y-76226528D01*
X120667000Y-76073472D01*
X120637141Y-75923357D01*
X120578569Y-75781952D01*
X120517000Y-75689807D01*
X120517000Y-75019711D01*
X121854712Y-73682000D01*
X123148000Y-73682000D01*
X123148001Y-74230348D01*
X123145573Y-74255000D01*
X123149524Y-74295121D01*
X123123000Y-74428472D01*
X123123000Y-74581528D01*
X123152859Y-74731643D01*
X123211431Y-74873048D01*
X123296464Y-75000309D01*
X123404691Y-75108536D01*
X123531952Y-75193569D01*
X123673357Y-75252141D01*
X123823472Y-75282000D01*
X123976528Y-75282000D01*
X124126643Y-75252141D01*
X124268048Y-75193569D01*
X124395309Y-75108536D01*
X124503536Y-75000309D01*
X124588569Y-74873048D01*
X124647141Y-74731643D01*
X124677000Y-74581528D01*
X124677000Y-74428472D01*
X124647141Y-74278357D01*
X124588569Y-74136952D01*
X124527000Y-74044807D01*
X124527000Y-73682000D01*
X126475289Y-73682000D01*
X126703870Y-73910582D01*
X126725490Y-74019274D01*
X126784062Y-74160679D01*
X126869095Y-74287940D01*
X126977322Y-74396167D01*
X127104583Y-74481200D01*
X127245988Y-74539772D01*
X127396103Y-74569631D01*
X127549159Y-74569631D01*
X127699274Y-74539772D01*
X127840679Y-74481200D01*
X127967940Y-74396167D01*
X128076167Y-74287940D01*
X128161200Y-74160679D01*
X128186907Y-74098618D01*
X129728419Y-75640131D01*
X129728425Y-75640136D01*
X129781239Y-75692950D01*
X129802859Y-75801643D01*
X129861431Y-75943048D01*
X129946464Y-76070309D01*
X130054691Y-76178536D01*
X130181952Y-76263569D01*
X130323357Y-76322141D01*
X130432049Y-76343761D01*
X130718434Y-76630146D01*
X130718433Y-78336092D01*
X130656864Y-78428237D01*
X130598292Y-78569642D01*
X130568433Y-78719757D01*
X130568433Y-78872813D01*
X130598292Y-79022928D01*
X130645761Y-79137527D01*
X129472050Y-80311239D01*
X129363357Y-80332859D01*
X129221952Y-80391431D01*
X129129807Y-80453000D01*
X126500125Y-80453000D01*
X126378048Y-80371431D01*
X126236643Y-80312859D01*
X126086528Y-80283000D01*
X125933472Y-80283000D01*
X125783357Y-80312859D01*
X125641952Y-80371431D01*
X125514691Y-80456464D01*
X125406464Y-80564691D01*
X125321431Y-80691952D01*
X125262859Y-80833357D01*
X125241239Y-80942050D01*
X125188428Y-80994861D01*
X125164500Y-81014498D01*
X125086148Y-81109972D01*
X125027926Y-81218897D01*
X125016999Y-81254919D01*
X124197001Y-82074917D01*
X124197001Y-76644949D01*
X124199428Y-76620306D01*
X124197001Y-76595663D01*
X124197001Y-76595654D01*
X124189737Y-76521898D01*
X124161032Y-76427271D01*
X124114418Y-76340062D01*
X124051685Y-76263623D01*
X124032533Y-76247905D01*
X124012712Y-76228084D01*
X124017000Y-76206528D01*
X124017000Y-76053472D01*
X123987141Y-75903357D01*
X123928569Y-75761952D01*
X123843536Y-75634691D01*
X123735309Y-75526464D01*
X123608048Y-75441431D01*
X123466643Y-75382859D01*
X123316528Y-75353000D01*
X123163472Y-75353000D01*
X123013357Y-75382859D01*
X122929886Y-75417434D01*
X122917141Y-75353357D01*
X122858569Y-75211952D01*
X122773536Y-75084691D01*
X122665309Y-74976464D01*
X122538048Y-74891431D01*
X122396643Y-74832859D01*
X122246528Y-74803000D01*
X122093472Y-74803000D01*
X121943357Y-74832859D01*
X121801952Y-74891431D01*
X121674691Y-74976464D01*
X121566464Y-75084691D01*
X121481431Y-75211952D01*
X121422859Y-75353357D01*
X121393000Y-75503472D01*
X121393000Y-75656528D01*
X121422859Y-75806643D01*
X121481431Y-75948048D01*
X121566464Y-76075309D01*
X121668000Y-76176845D01*
X121668001Y-76792064D01*
X121503848Y-76956217D01*
X121360255Y-76956217D01*
X121210140Y-76986076D01*
X121068735Y-77044648D01*
X120941474Y-77129681D01*
X120833247Y-77237908D01*
X120748214Y-77365169D01*
X120689642Y-77506574D01*
X120659783Y-77656689D01*
X120659783Y-77809745D01*
X120689642Y-77959860D01*
X120748214Y-78101265D01*
X120833247Y-78228526D01*
X120941474Y-78336753D01*
X121068735Y-78421786D01*
X121210140Y-78480358D01*
X121360255Y-78510217D01*
X121513311Y-78510217D01*
X121663426Y-78480358D01*
X121804831Y-78421786D01*
X121932092Y-78336753D01*
X122040319Y-78228526D01*
X122125352Y-78101265D01*
X122183924Y-77959860D01*
X122213783Y-77809745D01*
X122213783Y-77666152D01*
X122507538Y-77372397D01*
X122526684Y-77356684D01*
X122589417Y-77280245D01*
X122636031Y-77193036D01*
X122664736Y-77098409D01*
X122672000Y-77024653D01*
X122672000Y-77024644D01*
X122674427Y-77000001D01*
X122672000Y-76975358D01*
X122672000Y-76660845D01*
X122744691Y-76733536D01*
X122871952Y-76818569D01*
X123013357Y-76877141D01*
X123163472Y-76907000D01*
X123193001Y-76907000D01*
X123193002Y-81560348D01*
X123193001Y-82297064D01*
X122810271Y-82679794D01*
X122732535Y-82647595D01*
X122582420Y-82617736D01*
X122429364Y-82617736D01*
X122279249Y-82647595D01*
X122137844Y-82706167D01*
X122010583Y-82791200D01*
X121908336Y-82893447D01*
X121841798Y-82900000D01*
X121747171Y-82928705D01*
X121659962Y-82975319D01*
X121632967Y-82997474D01*
X119664771Y-82997474D01*
X119392000Y-82724704D01*
X119392000Y-82626845D01*
X119493536Y-82525309D01*
X119578569Y-82398048D01*
X119581929Y-82389935D01*
X119586498Y-82395502D01*
X119681971Y-82473854D01*
X119790896Y-82532076D01*
X119909086Y-82567928D01*
X120001205Y-82577001D01*
X120001206Y-82577001D01*
X120031998Y-82580034D01*
X120062790Y-82577001D01*
X120979205Y-82577001D01*
X121009999Y-82580034D01*
X121040793Y-82577001D01*
X121132912Y-82567928D01*
X121251102Y-82532076D01*
X121360027Y-82473854D01*
X121455500Y-82395502D01*
X121475137Y-82371574D01*
X121707951Y-82138761D01*
X121816643Y-82117141D01*
X121958048Y-82058569D01*
X122085309Y-81973536D01*
X122193536Y-81865309D01*
X122278569Y-81738048D01*
X122337141Y-81596643D01*
X122367000Y-81446528D01*
X122367000Y-81293472D01*
X122337141Y-81143357D01*
X122278569Y-81001952D01*
X122193536Y-80874691D01*
X122085309Y-80766464D01*
X121958048Y-80681431D01*
X121816643Y-80622859D01*
X121666528Y-80593000D01*
X121513472Y-80593000D01*
X121363357Y-80622859D01*
X121221952Y-80681431D01*
X121094691Y-80766464D01*
X120986464Y-80874691D01*
X120901431Y-81001952D01*
X120842859Y-81143357D01*
X120821239Y-81252049D01*
X120750288Y-81323001D01*
X120291711Y-81323001D01*
X119727135Y-80758426D01*
X119707498Y-80734498D01*
X119612025Y-80656146D01*
X119503100Y-80597924D01*
X119384910Y-80562072D01*
X119292791Y-80552999D01*
X119261997Y-80549966D01*
X119231203Y-80552999D01*
X118512792Y-80552999D01*
X118481998Y-80549966D01*
X118359086Y-80562072D01*
X118240896Y-80597924D01*
X118131971Y-80656146D01*
X118036498Y-80734498D01*
X118016865Y-80758421D01*
X117168422Y-81606865D01*
X117144500Y-81626497D01*
X117066148Y-81721970D01*
X117020699Y-81806999D01*
X117007926Y-81830895D01*
X116972073Y-81949086D01*
X116959967Y-82071998D01*
X116963001Y-82102802D01*
X116963000Y-82549807D01*
X116901431Y-82641952D01*
X116842859Y-82783357D01*
X116813000Y-82933472D01*
X116813000Y-83086528D01*
X116842859Y-83236643D01*
X116901431Y-83378048D01*
X116986464Y-83505309D01*
X117094691Y-83613536D01*
X117221952Y-83698569D01*
X117363357Y-83757141D01*
X117472049Y-83778761D01*
X118011035Y-84317747D01*
X117374680Y-84317747D01*
X116012000Y-82955068D01*
X116012000Y-82266845D01*
X116113536Y-82165309D01*
X116198569Y-82038048D01*
X116257141Y-81896643D01*
X116287000Y-81746528D01*
X116287000Y-81593472D01*
X116257141Y-81443357D01*
X116198569Y-81301952D01*
X116113536Y-81174691D01*
X116005309Y-81066464D01*
X115878048Y-80981431D01*
X115736643Y-80922859D01*
X115586528Y-80893000D01*
X115433472Y-80893000D01*
X115283357Y-80922859D01*
X115141952Y-80981431D01*
X115014691Y-81066464D01*
X114906464Y-81174691D01*
X114821431Y-81301952D01*
X114762859Y-81443357D01*
X114733000Y-81593472D01*
X114733000Y-81746528D01*
X114762859Y-81896643D01*
X114821431Y-82038048D01*
X114906464Y-82165309D01*
X115008001Y-82266846D01*
X115008000Y-83035347D01*
X115008000Y-83138359D01*
X115005573Y-83163002D01*
X115008000Y-83187645D01*
X115008000Y-83187654D01*
X115015264Y-83261410D01*
X115043969Y-83356037D01*
X115090583Y-83443247D01*
X115153316Y-83519686D01*
X115172467Y-83535403D01*
X116765063Y-85128000D01*
X111549658Y-85128000D01*
X111219991Y-85095676D01*
X110921783Y-85005641D01*
X110646748Y-84859402D01*
X110405352Y-84662524D01*
X110206797Y-84422513D01*
X110058640Y-84148502D01*
X109966528Y-83850935D01*
X109932000Y-83522426D01*
X109932000Y-83184528D01*
X110253000Y-83184528D01*
X110253000Y-83475472D01*
X110309760Y-83760825D01*
X110421099Y-84029622D01*
X110582739Y-84271533D01*
X110788467Y-84477261D01*
X111030378Y-84638901D01*
X111299175Y-84750240D01*
X111584528Y-84807000D01*
X111875472Y-84807000D01*
X112160825Y-84750240D01*
X112429622Y-84638901D01*
X112671533Y-84477261D01*
X112877261Y-84271533D01*
X113038901Y-84029622D01*
X113150240Y-83760825D01*
X113207000Y-83475472D01*
X113207000Y-83184528D01*
X113150240Y-82899175D01*
X113038901Y-82630378D01*
X112877261Y-82388467D01*
X112671533Y-82182739D01*
X112429622Y-82021099D01*
X112160825Y-81909760D01*
X111875472Y-81853000D01*
X111584528Y-81853000D01*
X111299175Y-81909760D01*
X111030378Y-82021099D01*
X110788467Y-82182739D01*
X110582739Y-82388467D01*
X110421099Y-82630378D01*
X110309760Y-82899175D01*
X110253000Y-83184528D01*
X109932000Y-83184528D01*
X109932000Y-78198469D01*
X109967601Y-78241849D01*
X109967604Y-78241852D01*
X109983317Y-78260998D01*
X110002463Y-78276711D01*
X110220438Y-78494686D01*
X110220443Y-78494692D01*
X111322035Y-79596285D01*
X111251431Y-79701952D01*
X111192859Y-79843357D01*
X111163000Y-79993472D01*
X111163000Y-80146528D01*
X111192859Y-80296643D01*
X111251431Y-80438048D01*
X111336464Y-80565309D01*
X111444691Y-80673536D01*
X111571952Y-80758569D01*
X111713357Y-80817141D01*
X111863472Y-80847000D01*
X112016528Y-80847000D01*
X112166643Y-80817141D01*
X112308048Y-80758569D01*
X112435309Y-80673536D01*
X112543536Y-80565309D01*
X112628569Y-80438048D01*
X112687141Y-80296643D01*
X112717000Y-80146528D01*
X112717000Y-79993472D01*
X112687141Y-79843357D01*
X112628569Y-79701952D01*
X112543536Y-79574691D01*
X112441289Y-79472444D01*
X112434736Y-79405906D01*
X112406031Y-79311279D01*
X112359417Y-79224070D01*
X112296684Y-79147631D01*
X112277538Y-79131918D01*
X110842000Y-77696380D01*
X110842000Y-76051966D01*
X110927014Y-76121735D01*
X110935265Y-76205515D01*
X110963970Y-76300142D01*
X111010584Y-76387351D01*
X111057601Y-76444641D01*
X111057604Y-76444644D01*
X111073317Y-76463790D01*
X111092463Y-76479503D01*
X113610497Y-78997538D01*
X113626210Y-79016684D01*
X113702649Y-79079417D01*
X113789858Y-79126031D01*
X113884485Y-79154736D01*
X113958241Y-79162000D01*
X113958250Y-79162000D01*
X113982893Y-79164427D01*
X114007536Y-79162000D01*
X118023155Y-79162000D01*
X118104691Y-79243536D01*
X118231952Y-79328569D01*
X118373357Y-79387141D01*
X118523472Y-79417000D01*
X118676528Y-79417000D01*
X118826643Y-79387141D01*
X118968048Y-79328569D01*
X119095309Y-79243536D01*
X119203536Y-79135309D01*
X119288569Y-79008048D01*
X119347141Y-78866643D01*
X119377000Y-78716528D01*
X119377000Y-78563472D01*
X119347141Y-78413357D01*
X119288569Y-78271952D01*
X119203536Y-78144691D01*
X119193267Y-78134422D01*
X119193702Y-78133987D01*
X119278735Y-78006726D01*
X119337307Y-77865321D01*
X119367166Y-77715206D01*
X119367166Y-77562150D01*
X119337307Y-77412035D01*
X119278735Y-77270630D01*
X119193702Y-77143369D01*
X119085475Y-77035142D01*
X118958214Y-76950109D01*
X118816809Y-76891537D01*
X118666694Y-76861678D01*
X118513638Y-76861678D01*
X118363523Y-76891537D01*
X118222118Y-76950109D01*
X118094857Y-77035142D01*
X117992610Y-77137389D01*
X117926072Y-77143942D01*
X117831445Y-77172647D01*
X117744236Y-77219261D01*
X117667797Y-77281994D01*
X117652084Y-77301140D01*
X117245235Y-77707990D01*
X114377229Y-77707990D01*
X113022000Y-76352762D01*
X113022000Y-75244643D01*
X113024427Y-75220000D01*
X113022000Y-75195357D01*
X113022000Y-75195347D01*
X113014736Y-75121591D01*
X112986031Y-75026964D01*
X112959038Y-74976464D01*
X112939417Y-74939754D01*
X112892400Y-74882464D01*
X112892392Y-74882456D01*
X112876684Y-74863316D01*
X112857543Y-74847607D01*
X112295883Y-74285948D01*
X112311243Y-74130000D01*
X112294310Y-73958078D01*
X112244162Y-73792763D01*
X112162727Y-73640408D01*
X112053133Y-73506867D01*
X111919592Y-73397273D01*
X111767237Y-73315838D01*
X111601922Y-73265690D01*
X111473079Y-73253000D01*
X111386921Y-73253000D01*
X111258078Y-73265690D01*
X111092763Y-73315838D01*
X110940408Y-73397273D01*
X110842000Y-73478034D01*
X110842000Y-72241966D01*
X110940408Y-72322727D01*
X111092763Y-72404162D01*
X111258078Y-72454310D01*
X111386921Y-72467000D01*
X111473079Y-72467000D01*
X111601922Y-72454310D01*
X111767237Y-72404162D01*
X111919592Y-72322727D01*
X112048421Y-72217000D01*
X113283001Y-72217000D01*
X113283000Y-74949807D01*
X113221431Y-75041952D01*
X113162859Y-75183357D01*
X113133000Y-75333472D01*
X113133000Y-75486528D01*
X113162859Y-75636643D01*
X113221431Y-75778048D01*
X113306464Y-75905309D01*
X113414691Y-76013536D01*
X113541952Y-76098569D01*
X113683357Y-76157141D01*
X113833472Y-76187000D01*
X113986528Y-76187000D01*
X114136643Y-76157141D01*
X114278048Y-76098569D01*
X114405309Y-76013536D01*
X114513536Y-75905309D01*
X114598569Y-75778048D01*
X114657141Y-75636643D01*
X114687000Y-75486528D01*
X114687000Y-75333472D01*
X114657141Y-75183357D01*
X114598569Y-75041952D01*
X114537000Y-74949807D01*
X114537000Y-71849711D01*
X114549711Y-71837000D01*
X117639807Y-71837000D01*
X117731952Y-71898569D01*
X117731952Y-71898569D01*
G37*
X117731952Y-71898569D02*
X117873357Y-71957141D01*
X117982049Y-71978761D01*
X118629865Y-72626577D01*
X118649498Y-72650500D01*
X118744971Y-72728852D01*
X118853896Y-72787074D01*
X118972086Y-72822926D01*
X119094998Y-72835032D01*
X119125792Y-72831999D01*
X120931289Y-72831999D01*
X119468422Y-74294866D01*
X119444500Y-74314499D01*
X119366148Y-74409972D01*
X119335539Y-74467237D01*
X119307926Y-74518897D01*
X119272073Y-74637088D01*
X119259967Y-74760000D01*
X119263001Y-74790804D01*
X119263000Y-75689807D01*
X119201431Y-75781952D01*
X119142859Y-75923357D01*
X119113000Y-76073472D01*
X119113000Y-76226528D01*
X119142859Y-76376643D01*
X119201431Y-76518048D01*
X119286464Y-76645309D01*
X119394691Y-76753536D01*
X119521952Y-76838569D01*
X119663357Y-76897141D01*
X119813472Y-76927000D01*
X119966528Y-76927000D01*
X120116643Y-76897141D01*
X120258048Y-76838569D01*
X120385309Y-76753536D01*
X120493536Y-76645309D01*
X120578569Y-76518048D01*
X120637141Y-76376643D01*
X120667000Y-76226528D01*
X120667000Y-76073472D01*
X120637141Y-75923357D01*
X120578569Y-75781952D01*
X120517000Y-75689807D01*
X120517000Y-75019711D01*
X121854712Y-73682000D01*
X123148000Y-73682000D01*
X123148001Y-74230348D01*
X123145573Y-74255000D01*
X123149524Y-74295121D01*
X123123000Y-74428472D01*
X123123000Y-74581528D01*
X123152859Y-74731643D01*
X123211431Y-74873048D01*
X123296464Y-75000309D01*
X123404691Y-75108536D01*
X123531952Y-75193569D01*
X123673357Y-75252141D01*
X123823472Y-75282000D01*
X123976528Y-75282000D01*
X124126643Y-75252141D01*
X124268048Y-75193569D01*
X124395309Y-75108536D01*
X124503536Y-75000309D01*
X124588569Y-74873048D01*
X124647141Y-74731643D01*
X124677000Y-74581528D01*
X124677000Y-74428472D01*
X124647141Y-74278357D01*
X124588569Y-74136952D01*
X124527000Y-74044807D01*
X124527000Y-73682000D01*
X126475289Y-73682000D01*
X126703870Y-73910582D01*
X126725490Y-74019274D01*
X126784062Y-74160679D01*
X126869095Y-74287940D01*
X126977322Y-74396167D01*
X127104583Y-74481200D01*
X127245988Y-74539772D01*
X127396103Y-74569631D01*
X127549159Y-74569631D01*
X127699274Y-74539772D01*
X127840679Y-74481200D01*
X127967940Y-74396167D01*
X128076167Y-74287940D01*
X128161200Y-74160679D01*
X128186907Y-74098618D01*
X129728419Y-75640131D01*
X129728425Y-75640136D01*
X129781239Y-75692950D01*
X129802859Y-75801643D01*
X129861431Y-75943048D01*
X129946464Y-76070309D01*
X130054691Y-76178536D01*
X130181952Y-76263569D01*
X130323357Y-76322141D01*
X130432049Y-76343761D01*
X130718434Y-76630146D01*
X130718433Y-78336092D01*
X130656864Y-78428237D01*
X130598292Y-78569642D01*
X130568433Y-78719757D01*
X130568433Y-78872813D01*
X130598292Y-79022928D01*
X130645761Y-79137527D01*
X129472050Y-80311239D01*
X129363357Y-80332859D01*
X129221952Y-80391431D01*
X129129807Y-80453000D01*
X126500125Y-80453000D01*
X126378048Y-80371431D01*
X126236643Y-80312859D01*
X126086528Y-80283000D01*
X125933472Y-80283000D01*
X125783357Y-80312859D01*
X125641952Y-80371431D01*
X125514691Y-80456464D01*
X125406464Y-80564691D01*
X125321431Y-80691952D01*
X125262859Y-80833357D01*
X125241239Y-80942050D01*
X125188428Y-80994861D01*
X125164500Y-81014498D01*
X125086148Y-81109972D01*
X125027926Y-81218897D01*
X125016999Y-81254919D01*
X124197001Y-82074917D01*
X124197001Y-76644949D01*
X124199428Y-76620306D01*
X124197001Y-76595663D01*
X124197001Y-76595654D01*
X124189737Y-76521898D01*
X124161032Y-76427271D01*
X124114418Y-76340062D01*
X124051685Y-76263623D01*
X124032533Y-76247905D01*
X124012712Y-76228084D01*
X124017000Y-76206528D01*
X124017000Y-76053472D01*
X123987141Y-75903357D01*
X123928569Y-75761952D01*
X123843536Y-75634691D01*
X123735309Y-75526464D01*
X123608048Y-75441431D01*
X123466643Y-75382859D01*
X123316528Y-75353000D01*
X123163472Y-75353000D01*
X123013357Y-75382859D01*
X122929886Y-75417434D01*
X122917141Y-75353357D01*
X122858569Y-75211952D01*
X122773536Y-75084691D01*
X122665309Y-74976464D01*
X122538048Y-74891431D01*
X122396643Y-74832859D01*
X122246528Y-74803000D01*
X122093472Y-74803000D01*
X121943357Y-74832859D01*
X121801952Y-74891431D01*
X121674691Y-74976464D01*
X121566464Y-75084691D01*
X121481431Y-75211952D01*
X121422859Y-75353357D01*
X121393000Y-75503472D01*
X121393000Y-75656528D01*
X121422859Y-75806643D01*
X121481431Y-75948048D01*
X121566464Y-76075309D01*
X121668000Y-76176845D01*
X121668001Y-76792064D01*
X121503848Y-76956217D01*
X121360255Y-76956217D01*
X121210140Y-76986076D01*
X121068735Y-77044648D01*
X120941474Y-77129681D01*
X120833247Y-77237908D01*
X120748214Y-77365169D01*
X120689642Y-77506574D01*
X120659783Y-77656689D01*
X120659783Y-77809745D01*
X120689642Y-77959860D01*
X120748214Y-78101265D01*
X120833247Y-78228526D01*
X120941474Y-78336753D01*
X121068735Y-78421786D01*
X121210140Y-78480358D01*
X121360255Y-78510217D01*
X121513311Y-78510217D01*
X121663426Y-78480358D01*
X121804831Y-78421786D01*
X121932092Y-78336753D01*
X122040319Y-78228526D01*
X122125352Y-78101265D01*
X122183924Y-77959860D01*
X122213783Y-77809745D01*
X122213783Y-77666152D01*
X122507538Y-77372397D01*
X122526684Y-77356684D01*
X122589417Y-77280245D01*
X122636031Y-77193036D01*
X122664736Y-77098409D01*
X122672000Y-77024653D01*
X122672000Y-77024644D01*
X122674427Y-77000001D01*
X122672000Y-76975358D01*
X122672000Y-76660845D01*
X122744691Y-76733536D01*
X122871952Y-76818569D01*
X123013357Y-76877141D01*
X123163472Y-76907000D01*
X123193001Y-76907000D01*
X123193002Y-81560348D01*
X123193001Y-82297064D01*
X122810271Y-82679794D01*
X122732535Y-82647595D01*
X122582420Y-82617736D01*
X122429364Y-82617736D01*
X122279249Y-82647595D01*
X122137844Y-82706167D01*
X122010583Y-82791200D01*
X121908336Y-82893447D01*
X121841798Y-82900000D01*
X121747171Y-82928705D01*
X121659962Y-82975319D01*
X121632967Y-82997474D01*
X119664771Y-82997474D01*
X119392000Y-82724704D01*
X119392000Y-82626845D01*
X119493536Y-82525309D01*
X119578569Y-82398048D01*
X119581929Y-82389935D01*
X119586498Y-82395502D01*
X119681971Y-82473854D01*
X119790896Y-82532076D01*
X119909086Y-82567928D01*
X120001205Y-82577001D01*
X120001206Y-82577001D01*
X120031998Y-82580034D01*
X120062790Y-82577001D01*
X120979205Y-82577001D01*
X121009999Y-82580034D01*
X121040793Y-82577001D01*
X121132912Y-82567928D01*
X121251102Y-82532076D01*
X121360027Y-82473854D01*
X121455500Y-82395502D01*
X121475137Y-82371574D01*
X121707951Y-82138761D01*
X121816643Y-82117141D01*
X121958048Y-82058569D01*
X122085309Y-81973536D01*
X122193536Y-81865309D01*
X122278569Y-81738048D01*
X122337141Y-81596643D01*
X122367000Y-81446528D01*
X122367000Y-81293472D01*
X122337141Y-81143357D01*
X122278569Y-81001952D01*
X122193536Y-80874691D01*
X122085309Y-80766464D01*
X121958048Y-80681431D01*
X121816643Y-80622859D01*
X121666528Y-80593000D01*
X121513472Y-80593000D01*
X121363357Y-80622859D01*
X121221952Y-80681431D01*
X121094691Y-80766464D01*
X120986464Y-80874691D01*
X120901431Y-81001952D01*
X120842859Y-81143357D01*
X120821239Y-81252049D01*
X120750288Y-81323001D01*
X120291711Y-81323001D01*
X119727135Y-80758426D01*
X119707498Y-80734498D01*
X119612025Y-80656146D01*
X119503100Y-80597924D01*
X119384910Y-80562072D01*
X119292791Y-80552999D01*
X119261997Y-80549966D01*
X119231203Y-80552999D01*
X118512792Y-80552999D01*
X118481998Y-80549966D01*
X118359086Y-80562072D01*
X118240896Y-80597924D01*
X118131971Y-80656146D01*
X118036498Y-80734498D01*
X118016865Y-80758421D01*
X117168422Y-81606865D01*
X117144500Y-81626497D01*
X117066148Y-81721970D01*
X117020699Y-81806999D01*
X117007926Y-81830895D01*
X116972073Y-81949086D01*
X116959967Y-82071998D01*
X116963001Y-82102802D01*
X116963000Y-82549807D01*
X116901431Y-82641952D01*
X116842859Y-82783357D01*
X116813000Y-82933472D01*
X116813000Y-83086528D01*
X116842859Y-83236643D01*
X116901431Y-83378048D01*
X116986464Y-83505309D01*
X117094691Y-83613536D01*
X117221952Y-83698569D01*
X117363357Y-83757141D01*
X117472049Y-83778761D01*
X118011035Y-84317747D01*
X117374680Y-84317747D01*
X116012000Y-82955068D01*
X116012000Y-82266845D01*
X116113536Y-82165309D01*
X116198569Y-82038048D01*
X116257141Y-81896643D01*
X116287000Y-81746528D01*
X116287000Y-81593472D01*
X116257141Y-81443357D01*
X116198569Y-81301952D01*
X116113536Y-81174691D01*
X116005309Y-81066464D01*
X115878048Y-80981431D01*
X115736643Y-80922859D01*
X115586528Y-80893000D01*
X115433472Y-80893000D01*
X115283357Y-80922859D01*
X115141952Y-80981431D01*
X115014691Y-81066464D01*
X114906464Y-81174691D01*
X114821431Y-81301952D01*
X114762859Y-81443357D01*
X114733000Y-81593472D01*
X114733000Y-81746528D01*
X114762859Y-81896643D01*
X114821431Y-82038048D01*
X114906464Y-82165309D01*
X115008001Y-82266846D01*
X115008000Y-83035347D01*
X115008000Y-83138359D01*
X115005573Y-83163002D01*
X115008000Y-83187645D01*
X115008000Y-83187654D01*
X115015264Y-83261410D01*
X115043969Y-83356037D01*
X115090583Y-83443247D01*
X115153316Y-83519686D01*
X115172467Y-83535403D01*
X116765063Y-85128000D01*
X111549658Y-85128000D01*
X111219991Y-85095676D01*
X110921783Y-85005641D01*
X110646748Y-84859402D01*
X110405352Y-84662524D01*
X110206797Y-84422513D01*
X110058640Y-84148502D01*
X109966528Y-83850935D01*
X109932000Y-83522426D01*
X109932000Y-83184528D01*
X110253000Y-83184528D01*
X110253000Y-83475472D01*
X110309760Y-83760825D01*
X110421099Y-84029622D01*
X110582739Y-84271533D01*
X110788467Y-84477261D01*
X111030378Y-84638901D01*
X111299175Y-84750240D01*
X111584528Y-84807000D01*
X111875472Y-84807000D01*
X112160825Y-84750240D01*
X112429622Y-84638901D01*
X112671533Y-84477261D01*
X112877261Y-84271533D01*
X113038901Y-84029622D01*
X113150240Y-83760825D01*
X113207000Y-83475472D01*
X113207000Y-83184528D01*
X113150240Y-82899175D01*
X113038901Y-82630378D01*
X112877261Y-82388467D01*
X112671533Y-82182739D01*
X112429622Y-82021099D01*
X112160825Y-81909760D01*
X111875472Y-81853000D01*
X111584528Y-81853000D01*
X111299175Y-81909760D01*
X111030378Y-82021099D01*
X110788467Y-82182739D01*
X110582739Y-82388467D01*
X110421099Y-82630378D01*
X110309760Y-82899175D01*
X110253000Y-83184528D01*
X109932000Y-83184528D01*
X109932000Y-78198469D01*
X109967601Y-78241849D01*
X109967604Y-78241852D01*
X109983317Y-78260998D01*
X110002463Y-78276711D01*
X110220438Y-78494686D01*
X110220443Y-78494692D01*
X111322035Y-79596285D01*
X111251431Y-79701952D01*
X111192859Y-79843357D01*
X111163000Y-79993472D01*
X111163000Y-80146528D01*
X111192859Y-80296643D01*
X111251431Y-80438048D01*
X111336464Y-80565309D01*
X111444691Y-80673536D01*
X111571952Y-80758569D01*
X111713357Y-80817141D01*
X111863472Y-80847000D01*
X112016528Y-80847000D01*
X112166643Y-80817141D01*
X112308048Y-80758569D01*
X112435309Y-80673536D01*
X112543536Y-80565309D01*
X112628569Y-80438048D01*
X112687141Y-80296643D01*
X112717000Y-80146528D01*
X112717000Y-79993472D01*
X112687141Y-79843357D01*
X112628569Y-79701952D01*
X112543536Y-79574691D01*
X112441289Y-79472444D01*
X112434736Y-79405906D01*
X112406031Y-79311279D01*
X112359417Y-79224070D01*
X112296684Y-79147631D01*
X112277538Y-79131918D01*
X110842000Y-77696380D01*
X110842000Y-76051966D01*
X110927014Y-76121735D01*
X110935265Y-76205515D01*
X110963970Y-76300142D01*
X111010584Y-76387351D01*
X111057601Y-76444641D01*
X111057604Y-76444644D01*
X111073317Y-76463790D01*
X111092463Y-76479503D01*
X113610497Y-78997538D01*
X113626210Y-79016684D01*
X113702649Y-79079417D01*
X113789858Y-79126031D01*
X113884485Y-79154736D01*
X113958241Y-79162000D01*
X113958250Y-79162000D01*
X113982893Y-79164427D01*
X114007536Y-79162000D01*
X118023155Y-79162000D01*
X118104691Y-79243536D01*
X118231952Y-79328569D01*
X118373357Y-79387141D01*
X118523472Y-79417000D01*
X118676528Y-79417000D01*
X118826643Y-79387141D01*
X118968048Y-79328569D01*
X119095309Y-79243536D01*
X119203536Y-79135309D01*
X119288569Y-79008048D01*
X119347141Y-78866643D01*
X119377000Y-78716528D01*
X119377000Y-78563472D01*
X119347141Y-78413357D01*
X119288569Y-78271952D01*
X119203536Y-78144691D01*
X119193267Y-78134422D01*
X119193702Y-78133987D01*
X119278735Y-78006726D01*
X119337307Y-77865321D01*
X119367166Y-77715206D01*
X119367166Y-77562150D01*
X119337307Y-77412035D01*
X119278735Y-77270630D01*
X119193702Y-77143369D01*
X119085475Y-77035142D01*
X118958214Y-76950109D01*
X118816809Y-76891537D01*
X118666694Y-76861678D01*
X118513638Y-76861678D01*
X118363523Y-76891537D01*
X118222118Y-76950109D01*
X118094857Y-77035142D01*
X117992610Y-77137389D01*
X117926072Y-77143942D01*
X117831445Y-77172647D01*
X117744236Y-77219261D01*
X117667797Y-77281994D01*
X117652084Y-77301140D01*
X117245235Y-77707990D01*
X114377229Y-77707990D01*
X113022000Y-76352762D01*
X113022000Y-75244643D01*
X113024427Y-75220000D01*
X113022000Y-75195357D01*
X113022000Y-75195347D01*
X113014736Y-75121591D01*
X112986031Y-75026964D01*
X112959038Y-74976464D01*
X112939417Y-74939754D01*
X112892400Y-74882464D01*
X112892392Y-74882456D01*
X112876684Y-74863316D01*
X112857543Y-74847607D01*
X112295883Y-74285948D01*
X112311243Y-74130000D01*
X112294310Y-73958078D01*
X112244162Y-73792763D01*
X112162727Y-73640408D01*
X112053133Y-73506867D01*
X111919592Y-73397273D01*
X111767237Y-73315838D01*
X111601922Y-73265690D01*
X111473079Y-73253000D01*
X111386921Y-73253000D01*
X111258078Y-73265690D01*
X111092763Y-73315838D01*
X110940408Y-73397273D01*
X110842000Y-73478034D01*
X110842000Y-72241966D01*
X110940408Y-72322727D01*
X111092763Y-72404162D01*
X111258078Y-72454310D01*
X111386921Y-72467000D01*
X111473079Y-72467000D01*
X111601922Y-72454310D01*
X111767237Y-72404162D01*
X111919592Y-72322727D01*
X112048421Y-72217000D01*
X113283001Y-72217000D01*
X113283000Y-74949807D01*
X113221431Y-75041952D01*
X113162859Y-75183357D01*
X113133000Y-75333472D01*
X113133000Y-75486528D01*
X113162859Y-75636643D01*
X113221431Y-75778048D01*
X113306464Y-75905309D01*
X113414691Y-76013536D01*
X113541952Y-76098569D01*
X113683357Y-76157141D01*
X113833472Y-76187000D01*
X113986528Y-76187000D01*
X114136643Y-76157141D01*
X114278048Y-76098569D01*
X114405309Y-76013536D01*
X114513536Y-75905309D01*
X114598569Y-75778048D01*
X114657141Y-75636643D01*
X114687000Y-75486528D01*
X114687000Y-75333472D01*
X114657141Y-75183357D01*
X114598569Y-75041952D01*
X114537000Y-74949807D01*
X114537000Y-71849711D01*
X114549711Y-71837000D01*
X117639807Y-71837000D01*
X117731952Y-71898569D01*
G36*
X133460008Y-69254324D02*
G01*
X133758214Y-69344357D01*
X134033249Y-69490595D01*
X134274645Y-69687473D01*
X134473203Y-69927487D01*
X134621360Y-70201498D01*
X134713472Y-70499064D01*
X134748001Y-70827582D01*
X134748000Y-83510342D01*
X134715676Y-83840009D01*
X134625641Y-84138217D01*
X134479402Y-84413252D01*
X134282524Y-84654648D01*
X134042513Y-84853203D01*
X133768502Y-85001360D01*
X133470935Y-85093472D01*
X133142426Y-85128000D01*
X123553750Y-85128000D01*
X126339752Y-82342000D01*
X129875357Y-82342000D01*
X129900000Y-82344427D01*
X129924643Y-82342000D01*
X129924653Y-82342000D01*
X129998409Y-82334736D01*
X130093036Y-82306031D01*
X130180245Y-82259417D01*
X130256684Y-82196684D01*
X130272401Y-82177533D01*
X132452542Y-79997394D01*
X132471683Y-79981685D01*
X132487391Y-79962545D01*
X132487399Y-79962537D01*
X132534416Y-79905247D01*
X132581030Y-79818038D01*
X132609735Y-79723411D01*
X132612301Y-79697351D01*
X132616999Y-79649654D01*
X132616999Y-79649647D01*
X132619426Y-79625001D01*
X132616999Y-79600356D01*
X132616999Y-74806639D01*
X132619426Y-74781996D01*
X132616999Y-74757353D01*
X132616999Y-74757344D01*
X132609735Y-74683588D01*
X132581030Y-74588961D01*
X132534416Y-74501752D01*
X132471683Y-74425313D01*
X132452537Y-74409600D01*
X130505403Y-72462467D01*
X130489686Y-72443316D01*
X130413247Y-72380583D01*
X130326038Y-72333969D01*
X130231411Y-72305264D01*
X130157655Y-72298000D01*
X130157645Y-72298000D01*
X130133002Y-72295573D01*
X130108359Y-72298000D01*
X130061845Y-72298000D01*
X129960309Y-72196464D01*
X129833048Y-72111431D01*
X129691643Y-72052859D01*
X129541528Y-72023000D01*
X129388472Y-72023000D01*
X129238357Y-72052859D01*
X129096952Y-72111431D01*
X128969691Y-72196464D01*
X128861464Y-72304691D01*
X128776431Y-72431952D01*
X128717859Y-72573357D01*
X128688000Y-72723472D01*
X128688000Y-72826289D01*
X127645137Y-71783426D01*
X127625500Y-71759498D01*
X127530027Y-71681146D01*
X127421102Y-71622924D01*
X127302912Y-71587072D01*
X127210793Y-71577999D01*
X127179999Y-71574966D01*
X127149205Y-71577999D01*
X119354711Y-71577999D01*
X118868761Y-71092049D01*
X118847141Y-70983357D01*
X118802063Y-70874528D01*
X131463000Y-70874528D01*
X131463000Y-71165472D01*
X131519760Y-71450825D01*
X131631099Y-71719622D01*
X131792739Y-71961533D01*
X131998467Y-72167261D01*
X132240378Y-72328901D01*
X132509175Y-72440240D01*
X132794528Y-72497000D01*
X133085472Y-72497000D01*
X133370825Y-72440240D01*
X133639622Y-72328901D01*
X133881533Y-72167261D01*
X134087261Y-71961533D01*
X134248901Y-71719622D01*
X134360240Y-71450825D01*
X134417000Y-71165472D01*
X134417000Y-70874528D01*
X134360240Y-70589175D01*
X134248901Y-70320378D01*
X134087261Y-70078467D01*
X133881533Y-69872739D01*
X133639622Y-69711099D01*
X133370825Y-69599760D01*
X133085472Y-69543000D01*
X132794528Y-69543000D01*
X132509175Y-69599760D01*
X132240378Y-69711099D01*
X131998467Y-69872739D01*
X131792739Y-70078467D01*
X131631099Y-70320378D01*
X131519760Y-70589175D01*
X131463000Y-70874528D01*
X118802063Y-70874528D01*
X118788569Y-70841952D01*
X118703536Y-70714691D01*
X118595309Y-70606464D01*
X118468048Y-70521431D01*
X118326643Y-70462859D01*
X118176528Y-70433000D01*
X118023472Y-70433000D01*
X117873357Y-70462859D01*
X117731952Y-70521431D01*
X117639807Y-70583000D01*
X114320793Y-70583000D01*
X114289999Y-70579967D01*
X114167087Y-70592073D01*
X114048897Y-70627925D01*
X113939972Y-70686147D01*
X113844499Y-70764499D01*
X113824862Y-70788427D01*
X113650289Y-70963000D01*
X112280586Y-70963000D01*
X112301545Y-70893905D01*
X112308824Y-70820000D01*
X112308824Y-69820000D01*
X112301545Y-69746095D01*
X112279988Y-69675030D01*
X112244981Y-69609537D01*
X112197869Y-69552131D01*
X112140463Y-69505019D01*
X112074970Y-69470012D01*
X112003905Y-69448455D01*
X111930000Y-69441176D01*
X110930000Y-69441176D01*
X110856095Y-69448455D01*
X110785030Y-69470012D01*
X110719537Y-69505019D01*
X110662131Y-69552131D01*
X110615019Y-69609537D01*
X110580012Y-69675030D01*
X110558455Y-69746095D01*
X110551176Y-69820000D01*
X110551176Y-69834490D01*
X110486963Y-69853969D01*
X110399754Y-69900583D01*
X110342464Y-69947600D01*
X110342456Y-69947608D01*
X110323316Y-69963316D01*
X110307607Y-69982457D01*
X110044011Y-70246055D01*
X110054357Y-70211786D01*
X110200595Y-69936751D01*
X110397473Y-69695355D01*
X110637487Y-69496797D01*
X110911498Y-69348640D01*
X111209064Y-69256528D01*
X111537573Y-69222000D01*
X133130342Y-69222000D01*
X133460008Y-69254324D01*
X133460008Y-69254324D01*
G37*
X133460008Y-69254324D02*
X133758214Y-69344357D01*
X134033249Y-69490595D01*
X134274645Y-69687473D01*
X134473203Y-69927487D01*
X134621360Y-70201498D01*
X134713472Y-70499064D01*
X134748001Y-70827582D01*
X134748000Y-83510342D01*
X134715676Y-83840009D01*
X134625641Y-84138217D01*
X134479402Y-84413252D01*
X134282524Y-84654648D01*
X134042513Y-84853203D01*
X133768502Y-85001360D01*
X133470935Y-85093472D01*
X133142426Y-85128000D01*
X123553750Y-85128000D01*
X126339752Y-82342000D01*
X129875357Y-82342000D01*
X129900000Y-82344427D01*
X129924643Y-82342000D01*
X129924653Y-82342000D01*
X129998409Y-82334736D01*
X130093036Y-82306031D01*
X130180245Y-82259417D01*
X130256684Y-82196684D01*
X130272401Y-82177533D01*
X132452542Y-79997394D01*
X132471683Y-79981685D01*
X132487391Y-79962545D01*
X132487399Y-79962537D01*
X132534416Y-79905247D01*
X132581030Y-79818038D01*
X132609735Y-79723411D01*
X132612301Y-79697351D01*
X132616999Y-79649654D01*
X132616999Y-79649647D01*
X132619426Y-79625001D01*
X132616999Y-79600356D01*
X132616999Y-74806639D01*
X132619426Y-74781996D01*
X132616999Y-74757353D01*
X132616999Y-74757344D01*
X132609735Y-74683588D01*
X132581030Y-74588961D01*
X132534416Y-74501752D01*
X132471683Y-74425313D01*
X132452537Y-74409600D01*
X130505403Y-72462467D01*
X130489686Y-72443316D01*
X130413247Y-72380583D01*
X130326038Y-72333969D01*
X130231411Y-72305264D01*
X130157655Y-72298000D01*
X130157645Y-72298000D01*
X130133002Y-72295573D01*
X130108359Y-72298000D01*
X130061845Y-72298000D01*
X129960309Y-72196464D01*
X129833048Y-72111431D01*
X129691643Y-72052859D01*
X129541528Y-72023000D01*
X129388472Y-72023000D01*
X129238357Y-72052859D01*
X129096952Y-72111431D01*
X128969691Y-72196464D01*
X128861464Y-72304691D01*
X128776431Y-72431952D01*
X128717859Y-72573357D01*
X128688000Y-72723472D01*
X128688000Y-72826289D01*
X127645137Y-71783426D01*
X127625500Y-71759498D01*
X127530027Y-71681146D01*
X127421102Y-71622924D01*
X127302912Y-71587072D01*
X127210793Y-71577999D01*
X127179999Y-71574966D01*
X127149205Y-71577999D01*
X119354711Y-71577999D01*
X118868761Y-71092049D01*
X118847141Y-70983357D01*
X118802063Y-70874528D01*
X131463000Y-70874528D01*
X131463000Y-71165472D01*
X131519760Y-71450825D01*
X131631099Y-71719622D01*
X131792739Y-71961533D01*
X131998467Y-72167261D01*
X132240378Y-72328901D01*
X132509175Y-72440240D01*
X132794528Y-72497000D01*
X133085472Y-72497000D01*
X133370825Y-72440240D01*
X133639622Y-72328901D01*
X133881533Y-72167261D01*
X134087261Y-71961533D01*
X134248901Y-71719622D01*
X134360240Y-71450825D01*
X134417000Y-71165472D01*
X134417000Y-70874528D01*
X134360240Y-70589175D01*
X134248901Y-70320378D01*
X134087261Y-70078467D01*
X133881533Y-69872739D01*
X133639622Y-69711099D01*
X133370825Y-69599760D01*
X133085472Y-69543000D01*
X132794528Y-69543000D01*
X132509175Y-69599760D01*
X132240378Y-69711099D01*
X131998467Y-69872739D01*
X131792739Y-70078467D01*
X131631099Y-70320378D01*
X131519760Y-70589175D01*
X131463000Y-70874528D01*
X118802063Y-70874528D01*
X118788569Y-70841952D01*
X118703536Y-70714691D01*
X118595309Y-70606464D01*
X118468048Y-70521431D01*
X118326643Y-70462859D01*
X118176528Y-70433000D01*
X118023472Y-70433000D01*
X117873357Y-70462859D01*
X117731952Y-70521431D01*
X117639807Y-70583000D01*
X114320793Y-70583000D01*
X114289999Y-70579967D01*
X114167087Y-70592073D01*
X114048897Y-70627925D01*
X113939972Y-70686147D01*
X113844499Y-70764499D01*
X113824862Y-70788427D01*
X113650289Y-70963000D01*
X112280586Y-70963000D01*
X112301545Y-70893905D01*
X112308824Y-70820000D01*
X112308824Y-69820000D01*
X112301545Y-69746095D01*
X112279988Y-69675030D01*
X112244981Y-69609537D01*
X112197869Y-69552131D01*
X112140463Y-69505019D01*
X112074970Y-69470012D01*
X112003905Y-69448455D01*
X111930000Y-69441176D01*
X110930000Y-69441176D01*
X110856095Y-69448455D01*
X110785030Y-69470012D01*
X110719537Y-69505019D01*
X110662131Y-69552131D01*
X110615019Y-69609537D01*
X110580012Y-69675030D01*
X110558455Y-69746095D01*
X110551176Y-69820000D01*
X110551176Y-69834490D01*
X110486963Y-69853969D01*
X110399754Y-69900583D01*
X110342464Y-69947600D01*
X110342456Y-69947608D01*
X110323316Y-69963316D01*
X110307607Y-69982457D01*
X110044011Y-70246055D01*
X110054357Y-70211786D01*
X110200595Y-69936751D01*
X110397473Y-69695355D01*
X110637487Y-69496797D01*
X110911498Y-69348640D01*
X111209064Y-69256528D01*
X111537573Y-69222000D01*
X133130342Y-69222000D01*
X133460008Y-69254324D01*
G36*
X131612999Y-74989932D02*
G01*
X131612999Y-75751287D01*
X131318761Y-75457049D01*
X131297141Y-75348357D01*
X131238569Y-75206952D01*
X131153536Y-75079691D01*
X131045309Y-74971464D01*
X130918048Y-74886431D01*
X130776643Y-74827859D01*
X130667950Y-74806239D01*
X130615136Y-74753425D01*
X130615131Y-74753419D01*
X129438712Y-73577000D01*
X129541528Y-73577000D01*
X129691643Y-73547141D01*
X129833048Y-73488569D01*
X129960309Y-73403536D01*
X129993456Y-73370389D01*
X131612999Y-74989932D01*
X131612999Y-74989932D01*
G37*
X131612999Y-74989932D02*
X131612999Y-75751287D01*
X131318761Y-75457049D01*
X131297141Y-75348357D01*
X131238569Y-75206952D01*
X131153536Y-75079691D01*
X131045309Y-74971464D01*
X130918048Y-74886431D01*
X130776643Y-74827859D01*
X130667950Y-74806239D01*
X130615136Y-74753425D01*
X130615131Y-74753419D01*
X129438712Y-73577000D01*
X129541528Y-73577000D01*
X129691643Y-73547141D01*
X129833048Y-73488569D01*
X129960309Y-73403536D01*
X129993456Y-73370389D01*
X131612999Y-74989932D01*
M02*
