G04 #@! TF.GenerationSoftware,KiCad,Pcbnew,(5.1.4)-1*
G04 #@! TF.CreationDate,2020-11-12T16:18:46-05:00*
G04 #@! TF.ProjectId,UniAmp,556e6941-6d70-42e6-9b69-6361645f7063,rev?*
G04 #@! TF.SameCoordinates,Original*
G04 #@! TF.FileFunction,Paste,Top*
G04 #@! TF.FilePolarity,Positive*
%FSLAX46Y46*%
G04 Gerber Fmt 4.6, Leading zero omitted, Abs format (unit mm)*
G04 Created by KiCad (PCBNEW (5.1.4)-1) date 2020-11-12 16:18:46*
%MOMM*%
%LPD*%
G04 APERTURE LIST*
%ADD10C,0.100000*%
%ADD11C,0.590000*%
%ADD12C,1.090000*%
%ADD13C,0.300000*%
%ADD14C,0.830000*%
%ADD15C,0.250000*%
%ADD16R,0.650000X1.060000*%
%ADD17R,0.300000X1.400000*%
G04 APERTURE END LIST*
D10*
G36*
X113796958Y-73235710D02*
G01*
X113811276Y-73237834D01*
X113825317Y-73241351D01*
X113838946Y-73246228D01*
X113852031Y-73252417D01*
X113864447Y-73259858D01*
X113876073Y-73268481D01*
X113886798Y-73278202D01*
X113896519Y-73288927D01*
X113905142Y-73300553D01*
X113912583Y-73312969D01*
X113918772Y-73326054D01*
X113923649Y-73339683D01*
X113927166Y-73353724D01*
X113929290Y-73368042D01*
X113930000Y-73382500D01*
X113930000Y-73677500D01*
X113929290Y-73691958D01*
X113927166Y-73706276D01*
X113923649Y-73720317D01*
X113918772Y-73733946D01*
X113912583Y-73747031D01*
X113905142Y-73759447D01*
X113896519Y-73771073D01*
X113886798Y-73781798D01*
X113876073Y-73791519D01*
X113864447Y-73800142D01*
X113852031Y-73807583D01*
X113838946Y-73813772D01*
X113825317Y-73818649D01*
X113811276Y-73822166D01*
X113796958Y-73824290D01*
X113782500Y-73825000D01*
X113437500Y-73825000D01*
X113423042Y-73824290D01*
X113408724Y-73822166D01*
X113394683Y-73818649D01*
X113381054Y-73813772D01*
X113367969Y-73807583D01*
X113355553Y-73800142D01*
X113343927Y-73791519D01*
X113333202Y-73781798D01*
X113323481Y-73771073D01*
X113314858Y-73759447D01*
X113307417Y-73747031D01*
X113301228Y-73733946D01*
X113296351Y-73720317D01*
X113292834Y-73706276D01*
X113290710Y-73691958D01*
X113290000Y-73677500D01*
X113290000Y-73382500D01*
X113290710Y-73368042D01*
X113292834Y-73353724D01*
X113296351Y-73339683D01*
X113301228Y-73326054D01*
X113307417Y-73312969D01*
X113314858Y-73300553D01*
X113323481Y-73288927D01*
X113333202Y-73278202D01*
X113343927Y-73268481D01*
X113355553Y-73259858D01*
X113367969Y-73252417D01*
X113381054Y-73246228D01*
X113394683Y-73241351D01*
X113408724Y-73237834D01*
X113423042Y-73235710D01*
X113437500Y-73235000D01*
X113782500Y-73235000D01*
X113796958Y-73235710D01*
X113796958Y-73235710D01*
G37*
D11*
X113610000Y-73530000D03*
D10*
G36*
X113796958Y-74205710D02*
G01*
X113811276Y-74207834D01*
X113825317Y-74211351D01*
X113838946Y-74216228D01*
X113852031Y-74222417D01*
X113864447Y-74229858D01*
X113876073Y-74238481D01*
X113886798Y-74248202D01*
X113896519Y-74258927D01*
X113905142Y-74270553D01*
X113912583Y-74282969D01*
X113918772Y-74296054D01*
X113923649Y-74309683D01*
X113927166Y-74323724D01*
X113929290Y-74338042D01*
X113930000Y-74352500D01*
X113930000Y-74647500D01*
X113929290Y-74661958D01*
X113927166Y-74676276D01*
X113923649Y-74690317D01*
X113918772Y-74703946D01*
X113912583Y-74717031D01*
X113905142Y-74729447D01*
X113896519Y-74741073D01*
X113886798Y-74751798D01*
X113876073Y-74761519D01*
X113864447Y-74770142D01*
X113852031Y-74777583D01*
X113838946Y-74783772D01*
X113825317Y-74788649D01*
X113811276Y-74792166D01*
X113796958Y-74794290D01*
X113782500Y-74795000D01*
X113437500Y-74795000D01*
X113423042Y-74794290D01*
X113408724Y-74792166D01*
X113394683Y-74788649D01*
X113381054Y-74783772D01*
X113367969Y-74777583D01*
X113355553Y-74770142D01*
X113343927Y-74761519D01*
X113333202Y-74751798D01*
X113323481Y-74741073D01*
X113314858Y-74729447D01*
X113307417Y-74717031D01*
X113301228Y-74703946D01*
X113296351Y-74690317D01*
X113292834Y-74676276D01*
X113290710Y-74661958D01*
X113290000Y-74647500D01*
X113290000Y-74352500D01*
X113290710Y-74338042D01*
X113292834Y-74323724D01*
X113296351Y-74309683D01*
X113301228Y-74296054D01*
X113307417Y-74282969D01*
X113314858Y-74270553D01*
X113323481Y-74258927D01*
X113333202Y-74248202D01*
X113343927Y-74238481D01*
X113355553Y-74229858D01*
X113367969Y-74222417D01*
X113381054Y-74216228D01*
X113394683Y-74211351D01*
X113408724Y-74207834D01*
X113423042Y-74205710D01*
X113437500Y-74205000D01*
X113782500Y-74205000D01*
X113796958Y-74205710D01*
X113796958Y-74205710D01*
G37*
D11*
X113610000Y-74500000D03*
D10*
G36*
X123036958Y-73485710D02*
G01*
X123051276Y-73487834D01*
X123065317Y-73491351D01*
X123078946Y-73496228D01*
X123092031Y-73502417D01*
X123104447Y-73509858D01*
X123116073Y-73518481D01*
X123126798Y-73528202D01*
X123136519Y-73538927D01*
X123145142Y-73550553D01*
X123152583Y-73562969D01*
X123158772Y-73576054D01*
X123163649Y-73589683D01*
X123167166Y-73603724D01*
X123169290Y-73618042D01*
X123170000Y-73632500D01*
X123170000Y-73927500D01*
X123169290Y-73941958D01*
X123167166Y-73956276D01*
X123163649Y-73970317D01*
X123158772Y-73983946D01*
X123152583Y-73997031D01*
X123145142Y-74009447D01*
X123136519Y-74021073D01*
X123126798Y-74031798D01*
X123116073Y-74041519D01*
X123104447Y-74050142D01*
X123092031Y-74057583D01*
X123078946Y-74063772D01*
X123065317Y-74068649D01*
X123051276Y-74072166D01*
X123036958Y-74074290D01*
X123022500Y-74075000D01*
X122677500Y-74075000D01*
X122663042Y-74074290D01*
X122648724Y-74072166D01*
X122634683Y-74068649D01*
X122621054Y-74063772D01*
X122607969Y-74057583D01*
X122595553Y-74050142D01*
X122583927Y-74041519D01*
X122573202Y-74031798D01*
X122563481Y-74021073D01*
X122554858Y-74009447D01*
X122547417Y-73997031D01*
X122541228Y-73983946D01*
X122536351Y-73970317D01*
X122532834Y-73956276D01*
X122530710Y-73941958D01*
X122530000Y-73927500D01*
X122530000Y-73632500D01*
X122530710Y-73618042D01*
X122532834Y-73603724D01*
X122536351Y-73589683D01*
X122541228Y-73576054D01*
X122547417Y-73562969D01*
X122554858Y-73550553D01*
X122563481Y-73538927D01*
X122573202Y-73528202D01*
X122583927Y-73518481D01*
X122595553Y-73509858D01*
X122607969Y-73502417D01*
X122621054Y-73496228D01*
X122634683Y-73491351D01*
X122648724Y-73487834D01*
X122663042Y-73485710D01*
X122677500Y-73485000D01*
X123022500Y-73485000D01*
X123036958Y-73485710D01*
X123036958Y-73485710D01*
G37*
D11*
X122850000Y-73780000D03*
D10*
G36*
X123036958Y-74455710D02*
G01*
X123051276Y-74457834D01*
X123065317Y-74461351D01*
X123078946Y-74466228D01*
X123092031Y-74472417D01*
X123104447Y-74479858D01*
X123116073Y-74488481D01*
X123126798Y-74498202D01*
X123136519Y-74508927D01*
X123145142Y-74520553D01*
X123152583Y-74532969D01*
X123158772Y-74546054D01*
X123163649Y-74559683D01*
X123167166Y-74573724D01*
X123169290Y-74588042D01*
X123170000Y-74602500D01*
X123170000Y-74897500D01*
X123169290Y-74911958D01*
X123167166Y-74926276D01*
X123163649Y-74940317D01*
X123158772Y-74953946D01*
X123152583Y-74967031D01*
X123145142Y-74979447D01*
X123136519Y-74991073D01*
X123126798Y-75001798D01*
X123116073Y-75011519D01*
X123104447Y-75020142D01*
X123092031Y-75027583D01*
X123078946Y-75033772D01*
X123065317Y-75038649D01*
X123051276Y-75042166D01*
X123036958Y-75044290D01*
X123022500Y-75045000D01*
X122677500Y-75045000D01*
X122663042Y-75044290D01*
X122648724Y-75042166D01*
X122634683Y-75038649D01*
X122621054Y-75033772D01*
X122607969Y-75027583D01*
X122595553Y-75020142D01*
X122583927Y-75011519D01*
X122573202Y-75001798D01*
X122563481Y-74991073D01*
X122554858Y-74979447D01*
X122547417Y-74967031D01*
X122541228Y-74953946D01*
X122536351Y-74940317D01*
X122532834Y-74926276D01*
X122530710Y-74911958D01*
X122530000Y-74897500D01*
X122530000Y-74602500D01*
X122530710Y-74588042D01*
X122532834Y-74573724D01*
X122536351Y-74559683D01*
X122541228Y-74546054D01*
X122547417Y-74532969D01*
X122554858Y-74520553D01*
X122563481Y-74508927D01*
X122573202Y-74498202D01*
X122583927Y-74488481D01*
X122595553Y-74479858D01*
X122607969Y-74472417D01*
X122621054Y-74466228D01*
X122634683Y-74461351D01*
X122648724Y-74457834D01*
X122663042Y-74455710D01*
X122677500Y-74455000D01*
X123022500Y-74455000D01*
X123036958Y-74455710D01*
X123036958Y-74455710D01*
G37*
D11*
X122850000Y-74750000D03*
D10*
G36*
X124836958Y-72765710D02*
G01*
X124851276Y-72767834D01*
X124865317Y-72771351D01*
X124878946Y-72776228D01*
X124892031Y-72782417D01*
X124904447Y-72789858D01*
X124916073Y-72798481D01*
X124926798Y-72808202D01*
X124936519Y-72818927D01*
X124945142Y-72830553D01*
X124952583Y-72842969D01*
X124958772Y-72856054D01*
X124963649Y-72869683D01*
X124967166Y-72883724D01*
X124969290Y-72898042D01*
X124970000Y-72912500D01*
X124970000Y-73207500D01*
X124969290Y-73221958D01*
X124967166Y-73236276D01*
X124963649Y-73250317D01*
X124958772Y-73263946D01*
X124952583Y-73277031D01*
X124945142Y-73289447D01*
X124936519Y-73301073D01*
X124926798Y-73311798D01*
X124916073Y-73321519D01*
X124904447Y-73330142D01*
X124892031Y-73337583D01*
X124878946Y-73343772D01*
X124865317Y-73348649D01*
X124851276Y-73352166D01*
X124836958Y-73354290D01*
X124822500Y-73355000D01*
X124477500Y-73355000D01*
X124463042Y-73354290D01*
X124448724Y-73352166D01*
X124434683Y-73348649D01*
X124421054Y-73343772D01*
X124407969Y-73337583D01*
X124395553Y-73330142D01*
X124383927Y-73321519D01*
X124373202Y-73311798D01*
X124363481Y-73301073D01*
X124354858Y-73289447D01*
X124347417Y-73277031D01*
X124341228Y-73263946D01*
X124336351Y-73250317D01*
X124332834Y-73236276D01*
X124330710Y-73221958D01*
X124330000Y-73207500D01*
X124330000Y-72912500D01*
X124330710Y-72898042D01*
X124332834Y-72883724D01*
X124336351Y-72869683D01*
X124341228Y-72856054D01*
X124347417Y-72842969D01*
X124354858Y-72830553D01*
X124363481Y-72818927D01*
X124373202Y-72808202D01*
X124383927Y-72798481D01*
X124395553Y-72789858D01*
X124407969Y-72782417D01*
X124421054Y-72776228D01*
X124434683Y-72771351D01*
X124448724Y-72767834D01*
X124463042Y-72765710D01*
X124477500Y-72765000D01*
X124822500Y-72765000D01*
X124836958Y-72765710D01*
X124836958Y-72765710D01*
G37*
D11*
X124650000Y-73060000D03*
D10*
G36*
X124836958Y-71795710D02*
G01*
X124851276Y-71797834D01*
X124865317Y-71801351D01*
X124878946Y-71806228D01*
X124892031Y-71812417D01*
X124904447Y-71819858D01*
X124916073Y-71828481D01*
X124926798Y-71838202D01*
X124936519Y-71848927D01*
X124945142Y-71860553D01*
X124952583Y-71872969D01*
X124958772Y-71886054D01*
X124963649Y-71899683D01*
X124967166Y-71913724D01*
X124969290Y-71928042D01*
X124970000Y-71942500D01*
X124970000Y-72237500D01*
X124969290Y-72251958D01*
X124967166Y-72266276D01*
X124963649Y-72280317D01*
X124958772Y-72293946D01*
X124952583Y-72307031D01*
X124945142Y-72319447D01*
X124936519Y-72331073D01*
X124926798Y-72341798D01*
X124916073Y-72351519D01*
X124904447Y-72360142D01*
X124892031Y-72367583D01*
X124878946Y-72373772D01*
X124865317Y-72378649D01*
X124851276Y-72382166D01*
X124836958Y-72384290D01*
X124822500Y-72385000D01*
X124477500Y-72385000D01*
X124463042Y-72384290D01*
X124448724Y-72382166D01*
X124434683Y-72378649D01*
X124421054Y-72373772D01*
X124407969Y-72367583D01*
X124395553Y-72360142D01*
X124383927Y-72351519D01*
X124373202Y-72341798D01*
X124363481Y-72331073D01*
X124354858Y-72319447D01*
X124347417Y-72307031D01*
X124341228Y-72293946D01*
X124336351Y-72280317D01*
X124332834Y-72266276D01*
X124330710Y-72251958D01*
X124330000Y-72237500D01*
X124330000Y-71942500D01*
X124330710Y-71928042D01*
X124332834Y-71913724D01*
X124336351Y-71899683D01*
X124341228Y-71886054D01*
X124347417Y-71872969D01*
X124354858Y-71860553D01*
X124363481Y-71848927D01*
X124373202Y-71838202D01*
X124383927Y-71828481D01*
X124395553Y-71819858D01*
X124407969Y-71812417D01*
X124421054Y-71806228D01*
X124434683Y-71801351D01*
X124448724Y-71797834D01*
X124463042Y-71795710D01*
X124477500Y-71795000D01*
X124822500Y-71795000D01*
X124836958Y-71795710D01*
X124836958Y-71795710D01*
G37*
D11*
X124650000Y-72090000D03*
D10*
G36*
X125986958Y-81725710D02*
G01*
X126001276Y-81727834D01*
X126015317Y-81731351D01*
X126028946Y-81736228D01*
X126042031Y-81742417D01*
X126054447Y-81749858D01*
X126066073Y-81758481D01*
X126076798Y-81768202D01*
X126086519Y-81778927D01*
X126095142Y-81790553D01*
X126102583Y-81802969D01*
X126108772Y-81816054D01*
X126113649Y-81829683D01*
X126117166Y-81843724D01*
X126119290Y-81858042D01*
X126120000Y-81872500D01*
X126120000Y-82167500D01*
X126119290Y-82181958D01*
X126117166Y-82196276D01*
X126113649Y-82210317D01*
X126108772Y-82223946D01*
X126102583Y-82237031D01*
X126095142Y-82249447D01*
X126086519Y-82261073D01*
X126076798Y-82271798D01*
X126066073Y-82281519D01*
X126054447Y-82290142D01*
X126042031Y-82297583D01*
X126028946Y-82303772D01*
X126015317Y-82308649D01*
X126001276Y-82312166D01*
X125986958Y-82314290D01*
X125972500Y-82315000D01*
X125627500Y-82315000D01*
X125613042Y-82314290D01*
X125598724Y-82312166D01*
X125584683Y-82308649D01*
X125571054Y-82303772D01*
X125557969Y-82297583D01*
X125545553Y-82290142D01*
X125533927Y-82281519D01*
X125523202Y-82271798D01*
X125513481Y-82261073D01*
X125504858Y-82249447D01*
X125497417Y-82237031D01*
X125491228Y-82223946D01*
X125486351Y-82210317D01*
X125482834Y-82196276D01*
X125480710Y-82181958D01*
X125480000Y-82167500D01*
X125480000Y-81872500D01*
X125480710Y-81858042D01*
X125482834Y-81843724D01*
X125486351Y-81829683D01*
X125491228Y-81816054D01*
X125497417Y-81802969D01*
X125504858Y-81790553D01*
X125513481Y-81778927D01*
X125523202Y-81768202D01*
X125533927Y-81758481D01*
X125545553Y-81749858D01*
X125557969Y-81742417D01*
X125571054Y-81736228D01*
X125584683Y-81731351D01*
X125598724Y-81727834D01*
X125613042Y-81725710D01*
X125627500Y-81725000D01*
X125972500Y-81725000D01*
X125986958Y-81725710D01*
X125986958Y-81725710D01*
G37*
D11*
X125800000Y-82020000D03*
D10*
G36*
X125986958Y-82695710D02*
G01*
X126001276Y-82697834D01*
X126015317Y-82701351D01*
X126028946Y-82706228D01*
X126042031Y-82712417D01*
X126054447Y-82719858D01*
X126066073Y-82728481D01*
X126076798Y-82738202D01*
X126086519Y-82748927D01*
X126095142Y-82760553D01*
X126102583Y-82772969D01*
X126108772Y-82786054D01*
X126113649Y-82799683D01*
X126117166Y-82813724D01*
X126119290Y-82828042D01*
X126120000Y-82842500D01*
X126120000Y-83137500D01*
X126119290Y-83151958D01*
X126117166Y-83166276D01*
X126113649Y-83180317D01*
X126108772Y-83193946D01*
X126102583Y-83207031D01*
X126095142Y-83219447D01*
X126086519Y-83231073D01*
X126076798Y-83241798D01*
X126066073Y-83251519D01*
X126054447Y-83260142D01*
X126042031Y-83267583D01*
X126028946Y-83273772D01*
X126015317Y-83278649D01*
X126001276Y-83282166D01*
X125986958Y-83284290D01*
X125972500Y-83285000D01*
X125627500Y-83285000D01*
X125613042Y-83284290D01*
X125598724Y-83282166D01*
X125584683Y-83278649D01*
X125571054Y-83273772D01*
X125557969Y-83267583D01*
X125545553Y-83260142D01*
X125533927Y-83251519D01*
X125523202Y-83241798D01*
X125513481Y-83231073D01*
X125504858Y-83219447D01*
X125497417Y-83207031D01*
X125491228Y-83193946D01*
X125486351Y-83180317D01*
X125482834Y-83166276D01*
X125480710Y-83151958D01*
X125480000Y-83137500D01*
X125480000Y-82842500D01*
X125480710Y-82828042D01*
X125482834Y-82813724D01*
X125486351Y-82799683D01*
X125491228Y-82786054D01*
X125497417Y-82772969D01*
X125504858Y-82760553D01*
X125513481Y-82748927D01*
X125523202Y-82738202D01*
X125533927Y-82728481D01*
X125545553Y-82719858D01*
X125557969Y-82712417D01*
X125571054Y-82706228D01*
X125584683Y-82701351D01*
X125598724Y-82697834D01*
X125613042Y-82695710D01*
X125627500Y-82695000D01*
X125972500Y-82695000D01*
X125986958Y-82695710D01*
X125986958Y-82695710D01*
G37*
D11*
X125800000Y-82990000D03*
D10*
G36*
X126366958Y-72755710D02*
G01*
X126381276Y-72757834D01*
X126395317Y-72761351D01*
X126408946Y-72766228D01*
X126422031Y-72772417D01*
X126434447Y-72779858D01*
X126446073Y-72788481D01*
X126456798Y-72798202D01*
X126466519Y-72808927D01*
X126475142Y-72820553D01*
X126482583Y-72832969D01*
X126488772Y-72846054D01*
X126493649Y-72859683D01*
X126497166Y-72873724D01*
X126499290Y-72888042D01*
X126500000Y-72902500D01*
X126500000Y-73197500D01*
X126499290Y-73211958D01*
X126497166Y-73226276D01*
X126493649Y-73240317D01*
X126488772Y-73253946D01*
X126482583Y-73267031D01*
X126475142Y-73279447D01*
X126466519Y-73291073D01*
X126456798Y-73301798D01*
X126446073Y-73311519D01*
X126434447Y-73320142D01*
X126422031Y-73327583D01*
X126408946Y-73333772D01*
X126395317Y-73338649D01*
X126381276Y-73342166D01*
X126366958Y-73344290D01*
X126352500Y-73345000D01*
X126007500Y-73345000D01*
X125993042Y-73344290D01*
X125978724Y-73342166D01*
X125964683Y-73338649D01*
X125951054Y-73333772D01*
X125937969Y-73327583D01*
X125925553Y-73320142D01*
X125913927Y-73311519D01*
X125903202Y-73301798D01*
X125893481Y-73291073D01*
X125884858Y-73279447D01*
X125877417Y-73267031D01*
X125871228Y-73253946D01*
X125866351Y-73240317D01*
X125862834Y-73226276D01*
X125860710Y-73211958D01*
X125860000Y-73197500D01*
X125860000Y-72902500D01*
X125860710Y-72888042D01*
X125862834Y-72873724D01*
X125866351Y-72859683D01*
X125871228Y-72846054D01*
X125877417Y-72832969D01*
X125884858Y-72820553D01*
X125893481Y-72808927D01*
X125903202Y-72798202D01*
X125913927Y-72788481D01*
X125925553Y-72779858D01*
X125937969Y-72772417D01*
X125951054Y-72766228D01*
X125964683Y-72761351D01*
X125978724Y-72757834D01*
X125993042Y-72755710D01*
X126007500Y-72755000D01*
X126352500Y-72755000D01*
X126366958Y-72755710D01*
X126366958Y-72755710D01*
G37*
D11*
X126180000Y-73050000D03*
D10*
G36*
X126366958Y-71785710D02*
G01*
X126381276Y-71787834D01*
X126395317Y-71791351D01*
X126408946Y-71796228D01*
X126422031Y-71802417D01*
X126434447Y-71809858D01*
X126446073Y-71818481D01*
X126456798Y-71828202D01*
X126466519Y-71838927D01*
X126475142Y-71850553D01*
X126482583Y-71862969D01*
X126488772Y-71876054D01*
X126493649Y-71889683D01*
X126497166Y-71903724D01*
X126499290Y-71918042D01*
X126500000Y-71932500D01*
X126500000Y-72227500D01*
X126499290Y-72241958D01*
X126497166Y-72256276D01*
X126493649Y-72270317D01*
X126488772Y-72283946D01*
X126482583Y-72297031D01*
X126475142Y-72309447D01*
X126466519Y-72321073D01*
X126456798Y-72331798D01*
X126446073Y-72341519D01*
X126434447Y-72350142D01*
X126422031Y-72357583D01*
X126408946Y-72363772D01*
X126395317Y-72368649D01*
X126381276Y-72372166D01*
X126366958Y-72374290D01*
X126352500Y-72375000D01*
X126007500Y-72375000D01*
X125993042Y-72374290D01*
X125978724Y-72372166D01*
X125964683Y-72368649D01*
X125951054Y-72363772D01*
X125937969Y-72357583D01*
X125925553Y-72350142D01*
X125913927Y-72341519D01*
X125903202Y-72331798D01*
X125893481Y-72321073D01*
X125884858Y-72309447D01*
X125877417Y-72297031D01*
X125871228Y-72283946D01*
X125866351Y-72270317D01*
X125862834Y-72256276D01*
X125860710Y-72241958D01*
X125860000Y-72227500D01*
X125860000Y-71932500D01*
X125860710Y-71918042D01*
X125862834Y-71903724D01*
X125866351Y-71889683D01*
X125871228Y-71876054D01*
X125877417Y-71862969D01*
X125884858Y-71850553D01*
X125893481Y-71838927D01*
X125903202Y-71828202D01*
X125913927Y-71818481D01*
X125925553Y-71809858D01*
X125937969Y-71802417D01*
X125951054Y-71796228D01*
X125964683Y-71791351D01*
X125978724Y-71787834D01*
X125993042Y-71785710D01*
X126007500Y-71785000D01*
X126352500Y-71785000D01*
X126366958Y-71785710D01*
X126366958Y-71785710D01*
G37*
D11*
X126180000Y-72080000D03*
D10*
G36*
X128166958Y-71775710D02*
G01*
X128181276Y-71777834D01*
X128195317Y-71781351D01*
X128208946Y-71786228D01*
X128222031Y-71792417D01*
X128234447Y-71799858D01*
X128246073Y-71808481D01*
X128256798Y-71818202D01*
X128266519Y-71828927D01*
X128275142Y-71840553D01*
X128282583Y-71852969D01*
X128288772Y-71866054D01*
X128293649Y-71879683D01*
X128297166Y-71893724D01*
X128299290Y-71908042D01*
X128300000Y-71922500D01*
X128300000Y-72217500D01*
X128299290Y-72231958D01*
X128297166Y-72246276D01*
X128293649Y-72260317D01*
X128288772Y-72273946D01*
X128282583Y-72287031D01*
X128275142Y-72299447D01*
X128266519Y-72311073D01*
X128256798Y-72321798D01*
X128246073Y-72331519D01*
X128234447Y-72340142D01*
X128222031Y-72347583D01*
X128208946Y-72353772D01*
X128195317Y-72358649D01*
X128181276Y-72362166D01*
X128166958Y-72364290D01*
X128152500Y-72365000D01*
X127807500Y-72365000D01*
X127793042Y-72364290D01*
X127778724Y-72362166D01*
X127764683Y-72358649D01*
X127751054Y-72353772D01*
X127737969Y-72347583D01*
X127725553Y-72340142D01*
X127713927Y-72331519D01*
X127703202Y-72321798D01*
X127693481Y-72311073D01*
X127684858Y-72299447D01*
X127677417Y-72287031D01*
X127671228Y-72273946D01*
X127666351Y-72260317D01*
X127662834Y-72246276D01*
X127660710Y-72231958D01*
X127660000Y-72217500D01*
X127660000Y-71922500D01*
X127660710Y-71908042D01*
X127662834Y-71893724D01*
X127666351Y-71879683D01*
X127671228Y-71866054D01*
X127677417Y-71852969D01*
X127684858Y-71840553D01*
X127693481Y-71828927D01*
X127703202Y-71818202D01*
X127713927Y-71808481D01*
X127725553Y-71799858D01*
X127737969Y-71792417D01*
X127751054Y-71786228D01*
X127764683Y-71781351D01*
X127778724Y-71777834D01*
X127793042Y-71775710D01*
X127807500Y-71775000D01*
X128152500Y-71775000D01*
X128166958Y-71775710D01*
X128166958Y-71775710D01*
G37*
D11*
X127980000Y-72070000D03*
D10*
G36*
X128166958Y-72745710D02*
G01*
X128181276Y-72747834D01*
X128195317Y-72751351D01*
X128208946Y-72756228D01*
X128222031Y-72762417D01*
X128234447Y-72769858D01*
X128246073Y-72778481D01*
X128256798Y-72788202D01*
X128266519Y-72798927D01*
X128275142Y-72810553D01*
X128282583Y-72822969D01*
X128288772Y-72836054D01*
X128293649Y-72849683D01*
X128297166Y-72863724D01*
X128299290Y-72878042D01*
X128300000Y-72892500D01*
X128300000Y-73187500D01*
X128299290Y-73201958D01*
X128297166Y-73216276D01*
X128293649Y-73230317D01*
X128288772Y-73243946D01*
X128282583Y-73257031D01*
X128275142Y-73269447D01*
X128266519Y-73281073D01*
X128256798Y-73291798D01*
X128246073Y-73301519D01*
X128234447Y-73310142D01*
X128222031Y-73317583D01*
X128208946Y-73323772D01*
X128195317Y-73328649D01*
X128181276Y-73332166D01*
X128166958Y-73334290D01*
X128152500Y-73335000D01*
X127807500Y-73335000D01*
X127793042Y-73334290D01*
X127778724Y-73332166D01*
X127764683Y-73328649D01*
X127751054Y-73323772D01*
X127737969Y-73317583D01*
X127725553Y-73310142D01*
X127713927Y-73301519D01*
X127703202Y-73291798D01*
X127693481Y-73281073D01*
X127684858Y-73269447D01*
X127677417Y-73257031D01*
X127671228Y-73243946D01*
X127666351Y-73230317D01*
X127662834Y-73216276D01*
X127660710Y-73201958D01*
X127660000Y-73187500D01*
X127660000Y-72892500D01*
X127660710Y-72878042D01*
X127662834Y-72863724D01*
X127666351Y-72849683D01*
X127671228Y-72836054D01*
X127677417Y-72822969D01*
X127684858Y-72810553D01*
X127693481Y-72798927D01*
X127703202Y-72788202D01*
X127713927Y-72778481D01*
X127725553Y-72769858D01*
X127737969Y-72762417D01*
X127751054Y-72756228D01*
X127764683Y-72751351D01*
X127778724Y-72747834D01*
X127793042Y-72745710D01*
X127807500Y-72745000D01*
X128152500Y-72745000D01*
X128166958Y-72745710D01*
X128166958Y-72745710D01*
G37*
D11*
X127980000Y-73040000D03*
D10*
G36*
X127306958Y-82675710D02*
G01*
X127321276Y-82677834D01*
X127335317Y-82681351D01*
X127348946Y-82686228D01*
X127362031Y-82692417D01*
X127374447Y-82699858D01*
X127386073Y-82708481D01*
X127396798Y-82718202D01*
X127406519Y-82728927D01*
X127415142Y-82740553D01*
X127422583Y-82752969D01*
X127428772Y-82766054D01*
X127433649Y-82779683D01*
X127437166Y-82793724D01*
X127439290Y-82808042D01*
X127440000Y-82822500D01*
X127440000Y-83117500D01*
X127439290Y-83131958D01*
X127437166Y-83146276D01*
X127433649Y-83160317D01*
X127428772Y-83173946D01*
X127422583Y-83187031D01*
X127415142Y-83199447D01*
X127406519Y-83211073D01*
X127396798Y-83221798D01*
X127386073Y-83231519D01*
X127374447Y-83240142D01*
X127362031Y-83247583D01*
X127348946Y-83253772D01*
X127335317Y-83258649D01*
X127321276Y-83262166D01*
X127306958Y-83264290D01*
X127292500Y-83265000D01*
X126947500Y-83265000D01*
X126933042Y-83264290D01*
X126918724Y-83262166D01*
X126904683Y-83258649D01*
X126891054Y-83253772D01*
X126877969Y-83247583D01*
X126865553Y-83240142D01*
X126853927Y-83231519D01*
X126843202Y-83221798D01*
X126833481Y-83211073D01*
X126824858Y-83199447D01*
X126817417Y-83187031D01*
X126811228Y-83173946D01*
X126806351Y-83160317D01*
X126802834Y-83146276D01*
X126800710Y-83131958D01*
X126800000Y-83117500D01*
X126800000Y-82822500D01*
X126800710Y-82808042D01*
X126802834Y-82793724D01*
X126806351Y-82779683D01*
X126811228Y-82766054D01*
X126817417Y-82752969D01*
X126824858Y-82740553D01*
X126833481Y-82728927D01*
X126843202Y-82718202D01*
X126853927Y-82708481D01*
X126865553Y-82699858D01*
X126877969Y-82692417D01*
X126891054Y-82686228D01*
X126904683Y-82681351D01*
X126918724Y-82677834D01*
X126933042Y-82675710D01*
X126947500Y-82675000D01*
X127292500Y-82675000D01*
X127306958Y-82675710D01*
X127306958Y-82675710D01*
G37*
D11*
X127120000Y-82970000D03*
D10*
G36*
X127306958Y-81705710D02*
G01*
X127321276Y-81707834D01*
X127335317Y-81711351D01*
X127348946Y-81716228D01*
X127362031Y-81722417D01*
X127374447Y-81729858D01*
X127386073Y-81738481D01*
X127396798Y-81748202D01*
X127406519Y-81758927D01*
X127415142Y-81770553D01*
X127422583Y-81782969D01*
X127428772Y-81796054D01*
X127433649Y-81809683D01*
X127437166Y-81823724D01*
X127439290Y-81838042D01*
X127440000Y-81852500D01*
X127440000Y-82147500D01*
X127439290Y-82161958D01*
X127437166Y-82176276D01*
X127433649Y-82190317D01*
X127428772Y-82203946D01*
X127422583Y-82217031D01*
X127415142Y-82229447D01*
X127406519Y-82241073D01*
X127396798Y-82251798D01*
X127386073Y-82261519D01*
X127374447Y-82270142D01*
X127362031Y-82277583D01*
X127348946Y-82283772D01*
X127335317Y-82288649D01*
X127321276Y-82292166D01*
X127306958Y-82294290D01*
X127292500Y-82295000D01*
X126947500Y-82295000D01*
X126933042Y-82294290D01*
X126918724Y-82292166D01*
X126904683Y-82288649D01*
X126891054Y-82283772D01*
X126877969Y-82277583D01*
X126865553Y-82270142D01*
X126853927Y-82261519D01*
X126843202Y-82251798D01*
X126833481Y-82241073D01*
X126824858Y-82229447D01*
X126817417Y-82217031D01*
X126811228Y-82203946D01*
X126806351Y-82190317D01*
X126802834Y-82176276D01*
X126800710Y-82161958D01*
X126800000Y-82147500D01*
X126800000Y-81852500D01*
X126800710Y-81838042D01*
X126802834Y-81823724D01*
X126806351Y-81809683D01*
X126811228Y-81796054D01*
X126817417Y-81782969D01*
X126824858Y-81770553D01*
X126833481Y-81758927D01*
X126843202Y-81748202D01*
X126853927Y-81738481D01*
X126865553Y-81729858D01*
X126877969Y-81722417D01*
X126891054Y-81716228D01*
X126904683Y-81711351D01*
X126918724Y-81707834D01*
X126933042Y-81705710D01*
X126947500Y-81705000D01*
X127292500Y-81705000D01*
X127306958Y-81705710D01*
X127306958Y-81705710D01*
G37*
D11*
X127120000Y-82000000D03*
D10*
G36*
X131806958Y-74305710D02*
G01*
X131821276Y-74307834D01*
X131835317Y-74311351D01*
X131848946Y-74316228D01*
X131862031Y-74322417D01*
X131874447Y-74329858D01*
X131886073Y-74338481D01*
X131896798Y-74348202D01*
X131906519Y-74358927D01*
X131915142Y-74370553D01*
X131922583Y-74382969D01*
X131928772Y-74396054D01*
X131933649Y-74409683D01*
X131937166Y-74423724D01*
X131939290Y-74438042D01*
X131940000Y-74452500D01*
X131940000Y-74747500D01*
X131939290Y-74761958D01*
X131937166Y-74776276D01*
X131933649Y-74790317D01*
X131928772Y-74803946D01*
X131922583Y-74817031D01*
X131915142Y-74829447D01*
X131906519Y-74841073D01*
X131896798Y-74851798D01*
X131886073Y-74861519D01*
X131874447Y-74870142D01*
X131862031Y-74877583D01*
X131848946Y-74883772D01*
X131835317Y-74888649D01*
X131821276Y-74892166D01*
X131806958Y-74894290D01*
X131792500Y-74895000D01*
X131447500Y-74895000D01*
X131433042Y-74894290D01*
X131418724Y-74892166D01*
X131404683Y-74888649D01*
X131391054Y-74883772D01*
X131377969Y-74877583D01*
X131365553Y-74870142D01*
X131353927Y-74861519D01*
X131343202Y-74851798D01*
X131333481Y-74841073D01*
X131324858Y-74829447D01*
X131317417Y-74817031D01*
X131311228Y-74803946D01*
X131306351Y-74790317D01*
X131302834Y-74776276D01*
X131300710Y-74761958D01*
X131300000Y-74747500D01*
X131300000Y-74452500D01*
X131300710Y-74438042D01*
X131302834Y-74423724D01*
X131306351Y-74409683D01*
X131311228Y-74396054D01*
X131317417Y-74382969D01*
X131324858Y-74370553D01*
X131333481Y-74358927D01*
X131343202Y-74348202D01*
X131353927Y-74338481D01*
X131365553Y-74329858D01*
X131377969Y-74322417D01*
X131391054Y-74316228D01*
X131404683Y-74311351D01*
X131418724Y-74307834D01*
X131433042Y-74305710D01*
X131447500Y-74305000D01*
X131792500Y-74305000D01*
X131806958Y-74305710D01*
X131806958Y-74305710D01*
G37*
D11*
X131620000Y-74600000D03*
D10*
G36*
X131806958Y-75275710D02*
G01*
X131821276Y-75277834D01*
X131835317Y-75281351D01*
X131848946Y-75286228D01*
X131862031Y-75292417D01*
X131874447Y-75299858D01*
X131886073Y-75308481D01*
X131896798Y-75318202D01*
X131906519Y-75328927D01*
X131915142Y-75340553D01*
X131922583Y-75352969D01*
X131928772Y-75366054D01*
X131933649Y-75379683D01*
X131937166Y-75393724D01*
X131939290Y-75408042D01*
X131940000Y-75422500D01*
X131940000Y-75717500D01*
X131939290Y-75731958D01*
X131937166Y-75746276D01*
X131933649Y-75760317D01*
X131928772Y-75773946D01*
X131922583Y-75787031D01*
X131915142Y-75799447D01*
X131906519Y-75811073D01*
X131896798Y-75821798D01*
X131886073Y-75831519D01*
X131874447Y-75840142D01*
X131862031Y-75847583D01*
X131848946Y-75853772D01*
X131835317Y-75858649D01*
X131821276Y-75862166D01*
X131806958Y-75864290D01*
X131792500Y-75865000D01*
X131447500Y-75865000D01*
X131433042Y-75864290D01*
X131418724Y-75862166D01*
X131404683Y-75858649D01*
X131391054Y-75853772D01*
X131377969Y-75847583D01*
X131365553Y-75840142D01*
X131353927Y-75831519D01*
X131343202Y-75821798D01*
X131333481Y-75811073D01*
X131324858Y-75799447D01*
X131317417Y-75787031D01*
X131311228Y-75773946D01*
X131306351Y-75760317D01*
X131302834Y-75746276D01*
X131300710Y-75731958D01*
X131300000Y-75717500D01*
X131300000Y-75422500D01*
X131300710Y-75408042D01*
X131302834Y-75393724D01*
X131306351Y-75379683D01*
X131311228Y-75366054D01*
X131317417Y-75352969D01*
X131324858Y-75340553D01*
X131333481Y-75328927D01*
X131343202Y-75318202D01*
X131353927Y-75308481D01*
X131365553Y-75299858D01*
X131377969Y-75292417D01*
X131391054Y-75286228D01*
X131404683Y-75281351D01*
X131418724Y-75277834D01*
X131433042Y-75275710D01*
X131447500Y-75275000D01*
X131792500Y-75275000D01*
X131806958Y-75275710D01*
X131806958Y-75275710D01*
G37*
D11*
X131620000Y-75570000D03*
D10*
G36*
X131111958Y-79380710D02*
G01*
X131126276Y-79382834D01*
X131140317Y-79386351D01*
X131153946Y-79391228D01*
X131167031Y-79397417D01*
X131179447Y-79404858D01*
X131191073Y-79413481D01*
X131201798Y-79423202D01*
X131211519Y-79433927D01*
X131220142Y-79445553D01*
X131227583Y-79457969D01*
X131233772Y-79471054D01*
X131238649Y-79484683D01*
X131242166Y-79498724D01*
X131244290Y-79513042D01*
X131245000Y-79527500D01*
X131245000Y-79872500D01*
X131244290Y-79886958D01*
X131242166Y-79901276D01*
X131238649Y-79915317D01*
X131233772Y-79928946D01*
X131227583Y-79942031D01*
X131220142Y-79954447D01*
X131211519Y-79966073D01*
X131201798Y-79976798D01*
X131191073Y-79986519D01*
X131179447Y-79995142D01*
X131167031Y-80002583D01*
X131153946Y-80008772D01*
X131140317Y-80013649D01*
X131126276Y-80017166D01*
X131111958Y-80019290D01*
X131097500Y-80020000D01*
X130802500Y-80020000D01*
X130788042Y-80019290D01*
X130773724Y-80017166D01*
X130759683Y-80013649D01*
X130746054Y-80008772D01*
X130732969Y-80002583D01*
X130720553Y-79995142D01*
X130708927Y-79986519D01*
X130698202Y-79976798D01*
X130688481Y-79966073D01*
X130679858Y-79954447D01*
X130672417Y-79942031D01*
X130666228Y-79928946D01*
X130661351Y-79915317D01*
X130657834Y-79901276D01*
X130655710Y-79886958D01*
X130655000Y-79872500D01*
X130655000Y-79527500D01*
X130655710Y-79513042D01*
X130657834Y-79498724D01*
X130661351Y-79484683D01*
X130666228Y-79471054D01*
X130672417Y-79457969D01*
X130679858Y-79445553D01*
X130688481Y-79433927D01*
X130698202Y-79423202D01*
X130708927Y-79413481D01*
X130720553Y-79404858D01*
X130732969Y-79397417D01*
X130746054Y-79391228D01*
X130759683Y-79386351D01*
X130773724Y-79382834D01*
X130788042Y-79380710D01*
X130802500Y-79380000D01*
X131097500Y-79380000D01*
X131111958Y-79380710D01*
X131111958Y-79380710D01*
G37*
D11*
X130950000Y-79700000D03*
D10*
G36*
X132081958Y-79380710D02*
G01*
X132096276Y-79382834D01*
X132110317Y-79386351D01*
X132123946Y-79391228D01*
X132137031Y-79397417D01*
X132149447Y-79404858D01*
X132161073Y-79413481D01*
X132171798Y-79423202D01*
X132181519Y-79433927D01*
X132190142Y-79445553D01*
X132197583Y-79457969D01*
X132203772Y-79471054D01*
X132208649Y-79484683D01*
X132212166Y-79498724D01*
X132214290Y-79513042D01*
X132215000Y-79527500D01*
X132215000Y-79872500D01*
X132214290Y-79886958D01*
X132212166Y-79901276D01*
X132208649Y-79915317D01*
X132203772Y-79928946D01*
X132197583Y-79942031D01*
X132190142Y-79954447D01*
X132181519Y-79966073D01*
X132171798Y-79976798D01*
X132161073Y-79986519D01*
X132149447Y-79995142D01*
X132137031Y-80002583D01*
X132123946Y-80008772D01*
X132110317Y-80013649D01*
X132096276Y-80017166D01*
X132081958Y-80019290D01*
X132067500Y-80020000D01*
X131772500Y-80020000D01*
X131758042Y-80019290D01*
X131743724Y-80017166D01*
X131729683Y-80013649D01*
X131716054Y-80008772D01*
X131702969Y-80002583D01*
X131690553Y-79995142D01*
X131678927Y-79986519D01*
X131668202Y-79976798D01*
X131658481Y-79966073D01*
X131649858Y-79954447D01*
X131642417Y-79942031D01*
X131636228Y-79928946D01*
X131631351Y-79915317D01*
X131627834Y-79901276D01*
X131625710Y-79886958D01*
X131625000Y-79872500D01*
X131625000Y-79527500D01*
X131625710Y-79513042D01*
X131627834Y-79498724D01*
X131631351Y-79484683D01*
X131636228Y-79471054D01*
X131642417Y-79457969D01*
X131649858Y-79445553D01*
X131658481Y-79433927D01*
X131668202Y-79423202D01*
X131678927Y-79413481D01*
X131690553Y-79404858D01*
X131702969Y-79397417D01*
X131716054Y-79391228D01*
X131729683Y-79386351D01*
X131743724Y-79382834D01*
X131758042Y-79380710D01*
X131772500Y-79380000D01*
X132067500Y-79380000D01*
X132081958Y-79380710D01*
X132081958Y-79380710D01*
G37*
D11*
X131920000Y-79700000D03*
D10*
G36*
X129371958Y-81970710D02*
G01*
X129386276Y-81972834D01*
X129400317Y-81976351D01*
X129413946Y-81981228D01*
X129427031Y-81987417D01*
X129439447Y-81994858D01*
X129451073Y-82003481D01*
X129461798Y-82013202D01*
X129471519Y-82023927D01*
X129480142Y-82035553D01*
X129487583Y-82047969D01*
X129493772Y-82061054D01*
X129498649Y-82074683D01*
X129502166Y-82088724D01*
X129504290Y-82103042D01*
X129505000Y-82117500D01*
X129505000Y-82462500D01*
X129504290Y-82476958D01*
X129502166Y-82491276D01*
X129498649Y-82505317D01*
X129493772Y-82518946D01*
X129487583Y-82532031D01*
X129480142Y-82544447D01*
X129471519Y-82556073D01*
X129461798Y-82566798D01*
X129451073Y-82576519D01*
X129439447Y-82585142D01*
X129427031Y-82592583D01*
X129413946Y-82598772D01*
X129400317Y-82603649D01*
X129386276Y-82607166D01*
X129371958Y-82609290D01*
X129357500Y-82610000D01*
X129062500Y-82610000D01*
X129048042Y-82609290D01*
X129033724Y-82607166D01*
X129019683Y-82603649D01*
X129006054Y-82598772D01*
X128992969Y-82592583D01*
X128980553Y-82585142D01*
X128968927Y-82576519D01*
X128958202Y-82566798D01*
X128948481Y-82556073D01*
X128939858Y-82544447D01*
X128932417Y-82532031D01*
X128926228Y-82518946D01*
X128921351Y-82505317D01*
X128917834Y-82491276D01*
X128915710Y-82476958D01*
X128915000Y-82462500D01*
X128915000Y-82117500D01*
X128915710Y-82103042D01*
X128917834Y-82088724D01*
X128921351Y-82074683D01*
X128926228Y-82061054D01*
X128932417Y-82047969D01*
X128939858Y-82035553D01*
X128948481Y-82023927D01*
X128958202Y-82013202D01*
X128968927Y-82003481D01*
X128980553Y-81994858D01*
X128992969Y-81987417D01*
X129006054Y-81981228D01*
X129019683Y-81976351D01*
X129033724Y-81972834D01*
X129048042Y-81970710D01*
X129062500Y-81970000D01*
X129357500Y-81970000D01*
X129371958Y-81970710D01*
X129371958Y-81970710D01*
G37*
D11*
X129210000Y-82290000D03*
D10*
G36*
X130341958Y-81970710D02*
G01*
X130356276Y-81972834D01*
X130370317Y-81976351D01*
X130383946Y-81981228D01*
X130397031Y-81987417D01*
X130409447Y-81994858D01*
X130421073Y-82003481D01*
X130431798Y-82013202D01*
X130441519Y-82023927D01*
X130450142Y-82035553D01*
X130457583Y-82047969D01*
X130463772Y-82061054D01*
X130468649Y-82074683D01*
X130472166Y-82088724D01*
X130474290Y-82103042D01*
X130475000Y-82117500D01*
X130475000Y-82462500D01*
X130474290Y-82476958D01*
X130472166Y-82491276D01*
X130468649Y-82505317D01*
X130463772Y-82518946D01*
X130457583Y-82532031D01*
X130450142Y-82544447D01*
X130441519Y-82556073D01*
X130431798Y-82566798D01*
X130421073Y-82576519D01*
X130409447Y-82585142D01*
X130397031Y-82592583D01*
X130383946Y-82598772D01*
X130370317Y-82603649D01*
X130356276Y-82607166D01*
X130341958Y-82609290D01*
X130327500Y-82610000D01*
X130032500Y-82610000D01*
X130018042Y-82609290D01*
X130003724Y-82607166D01*
X129989683Y-82603649D01*
X129976054Y-82598772D01*
X129962969Y-82592583D01*
X129950553Y-82585142D01*
X129938927Y-82576519D01*
X129928202Y-82566798D01*
X129918481Y-82556073D01*
X129909858Y-82544447D01*
X129902417Y-82532031D01*
X129896228Y-82518946D01*
X129891351Y-82505317D01*
X129887834Y-82491276D01*
X129885710Y-82476958D01*
X129885000Y-82462500D01*
X129885000Y-82117500D01*
X129885710Y-82103042D01*
X129887834Y-82088724D01*
X129891351Y-82074683D01*
X129896228Y-82061054D01*
X129902417Y-82047969D01*
X129909858Y-82035553D01*
X129918481Y-82023927D01*
X129928202Y-82013202D01*
X129938927Y-82003481D01*
X129950553Y-81994858D01*
X129962969Y-81987417D01*
X129976054Y-81981228D01*
X129989683Y-81976351D01*
X130003724Y-81972834D01*
X130018042Y-81970710D01*
X130032500Y-81970000D01*
X130327500Y-81970000D01*
X130341958Y-81970710D01*
X130341958Y-81970710D01*
G37*
D11*
X130180000Y-82290000D03*
D10*
G36*
X130371958Y-83160710D02*
G01*
X130386276Y-83162834D01*
X130400317Y-83166351D01*
X130413946Y-83171228D01*
X130427031Y-83177417D01*
X130439447Y-83184858D01*
X130451073Y-83193481D01*
X130461798Y-83203202D01*
X130471519Y-83213927D01*
X130480142Y-83225553D01*
X130487583Y-83237969D01*
X130493772Y-83251054D01*
X130498649Y-83264683D01*
X130502166Y-83278724D01*
X130504290Y-83293042D01*
X130505000Y-83307500D01*
X130505000Y-83652500D01*
X130504290Y-83666958D01*
X130502166Y-83681276D01*
X130498649Y-83695317D01*
X130493772Y-83708946D01*
X130487583Y-83722031D01*
X130480142Y-83734447D01*
X130471519Y-83746073D01*
X130461798Y-83756798D01*
X130451073Y-83766519D01*
X130439447Y-83775142D01*
X130427031Y-83782583D01*
X130413946Y-83788772D01*
X130400317Y-83793649D01*
X130386276Y-83797166D01*
X130371958Y-83799290D01*
X130357500Y-83800000D01*
X130062500Y-83800000D01*
X130048042Y-83799290D01*
X130033724Y-83797166D01*
X130019683Y-83793649D01*
X130006054Y-83788772D01*
X129992969Y-83782583D01*
X129980553Y-83775142D01*
X129968927Y-83766519D01*
X129958202Y-83756798D01*
X129948481Y-83746073D01*
X129939858Y-83734447D01*
X129932417Y-83722031D01*
X129926228Y-83708946D01*
X129921351Y-83695317D01*
X129917834Y-83681276D01*
X129915710Y-83666958D01*
X129915000Y-83652500D01*
X129915000Y-83307500D01*
X129915710Y-83293042D01*
X129917834Y-83278724D01*
X129921351Y-83264683D01*
X129926228Y-83251054D01*
X129932417Y-83237969D01*
X129939858Y-83225553D01*
X129948481Y-83213927D01*
X129958202Y-83203202D01*
X129968927Y-83193481D01*
X129980553Y-83184858D01*
X129992969Y-83177417D01*
X130006054Y-83171228D01*
X130019683Y-83166351D01*
X130033724Y-83162834D01*
X130048042Y-83160710D01*
X130062500Y-83160000D01*
X130357500Y-83160000D01*
X130371958Y-83160710D01*
X130371958Y-83160710D01*
G37*
D11*
X130210000Y-83480000D03*
D10*
G36*
X129401958Y-83160710D02*
G01*
X129416276Y-83162834D01*
X129430317Y-83166351D01*
X129443946Y-83171228D01*
X129457031Y-83177417D01*
X129469447Y-83184858D01*
X129481073Y-83193481D01*
X129491798Y-83203202D01*
X129501519Y-83213927D01*
X129510142Y-83225553D01*
X129517583Y-83237969D01*
X129523772Y-83251054D01*
X129528649Y-83264683D01*
X129532166Y-83278724D01*
X129534290Y-83293042D01*
X129535000Y-83307500D01*
X129535000Y-83652500D01*
X129534290Y-83666958D01*
X129532166Y-83681276D01*
X129528649Y-83695317D01*
X129523772Y-83708946D01*
X129517583Y-83722031D01*
X129510142Y-83734447D01*
X129501519Y-83746073D01*
X129491798Y-83756798D01*
X129481073Y-83766519D01*
X129469447Y-83775142D01*
X129457031Y-83782583D01*
X129443946Y-83788772D01*
X129430317Y-83793649D01*
X129416276Y-83797166D01*
X129401958Y-83799290D01*
X129387500Y-83800000D01*
X129092500Y-83800000D01*
X129078042Y-83799290D01*
X129063724Y-83797166D01*
X129049683Y-83793649D01*
X129036054Y-83788772D01*
X129022969Y-83782583D01*
X129010553Y-83775142D01*
X128998927Y-83766519D01*
X128988202Y-83756798D01*
X128978481Y-83746073D01*
X128969858Y-83734447D01*
X128962417Y-83722031D01*
X128956228Y-83708946D01*
X128951351Y-83695317D01*
X128947834Y-83681276D01*
X128945710Y-83666958D01*
X128945000Y-83652500D01*
X128945000Y-83307500D01*
X128945710Y-83293042D01*
X128947834Y-83278724D01*
X128951351Y-83264683D01*
X128956228Y-83251054D01*
X128962417Y-83237969D01*
X128969858Y-83225553D01*
X128978481Y-83213927D01*
X128988202Y-83203202D01*
X128998927Y-83193481D01*
X129010553Y-83184858D01*
X129022969Y-83177417D01*
X129036054Y-83171228D01*
X129049683Y-83166351D01*
X129063724Y-83162834D01*
X129078042Y-83160710D01*
X129092500Y-83160000D01*
X129387500Y-83160000D01*
X129401958Y-83160710D01*
X129401958Y-83160710D01*
G37*
D11*
X129240000Y-83480000D03*
D10*
G36*
X120086958Y-72925710D02*
G01*
X120101276Y-72927834D01*
X120115317Y-72931351D01*
X120128946Y-72936228D01*
X120142031Y-72942417D01*
X120154447Y-72949858D01*
X120166073Y-72958481D01*
X120176798Y-72968202D01*
X120186519Y-72978927D01*
X120195142Y-72990553D01*
X120202583Y-73002969D01*
X120208772Y-73016054D01*
X120213649Y-73029683D01*
X120217166Y-73043724D01*
X120219290Y-73058042D01*
X120220000Y-73072500D01*
X120220000Y-73367500D01*
X120219290Y-73381958D01*
X120217166Y-73396276D01*
X120213649Y-73410317D01*
X120208772Y-73423946D01*
X120202583Y-73437031D01*
X120195142Y-73449447D01*
X120186519Y-73461073D01*
X120176798Y-73471798D01*
X120166073Y-73481519D01*
X120154447Y-73490142D01*
X120142031Y-73497583D01*
X120128946Y-73503772D01*
X120115317Y-73508649D01*
X120101276Y-73512166D01*
X120086958Y-73514290D01*
X120072500Y-73515000D01*
X119727500Y-73515000D01*
X119713042Y-73514290D01*
X119698724Y-73512166D01*
X119684683Y-73508649D01*
X119671054Y-73503772D01*
X119657969Y-73497583D01*
X119645553Y-73490142D01*
X119633927Y-73481519D01*
X119623202Y-73471798D01*
X119613481Y-73461073D01*
X119604858Y-73449447D01*
X119597417Y-73437031D01*
X119591228Y-73423946D01*
X119586351Y-73410317D01*
X119582834Y-73396276D01*
X119580710Y-73381958D01*
X119580000Y-73367500D01*
X119580000Y-73072500D01*
X119580710Y-73058042D01*
X119582834Y-73043724D01*
X119586351Y-73029683D01*
X119591228Y-73016054D01*
X119597417Y-73002969D01*
X119604858Y-72990553D01*
X119613481Y-72978927D01*
X119623202Y-72968202D01*
X119633927Y-72958481D01*
X119645553Y-72949858D01*
X119657969Y-72942417D01*
X119671054Y-72936228D01*
X119684683Y-72931351D01*
X119698724Y-72927834D01*
X119713042Y-72925710D01*
X119727500Y-72925000D01*
X120072500Y-72925000D01*
X120086958Y-72925710D01*
X120086958Y-72925710D01*
G37*
D11*
X119900000Y-73220000D03*
D10*
G36*
X120086958Y-71955710D02*
G01*
X120101276Y-71957834D01*
X120115317Y-71961351D01*
X120128946Y-71966228D01*
X120142031Y-71972417D01*
X120154447Y-71979858D01*
X120166073Y-71988481D01*
X120176798Y-71998202D01*
X120186519Y-72008927D01*
X120195142Y-72020553D01*
X120202583Y-72032969D01*
X120208772Y-72046054D01*
X120213649Y-72059683D01*
X120217166Y-72073724D01*
X120219290Y-72088042D01*
X120220000Y-72102500D01*
X120220000Y-72397500D01*
X120219290Y-72411958D01*
X120217166Y-72426276D01*
X120213649Y-72440317D01*
X120208772Y-72453946D01*
X120202583Y-72467031D01*
X120195142Y-72479447D01*
X120186519Y-72491073D01*
X120176798Y-72501798D01*
X120166073Y-72511519D01*
X120154447Y-72520142D01*
X120142031Y-72527583D01*
X120128946Y-72533772D01*
X120115317Y-72538649D01*
X120101276Y-72542166D01*
X120086958Y-72544290D01*
X120072500Y-72545000D01*
X119727500Y-72545000D01*
X119713042Y-72544290D01*
X119698724Y-72542166D01*
X119684683Y-72538649D01*
X119671054Y-72533772D01*
X119657969Y-72527583D01*
X119645553Y-72520142D01*
X119633927Y-72511519D01*
X119623202Y-72501798D01*
X119613481Y-72491073D01*
X119604858Y-72479447D01*
X119597417Y-72467031D01*
X119591228Y-72453946D01*
X119586351Y-72440317D01*
X119582834Y-72426276D01*
X119580710Y-72411958D01*
X119580000Y-72397500D01*
X119580000Y-72102500D01*
X119580710Y-72088042D01*
X119582834Y-72073724D01*
X119586351Y-72059683D01*
X119591228Y-72046054D01*
X119597417Y-72032969D01*
X119604858Y-72020553D01*
X119613481Y-72008927D01*
X119623202Y-71998202D01*
X119633927Y-71988481D01*
X119645553Y-71979858D01*
X119657969Y-71972417D01*
X119671054Y-71966228D01*
X119684683Y-71961351D01*
X119698724Y-71957834D01*
X119713042Y-71955710D01*
X119727500Y-71955000D01*
X120072500Y-71955000D01*
X120086958Y-71955710D01*
X120086958Y-71955710D01*
G37*
D11*
X119900000Y-72250000D03*
D10*
G36*
X120076958Y-74955710D02*
G01*
X120091276Y-74957834D01*
X120105317Y-74961351D01*
X120118946Y-74966228D01*
X120132031Y-74972417D01*
X120144447Y-74979858D01*
X120156073Y-74988481D01*
X120166798Y-74998202D01*
X120176519Y-75008927D01*
X120185142Y-75020553D01*
X120192583Y-75032969D01*
X120198772Y-75046054D01*
X120203649Y-75059683D01*
X120207166Y-75073724D01*
X120209290Y-75088042D01*
X120210000Y-75102500D01*
X120210000Y-75397500D01*
X120209290Y-75411958D01*
X120207166Y-75426276D01*
X120203649Y-75440317D01*
X120198772Y-75453946D01*
X120192583Y-75467031D01*
X120185142Y-75479447D01*
X120176519Y-75491073D01*
X120166798Y-75501798D01*
X120156073Y-75511519D01*
X120144447Y-75520142D01*
X120132031Y-75527583D01*
X120118946Y-75533772D01*
X120105317Y-75538649D01*
X120091276Y-75542166D01*
X120076958Y-75544290D01*
X120062500Y-75545000D01*
X119717500Y-75545000D01*
X119703042Y-75544290D01*
X119688724Y-75542166D01*
X119674683Y-75538649D01*
X119661054Y-75533772D01*
X119647969Y-75527583D01*
X119635553Y-75520142D01*
X119623927Y-75511519D01*
X119613202Y-75501798D01*
X119603481Y-75491073D01*
X119594858Y-75479447D01*
X119587417Y-75467031D01*
X119581228Y-75453946D01*
X119576351Y-75440317D01*
X119572834Y-75426276D01*
X119570710Y-75411958D01*
X119570000Y-75397500D01*
X119570000Y-75102500D01*
X119570710Y-75088042D01*
X119572834Y-75073724D01*
X119576351Y-75059683D01*
X119581228Y-75046054D01*
X119587417Y-75032969D01*
X119594858Y-75020553D01*
X119603481Y-75008927D01*
X119613202Y-74998202D01*
X119623927Y-74988481D01*
X119635553Y-74979858D01*
X119647969Y-74972417D01*
X119661054Y-74966228D01*
X119674683Y-74961351D01*
X119688724Y-74957834D01*
X119703042Y-74955710D01*
X119717500Y-74955000D01*
X120062500Y-74955000D01*
X120076958Y-74955710D01*
X120076958Y-74955710D01*
G37*
D11*
X119890000Y-75250000D03*
D10*
G36*
X120076958Y-73985710D02*
G01*
X120091276Y-73987834D01*
X120105317Y-73991351D01*
X120118946Y-73996228D01*
X120132031Y-74002417D01*
X120144447Y-74009858D01*
X120156073Y-74018481D01*
X120166798Y-74028202D01*
X120176519Y-74038927D01*
X120185142Y-74050553D01*
X120192583Y-74062969D01*
X120198772Y-74076054D01*
X120203649Y-74089683D01*
X120207166Y-74103724D01*
X120209290Y-74118042D01*
X120210000Y-74132500D01*
X120210000Y-74427500D01*
X120209290Y-74441958D01*
X120207166Y-74456276D01*
X120203649Y-74470317D01*
X120198772Y-74483946D01*
X120192583Y-74497031D01*
X120185142Y-74509447D01*
X120176519Y-74521073D01*
X120166798Y-74531798D01*
X120156073Y-74541519D01*
X120144447Y-74550142D01*
X120132031Y-74557583D01*
X120118946Y-74563772D01*
X120105317Y-74568649D01*
X120091276Y-74572166D01*
X120076958Y-74574290D01*
X120062500Y-74575000D01*
X119717500Y-74575000D01*
X119703042Y-74574290D01*
X119688724Y-74572166D01*
X119674683Y-74568649D01*
X119661054Y-74563772D01*
X119647969Y-74557583D01*
X119635553Y-74550142D01*
X119623927Y-74541519D01*
X119613202Y-74531798D01*
X119603481Y-74521073D01*
X119594858Y-74509447D01*
X119587417Y-74497031D01*
X119581228Y-74483946D01*
X119576351Y-74470317D01*
X119572834Y-74456276D01*
X119570710Y-74441958D01*
X119570000Y-74427500D01*
X119570000Y-74132500D01*
X119570710Y-74118042D01*
X119572834Y-74103724D01*
X119576351Y-74089683D01*
X119581228Y-74076054D01*
X119587417Y-74062969D01*
X119594858Y-74050553D01*
X119603481Y-74038927D01*
X119613202Y-74028202D01*
X119623927Y-74018481D01*
X119635553Y-74009858D01*
X119647969Y-74002417D01*
X119661054Y-73996228D01*
X119674683Y-73991351D01*
X119688724Y-73987834D01*
X119703042Y-73985710D01*
X119717500Y-73985000D01*
X120062500Y-73985000D01*
X120076958Y-73985710D01*
X120076958Y-73985710D01*
G37*
D11*
X119890000Y-74280000D03*
D10*
G36*
X117861958Y-83800710D02*
G01*
X117876276Y-83802834D01*
X117890317Y-83806351D01*
X117903946Y-83811228D01*
X117917031Y-83817417D01*
X117929447Y-83824858D01*
X117941073Y-83833481D01*
X117951798Y-83843202D01*
X117961519Y-83853927D01*
X117970142Y-83865553D01*
X117977583Y-83877969D01*
X117983772Y-83891054D01*
X117988649Y-83904683D01*
X117992166Y-83918724D01*
X117994290Y-83933042D01*
X117995000Y-83947500D01*
X117995000Y-84292500D01*
X117994290Y-84306958D01*
X117992166Y-84321276D01*
X117988649Y-84335317D01*
X117983772Y-84348946D01*
X117977583Y-84362031D01*
X117970142Y-84374447D01*
X117961519Y-84386073D01*
X117951798Y-84396798D01*
X117941073Y-84406519D01*
X117929447Y-84415142D01*
X117917031Y-84422583D01*
X117903946Y-84428772D01*
X117890317Y-84433649D01*
X117876276Y-84437166D01*
X117861958Y-84439290D01*
X117847500Y-84440000D01*
X117552500Y-84440000D01*
X117538042Y-84439290D01*
X117523724Y-84437166D01*
X117509683Y-84433649D01*
X117496054Y-84428772D01*
X117482969Y-84422583D01*
X117470553Y-84415142D01*
X117458927Y-84406519D01*
X117448202Y-84396798D01*
X117438481Y-84386073D01*
X117429858Y-84374447D01*
X117422417Y-84362031D01*
X117416228Y-84348946D01*
X117411351Y-84335317D01*
X117407834Y-84321276D01*
X117405710Y-84306958D01*
X117405000Y-84292500D01*
X117405000Y-83947500D01*
X117405710Y-83933042D01*
X117407834Y-83918724D01*
X117411351Y-83904683D01*
X117416228Y-83891054D01*
X117422417Y-83877969D01*
X117429858Y-83865553D01*
X117438481Y-83853927D01*
X117448202Y-83843202D01*
X117458927Y-83833481D01*
X117470553Y-83824858D01*
X117482969Y-83817417D01*
X117496054Y-83811228D01*
X117509683Y-83806351D01*
X117523724Y-83802834D01*
X117538042Y-83800710D01*
X117552500Y-83800000D01*
X117847500Y-83800000D01*
X117861958Y-83800710D01*
X117861958Y-83800710D01*
G37*
D11*
X117700000Y-84120000D03*
D10*
G36*
X116891958Y-83800710D02*
G01*
X116906276Y-83802834D01*
X116920317Y-83806351D01*
X116933946Y-83811228D01*
X116947031Y-83817417D01*
X116959447Y-83824858D01*
X116971073Y-83833481D01*
X116981798Y-83843202D01*
X116991519Y-83853927D01*
X117000142Y-83865553D01*
X117007583Y-83877969D01*
X117013772Y-83891054D01*
X117018649Y-83904683D01*
X117022166Y-83918724D01*
X117024290Y-83933042D01*
X117025000Y-83947500D01*
X117025000Y-84292500D01*
X117024290Y-84306958D01*
X117022166Y-84321276D01*
X117018649Y-84335317D01*
X117013772Y-84348946D01*
X117007583Y-84362031D01*
X117000142Y-84374447D01*
X116991519Y-84386073D01*
X116981798Y-84396798D01*
X116971073Y-84406519D01*
X116959447Y-84415142D01*
X116947031Y-84422583D01*
X116933946Y-84428772D01*
X116920317Y-84433649D01*
X116906276Y-84437166D01*
X116891958Y-84439290D01*
X116877500Y-84440000D01*
X116582500Y-84440000D01*
X116568042Y-84439290D01*
X116553724Y-84437166D01*
X116539683Y-84433649D01*
X116526054Y-84428772D01*
X116512969Y-84422583D01*
X116500553Y-84415142D01*
X116488927Y-84406519D01*
X116478202Y-84396798D01*
X116468481Y-84386073D01*
X116459858Y-84374447D01*
X116452417Y-84362031D01*
X116446228Y-84348946D01*
X116441351Y-84335317D01*
X116437834Y-84321276D01*
X116435710Y-84306958D01*
X116435000Y-84292500D01*
X116435000Y-83947500D01*
X116435710Y-83933042D01*
X116437834Y-83918724D01*
X116441351Y-83904683D01*
X116446228Y-83891054D01*
X116452417Y-83877969D01*
X116459858Y-83865553D01*
X116468481Y-83853927D01*
X116478202Y-83843202D01*
X116488927Y-83833481D01*
X116500553Y-83824858D01*
X116512969Y-83817417D01*
X116526054Y-83811228D01*
X116539683Y-83806351D01*
X116553724Y-83802834D01*
X116568042Y-83800710D01*
X116582500Y-83800000D01*
X116877500Y-83800000D01*
X116891958Y-83800710D01*
X116891958Y-83800710D01*
G37*
D11*
X116730000Y-84120000D03*
D10*
G36*
X123176958Y-79735710D02*
G01*
X123191276Y-79737834D01*
X123205317Y-79741351D01*
X123218946Y-79746228D01*
X123232031Y-79752417D01*
X123244447Y-79759858D01*
X123256073Y-79768481D01*
X123266798Y-79778202D01*
X123276519Y-79788927D01*
X123285142Y-79800553D01*
X123292583Y-79812969D01*
X123298772Y-79826054D01*
X123303649Y-79839683D01*
X123307166Y-79853724D01*
X123309290Y-79868042D01*
X123310000Y-79882500D01*
X123310000Y-80177500D01*
X123309290Y-80191958D01*
X123307166Y-80206276D01*
X123303649Y-80220317D01*
X123298772Y-80233946D01*
X123292583Y-80247031D01*
X123285142Y-80259447D01*
X123276519Y-80271073D01*
X123266798Y-80281798D01*
X123256073Y-80291519D01*
X123244447Y-80300142D01*
X123232031Y-80307583D01*
X123218946Y-80313772D01*
X123205317Y-80318649D01*
X123191276Y-80322166D01*
X123176958Y-80324290D01*
X123162500Y-80325000D01*
X122817500Y-80325000D01*
X122803042Y-80324290D01*
X122788724Y-80322166D01*
X122774683Y-80318649D01*
X122761054Y-80313772D01*
X122747969Y-80307583D01*
X122735553Y-80300142D01*
X122723927Y-80291519D01*
X122713202Y-80281798D01*
X122703481Y-80271073D01*
X122694858Y-80259447D01*
X122687417Y-80247031D01*
X122681228Y-80233946D01*
X122676351Y-80220317D01*
X122672834Y-80206276D01*
X122670710Y-80191958D01*
X122670000Y-80177500D01*
X122670000Y-79882500D01*
X122670710Y-79868042D01*
X122672834Y-79853724D01*
X122676351Y-79839683D01*
X122681228Y-79826054D01*
X122687417Y-79812969D01*
X122694858Y-79800553D01*
X122703481Y-79788927D01*
X122713202Y-79778202D01*
X122723927Y-79768481D01*
X122735553Y-79759858D01*
X122747969Y-79752417D01*
X122761054Y-79746228D01*
X122774683Y-79741351D01*
X122788724Y-79737834D01*
X122803042Y-79735710D01*
X122817500Y-79735000D01*
X123162500Y-79735000D01*
X123176958Y-79735710D01*
X123176958Y-79735710D01*
G37*
D11*
X122990000Y-80030000D03*
D10*
G36*
X123176958Y-80705710D02*
G01*
X123191276Y-80707834D01*
X123205317Y-80711351D01*
X123218946Y-80716228D01*
X123232031Y-80722417D01*
X123244447Y-80729858D01*
X123256073Y-80738481D01*
X123266798Y-80748202D01*
X123276519Y-80758927D01*
X123285142Y-80770553D01*
X123292583Y-80782969D01*
X123298772Y-80796054D01*
X123303649Y-80809683D01*
X123307166Y-80823724D01*
X123309290Y-80838042D01*
X123310000Y-80852500D01*
X123310000Y-81147500D01*
X123309290Y-81161958D01*
X123307166Y-81176276D01*
X123303649Y-81190317D01*
X123298772Y-81203946D01*
X123292583Y-81217031D01*
X123285142Y-81229447D01*
X123276519Y-81241073D01*
X123266798Y-81251798D01*
X123256073Y-81261519D01*
X123244447Y-81270142D01*
X123232031Y-81277583D01*
X123218946Y-81283772D01*
X123205317Y-81288649D01*
X123191276Y-81292166D01*
X123176958Y-81294290D01*
X123162500Y-81295000D01*
X122817500Y-81295000D01*
X122803042Y-81294290D01*
X122788724Y-81292166D01*
X122774683Y-81288649D01*
X122761054Y-81283772D01*
X122747969Y-81277583D01*
X122735553Y-81270142D01*
X122723927Y-81261519D01*
X122713202Y-81251798D01*
X122703481Y-81241073D01*
X122694858Y-81229447D01*
X122687417Y-81217031D01*
X122681228Y-81203946D01*
X122676351Y-81190317D01*
X122672834Y-81176276D01*
X122670710Y-81161958D01*
X122670000Y-81147500D01*
X122670000Y-80852500D01*
X122670710Y-80838042D01*
X122672834Y-80823724D01*
X122676351Y-80809683D01*
X122681228Y-80796054D01*
X122687417Y-80782969D01*
X122694858Y-80770553D01*
X122703481Y-80758927D01*
X122713202Y-80748202D01*
X122723927Y-80738481D01*
X122735553Y-80729858D01*
X122747969Y-80722417D01*
X122761054Y-80716228D01*
X122774683Y-80711351D01*
X122788724Y-80707834D01*
X122803042Y-80705710D01*
X122817500Y-80705000D01*
X123162500Y-80705000D01*
X123176958Y-80705710D01*
X123176958Y-80705710D01*
G37*
D11*
X122990000Y-81000000D03*
D10*
G36*
X116761958Y-81600710D02*
G01*
X116776276Y-81602834D01*
X116790317Y-81606351D01*
X116803946Y-81611228D01*
X116817031Y-81617417D01*
X116829447Y-81624858D01*
X116841073Y-81633481D01*
X116851798Y-81643202D01*
X116861519Y-81653927D01*
X116870142Y-81665553D01*
X116877583Y-81677969D01*
X116883772Y-81691054D01*
X116888649Y-81704683D01*
X116892166Y-81718724D01*
X116894290Y-81733042D01*
X116895000Y-81747500D01*
X116895000Y-82092500D01*
X116894290Y-82106958D01*
X116892166Y-82121276D01*
X116888649Y-82135317D01*
X116883772Y-82148946D01*
X116877583Y-82162031D01*
X116870142Y-82174447D01*
X116861519Y-82186073D01*
X116851798Y-82196798D01*
X116841073Y-82206519D01*
X116829447Y-82215142D01*
X116817031Y-82222583D01*
X116803946Y-82228772D01*
X116790317Y-82233649D01*
X116776276Y-82237166D01*
X116761958Y-82239290D01*
X116747500Y-82240000D01*
X116452500Y-82240000D01*
X116438042Y-82239290D01*
X116423724Y-82237166D01*
X116409683Y-82233649D01*
X116396054Y-82228772D01*
X116382969Y-82222583D01*
X116370553Y-82215142D01*
X116358927Y-82206519D01*
X116348202Y-82196798D01*
X116338481Y-82186073D01*
X116329858Y-82174447D01*
X116322417Y-82162031D01*
X116316228Y-82148946D01*
X116311351Y-82135317D01*
X116307834Y-82121276D01*
X116305710Y-82106958D01*
X116305000Y-82092500D01*
X116305000Y-81747500D01*
X116305710Y-81733042D01*
X116307834Y-81718724D01*
X116311351Y-81704683D01*
X116316228Y-81691054D01*
X116322417Y-81677969D01*
X116329858Y-81665553D01*
X116338481Y-81653927D01*
X116348202Y-81643202D01*
X116358927Y-81633481D01*
X116370553Y-81624858D01*
X116382969Y-81617417D01*
X116396054Y-81611228D01*
X116409683Y-81606351D01*
X116423724Y-81602834D01*
X116438042Y-81600710D01*
X116452500Y-81600000D01*
X116747500Y-81600000D01*
X116761958Y-81600710D01*
X116761958Y-81600710D01*
G37*
D11*
X116600000Y-81920000D03*
D10*
G36*
X117731958Y-81600710D02*
G01*
X117746276Y-81602834D01*
X117760317Y-81606351D01*
X117773946Y-81611228D01*
X117787031Y-81617417D01*
X117799447Y-81624858D01*
X117811073Y-81633481D01*
X117821798Y-81643202D01*
X117831519Y-81653927D01*
X117840142Y-81665553D01*
X117847583Y-81677969D01*
X117853772Y-81691054D01*
X117858649Y-81704683D01*
X117862166Y-81718724D01*
X117864290Y-81733042D01*
X117865000Y-81747500D01*
X117865000Y-82092500D01*
X117864290Y-82106958D01*
X117862166Y-82121276D01*
X117858649Y-82135317D01*
X117853772Y-82148946D01*
X117847583Y-82162031D01*
X117840142Y-82174447D01*
X117831519Y-82186073D01*
X117821798Y-82196798D01*
X117811073Y-82206519D01*
X117799447Y-82215142D01*
X117787031Y-82222583D01*
X117773946Y-82228772D01*
X117760317Y-82233649D01*
X117746276Y-82237166D01*
X117731958Y-82239290D01*
X117717500Y-82240000D01*
X117422500Y-82240000D01*
X117408042Y-82239290D01*
X117393724Y-82237166D01*
X117379683Y-82233649D01*
X117366054Y-82228772D01*
X117352969Y-82222583D01*
X117340553Y-82215142D01*
X117328927Y-82206519D01*
X117318202Y-82196798D01*
X117308481Y-82186073D01*
X117299858Y-82174447D01*
X117292417Y-82162031D01*
X117286228Y-82148946D01*
X117281351Y-82135317D01*
X117277834Y-82121276D01*
X117275710Y-82106958D01*
X117275000Y-82092500D01*
X117275000Y-81747500D01*
X117275710Y-81733042D01*
X117277834Y-81718724D01*
X117281351Y-81704683D01*
X117286228Y-81691054D01*
X117292417Y-81677969D01*
X117299858Y-81665553D01*
X117308481Y-81653927D01*
X117318202Y-81643202D01*
X117328927Y-81633481D01*
X117340553Y-81624858D01*
X117352969Y-81617417D01*
X117366054Y-81611228D01*
X117379683Y-81606351D01*
X117393724Y-81602834D01*
X117408042Y-81600710D01*
X117422500Y-81600000D01*
X117717500Y-81600000D01*
X117731958Y-81600710D01*
X117731958Y-81600710D01*
G37*
D11*
X117570000Y-81920000D03*
D10*
G36*
X124736958Y-81725710D02*
G01*
X124751276Y-81727834D01*
X124765317Y-81731351D01*
X124778946Y-81736228D01*
X124792031Y-81742417D01*
X124804447Y-81749858D01*
X124816073Y-81758481D01*
X124826798Y-81768202D01*
X124836519Y-81778927D01*
X124845142Y-81790553D01*
X124852583Y-81802969D01*
X124858772Y-81816054D01*
X124863649Y-81829683D01*
X124867166Y-81843724D01*
X124869290Y-81858042D01*
X124870000Y-81872500D01*
X124870000Y-82167500D01*
X124869290Y-82181958D01*
X124867166Y-82196276D01*
X124863649Y-82210317D01*
X124858772Y-82223946D01*
X124852583Y-82237031D01*
X124845142Y-82249447D01*
X124836519Y-82261073D01*
X124826798Y-82271798D01*
X124816073Y-82281519D01*
X124804447Y-82290142D01*
X124792031Y-82297583D01*
X124778946Y-82303772D01*
X124765317Y-82308649D01*
X124751276Y-82312166D01*
X124736958Y-82314290D01*
X124722500Y-82315000D01*
X124377500Y-82315000D01*
X124363042Y-82314290D01*
X124348724Y-82312166D01*
X124334683Y-82308649D01*
X124321054Y-82303772D01*
X124307969Y-82297583D01*
X124295553Y-82290142D01*
X124283927Y-82281519D01*
X124273202Y-82271798D01*
X124263481Y-82261073D01*
X124254858Y-82249447D01*
X124247417Y-82237031D01*
X124241228Y-82223946D01*
X124236351Y-82210317D01*
X124232834Y-82196276D01*
X124230710Y-82181958D01*
X124230000Y-82167500D01*
X124230000Y-81872500D01*
X124230710Y-81858042D01*
X124232834Y-81843724D01*
X124236351Y-81829683D01*
X124241228Y-81816054D01*
X124247417Y-81802969D01*
X124254858Y-81790553D01*
X124263481Y-81778927D01*
X124273202Y-81768202D01*
X124283927Y-81758481D01*
X124295553Y-81749858D01*
X124307969Y-81742417D01*
X124321054Y-81736228D01*
X124334683Y-81731351D01*
X124348724Y-81727834D01*
X124363042Y-81725710D01*
X124377500Y-81725000D01*
X124722500Y-81725000D01*
X124736958Y-81725710D01*
X124736958Y-81725710D01*
G37*
D11*
X124550000Y-82020000D03*
D10*
G36*
X124736958Y-82695710D02*
G01*
X124751276Y-82697834D01*
X124765317Y-82701351D01*
X124778946Y-82706228D01*
X124792031Y-82712417D01*
X124804447Y-82719858D01*
X124816073Y-82728481D01*
X124826798Y-82738202D01*
X124836519Y-82748927D01*
X124845142Y-82760553D01*
X124852583Y-82772969D01*
X124858772Y-82786054D01*
X124863649Y-82799683D01*
X124867166Y-82813724D01*
X124869290Y-82828042D01*
X124870000Y-82842500D01*
X124870000Y-83137500D01*
X124869290Y-83151958D01*
X124867166Y-83166276D01*
X124863649Y-83180317D01*
X124858772Y-83193946D01*
X124852583Y-83207031D01*
X124845142Y-83219447D01*
X124836519Y-83231073D01*
X124826798Y-83241798D01*
X124816073Y-83251519D01*
X124804447Y-83260142D01*
X124792031Y-83267583D01*
X124778946Y-83273772D01*
X124765317Y-83278649D01*
X124751276Y-83282166D01*
X124736958Y-83284290D01*
X124722500Y-83285000D01*
X124377500Y-83285000D01*
X124363042Y-83284290D01*
X124348724Y-83282166D01*
X124334683Y-83278649D01*
X124321054Y-83273772D01*
X124307969Y-83267583D01*
X124295553Y-83260142D01*
X124283927Y-83251519D01*
X124273202Y-83241798D01*
X124263481Y-83231073D01*
X124254858Y-83219447D01*
X124247417Y-83207031D01*
X124241228Y-83193946D01*
X124236351Y-83180317D01*
X124232834Y-83166276D01*
X124230710Y-83151958D01*
X124230000Y-83137500D01*
X124230000Y-82842500D01*
X124230710Y-82828042D01*
X124232834Y-82813724D01*
X124236351Y-82799683D01*
X124241228Y-82786054D01*
X124247417Y-82772969D01*
X124254858Y-82760553D01*
X124263481Y-82748927D01*
X124273202Y-82738202D01*
X124283927Y-82728481D01*
X124295553Y-82719858D01*
X124307969Y-82712417D01*
X124321054Y-82706228D01*
X124334683Y-82701351D01*
X124348724Y-82697834D01*
X124363042Y-82695710D01*
X124377500Y-82695000D01*
X124722500Y-82695000D01*
X124736958Y-82695710D01*
X124736958Y-82695710D01*
G37*
D11*
X124550000Y-82990000D03*
D10*
G36*
X132401958Y-80860710D02*
G01*
X132416276Y-80862834D01*
X132430317Y-80866351D01*
X132443946Y-80871228D01*
X132457031Y-80877417D01*
X132469447Y-80884858D01*
X132481073Y-80893481D01*
X132491798Y-80903202D01*
X132501519Y-80913927D01*
X132510142Y-80925553D01*
X132517583Y-80937969D01*
X132523772Y-80951054D01*
X132528649Y-80964683D01*
X132532166Y-80978724D01*
X132534290Y-80993042D01*
X132535000Y-81007500D01*
X132535000Y-81352500D01*
X132534290Y-81366958D01*
X132532166Y-81381276D01*
X132528649Y-81395317D01*
X132523772Y-81408946D01*
X132517583Y-81422031D01*
X132510142Y-81434447D01*
X132501519Y-81446073D01*
X132491798Y-81456798D01*
X132481073Y-81466519D01*
X132469447Y-81475142D01*
X132457031Y-81482583D01*
X132443946Y-81488772D01*
X132430317Y-81493649D01*
X132416276Y-81497166D01*
X132401958Y-81499290D01*
X132387500Y-81500000D01*
X132092500Y-81500000D01*
X132078042Y-81499290D01*
X132063724Y-81497166D01*
X132049683Y-81493649D01*
X132036054Y-81488772D01*
X132022969Y-81482583D01*
X132010553Y-81475142D01*
X131998927Y-81466519D01*
X131988202Y-81456798D01*
X131978481Y-81446073D01*
X131969858Y-81434447D01*
X131962417Y-81422031D01*
X131956228Y-81408946D01*
X131951351Y-81395317D01*
X131947834Y-81381276D01*
X131945710Y-81366958D01*
X131945000Y-81352500D01*
X131945000Y-81007500D01*
X131945710Y-80993042D01*
X131947834Y-80978724D01*
X131951351Y-80964683D01*
X131956228Y-80951054D01*
X131962417Y-80937969D01*
X131969858Y-80925553D01*
X131978481Y-80913927D01*
X131988202Y-80903202D01*
X131998927Y-80893481D01*
X132010553Y-80884858D01*
X132022969Y-80877417D01*
X132036054Y-80871228D01*
X132049683Y-80866351D01*
X132063724Y-80862834D01*
X132078042Y-80860710D01*
X132092500Y-80860000D01*
X132387500Y-80860000D01*
X132401958Y-80860710D01*
X132401958Y-80860710D01*
G37*
D11*
X132240000Y-81180000D03*
D10*
G36*
X131431958Y-80860710D02*
G01*
X131446276Y-80862834D01*
X131460317Y-80866351D01*
X131473946Y-80871228D01*
X131487031Y-80877417D01*
X131499447Y-80884858D01*
X131511073Y-80893481D01*
X131521798Y-80903202D01*
X131531519Y-80913927D01*
X131540142Y-80925553D01*
X131547583Y-80937969D01*
X131553772Y-80951054D01*
X131558649Y-80964683D01*
X131562166Y-80978724D01*
X131564290Y-80993042D01*
X131565000Y-81007500D01*
X131565000Y-81352500D01*
X131564290Y-81366958D01*
X131562166Y-81381276D01*
X131558649Y-81395317D01*
X131553772Y-81408946D01*
X131547583Y-81422031D01*
X131540142Y-81434447D01*
X131531519Y-81446073D01*
X131521798Y-81456798D01*
X131511073Y-81466519D01*
X131499447Y-81475142D01*
X131487031Y-81482583D01*
X131473946Y-81488772D01*
X131460317Y-81493649D01*
X131446276Y-81497166D01*
X131431958Y-81499290D01*
X131417500Y-81500000D01*
X131122500Y-81500000D01*
X131108042Y-81499290D01*
X131093724Y-81497166D01*
X131079683Y-81493649D01*
X131066054Y-81488772D01*
X131052969Y-81482583D01*
X131040553Y-81475142D01*
X131028927Y-81466519D01*
X131018202Y-81456798D01*
X131008481Y-81446073D01*
X130999858Y-81434447D01*
X130992417Y-81422031D01*
X130986228Y-81408946D01*
X130981351Y-81395317D01*
X130977834Y-81381276D01*
X130975710Y-81366958D01*
X130975000Y-81352500D01*
X130975000Y-81007500D01*
X130975710Y-80993042D01*
X130977834Y-80978724D01*
X130981351Y-80964683D01*
X130986228Y-80951054D01*
X130992417Y-80937969D01*
X130999858Y-80925553D01*
X131008481Y-80913927D01*
X131018202Y-80903202D01*
X131028927Y-80893481D01*
X131040553Y-80884858D01*
X131052969Y-80877417D01*
X131066054Y-80871228D01*
X131079683Y-80866351D01*
X131093724Y-80862834D01*
X131108042Y-80860710D01*
X131122500Y-80860000D01*
X131417500Y-80860000D01*
X131431958Y-80860710D01*
X131431958Y-80860710D01*
G37*
D11*
X131270000Y-81180000D03*
D10*
G36*
X131451958Y-84280710D02*
G01*
X131466276Y-84282834D01*
X131480317Y-84286351D01*
X131493946Y-84291228D01*
X131507031Y-84297417D01*
X131519447Y-84304858D01*
X131531073Y-84313481D01*
X131541798Y-84323202D01*
X131551519Y-84333927D01*
X131560142Y-84345553D01*
X131567583Y-84357969D01*
X131573772Y-84371054D01*
X131578649Y-84384683D01*
X131582166Y-84398724D01*
X131584290Y-84413042D01*
X131585000Y-84427500D01*
X131585000Y-84772500D01*
X131584290Y-84786958D01*
X131582166Y-84801276D01*
X131578649Y-84815317D01*
X131573772Y-84828946D01*
X131567583Y-84842031D01*
X131560142Y-84854447D01*
X131551519Y-84866073D01*
X131541798Y-84876798D01*
X131531073Y-84886519D01*
X131519447Y-84895142D01*
X131507031Y-84902583D01*
X131493946Y-84908772D01*
X131480317Y-84913649D01*
X131466276Y-84917166D01*
X131451958Y-84919290D01*
X131437500Y-84920000D01*
X131142500Y-84920000D01*
X131128042Y-84919290D01*
X131113724Y-84917166D01*
X131099683Y-84913649D01*
X131086054Y-84908772D01*
X131072969Y-84902583D01*
X131060553Y-84895142D01*
X131048927Y-84886519D01*
X131038202Y-84876798D01*
X131028481Y-84866073D01*
X131019858Y-84854447D01*
X131012417Y-84842031D01*
X131006228Y-84828946D01*
X131001351Y-84815317D01*
X130997834Y-84801276D01*
X130995710Y-84786958D01*
X130995000Y-84772500D01*
X130995000Y-84427500D01*
X130995710Y-84413042D01*
X130997834Y-84398724D01*
X131001351Y-84384683D01*
X131006228Y-84371054D01*
X131012417Y-84357969D01*
X131019858Y-84345553D01*
X131028481Y-84333927D01*
X131038202Y-84323202D01*
X131048927Y-84313481D01*
X131060553Y-84304858D01*
X131072969Y-84297417D01*
X131086054Y-84291228D01*
X131099683Y-84286351D01*
X131113724Y-84282834D01*
X131128042Y-84280710D01*
X131142500Y-84280000D01*
X131437500Y-84280000D01*
X131451958Y-84280710D01*
X131451958Y-84280710D01*
G37*
D11*
X131290000Y-84600000D03*
D10*
G36*
X132421958Y-84280710D02*
G01*
X132436276Y-84282834D01*
X132450317Y-84286351D01*
X132463946Y-84291228D01*
X132477031Y-84297417D01*
X132489447Y-84304858D01*
X132501073Y-84313481D01*
X132511798Y-84323202D01*
X132521519Y-84333927D01*
X132530142Y-84345553D01*
X132537583Y-84357969D01*
X132543772Y-84371054D01*
X132548649Y-84384683D01*
X132552166Y-84398724D01*
X132554290Y-84413042D01*
X132555000Y-84427500D01*
X132555000Y-84772500D01*
X132554290Y-84786958D01*
X132552166Y-84801276D01*
X132548649Y-84815317D01*
X132543772Y-84828946D01*
X132537583Y-84842031D01*
X132530142Y-84854447D01*
X132521519Y-84866073D01*
X132511798Y-84876798D01*
X132501073Y-84886519D01*
X132489447Y-84895142D01*
X132477031Y-84902583D01*
X132463946Y-84908772D01*
X132450317Y-84913649D01*
X132436276Y-84917166D01*
X132421958Y-84919290D01*
X132407500Y-84920000D01*
X132112500Y-84920000D01*
X132098042Y-84919290D01*
X132083724Y-84917166D01*
X132069683Y-84913649D01*
X132056054Y-84908772D01*
X132042969Y-84902583D01*
X132030553Y-84895142D01*
X132018927Y-84886519D01*
X132008202Y-84876798D01*
X131998481Y-84866073D01*
X131989858Y-84854447D01*
X131982417Y-84842031D01*
X131976228Y-84828946D01*
X131971351Y-84815317D01*
X131967834Y-84801276D01*
X131965710Y-84786958D01*
X131965000Y-84772500D01*
X131965000Y-84427500D01*
X131965710Y-84413042D01*
X131967834Y-84398724D01*
X131971351Y-84384683D01*
X131976228Y-84371054D01*
X131982417Y-84357969D01*
X131989858Y-84345553D01*
X131998481Y-84333927D01*
X132008202Y-84323202D01*
X132018927Y-84313481D01*
X132030553Y-84304858D01*
X132042969Y-84297417D01*
X132056054Y-84291228D01*
X132069683Y-84286351D01*
X132083724Y-84282834D01*
X132098042Y-84280710D01*
X132112500Y-84280000D01*
X132407500Y-84280000D01*
X132421958Y-84280710D01*
X132421958Y-84280710D01*
G37*
D11*
X132260000Y-84600000D03*
D10*
G36*
X132401958Y-81980710D02*
G01*
X132416276Y-81982834D01*
X132430317Y-81986351D01*
X132443946Y-81991228D01*
X132457031Y-81997417D01*
X132469447Y-82004858D01*
X132481073Y-82013481D01*
X132491798Y-82023202D01*
X132501519Y-82033927D01*
X132510142Y-82045553D01*
X132517583Y-82057969D01*
X132523772Y-82071054D01*
X132528649Y-82084683D01*
X132532166Y-82098724D01*
X132534290Y-82113042D01*
X132535000Y-82127500D01*
X132535000Y-82472500D01*
X132534290Y-82486958D01*
X132532166Y-82501276D01*
X132528649Y-82515317D01*
X132523772Y-82528946D01*
X132517583Y-82542031D01*
X132510142Y-82554447D01*
X132501519Y-82566073D01*
X132491798Y-82576798D01*
X132481073Y-82586519D01*
X132469447Y-82595142D01*
X132457031Y-82602583D01*
X132443946Y-82608772D01*
X132430317Y-82613649D01*
X132416276Y-82617166D01*
X132401958Y-82619290D01*
X132387500Y-82620000D01*
X132092500Y-82620000D01*
X132078042Y-82619290D01*
X132063724Y-82617166D01*
X132049683Y-82613649D01*
X132036054Y-82608772D01*
X132022969Y-82602583D01*
X132010553Y-82595142D01*
X131998927Y-82586519D01*
X131988202Y-82576798D01*
X131978481Y-82566073D01*
X131969858Y-82554447D01*
X131962417Y-82542031D01*
X131956228Y-82528946D01*
X131951351Y-82515317D01*
X131947834Y-82501276D01*
X131945710Y-82486958D01*
X131945000Y-82472500D01*
X131945000Y-82127500D01*
X131945710Y-82113042D01*
X131947834Y-82098724D01*
X131951351Y-82084683D01*
X131956228Y-82071054D01*
X131962417Y-82057969D01*
X131969858Y-82045553D01*
X131978481Y-82033927D01*
X131988202Y-82023202D01*
X131998927Y-82013481D01*
X132010553Y-82004858D01*
X132022969Y-81997417D01*
X132036054Y-81991228D01*
X132049683Y-81986351D01*
X132063724Y-81982834D01*
X132078042Y-81980710D01*
X132092500Y-81980000D01*
X132387500Y-81980000D01*
X132401958Y-81980710D01*
X132401958Y-81980710D01*
G37*
D11*
X132240000Y-82300000D03*
D10*
G36*
X131431958Y-81980710D02*
G01*
X131446276Y-81982834D01*
X131460317Y-81986351D01*
X131473946Y-81991228D01*
X131487031Y-81997417D01*
X131499447Y-82004858D01*
X131511073Y-82013481D01*
X131521798Y-82023202D01*
X131531519Y-82033927D01*
X131540142Y-82045553D01*
X131547583Y-82057969D01*
X131553772Y-82071054D01*
X131558649Y-82084683D01*
X131562166Y-82098724D01*
X131564290Y-82113042D01*
X131565000Y-82127500D01*
X131565000Y-82472500D01*
X131564290Y-82486958D01*
X131562166Y-82501276D01*
X131558649Y-82515317D01*
X131553772Y-82528946D01*
X131547583Y-82542031D01*
X131540142Y-82554447D01*
X131531519Y-82566073D01*
X131521798Y-82576798D01*
X131511073Y-82586519D01*
X131499447Y-82595142D01*
X131487031Y-82602583D01*
X131473946Y-82608772D01*
X131460317Y-82613649D01*
X131446276Y-82617166D01*
X131431958Y-82619290D01*
X131417500Y-82620000D01*
X131122500Y-82620000D01*
X131108042Y-82619290D01*
X131093724Y-82617166D01*
X131079683Y-82613649D01*
X131066054Y-82608772D01*
X131052969Y-82602583D01*
X131040553Y-82595142D01*
X131028927Y-82586519D01*
X131018202Y-82576798D01*
X131008481Y-82566073D01*
X130999858Y-82554447D01*
X130992417Y-82542031D01*
X130986228Y-82528946D01*
X130981351Y-82515317D01*
X130977834Y-82501276D01*
X130975710Y-82486958D01*
X130975000Y-82472500D01*
X130975000Y-82127500D01*
X130975710Y-82113042D01*
X130977834Y-82098724D01*
X130981351Y-82084683D01*
X130986228Y-82071054D01*
X130992417Y-82057969D01*
X130999858Y-82045553D01*
X131008481Y-82033927D01*
X131018202Y-82023202D01*
X131028927Y-82013481D01*
X131040553Y-82004858D01*
X131052969Y-81997417D01*
X131066054Y-81991228D01*
X131079683Y-81986351D01*
X131093724Y-81982834D01*
X131108042Y-81980710D01*
X131122500Y-81980000D01*
X131417500Y-81980000D01*
X131431958Y-81980710D01*
X131431958Y-81980710D01*
G37*
D11*
X131270000Y-82300000D03*
D10*
G36*
X131431958Y-83160710D02*
G01*
X131446276Y-83162834D01*
X131460317Y-83166351D01*
X131473946Y-83171228D01*
X131487031Y-83177417D01*
X131499447Y-83184858D01*
X131511073Y-83193481D01*
X131521798Y-83203202D01*
X131531519Y-83213927D01*
X131540142Y-83225553D01*
X131547583Y-83237969D01*
X131553772Y-83251054D01*
X131558649Y-83264683D01*
X131562166Y-83278724D01*
X131564290Y-83293042D01*
X131565000Y-83307500D01*
X131565000Y-83652500D01*
X131564290Y-83666958D01*
X131562166Y-83681276D01*
X131558649Y-83695317D01*
X131553772Y-83708946D01*
X131547583Y-83722031D01*
X131540142Y-83734447D01*
X131531519Y-83746073D01*
X131521798Y-83756798D01*
X131511073Y-83766519D01*
X131499447Y-83775142D01*
X131487031Y-83782583D01*
X131473946Y-83788772D01*
X131460317Y-83793649D01*
X131446276Y-83797166D01*
X131431958Y-83799290D01*
X131417500Y-83800000D01*
X131122500Y-83800000D01*
X131108042Y-83799290D01*
X131093724Y-83797166D01*
X131079683Y-83793649D01*
X131066054Y-83788772D01*
X131052969Y-83782583D01*
X131040553Y-83775142D01*
X131028927Y-83766519D01*
X131018202Y-83756798D01*
X131008481Y-83746073D01*
X130999858Y-83734447D01*
X130992417Y-83722031D01*
X130986228Y-83708946D01*
X130981351Y-83695317D01*
X130977834Y-83681276D01*
X130975710Y-83666958D01*
X130975000Y-83652500D01*
X130975000Y-83307500D01*
X130975710Y-83293042D01*
X130977834Y-83278724D01*
X130981351Y-83264683D01*
X130986228Y-83251054D01*
X130992417Y-83237969D01*
X130999858Y-83225553D01*
X131008481Y-83213927D01*
X131018202Y-83203202D01*
X131028927Y-83193481D01*
X131040553Y-83184858D01*
X131052969Y-83177417D01*
X131066054Y-83171228D01*
X131079683Y-83166351D01*
X131093724Y-83162834D01*
X131108042Y-83160710D01*
X131122500Y-83160000D01*
X131417500Y-83160000D01*
X131431958Y-83160710D01*
X131431958Y-83160710D01*
G37*
D11*
X131270000Y-83480000D03*
D10*
G36*
X132401958Y-83160710D02*
G01*
X132416276Y-83162834D01*
X132430317Y-83166351D01*
X132443946Y-83171228D01*
X132457031Y-83177417D01*
X132469447Y-83184858D01*
X132481073Y-83193481D01*
X132491798Y-83203202D01*
X132501519Y-83213927D01*
X132510142Y-83225553D01*
X132517583Y-83237969D01*
X132523772Y-83251054D01*
X132528649Y-83264683D01*
X132532166Y-83278724D01*
X132534290Y-83293042D01*
X132535000Y-83307500D01*
X132535000Y-83652500D01*
X132534290Y-83666958D01*
X132532166Y-83681276D01*
X132528649Y-83695317D01*
X132523772Y-83708946D01*
X132517583Y-83722031D01*
X132510142Y-83734447D01*
X132501519Y-83746073D01*
X132491798Y-83756798D01*
X132481073Y-83766519D01*
X132469447Y-83775142D01*
X132457031Y-83782583D01*
X132443946Y-83788772D01*
X132430317Y-83793649D01*
X132416276Y-83797166D01*
X132401958Y-83799290D01*
X132387500Y-83800000D01*
X132092500Y-83800000D01*
X132078042Y-83799290D01*
X132063724Y-83797166D01*
X132049683Y-83793649D01*
X132036054Y-83788772D01*
X132022969Y-83782583D01*
X132010553Y-83775142D01*
X131998927Y-83766519D01*
X131988202Y-83756798D01*
X131978481Y-83746073D01*
X131969858Y-83734447D01*
X131962417Y-83722031D01*
X131956228Y-83708946D01*
X131951351Y-83695317D01*
X131947834Y-83681276D01*
X131945710Y-83666958D01*
X131945000Y-83652500D01*
X131945000Y-83307500D01*
X131945710Y-83293042D01*
X131947834Y-83278724D01*
X131951351Y-83264683D01*
X131956228Y-83251054D01*
X131962417Y-83237969D01*
X131969858Y-83225553D01*
X131978481Y-83213927D01*
X131988202Y-83203202D01*
X131998927Y-83193481D01*
X132010553Y-83184858D01*
X132022969Y-83177417D01*
X132036054Y-83171228D01*
X132049683Y-83166351D01*
X132063724Y-83162834D01*
X132078042Y-83160710D01*
X132092500Y-83160000D01*
X132387500Y-83160000D01*
X132401958Y-83160710D01*
X132401958Y-83160710D01*
G37*
D11*
X132240000Y-83480000D03*
D10*
G36*
X114894504Y-77371204D02*
G01*
X114918773Y-77374804D01*
X114942571Y-77380765D01*
X114965671Y-77389030D01*
X114987849Y-77399520D01*
X115008893Y-77412133D01*
X115028598Y-77426747D01*
X115046777Y-77443223D01*
X115063253Y-77461402D01*
X115077867Y-77481107D01*
X115090480Y-77502151D01*
X115100970Y-77524329D01*
X115109235Y-77547429D01*
X115115196Y-77571227D01*
X115118796Y-77595496D01*
X115120000Y-77620000D01*
X115120000Y-78210000D01*
X115118796Y-78234504D01*
X115115196Y-78258773D01*
X115109235Y-78282571D01*
X115100970Y-78305671D01*
X115090480Y-78327849D01*
X115077867Y-78348893D01*
X115063253Y-78368598D01*
X115046777Y-78386777D01*
X115028598Y-78403253D01*
X115008893Y-78417867D01*
X114987849Y-78430480D01*
X114965671Y-78440970D01*
X114942571Y-78449235D01*
X114918773Y-78455196D01*
X114894504Y-78458796D01*
X114870000Y-78460000D01*
X114280000Y-78460000D01*
X114255496Y-78458796D01*
X114231227Y-78455196D01*
X114207429Y-78449235D01*
X114184329Y-78440970D01*
X114162151Y-78430480D01*
X114141107Y-78417867D01*
X114121402Y-78403253D01*
X114103223Y-78386777D01*
X114086747Y-78368598D01*
X114072133Y-78348893D01*
X114059520Y-78327849D01*
X114049030Y-78305671D01*
X114040765Y-78282571D01*
X114034804Y-78258773D01*
X114031204Y-78234504D01*
X114030000Y-78210000D01*
X114030000Y-77620000D01*
X114031204Y-77595496D01*
X114034804Y-77571227D01*
X114040765Y-77547429D01*
X114049030Y-77524329D01*
X114059520Y-77502151D01*
X114072133Y-77481107D01*
X114086747Y-77461402D01*
X114103223Y-77443223D01*
X114121402Y-77426747D01*
X114141107Y-77412133D01*
X114162151Y-77399520D01*
X114184329Y-77389030D01*
X114207429Y-77380765D01*
X114231227Y-77374804D01*
X114255496Y-77371204D01*
X114280000Y-77370000D01*
X114870000Y-77370000D01*
X114894504Y-77371204D01*
X114894504Y-77371204D01*
G37*
D12*
X114575000Y-77915000D03*
D10*
G36*
X114894504Y-78721204D02*
G01*
X114918773Y-78724804D01*
X114942571Y-78730765D01*
X114965671Y-78739030D01*
X114987849Y-78749520D01*
X115008893Y-78762133D01*
X115028598Y-78776747D01*
X115046777Y-78793223D01*
X115063253Y-78811402D01*
X115077867Y-78831107D01*
X115090480Y-78852151D01*
X115100970Y-78874329D01*
X115109235Y-78897429D01*
X115115196Y-78921227D01*
X115118796Y-78945496D01*
X115120000Y-78970000D01*
X115120000Y-79560000D01*
X115118796Y-79584504D01*
X115115196Y-79608773D01*
X115109235Y-79632571D01*
X115100970Y-79655671D01*
X115090480Y-79677849D01*
X115077867Y-79698893D01*
X115063253Y-79718598D01*
X115046777Y-79736777D01*
X115028598Y-79753253D01*
X115008893Y-79767867D01*
X114987849Y-79780480D01*
X114965671Y-79790970D01*
X114942571Y-79799235D01*
X114918773Y-79805196D01*
X114894504Y-79808796D01*
X114870000Y-79810000D01*
X114280000Y-79810000D01*
X114255496Y-79808796D01*
X114231227Y-79805196D01*
X114207429Y-79799235D01*
X114184329Y-79790970D01*
X114162151Y-79780480D01*
X114141107Y-79767867D01*
X114121402Y-79753253D01*
X114103223Y-79736777D01*
X114086747Y-79718598D01*
X114072133Y-79698893D01*
X114059520Y-79677849D01*
X114049030Y-79655671D01*
X114040765Y-79632571D01*
X114034804Y-79608773D01*
X114031204Y-79584504D01*
X114030000Y-79560000D01*
X114030000Y-78970000D01*
X114031204Y-78945496D01*
X114034804Y-78921227D01*
X114040765Y-78897429D01*
X114049030Y-78874329D01*
X114059520Y-78852151D01*
X114072133Y-78831107D01*
X114086747Y-78811402D01*
X114103223Y-78793223D01*
X114121402Y-78776747D01*
X114141107Y-78762133D01*
X114162151Y-78749520D01*
X114184329Y-78739030D01*
X114207429Y-78730765D01*
X114231227Y-78724804D01*
X114255496Y-78721204D01*
X114280000Y-78720000D01*
X114870000Y-78720000D01*
X114894504Y-78721204D01*
X114894504Y-78721204D01*
G37*
D12*
X114575000Y-79265000D03*
D10*
G36*
X116244504Y-77371204D02*
G01*
X116268773Y-77374804D01*
X116292571Y-77380765D01*
X116315671Y-77389030D01*
X116337849Y-77399520D01*
X116358893Y-77412133D01*
X116378598Y-77426747D01*
X116396777Y-77443223D01*
X116413253Y-77461402D01*
X116427867Y-77481107D01*
X116440480Y-77502151D01*
X116450970Y-77524329D01*
X116459235Y-77547429D01*
X116465196Y-77571227D01*
X116468796Y-77595496D01*
X116470000Y-77620000D01*
X116470000Y-78210000D01*
X116468796Y-78234504D01*
X116465196Y-78258773D01*
X116459235Y-78282571D01*
X116450970Y-78305671D01*
X116440480Y-78327849D01*
X116427867Y-78348893D01*
X116413253Y-78368598D01*
X116396777Y-78386777D01*
X116378598Y-78403253D01*
X116358893Y-78417867D01*
X116337849Y-78430480D01*
X116315671Y-78440970D01*
X116292571Y-78449235D01*
X116268773Y-78455196D01*
X116244504Y-78458796D01*
X116220000Y-78460000D01*
X115630000Y-78460000D01*
X115605496Y-78458796D01*
X115581227Y-78455196D01*
X115557429Y-78449235D01*
X115534329Y-78440970D01*
X115512151Y-78430480D01*
X115491107Y-78417867D01*
X115471402Y-78403253D01*
X115453223Y-78386777D01*
X115436747Y-78368598D01*
X115422133Y-78348893D01*
X115409520Y-78327849D01*
X115399030Y-78305671D01*
X115390765Y-78282571D01*
X115384804Y-78258773D01*
X115381204Y-78234504D01*
X115380000Y-78210000D01*
X115380000Y-77620000D01*
X115381204Y-77595496D01*
X115384804Y-77571227D01*
X115390765Y-77547429D01*
X115399030Y-77524329D01*
X115409520Y-77502151D01*
X115422133Y-77481107D01*
X115436747Y-77461402D01*
X115453223Y-77443223D01*
X115471402Y-77426747D01*
X115491107Y-77412133D01*
X115512151Y-77399520D01*
X115534329Y-77389030D01*
X115557429Y-77380765D01*
X115581227Y-77374804D01*
X115605496Y-77371204D01*
X115630000Y-77370000D01*
X116220000Y-77370000D01*
X116244504Y-77371204D01*
X116244504Y-77371204D01*
G37*
D12*
X115925000Y-77915000D03*
D10*
G36*
X116244504Y-78721204D02*
G01*
X116268773Y-78724804D01*
X116292571Y-78730765D01*
X116315671Y-78739030D01*
X116337849Y-78749520D01*
X116358893Y-78762133D01*
X116378598Y-78776747D01*
X116396777Y-78793223D01*
X116413253Y-78811402D01*
X116427867Y-78831107D01*
X116440480Y-78852151D01*
X116450970Y-78874329D01*
X116459235Y-78897429D01*
X116465196Y-78921227D01*
X116468796Y-78945496D01*
X116470000Y-78970000D01*
X116470000Y-79560000D01*
X116468796Y-79584504D01*
X116465196Y-79608773D01*
X116459235Y-79632571D01*
X116450970Y-79655671D01*
X116440480Y-79677849D01*
X116427867Y-79698893D01*
X116413253Y-79718598D01*
X116396777Y-79736777D01*
X116378598Y-79753253D01*
X116358893Y-79767867D01*
X116337849Y-79780480D01*
X116315671Y-79790970D01*
X116292571Y-79799235D01*
X116268773Y-79805196D01*
X116244504Y-79808796D01*
X116220000Y-79810000D01*
X115630000Y-79810000D01*
X115605496Y-79808796D01*
X115581227Y-79805196D01*
X115557429Y-79799235D01*
X115534329Y-79790970D01*
X115512151Y-79780480D01*
X115491107Y-79767867D01*
X115471402Y-79753253D01*
X115453223Y-79736777D01*
X115436747Y-79718598D01*
X115422133Y-79698893D01*
X115409520Y-79677849D01*
X115399030Y-79655671D01*
X115390765Y-79632571D01*
X115384804Y-79608773D01*
X115381204Y-79584504D01*
X115380000Y-79560000D01*
X115380000Y-78970000D01*
X115381204Y-78945496D01*
X115384804Y-78921227D01*
X115390765Y-78897429D01*
X115399030Y-78874329D01*
X115409520Y-78852151D01*
X115422133Y-78831107D01*
X115436747Y-78811402D01*
X115453223Y-78793223D01*
X115471402Y-78776747D01*
X115491107Y-78762133D01*
X115512151Y-78749520D01*
X115534329Y-78739030D01*
X115557429Y-78730765D01*
X115581227Y-78724804D01*
X115605496Y-78721204D01*
X115630000Y-78720000D01*
X116220000Y-78720000D01*
X116244504Y-78721204D01*
X116244504Y-78721204D01*
G37*
D12*
X115925000Y-79265000D03*
D10*
G36*
X113632351Y-77465361D02*
G01*
X113639632Y-77466441D01*
X113646771Y-77468229D01*
X113653701Y-77470709D01*
X113660355Y-77473856D01*
X113666668Y-77477640D01*
X113672579Y-77482024D01*
X113678033Y-77486967D01*
X113682976Y-77492421D01*
X113687360Y-77498332D01*
X113691144Y-77504645D01*
X113694291Y-77511299D01*
X113696771Y-77518229D01*
X113698559Y-77525368D01*
X113699639Y-77532649D01*
X113700000Y-77540000D01*
X113700000Y-77690000D01*
X113699639Y-77697351D01*
X113698559Y-77704632D01*
X113696771Y-77711771D01*
X113694291Y-77718701D01*
X113691144Y-77725355D01*
X113687360Y-77731668D01*
X113682976Y-77737579D01*
X113678033Y-77743033D01*
X113672579Y-77747976D01*
X113666668Y-77752360D01*
X113660355Y-77756144D01*
X113653701Y-77759291D01*
X113646771Y-77761771D01*
X113639632Y-77763559D01*
X113632351Y-77764639D01*
X113625000Y-77765000D01*
X112950000Y-77765000D01*
X112942649Y-77764639D01*
X112935368Y-77763559D01*
X112928229Y-77761771D01*
X112921299Y-77759291D01*
X112914645Y-77756144D01*
X112908332Y-77752360D01*
X112902421Y-77747976D01*
X112896967Y-77743033D01*
X112892024Y-77737579D01*
X112887640Y-77731668D01*
X112883856Y-77725355D01*
X112880709Y-77718701D01*
X112878229Y-77711771D01*
X112876441Y-77704632D01*
X112875361Y-77697351D01*
X112875000Y-77690000D01*
X112875000Y-77540000D01*
X112875361Y-77532649D01*
X112876441Y-77525368D01*
X112878229Y-77518229D01*
X112880709Y-77511299D01*
X112883856Y-77504645D01*
X112887640Y-77498332D01*
X112892024Y-77492421D01*
X112896967Y-77486967D01*
X112902421Y-77482024D01*
X112908332Y-77477640D01*
X112914645Y-77473856D01*
X112921299Y-77470709D01*
X112928229Y-77468229D01*
X112935368Y-77466441D01*
X112942649Y-77465361D01*
X112950000Y-77465000D01*
X113625000Y-77465000D01*
X113632351Y-77465361D01*
X113632351Y-77465361D01*
G37*
D13*
X113287500Y-77615000D03*
D10*
G36*
X113632351Y-78115361D02*
G01*
X113639632Y-78116441D01*
X113646771Y-78118229D01*
X113653701Y-78120709D01*
X113660355Y-78123856D01*
X113666668Y-78127640D01*
X113672579Y-78132024D01*
X113678033Y-78136967D01*
X113682976Y-78142421D01*
X113687360Y-78148332D01*
X113691144Y-78154645D01*
X113694291Y-78161299D01*
X113696771Y-78168229D01*
X113698559Y-78175368D01*
X113699639Y-78182649D01*
X113700000Y-78190000D01*
X113700000Y-78340000D01*
X113699639Y-78347351D01*
X113698559Y-78354632D01*
X113696771Y-78361771D01*
X113694291Y-78368701D01*
X113691144Y-78375355D01*
X113687360Y-78381668D01*
X113682976Y-78387579D01*
X113678033Y-78393033D01*
X113672579Y-78397976D01*
X113666668Y-78402360D01*
X113660355Y-78406144D01*
X113653701Y-78409291D01*
X113646771Y-78411771D01*
X113639632Y-78413559D01*
X113632351Y-78414639D01*
X113625000Y-78415000D01*
X112950000Y-78415000D01*
X112942649Y-78414639D01*
X112935368Y-78413559D01*
X112928229Y-78411771D01*
X112921299Y-78409291D01*
X112914645Y-78406144D01*
X112908332Y-78402360D01*
X112902421Y-78397976D01*
X112896967Y-78393033D01*
X112892024Y-78387579D01*
X112887640Y-78381668D01*
X112883856Y-78375355D01*
X112880709Y-78368701D01*
X112878229Y-78361771D01*
X112876441Y-78354632D01*
X112875361Y-78347351D01*
X112875000Y-78340000D01*
X112875000Y-78190000D01*
X112875361Y-78182649D01*
X112876441Y-78175368D01*
X112878229Y-78168229D01*
X112880709Y-78161299D01*
X112883856Y-78154645D01*
X112887640Y-78148332D01*
X112892024Y-78142421D01*
X112896967Y-78136967D01*
X112902421Y-78132024D01*
X112908332Y-78127640D01*
X112914645Y-78123856D01*
X112921299Y-78120709D01*
X112928229Y-78118229D01*
X112935368Y-78116441D01*
X112942649Y-78115361D01*
X112950000Y-78115000D01*
X113625000Y-78115000D01*
X113632351Y-78115361D01*
X113632351Y-78115361D01*
G37*
D13*
X113287500Y-78265000D03*
D10*
G36*
X113632351Y-78765361D02*
G01*
X113639632Y-78766441D01*
X113646771Y-78768229D01*
X113653701Y-78770709D01*
X113660355Y-78773856D01*
X113666668Y-78777640D01*
X113672579Y-78782024D01*
X113678033Y-78786967D01*
X113682976Y-78792421D01*
X113687360Y-78798332D01*
X113691144Y-78804645D01*
X113694291Y-78811299D01*
X113696771Y-78818229D01*
X113698559Y-78825368D01*
X113699639Y-78832649D01*
X113700000Y-78840000D01*
X113700000Y-78990000D01*
X113699639Y-78997351D01*
X113698559Y-79004632D01*
X113696771Y-79011771D01*
X113694291Y-79018701D01*
X113691144Y-79025355D01*
X113687360Y-79031668D01*
X113682976Y-79037579D01*
X113678033Y-79043033D01*
X113672579Y-79047976D01*
X113666668Y-79052360D01*
X113660355Y-79056144D01*
X113653701Y-79059291D01*
X113646771Y-79061771D01*
X113639632Y-79063559D01*
X113632351Y-79064639D01*
X113625000Y-79065000D01*
X112950000Y-79065000D01*
X112942649Y-79064639D01*
X112935368Y-79063559D01*
X112928229Y-79061771D01*
X112921299Y-79059291D01*
X112914645Y-79056144D01*
X112908332Y-79052360D01*
X112902421Y-79047976D01*
X112896967Y-79043033D01*
X112892024Y-79037579D01*
X112887640Y-79031668D01*
X112883856Y-79025355D01*
X112880709Y-79018701D01*
X112878229Y-79011771D01*
X112876441Y-79004632D01*
X112875361Y-78997351D01*
X112875000Y-78990000D01*
X112875000Y-78840000D01*
X112875361Y-78832649D01*
X112876441Y-78825368D01*
X112878229Y-78818229D01*
X112880709Y-78811299D01*
X112883856Y-78804645D01*
X112887640Y-78798332D01*
X112892024Y-78792421D01*
X112896967Y-78786967D01*
X112902421Y-78782024D01*
X112908332Y-78777640D01*
X112914645Y-78773856D01*
X112921299Y-78770709D01*
X112928229Y-78768229D01*
X112935368Y-78766441D01*
X112942649Y-78765361D01*
X112950000Y-78765000D01*
X113625000Y-78765000D01*
X113632351Y-78765361D01*
X113632351Y-78765361D01*
G37*
D13*
X113287500Y-78915000D03*
D10*
G36*
X113632351Y-79415361D02*
G01*
X113639632Y-79416441D01*
X113646771Y-79418229D01*
X113653701Y-79420709D01*
X113660355Y-79423856D01*
X113666668Y-79427640D01*
X113672579Y-79432024D01*
X113678033Y-79436967D01*
X113682976Y-79442421D01*
X113687360Y-79448332D01*
X113691144Y-79454645D01*
X113694291Y-79461299D01*
X113696771Y-79468229D01*
X113698559Y-79475368D01*
X113699639Y-79482649D01*
X113700000Y-79490000D01*
X113700000Y-79640000D01*
X113699639Y-79647351D01*
X113698559Y-79654632D01*
X113696771Y-79661771D01*
X113694291Y-79668701D01*
X113691144Y-79675355D01*
X113687360Y-79681668D01*
X113682976Y-79687579D01*
X113678033Y-79693033D01*
X113672579Y-79697976D01*
X113666668Y-79702360D01*
X113660355Y-79706144D01*
X113653701Y-79709291D01*
X113646771Y-79711771D01*
X113639632Y-79713559D01*
X113632351Y-79714639D01*
X113625000Y-79715000D01*
X112950000Y-79715000D01*
X112942649Y-79714639D01*
X112935368Y-79713559D01*
X112928229Y-79711771D01*
X112921299Y-79709291D01*
X112914645Y-79706144D01*
X112908332Y-79702360D01*
X112902421Y-79697976D01*
X112896967Y-79693033D01*
X112892024Y-79687579D01*
X112887640Y-79681668D01*
X112883856Y-79675355D01*
X112880709Y-79668701D01*
X112878229Y-79661771D01*
X112876441Y-79654632D01*
X112875361Y-79647351D01*
X112875000Y-79640000D01*
X112875000Y-79490000D01*
X112875361Y-79482649D01*
X112876441Y-79475368D01*
X112878229Y-79468229D01*
X112880709Y-79461299D01*
X112883856Y-79454645D01*
X112887640Y-79448332D01*
X112892024Y-79442421D01*
X112896967Y-79436967D01*
X112902421Y-79432024D01*
X112908332Y-79427640D01*
X112914645Y-79423856D01*
X112921299Y-79420709D01*
X112928229Y-79418229D01*
X112935368Y-79416441D01*
X112942649Y-79415361D01*
X112950000Y-79415000D01*
X113625000Y-79415000D01*
X113632351Y-79415361D01*
X113632351Y-79415361D01*
G37*
D13*
X113287500Y-79565000D03*
D10*
G36*
X114357351Y-80140361D02*
G01*
X114364632Y-80141441D01*
X114371771Y-80143229D01*
X114378701Y-80145709D01*
X114385355Y-80148856D01*
X114391668Y-80152640D01*
X114397579Y-80157024D01*
X114403033Y-80161967D01*
X114407976Y-80167421D01*
X114412360Y-80173332D01*
X114416144Y-80179645D01*
X114419291Y-80186299D01*
X114421771Y-80193229D01*
X114423559Y-80200368D01*
X114424639Y-80207649D01*
X114425000Y-80215000D01*
X114425000Y-80890000D01*
X114424639Y-80897351D01*
X114423559Y-80904632D01*
X114421771Y-80911771D01*
X114419291Y-80918701D01*
X114416144Y-80925355D01*
X114412360Y-80931668D01*
X114407976Y-80937579D01*
X114403033Y-80943033D01*
X114397579Y-80947976D01*
X114391668Y-80952360D01*
X114385355Y-80956144D01*
X114378701Y-80959291D01*
X114371771Y-80961771D01*
X114364632Y-80963559D01*
X114357351Y-80964639D01*
X114350000Y-80965000D01*
X114200000Y-80965000D01*
X114192649Y-80964639D01*
X114185368Y-80963559D01*
X114178229Y-80961771D01*
X114171299Y-80959291D01*
X114164645Y-80956144D01*
X114158332Y-80952360D01*
X114152421Y-80947976D01*
X114146967Y-80943033D01*
X114142024Y-80937579D01*
X114137640Y-80931668D01*
X114133856Y-80925355D01*
X114130709Y-80918701D01*
X114128229Y-80911771D01*
X114126441Y-80904632D01*
X114125361Y-80897351D01*
X114125000Y-80890000D01*
X114125000Y-80215000D01*
X114125361Y-80207649D01*
X114126441Y-80200368D01*
X114128229Y-80193229D01*
X114130709Y-80186299D01*
X114133856Y-80179645D01*
X114137640Y-80173332D01*
X114142024Y-80167421D01*
X114146967Y-80161967D01*
X114152421Y-80157024D01*
X114158332Y-80152640D01*
X114164645Y-80148856D01*
X114171299Y-80145709D01*
X114178229Y-80143229D01*
X114185368Y-80141441D01*
X114192649Y-80140361D01*
X114200000Y-80140000D01*
X114350000Y-80140000D01*
X114357351Y-80140361D01*
X114357351Y-80140361D01*
G37*
D13*
X114275000Y-80552500D03*
D10*
G36*
X115007351Y-80140361D02*
G01*
X115014632Y-80141441D01*
X115021771Y-80143229D01*
X115028701Y-80145709D01*
X115035355Y-80148856D01*
X115041668Y-80152640D01*
X115047579Y-80157024D01*
X115053033Y-80161967D01*
X115057976Y-80167421D01*
X115062360Y-80173332D01*
X115066144Y-80179645D01*
X115069291Y-80186299D01*
X115071771Y-80193229D01*
X115073559Y-80200368D01*
X115074639Y-80207649D01*
X115075000Y-80215000D01*
X115075000Y-80890000D01*
X115074639Y-80897351D01*
X115073559Y-80904632D01*
X115071771Y-80911771D01*
X115069291Y-80918701D01*
X115066144Y-80925355D01*
X115062360Y-80931668D01*
X115057976Y-80937579D01*
X115053033Y-80943033D01*
X115047579Y-80947976D01*
X115041668Y-80952360D01*
X115035355Y-80956144D01*
X115028701Y-80959291D01*
X115021771Y-80961771D01*
X115014632Y-80963559D01*
X115007351Y-80964639D01*
X115000000Y-80965000D01*
X114850000Y-80965000D01*
X114842649Y-80964639D01*
X114835368Y-80963559D01*
X114828229Y-80961771D01*
X114821299Y-80959291D01*
X114814645Y-80956144D01*
X114808332Y-80952360D01*
X114802421Y-80947976D01*
X114796967Y-80943033D01*
X114792024Y-80937579D01*
X114787640Y-80931668D01*
X114783856Y-80925355D01*
X114780709Y-80918701D01*
X114778229Y-80911771D01*
X114776441Y-80904632D01*
X114775361Y-80897351D01*
X114775000Y-80890000D01*
X114775000Y-80215000D01*
X114775361Y-80207649D01*
X114776441Y-80200368D01*
X114778229Y-80193229D01*
X114780709Y-80186299D01*
X114783856Y-80179645D01*
X114787640Y-80173332D01*
X114792024Y-80167421D01*
X114796967Y-80161967D01*
X114802421Y-80157024D01*
X114808332Y-80152640D01*
X114814645Y-80148856D01*
X114821299Y-80145709D01*
X114828229Y-80143229D01*
X114835368Y-80141441D01*
X114842649Y-80140361D01*
X114850000Y-80140000D01*
X115000000Y-80140000D01*
X115007351Y-80140361D01*
X115007351Y-80140361D01*
G37*
D13*
X114925000Y-80552500D03*
D10*
G36*
X115657351Y-80140361D02*
G01*
X115664632Y-80141441D01*
X115671771Y-80143229D01*
X115678701Y-80145709D01*
X115685355Y-80148856D01*
X115691668Y-80152640D01*
X115697579Y-80157024D01*
X115703033Y-80161967D01*
X115707976Y-80167421D01*
X115712360Y-80173332D01*
X115716144Y-80179645D01*
X115719291Y-80186299D01*
X115721771Y-80193229D01*
X115723559Y-80200368D01*
X115724639Y-80207649D01*
X115725000Y-80215000D01*
X115725000Y-80890000D01*
X115724639Y-80897351D01*
X115723559Y-80904632D01*
X115721771Y-80911771D01*
X115719291Y-80918701D01*
X115716144Y-80925355D01*
X115712360Y-80931668D01*
X115707976Y-80937579D01*
X115703033Y-80943033D01*
X115697579Y-80947976D01*
X115691668Y-80952360D01*
X115685355Y-80956144D01*
X115678701Y-80959291D01*
X115671771Y-80961771D01*
X115664632Y-80963559D01*
X115657351Y-80964639D01*
X115650000Y-80965000D01*
X115500000Y-80965000D01*
X115492649Y-80964639D01*
X115485368Y-80963559D01*
X115478229Y-80961771D01*
X115471299Y-80959291D01*
X115464645Y-80956144D01*
X115458332Y-80952360D01*
X115452421Y-80947976D01*
X115446967Y-80943033D01*
X115442024Y-80937579D01*
X115437640Y-80931668D01*
X115433856Y-80925355D01*
X115430709Y-80918701D01*
X115428229Y-80911771D01*
X115426441Y-80904632D01*
X115425361Y-80897351D01*
X115425000Y-80890000D01*
X115425000Y-80215000D01*
X115425361Y-80207649D01*
X115426441Y-80200368D01*
X115428229Y-80193229D01*
X115430709Y-80186299D01*
X115433856Y-80179645D01*
X115437640Y-80173332D01*
X115442024Y-80167421D01*
X115446967Y-80161967D01*
X115452421Y-80157024D01*
X115458332Y-80152640D01*
X115464645Y-80148856D01*
X115471299Y-80145709D01*
X115478229Y-80143229D01*
X115485368Y-80141441D01*
X115492649Y-80140361D01*
X115500000Y-80140000D01*
X115650000Y-80140000D01*
X115657351Y-80140361D01*
X115657351Y-80140361D01*
G37*
D13*
X115575000Y-80552500D03*
D10*
G36*
X116307351Y-80140361D02*
G01*
X116314632Y-80141441D01*
X116321771Y-80143229D01*
X116328701Y-80145709D01*
X116335355Y-80148856D01*
X116341668Y-80152640D01*
X116347579Y-80157024D01*
X116353033Y-80161967D01*
X116357976Y-80167421D01*
X116362360Y-80173332D01*
X116366144Y-80179645D01*
X116369291Y-80186299D01*
X116371771Y-80193229D01*
X116373559Y-80200368D01*
X116374639Y-80207649D01*
X116375000Y-80215000D01*
X116375000Y-80890000D01*
X116374639Y-80897351D01*
X116373559Y-80904632D01*
X116371771Y-80911771D01*
X116369291Y-80918701D01*
X116366144Y-80925355D01*
X116362360Y-80931668D01*
X116357976Y-80937579D01*
X116353033Y-80943033D01*
X116347579Y-80947976D01*
X116341668Y-80952360D01*
X116335355Y-80956144D01*
X116328701Y-80959291D01*
X116321771Y-80961771D01*
X116314632Y-80963559D01*
X116307351Y-80964639D01*
X116300000Y-80965000D01*
X116150000Y-80965000D01*
X116142649Y-80964639D01*
X116135368Y-80963559D01*
X116128229Y-80961771D01*
X116121299Y-80959291D01*
X116114645Y-80956144D01*
X116108332Y-80952360D01*
X116102421Y-80947976D01*
X116096967Y-80943033D01*
X116092024Y-80937579D01*
X116087640Y-80931668D01*
X116083856Y-80925355D01*
X116080709Y-80918701D01*
X116078229Y-80911771D01*
X116076441Y-80904632D01*
X116075361Y-80897351D01*
X116075000Y-80890000D01*
X116075000Y-80215000D01*
X116075361Y-80207649D01*
X116076441Y-80200368D01*
X116078229Y-80193229D01*
X116080709Y-80186299D01*
X116083856Y-80179645D01*
X116087640Y-80173332D01*
X116092024Y-80167421D01*
X116096967Y-80161967D01*
X116102421Y-80157024D01*
X116108332Y-80152640D01*
X116114645Y-80148856D01*
X116121299Y-80145709D01*
X116128229Y-80143229D01*
X116135368Y-80141441D01*
X116142649Y-80140361D01*
X116150000Y-80140000D01*
X116300000Y-80140000D01*
X116307351Y-80140361D01*
X116307351Y-80140361D01*
G37*
D13*
X116225000Y-80552500D03*
D10*
G36*
X117557351Y-79415361D02*
G01*
X117564632Y-79416441D01*
X117571771Y-79418229D01*
X117578701Y-79420709D01*
X117585355Y-79423856D01*
X117591668Y-79427640D01*
X117597579Y-79432024D01*
X117603033Y-79436967D01*
X117607976Y-79442421D01*
X117612360Y-79448332D01*
X117616144Y-79454645D01*
X117619291Y-79461299D01*
X117621771Y-79468229D01*
X117623559Y-79475368D01*
X117624639Y-79482649D01*
X117625000Y-79490000D01*
X117625000Y-79640000D01*
X117624639Y-79647351D01*
X117623559Y-79654632D01*
X117621771Y-79661771D01*
X117619291Y-79668701D01*
X117616144Y-79675355D01*
X117612360Y-79681668D01*
X117607976Y-79687579D01*
X117603033Y-79693033D01*
X117597579Y-79697976D01*
X117591668Y-79702360D01*
X117585355Y-79706144D01*
X117578701Y-79709291D01*
X117571771Y-79711771D01*
X117564632Y-79713559D01*
X117557351Y-79714639D01*
X117550000Y-79715000D01*
X116875000Y-79715000D01*
X116867649Y-79714639D01*
X116860368Y-79713559D01*
X116853229Y-79711771D01*
X116846299Y-79709291D01*
X116839645Y-79706144D01*
X116833332Y-79702360D01*
X116827421Y-79697976D01*
X116821967Y-79693033D01*
X116817024Y-79687579D01*
X116812640Y-79681668D01*
X116808856Y-79675355D01*
X116805709Y-79668701D01*
X116803229Y-79661771D01*
X116801441Y-79654632D01*
X116800361Y-79647351D01*
X116800000Y-79640000D01*
X116800000Y-79490000D01*
X116800361Y-79482649D01*
X116801441Y-79475368D01*
X116803229Y-79468229D01*
X116805709Y-79461299D01*
X116808856Y-79454645D01*
X116812640Y-79448332D01*
X116817024Y-79442421D01*
X116821967Y-79436967D01*
X116827421Y-79432024D01*
X116833332Y-79427640D01*
X116839645Y-79423856D01*
X116846299Y-79420709D01*
X116853229Y-79418229D01*
X116860368Y-79416441D01*
X116867649Y-79415361D01*
X116875000Y-79415000D01*
X117550000Y-79415000D01*
X117557351Y-79415361D01*
X117557351Y-79415361D01*
G37*
D13*
X117212500Y-79565000D03*
D10*
G36*
X117557351Y-78765361D02*
G01*
X117564632Y-78766441D01*
X117571771Y-78768229D01*
X117578701Y-78770709D01*
X117585355Y-78773856D01*
X117591668Y-78777640D01*
X117597579Y-78782024D01*
X117603033Y-78786967D01*
X117607976Y-78792421D01*
X117612360Y-78798332D01*
X117616144Y-78804645D01*
X117619291Y-78811299D01*
X117621771Y-78818229D01*
X117623559Y-78825368D01*
X117624639Y-78832649D01*
X117625000Y-78840000D01*
X117625000Y-78990000D01*
X117624639Y-78997351D01*
X117623559Y-79004632D01*
X117621771Y-79011771D01*
X117619291Y-79018701D01*
X117616144Y-79025355D01*
X117612360Y-79031668D01*
X117607976Y-79037579D01*
X117603033Y-79043033D01*
X117597579Y-79047976D01*
X117591668Y-79052360D01*
X117585355Y-79056144D01*
X117578701Y-79059291D01*
X117571771Y-79061771D01*
X117564632Y-79063559D01*
X117557351Y-79064639D01*
X117550000Y-79065000D01*
X116875000Y-79065000D01*
X116867649Y-79064639D01*
X116860368Y-79063559D01*
X116853229Y-79061771D01*
X116846299Y-79059291D01*
X116839645Y-79056144D01*
X116833332Y-79052360D01*
X116827421Y-79047976D01*
X116821967Y-79043033D01*
X116817024Y-79037579D01*
X116812640Y-79031668D01*
X116808856Y-79025355D01*
X116805709Y-79018701D01*
X116803229Y-79011771D01*
X116801441Y-79004632D01*
X116800361Y-78997351D01*
X116800000Y-78990000D01*
X116800000Y-78840000D01*
X116800361Y-78832649D01*
X116801441Y-78825368D01*
X116803229Y-78818229D01*
X116805709Y-78811299D01*
X116808856Y-78804645D01*
X116812640Y-78798332D01*
X116817024Y-78792421D01*
X116821967Y-78786967D01*
X116827421Y-78782024D01*
X116833332Y-78777640D01*
X116839645Y-78773856D01*
X116846299Y-78770709D01*
X116853229Y-78768229D01*
X116860368Y-78766441D01*
X116867649Y-78765361D01*
X116875000Y-78765000D01*
X117550000Y-78765000D01*
X117557351Y-78765361D01*
X117557351Y-78765361D01*
G37*
D13*
X117212500Y-78915000D03*
D10*
G36*
X117557351Y-78115361D02*
G01*
X117564632Y-78116441D01*
X117571771Y-78118229D01*
X117578701Y-78120709D01*
X117585355Y-78123856D01*
X117591668Y-78127640D01*
X117597579Y-78132024D01*
X117603033Y-78136967D01*
X117607976Y-78142421D01*
X117612360Y-78148332D01*
X117616144Y-78154645D01*
X117619291Y-78161299D01*
X117621771Y-78168229D01*
X117623559Y-78175368D01*
X117624639Y-78182649D01*
X117625000Y-78190000D01*
X117625000Y-78340000D01*
X117624639Y-78347351D01*
X117623559Y-78354632D01*
X117621771Y-78361771D01*
X117619291Y-78368701D01*
X117616144Y-78375355D01*
X117612360Y-78381668D01*
X117607976Y-78387579D01*
X117603033Y-78393033D01*
X117597579Y-78397976D01*
X117591668Y-78402360D01*
X117585355Y-78406144D01*
X117578701Y-78409291D01*
X117571771Y-78411771D01*
X117564632Y-78413559D01*
X117557351Y-78414639D01*
X117550000Y-78415000D01*
X116875000Y-78415000D01*
X116867649Y-78414639D01*
X116860368Y-78413559D01*
X116853229Y-78411771D01*
X116846299Y-78409291D01*
X116839645Y-78406144D01*
X116833332Y-78402360D01*
X116827421Y-78397976D01*
X116821967Y-78393033D01*
X116817024Y-78387579D01*
X116812640Y-78381668D01*
X116808856Y-78375355D01*
X116805709Y-78368701D01*
X116803229Y-78361771D01*
X116801441Y-78354632D01*
X116800361Y-78347351D01*
X116800000Y-78340000D01*
X116800000Y-78190000D01*
X116800361Y-78182649D01*
X116801441Y-78175368D01*
X116803229Y-78168229D01*
X116805709Y-78161299D01*
X116808856Y-78154645D01*
X116812640Y-78148332D01*
X116817024Y-78142421D01*
X116821967Y-78136967D01*
X116827421Y-78132024D01*
X116833332Y-78127640D01*
X116839645Y-78123856D01*
X116846299Y-78120709D01*
X116853229Y-78118229D01*
X116860368Y-78116441D01*
X116867649Y-78115361D01*
X116875000Y-78115000D01*
X117550000Y-78115000D01*
X117557351Y-78115361D01*
X117557351Y-78115361D01*
G37*
D13*
X117212500Y-78265000D03*
D10*
G36*
X117557351Y-77465361D02*
G01*
X117564632Y-77466441D01*
X117571771Y-77468229D01*
X117578701Y-77470709D01*
X117585355Y-77473856D01*
X117591668Y-77477640D01*
X117597579Y-77482024D01*
X117603033Y-77486967D01*
X117607976Y-77492421D01*
X117612360Y-77498332D01*
X117616144Y-77504645D01*
X117619291Y-77511299D01*
X117621771Y-77518229D01*
X117623559Y-77525368D01*
X117624639Y-77532649D01*
X117625000Y-77540000D01*
X117625000Y-77690000D01*
X117624639Y-77697351D01*
X117623559Y-77704632D01*
X117621771Y-77711771D01*
X117619291Y-77718701D01*
X117616144Y-77725355D01*
X117612360Y-77731668D01*
X117607976Y-77737579D01*
X117603033Y-77743033D01*
X117597579Y-77747976D01*
X117591668Y-77752360D01*
X117585355Y-77756144D01*
X117578701Y-77759291D01*
X117571771Y-77761771D01*
X117564632Y-77763559D01*
X117557351Y-77764639D01*
X117550000Y-77765000D01*
X116875000Y-77765000D01*
X116867649Y-77764639D01*
X116860368Y-77763559D01*
X116853229Y-77761771D01*
X116846299Y-77759291D01*
X116839645Y-77756144D01*
X116833332Y-77752360D01*
X116827421Y-77747976D01*
X116821967Y-77743033D01*
X116817024Y-77737579D01*
X116812640Y-77731668D01*
X116808856Y-77725355D01*
X116805709Y-77718701D01*
X116803229Y-77711771D01*
X116801441Y-77704632D01*
X116800361Y-77697351D01*
X116800000Y-77690000D01*
X116800000Y-77540000D01*
X116800361Y-77532649D01*
X116801441Y-77525368D01*
X116803229Y-77518229D01*
X116805709Y-77511299D01*
X116808856Y-77504645D01*
X116812640Y-77498332D01*
X116817024Y-77492421D01*
X116821967Y-77486967D01*
X116827421Y-77482024D01*
X116833332Y-77477640D01*
X116839645Y-77473856D01*
X116846299Y-77470709D01*
X116853229Y-77468229D01*
X116860368Y-77466441D01*
X116867649Y-77465361D01*
X116875000Y-77465000D01*
X117550000Y-77465000D01*
X117557351Y-77465361D01*
X117557351Y-77465361D01*
G37*
D13*
X117212500Y-77615000D03*
D10*
G36*
X116307351Y-76215361D02*
G01*
X116314632Y-76216441D01*
X116321771Y-76218229D01*
X116328701Y-76220709D01*
X116335355Y-76223856D01*
X116341668Y-76227640D01*
X116347579Y-76232024D01*
X116353033Y-76236967D01*
X116357976Y-76242421D01*
X116362360Y-76248332D01*
X116366144Y-76254645D01*
X116369291Y-76261299D01*
X116371771Y-76268229D01*
X116373559Y-76275368D01*
X116374639Y-76282649D01*
X116375000Y-76290000D01*
X116375000Y-76965000D01*
X116374639Y-76972351D01*
X116373559Y-76979632D01*
X116371771Y-76986771D01*
X116369291Y-76993701D01*
X116366144Y-77000355D01*
X116362360Y-77006668D01*
X116357976Y-77012579D01*
X116353033Y-77018033D01*
X116347579Y-77022976D01*
X116341668Y-77027360D01*
X116335355Y-77031144D01*
X116328701Y-77034291D01*
X116321771Y-77036771D01*
X116314632Y-77038559D01*
X116307351Y-77039639D01*
X116300000Y-77040000D01*
X116150000Y-77040000D01*
X116142649Y-77039639D01*
X116135368Y-77038559D01*
X116128229Y-77036771D01*
X116121299Y-77034291D01*
X116114645Y-77031144D01*
X116108332Y-77027360D01*
X116102421Y-77022976D01*
X116096967Y-77018033D01*
X116092024Y-77012579D01*
X116087640Y-77006668D01*
X116083856Y-77000355D01*
X116080709Y-76993701D01*
X116078229Y-76986771D01*
X116076441Y-76979632D01*
X116075361Y-76972351D01*
X116075000Y-76965000D01*
X116075000Y-76290000D01*
X116075361Y-76282649D01*
X116076441Y-76275368D01*
X116078229Y-76268229D01*
X116080709Y-76261299D01*
X116083856Y-76254645D01*
X116087640Y-76248332D01*
X116092024Y-76242421D01*
X116096967Y-76236967D01*
X116102421Y-76232024D01*
X116108332Y-76227640D01*
X116114645Y-76223856D01*
X116121299Y-76220709D01*
X116128229Y-76218229D01*
X116135368Y-76216441D01*
X116142649Y-76215361D01*
X116150000Y-76215000D01*
X116300000Y-76215000D01*
X116307351Y-76215361D01*
X116307351Y-76215361D01*
G37*
D13*
X116225000Y-76627500D03*
D10*
G36*
X115657351Y-76215361D02*
G01*
X115664632Y-76216441D01*
X115671771Y-76218229D01*
X115678701Y-76220709D01*
X115685355Y-76223856D01*
X115691668Y-76227640D01*
X115697579Y-76232024D01*
X115703033Y-76236967D01*
X115707976Y-76242421D01*
X115712360Y-76248332D01*
X115716144Y-76254645D01*
X115719291Y-76261299D01*
X115721771Y-76268229D01*
X115723559Y-76275368D01*
X115724639Y-76282649D01*
X115725000Y-76290000D01*
X115725000Y-76965000D01*
X115724639Y-76972351D01*
X115723559Y-76979632D01*
X115721771Y-76986771D01*
X115719291Y-76993701D01*
X115716144Y-77000355D01*
X115712360Y-77006668D01*
X115707976Y-77012579D01*
X115703033Y-77018033D01*
X115697579Y-77022976D01*
X115691668Y-77027360D01*
X115685355Y-77031144D01*
X115678701Y-77034291D01*
X115671771Y-77036771D01*
X115664632Y-77038559D01*
X115657351Y-77039639D01*
X115650000Y-77040000D01*
X115500000Y-77040000D01*
X115492649Y-77039639D01*
X115485368Y-77038559D01*
X115478229Y-77036771D01*
X115471299Y-77034291D01*
X115464645Y-77031144D01*
X115458332Y-77027360D01*
X115452421Y-77022976D01*
X115446967Y-77018033D01*
X115442024Y-77012579D01*
X115437640Y-77006668D01*
X115433856Y-77000355D01*
X115430709Y-76993701D01*
X115428229Y-76986771D01*
X115426441Y-76979632D01*
X115425361Y-76972351D01*
X115425000Y-76965000D01*
X115425000Y-76290000D01*
X115425361Y-76282649D01*
X115426441Y-76275368D01*
X115428229Y-76268229D01*
X115430709Y-76261299D01*
X115433856Y-76254645D01*
X115437640Y-76248332D01*
X115442024Y-76242421D01*
X115446967Y-76236967D01*
X115452421Y-76232024D01*
X115458332Y-76227640D01*
X115464645Y-76223856D01*
X115471299Y-76220709D01*
X115478229Y-76218229D01*
X115485368Y-76216441D01*
X115492649Y-76215361D01*
X115500000Y-76215000D01*
X115650000Y-76215000D01*
X115657351Y-76215361D01*
X115657351Y-76215361D01*
G37*
D13*
X115575000Y-76627500D03*
D10*
G36*
X115007351Y-76215361D02*
G01*
X115014632Y-76216441D01*
X115021771Y-76218229D01*
X115028701Y-76220709D01*
X115035355Y-76223856D01*
X115041668Y-76227640D01*
X115047579Y-76232024D01*
X115053033Y-76236967D01*
X115057976Y-76242421D01*
X115062360Y-76248332D01*
X115066144Y-76254645D01*
X115069291Y-76261299D01*
X115071771Y-76268229D01*
X115073559Y-76275368D01*
X115074639Y-76282649D01*
X115075000Y-76290000D01*
X115075000Y-76965000D01*
X115074639Y-76972351D01*
X115073559Y-76979632D01*
X115071771Y-76986771D01*
X115069291Y-76993701D01*
X115066144Y-77000355D01*
X115062360Y-77006668D01*
X115057976Y-77012579D01*
X115053033Y-77018033D01*
X115047579Y-77022976D01*
X115041668Y-77027360D01*
X115035355Y-77031144D01*
X115028701Y-77034291D01*
X115021771Y-77036771D01*
X115014632Y-77038559D01*
X115007351Y-77039639D01*
X115000000Y-77040000D01*
X114850000Y-77040000D01*
X114842649Y-77039639D01*
X114835368Y-77038559D01*
X114828229Y-77036771D01*
X114821299Y-77034291D01*
X114814645Y-77031144D01*
X114808332Y-77027360D01*
X114802421Y-77022976D01*
X114796967Y-77018033D01*
X114792024Y-77012579D01*
X114787640Y-77006668D01*
X114783856Y-77000355D01*
X114780709Y-76993701D01*
X114778229Y-76986771D01*
X114776441Y-76979632D01*
X114775361Y-76972351D01*
X114775000Y-76965000D01*
X114775000Y-76290000D01*
X114775361Y-76282649D01*
X114776441Y-76275368D01*
X114778229Y-76268229D01*
X114780709Y-76261299D01*
X114783856Y-76254645D01*
X114787640Y-76248332D01*
X114792024Y-76242421D01*
X114796967Y-76236967D01*
X114802421Y-76232024D01*
X114808332Y-76227640D01*
X114814645Y-76223856D01*
X114821299Y-76220709D01*
X114828229Y-76218229D01*
X114835368Y-76216441D01*
X114842649Y-76215361D01*
X114850000Y-76215000D01*
X115000000Y-76215000D01*
X115007351Y-76215361D01*
X115007351Y-76215361D01*
G37*
D13*
X114925000Y-76627500D03*
D10*
G36*
X114357351Y-76215361D02*
G01*
X114364632Y-76216441D01*
X114371771Y-76218229D01*
X114378701Y-76220709D01*
X114385355Y-76223856D01*
X114391668Y-76227640D01*
X114397579Y-76232024D01*
X114403033Y-76236967D01*
X114407976Y-76242421D01*
X114412360Y-76248332D01*
X114416144Y-76254645D01*
X114419291Y-76261299D01*
X114421771Y-76268229D01*
X114423559Y-76275368D01*
X114424639Y-76282649D01*
X114425000Y-76290000D01*
X114425000Y-76965000D01*
X114424639Y-76972351D01*
X114423559Y-76979632D01*
X114421771Y-76986771D01*
X114419291Y-76993701D01*
X114416144Y-77000355D01*
X114412360Y-77006668D01*
X114407976Y-77012579D01*
X114403033Y-77018033D01*
X114397579Y-77022976D01*
X114391668Y-77027360D01*
X114385355Y-77031144D01*
X114378701Y-77034291D01*
X114371771Y-77036771D01*
X114364632Y-77038559D01*
X114357351Y-77039639D01*
X114350000Y-77040000D01*
X114200000Y-77040000D01*
X114192649Y-77039639D01*
X114185368Y-77038559D01*
X114178229Y-77036771D01*
X114171299Y-77034291D01*
X114164645Y-77031144D01*
X114158332Y-77027360D01*
X114152421Y-77022976D01*
X114146967Y-77018033D01*
X114142024Y-77012579D01*
X114137640Y-77006668D01*
X114133856Y-77000355D01*
X114130709Y-76993701D01*
X114128229Y-76986771D01*
X114126441Y-76979632D01*
X114125361Y-76972351D01*
X114125000Y-76965000D01*
X114125000Y-76290000D01*
X114125361Y-76282649D01*
X114126441Y-76275368D01*
X114128229Y-76268229D01*
X114130709Y-76261299D01*
X114133856Y-76254645D01*
X114137640Y-76248332D01*
X114142024Y-76242421D01*
X114146967Y-76236967D01*
X114152421Y-76232024D01*
X114158332Y-76227640D01*
X114164645Y-76223856D01*
X114171299Y-76220709D01*
X114178229Y-76218229D01*
X114185368Y-76216441D01*
X114192649Y-76215361D01*
X114200000Y-76215000D01*
X114350000Y-76215000D01*
X114357351Y-76215361D01*
X114357351Y-76215361D01*
G37*
D13*
X114275000Y-76627500D03*
D10*
G36*
X126247839Y-76105999D02*
G01*
X126267981Y-76108987D01*
X126287734Y-76113935D01*
X126306907Y-76120795D01*
X126325315Y-76129501D01*
X126342781Y-76139970D01*
X126359137Y-76152100D01*
X126374225Y-76165775D01*
X126387900Y-76180863D01*
X126400030Y-76197219D01*
X126410499Y-76214685D01*
X126419205Y-76233093D01*
X126426065Y-76252266D01*
X126431013Y-76272019D01*
X126434001Y-76292161D01*
X126435000Y-76312500D01*
X126435000Y-76727500D01*
X126434001Y-76747839D01*
X126431013Y-76767981D01*
X126426065Y-76787734D01*
X126419205Y-76806907D01*
X126410499Y-76825315D01*
X126400030Y-76842781D01*
X126387900Y-76859137D01*
X126374225Y-76874225D01*
X126359137Y-76887900D01*
X126342781Y-76900030D01*
X126325315Y-76910499D01*
X126306907Y-76919205D01*
X126287734Y-76926065D01*
X126267981Y-76931013D01*
X126247839Y-76934001D01*
X126227500Y-76935000D01*
X125812500Y-76935000D01*
X125792161Y-76934001D01*
X125772019Y-76931013D01*
X125752266Y-76926065D01*
X125733093Y-76919205D01*
X125714685Y-76910499D01*
X125697219Y-76900030D01*
X125680863Y-76887900D01*
X125665775Y-76874225D01*
X125652100Y-76859137D01*
X125639970Y-76842781D01*
X125629501Y-76825315D01*
X125620795Y-76806907D01*
X125613935Y-76787734D01*
X125608987Y-76767981D01*
X125605999Y-76747839D01*
X125605000Y-76727500D01*
X125605000Y-76312500D01*
X125605999Y-76292161D01*
X125608987Y-76272019D01*
X125613935Y-76252266D01*
X125620795Y-76233093D01*
X125629501Y-76214685D01*
X125639970Y-76197219D01*
X125652100Y-76180863D01*
X125665775Y-76165775D01*
X125680863Y-76152100D01*
X125697219Y-76139970D01*
X125714685Y-76129501D01*
X125733093Y-76120795D01*
X125752266Y-76113935D01*
X125772019Y-76108987D01*
X125792161Y-76105999D01*
X125812500Y-76105000D01*
X126227500Y-76105000D01*
X126247839Y-76105999D01*
X126247839Y-76105999D01*
G37*
D14*
X126020000Y-76520000D03*
D10*
G36*
X126247839Y-77135999D02*
G01*
X126267981Y-77138987D01*
X126287734Y-77143935D01*
X126306907Y-77150795D01*
X126325315Y-77159501D01*
X126342781Y-77169970D01*
X126359137Y-77182100D01*
X126374225Y-77195775D01*
X126387900Y-77210863D01*
X126400030Y-77227219D01*
X126410499Y-77244685D01*
X126419205Y-77263093D01*
X126426065Y-77282266D01*
X126431013Y-77302019D01*
X126434001Y-77322161D01*
X126435000Y-77342500D01*
X126435000Y-77757500D01*
X126434001Y-77777839D01*
X126431013Y-77797981D01*
X126426065Y-77817734D01*
X126419205Y-77836907D01*
X126410499Y-77855315D01*
X126400030Y-77872781D01*
X126387900Y-77889137D01*
X126374225Y-77904225D01*
X126359137Y-77917900D01*
X126342781Y-77930030D01*
X126325315Y-77940499D01*
X126306907Y-77949205D01*
X126287734Y-77956065D01*
X126267981Y-77961013D01*
X126247839Y-77964001D01*
X126227500Y-77965000D01*
X125812500Y-77965000D01*
X125792161Y-77964001D01*
X125772019Y-77961013D01*
X125752266Y-77956065D01*
X125733093Y-77949205D01*
X125714685Y-77940499D01*
X125697219Y-77930030D01*
X125680863Y-77917900D01*
X125665775Y-77904225D01*
X125652100Y-77889137D01*
X125639970Y-77872781D01*
X125629501Y-77855315D01*
X125620795Y-77836907D01*
X125613935Y-77817734D01*
X125608987Y-77797981D01*
X125605999Y-77777839D01*
X125605000Y-77757500D01*
X125605000Y-77342500D01*
X125605999Y-77322161D01*
X125608987Y-77302019D01*
X125613935Y-77282266D01*
X125620795Y-77263093D01*
X125629501Y-77244685D01*
X125639970Y-77227219D01*
X125652100Y-77210863D01*
X125665775Y-77195775D01*
X125680863Y-77182100D01*
X125697219Y-77169970D01*
X125714685Y-77159501D01*
X125733093Y-77150795D01*
X125752266Y-77143935D01*
X125772019Y-77138987D01*
X125792161Y-77135999D01*
X125812500Y-77135000D01*
X126227500Y-77135000D01*
X126247839Y-77135999D01*
X126247839Y-77135999D01*
G37*
D14*
X126020000Y-77550000D03*
D10*
G36*
X126247839Y-78165999D02*
G01*
X126267981Y-78168987D01*
X126287734Y-78173935D01*
X126306907Y-78180795D01*
X126325315Y-78189501D01*
X126342781Y-78199970D01*
X126359137Y-78212100D01*
X126374225Y-78225775D01*
X126387900Y-78240863D01*
X126400030Y-78257219D01*
X126410499Y-78274685D01*
X126419205Y-78293093D01*
X126426065Y-78312266D01*
X126431013Y-78332019D01*
X126434001Y-78352161D01*
X126435000Y-78372500D01*
X126435000Y-78787500D01*
X126434001Y-78807839D01*
X126431013Y-78827981D01*
X126426065Y-78847734D01*
X126419205Y-78866907D01*
X126410499Y-78885315D01*
X126400030Y-78902781D01*
X126387900Y-78919137D01*
X126374225Y-78934225D01*
X126359137Y-78947900D01*
X126342781Y-78960030D01*
X126325315Y-78970499D01*
X126306907Y-78979205D01*
X126287734Y-78986065D01*
X126267981Y-78991013D01*
X126247839Y-78994001D01*
X126227500Y-78995000D01*
X125812500Y-78995000D01*
X125792161Y-78994001D01*
X125772019Y-78991013D01*
X125752266Y-78986065D01*
X125733093Y-78979205D01*
X125714685Y-78970499D01*
X125697219Y-78960030D01*
X125680863Y-78947900D01*
X125665775Y-78934225D01*
X125652100Y-78919137D01*
X125639970Y-78902781D01*
X125629501Y-78885315D01*
X125620795Y-78866907D01*
X125613935Y-78847734D01*
X125608987Y-78827981D01*
X125605999Y-78807839D01*
X125605000Y-78787500D01*
X125605000Y-78372500D01*
X125605999Y-78352161D01*
X125608987Y-78332019D01*
X125613935Y-78312266D01*
X125620795Y-78293093D01*
X125629501Y-78274685D01*
X125639970Y-78257219D01*
X125652100Y-78240863D01*
X125665775Y-78225775D01*
X125680863Y-78212100D01*
X125697219Y-78199970D01*
X125714685Y-78189501D01*
X125733093Y-78180795D01*
X125752266Y-78173935D01*
X125772019Y-78168987D01*
X125792161Y-78165999D01*
X125812500Y-78165000D01*
X126227500Y-78165000D01*
X126247839Y-78165999D01*
X126247839Y-78165999D01*
G37*
D14*
X126020000Y-78580000D03*
D10*
G36*
X127277839Y-76105999D02*
G01*
X127297981Y-76108987D01*
X127317734Y-76113935D01*
X127336907Y-76120795D01*
X127355315Y-76129501D01*
X127372781Y-76139970D01*
X127389137Y-76152100D01*
X127404225Y-76165775D01*
X127417900Y-76180863D01*
X127430030Y-76197219D01*
X127440499Y-76214685D01*
X127449205Y-76233093D01*
X127456065Y-76252266D01*
X127461013Y-76272019D01*
X127464001Y-76292161D01*
X127465000Y-76312500D01*
X127465000Y-76727500D01*
X127464001Y-76747839D01*
X127461013Y-76767981D01*
X127456065Y-76787734D01*
X127449205Y-76806907D01*
X127440499Y-76825315D01*
X127430030Y-76842781D01*
X127417900Y-76859137D01*
X127404225Y-76874225D01*
X127389137Y-76887900D01*
X127372781Y-76900030D01*
X127355315Y-76910499D01*
X127336907Y-76919205D01*
X127317734Y-76926065D01*
X127297981Y-76931013D01*
X127277839Y-76934001D01*
X127257500Y-76935000D01*
X126842500Y-76935000D01*
X126822161Y-76934001D01*
X126802019Y-76931013D01*
X126782266Y-76926065D01*
X126763093Y-76919205D01*
X126744685Y-76910499D01*
X126727219Y-76900030D01*
X126710863Y-76887900D01*
X126695775Y-76874225D01*
X126682100Y-76859137D01*
X126669970Y-76842781D01*
X126659501Y-76825315D01*
X126650795Y-76806907D01*
X126643935Y-76787734D01*
X126638987Y-76767981D01*
X126635999Y-76747839D01*
X126635000Y-76727500D01*
X126635000Y-76312500D01*
X126635999Y-76292161D01*
X126638987Y-76272019D01*
X126643935Y-76252266D01*
X126650795Y-76233093D01*
X126659501Y-76214685D01*
X126669970Y-76197219D01*
X126682100Y-76180863D01*
X126695775Y-76165775D01*
X126710863Y-76152100D01*
X126727219Y-76139970D01*
X126744685Y-76129501D01*
X126763093Y-76120795D01*
X126782266Y-76113935D01*
X126802019Y-76108987D01*
X126822161Y-76105999D01*
X126842500Y-76105000D01*
X127257500Y-76105000D01*
X127277839Y-76105999D01*
X127277839Y-76105999D01*
G37*
D14*
X127050000Y-76520000D03*
D10*
G36*
X127277839Y-77135999D02*
G01*
X127297981Y-77138987D01*
X127317734Y-77143935D01*
X127336907Y-77150795D01*
X127355315Y-77159501D01*
X127372781Y-77169970D01*
X127389137Y-77182100D01*
X127404225Y-77195775D01*
X127417900Y-77210863D01*
X127430030Y-77227219D01*
X127440499Y-77244685D01*
X127449205Y-77263093D01*
X127456065Y-77282266D01*
X127461013Y-77302019D01*
X127464001Y-77322161D01*
X127465000Y-77342500D01*
X127465000Y-77757500D01*
X127464001Y-77777839D01*
X127461013Y-77797981D01*
X127456065Y-77817734D01*
X127449205Y-77836907D01*
X127440499Y-77855315D01*
X127430030Y-77872781D01*
X127417900Y-77889137D01*
X127404225Y-77904225D01*
X127389137Y-77917900D01*
X127372781Y-77930030D01*
X127355315Y-77940499D01*
X127336907Y-77949205D01*
X127317734Y-77956065D01*
X127297981Y-77961013D01*
X127277839Y-77964001D01*
X127257500Y-77965000D01*
X126842500Y-77965000D01*
X126822161Y-77964001D01*
X126802019Y-77961013D01*
X126782266Y-77956065D01*
X126763093Y-77949205D01*
X126744685Y-77940499D01*
X126727219Y-77930030D01*
X126710863Y-77917900D01*
X126695775Y-77904225D01*
X126682100Y-77889137D01*
X126669970Y-77872781D01*
X126659501Y-77855315D01*
X126650795Y-77836907D01*
X126643935Y-77817734D01*
X126638987Y-77797981D01*
X126635999Y-77777839D01*
X126635000Y-77757500D01*
X126635000Y-77342500D01*
X126635999Y-77322161D01*
X126638987Y-77302019D01*
X126643935Y-77282266D01*
X126650795Y-77263093D01*
X126659501Y-77244685D01*
X126669970Y-77227219D01*
X126682100Y-77210863D01*
X126695775Y-77195775D01*
X126710863Y-77182100D01*
X126727219Y-77169970D01*
X126744685Y-77159501D01*
X126763093Y-77150795D01*
X126782266Y-77143935D01*
X126802019Y-77138987D01*
X126822161Y-77135999D01*
X126842500Y-77135000D01*
X127257500Y-77135000D01*
X127277839Y-77135999D01*
X127277839Y-77135999D01*
G37*
D14*
X127050000Y-77550000D03*
D10*
G36*
X127277839Y-78165999D02*
G01*
X127297981Y-78168987D01*
X127317734Y-78173935D01*
X127336907Y-78180795D01*
X127355315Y-78189501D01*
X127372781Y-78199970D01*
X127389137Y-78212100D01*
X127404225Y-78225775D01*
X127417900Y-78240863D01*
X127430030Y-78257219D01*
X127440499Y-78274685D01*
X127449205Y-78293093D01*
X127456065Y-78312266D01*
X127461013Y-78332019D01*
X127464001Y-78352161D01*
X127465000Y-78372500D01*
X127465000Y-78787500D01*
X127464001Y-78807839D01*
X127461013Y-78827981D01*
X127456065Y-78847734D01*
X127449205Y-78866907D01*
X127440499Y-78885315D01*
X127430030Y-78902781D01*
X127417900Y-78919137D01*
X127404225Y-78934225D01*
X127389137Y-78947900D01*
X127372781Y-78960030D01*
X127355315Y-78970499D01*
X127336907Y-78979205D01*
X127317734Y-78986065D01*
X127297981Y-78991013D01*
X127277839Y-78994001D01*
X127257500Y-78995000D01*
X126842500Y-78995000D01*
X126822161Y-78994001D01*
X126802019Y-78991013D01*
X126782266Y-78986065D01*
X126763093Y-78979205D01*
X126744685Y-78970499D01*
X126727219Y-78960030D01*
X126710863Y-78947900D01*
X126695775Y-78934225D01*
X126682100Y-78919137D01*
X126669970Y-78902781D01*
X126659501Y-78885315D01*
X126650795Y-78866907D01*
X126643935Y-78847734D01*
X126638987Y-78827981D01*
X126635999Y-78807839D01*
X126635000Y-78787500D01*
X126635000Y-78372500D01*
X126635999Y-78352161D01*
X126638987Y-78332019D01*
X126643935Y-78312266D01*
X126650795Y-78293093D01*
X126659501Y-78274685D01*
X126669970Y-78257219D01*
X126682100Y-78240863D01*
X126695775Y-78225775D01*
X126710863Y-78212100D01*
X126727219Y-78199970D01*
X126744685Y-78189501D01*
X126763093Y-78180795D01*
X126782266Y-78173935D01*
X126802019Y-78168987D01*
X126822161Y-78165999D01*
X126842500Y-78165000D01*
X127257500Y-78165000D01*
X127277839Y-78165999D01*
X127277839Y-78165999D01*
G37*
D14*
X127050000Y-78580000D03*
D10*
G36*
X128307839Y-76105999D02*
G01*
X128327981Y-76108987D01*
X128347734Y-76113935D01*
X128366907Y-76120795D01*
X128385315Y-76129501D01*
X128402781Y-76139970D01*
X128419137Y-76152100D01*
X128434225Y-76165775D01*
X128447900Y-76180863D01*
X128460030Y-76197219D01*
X128470499Y-76214685D01*
X128479205Y-76233093D01*
X128486065Y-76252266D01*
X128491013Y-76272019D01*
X128494001Y-76292161D01*
X128495000Y-76312500D01*
X128495000Y-76727500D01*
X128494001Y-76747839D01*
X128491013Y-76767981D01*
X128486065Y-76787734D01*
X128479205Y-76806907D01*
X128470499Y-76825315D01*
X128460030Y-76842781D01*
X128447900Y-76859137D01*
X128434225Y-76874225D01*
X128419137Y-76887900D01*
X128402781Y-76900030D01*
X128385315Y-76910499D01*
X128366907Y-76919205D01*
X128347734Y-76926065D01*
X128327981Y-76931013D01*
X128307839Y-76934001D01*
X128287500Y-76935000D01*
X127872500Y-76935000D01*
X127852161Y-76934001D01*
X127832019Y-76931013D01*
X127812266Y-76926065D01*
X127793093Y-76919205D01*
X127774685Y-76910499D01*
X127757219Y-76900030D01*
X127740863Y-76887900D01*
X127725775Y-76874225D01*
X127712100Y-76859137D01*
X127699970Y-76842781D01*
X127689501Y-76825315D01*
X127680795Y-76806907D01*
X127673935Y-76787734D01*
X127668987Y-76767981D01*
X127665999Y-76747839D01*
X127665000Y-76727500D01*
X127665000Y-76312500D01*
X127665999Y-76292161D01*
X127668987Y-76272019D01*
X127673935Y-76252266D01*
X127680795Y-76233093D01*
X127689501Y-76214685D01*
X127699970Y-76197219D01*
X127712100Y-76180863D01*
X127725775Y-76165775D01*
X127740863Y-76152100D01*
X127757219Y-76139970D01*
X127774685Y-76129501D01*
X127793093Y-76120795D01*
X127812266Y-76113935D01*
X127832019Y-76108987D01*
X127852161Y-76105999D01*
X127872500Y-76105000D01*
X128287500Y-76105000D01*
X128307839Y-76105999D01*
X128307839Y-76105999D01*
G37*
D14*
X128080000Y-76520000D03*
D10*
G36*
X128307839Y-77135999D02*
G01*
X128327981Y-77138987D01*
X128347734Y-77143935D01*
X128366907Y-77150795D01*
X128385315Y-77159501D01*
X128402781Y-77169970D01*
X128419137Y-77182100D01*
X128434225Y-77195775D01*
X128447900Y-77210863D01*
X128460030Y-77227219D01*
X128470499Y-77244685D01*
X128479205Y-77263093D01*
X128486065Y-77282266D01*
X128491013Y-77302019D01*
X128494001Y-77322161D01*
X128495000Y-77342500D01*
X128495000Y-77757500D01*
X128494001Y-77777839D01*
X128491013Y-77797981D01*
X128486065Y-77817734D01*
X128479205Y-77836907D01*
X128470499Y-77855315D01*
X128460030Y-77872781D01*
X128447900Y-77889137D01*
X128434225Y-77904225D01*
X128419137Y-77917900D01*
X128402781Y-77930030D01*
X128385315Y-77940499D01*
X128366907Y-77949205D01*
X128347734Y-77956065D01*
X128327981Y-77961013D01*
X128307839Y-77964001D01*
X128287500Y-77965000D01*
X127872500Y-77965000D01*
X127852161Y-77964001D01*
X127832019Y-77961013D01*
X127812266Y-77956065D01*
X127793093Y-77949205D01*
X127774685Y-77940499D01*
X127757219Y-77930030D01*
X127740863Y-77917900D01*
X127725775Y-77904225D01*
X127712100Y-77889137D01*
X127699970Y-77872781D01*
X127689501Y-77855315D01*
X127680795Y-77836907D01*
X127673935Y-77817734D01*
X127668987Y-77797981D01*
X127665999Y-77777839D01*
X127665000Y-77757500D01*
X127665000Y-77342500D01*
X127665999Y-77322161D01*
X127668987Y-77302019D01*
X127673935Y-77282266D01*
X127680795Y-77263093D01*
X127689501Y-77244685D01*
X127699970Y-77227219D01*
X127712100Y-77210863D01*
X127725775Y-77195775D01*
X127740863Y-77182100D01*
X127757219Y-77169970D01*
X127774685Y-77159501D01*
X127793093Y-77150795D01*
X127812266Y-77143935D01*
X127832019Y-77138987D01*
X127852161Y-77135999D01*
X127872500Y-77135000D01*
X128287500Y-77135000D01*
X128307839Y-77135999D01*
X128307839Y-77135999D01*
G37*
D14*
X128080000Y-77550000D03*
D10*
G36*
X128307839Y-78165999D02*
G01*
X128327981Y-78168987D01*
X128347734Y-78173935D01*
X128366907Y-78180795D01*
X128385315Y-78189501D01*
X128402781Y-78199970D01*
X128419137Y-78212100D01*
X128434225Y-78225775D01*
X128447900Y-78240863D01*
X128460030Y-78257219D01*
X128470499Y-78274685D01*
X128479205Y-78293093D01*
X128486065Y-78312266D01*
X128491013Y-78332019D01*
X128494001Y-78352161D01*
X128495000Y-78372500D01*
X128495000Y-78787500D01*
X128494001Y-78807839D01*
X128491013Y-78827981D01*
X128486065Y-78847734D01*
X128479205Y-78866907D01*
X128470499Y-78885315D01*
X128460030Y-78902781D01*
X128447900Y-78919137D01*
X128434225Y-78934225D01*
X128419137Y-78947900D01*
X128402781Y-78960030D01*
X128385315Y-78970499D01*
X128366907Y-78979205D01*
X128347734Y-78986065D01*
X128327981Y-78991013D01*
X128307839Y-78994001D01*
X128287500Y-78995000D01*
X127872500Y-78995000D01*
X127852161Y-78994001D01*
X127832019Y-78991013D01*
X127812266Y-78986065D01*
X127793093Y-78979205D01*
X127774685Y-78970499D01*
X127757219Y-78960030D01*
X127740863Y-78947900D01*
X127725775Y-78934225D01*
X127712100Y-78919137D01*
X127699970Y-78902781D01*
X127689501Y-78885315D01*
X127680795Y-78866907D01*
X127673935Y-78847734D01*
X127668987Y-78827981D01*
X127665999Y-78807839D01*
X127665000Y-78787500D01*
X127665000Y-78372500D01*
X127665999Y-78352161D01*
X127668987Y-78332019D01*
X127673935Y-78312266D01*
X127680795Y-78293093D01*
X127689501Y-78274685D01*
X127699970Y-78257219D01*
X127712100Y-78240863D01*
X127725775Y-78225775D01*
X127740863Y-78212100D01*
X127757219Y-78199970D01*
X127774685Y-78189501D01*
X127793093Y-78180795D01*
X127812266Y-78173935D01*
X127832019Y-78168987D01*
X127852161Y-78165999D01*
X127872500Y-78165000D01*
X128287500Y-78165000D01*
X128307839Y-78165999D01*
X128307839Y-78165999D01*
G37*
D14*
X128080000Y-78580000D03*
D10*
G36*
X124993626Y-75675301D02*
G01*
X124999693Y-75676201D01*
X125005643Y-75677691D01*
X125011418Y-75679758D01*
X125016962Y-75682380D01*
X125022223Y-75685533D01*
X125027150Y-75689187D01*
X125031694Y-75693306D01*
X125035813Y-75697850D01*
X125039467Y-75702777D01*
X125042620Y-75708038D01*
X125045242Y-75713582D01*
X125047309Y-75719357D01*
X125048799Y-75725307D01*
X125049699Y-75731374D01*
X125050000Y-75737500D01*
X125050000Y-75862500D01*
X125049699Y-75868626D01*
X125048799Y-75874693D01*
X125047309Y-75880643D01*
X125045242Y-75886418D01*
X125042620Y-75891962D01*
X125039467Y-75897223D01*
X125035813Y-75902150D01*
X125031694Y-75906694D01*
X125027150Y-75910813D01*
X125022223Y-75914467D01*
X125016962Y-75917620D01*
X125011418Y-75920242D01*
X125005643Y-75922309D01*
X124999693Y-75923799D01*
X124993626Y-75924699D01*
X124987500Y-75925000D01*
X124237500Y-75925000D01*
X124231374Y-75924699D01*
X124225307Y-75923799D01*
X124219357Y-75922309D01*
X124213582Y-75920242D01*
X124208038Y-75917620D01*
X124202777Y-75914467D01*
X124197850Y-75910813D01*
X124193306Y-75906694D01*
X124189187Y-75902150D01*
X124185533Y-75897223D01*
X124182380Y-75891962D01*
X124179758Y-75886418D01*
X124177691Y-75880643D01*
X124176201Y-75874693D01*
X124175301Y-75868626D01*
X124175000Y-75862500D01*
X124175000Y-75737500D01*
X124175301Y-75731374D01*
X124176201Y-75725307D01*
X124177691Y-75719357D01*
X124179758Y-75713582D01*
X124182380Y-75708038D01*
X124185533Y-75702777D01*
X124189187Y-75697850D01*
X124193306Y-75693306D01*
X124197850Y-75689187D01*
X124202777Y-75685533D01*
X124208038Y-75682380D01*
X124213582Y-75679758D01*
X124219357Y-75677691D01*
X124225307Y-75676201D01*
X124231374Y-75675301D01*
X124237500Y-75675000D01*
X124987500Y-75675000D01*
X124993626Y-75675301D01*
X124993626Y-75675301D01*
G37*
D15*
X124612500Y-75800000D03*
D10*
G36*
X124993626Y-76175301D02*
G01*
X124999693Y-76176201D01*
X125005643Y-76177691D01*
X125011418Y-76179758D01*
X125016962Y-76182380D01*
X125022223Y-76185533D01*
X125027150Y-76189187D01*
X125031694Y-76193306D01*
X125035813Y-76197850D01*
X125039467Y-76202777D01*
X125042620Y-76208038D01*
X125045242Y-76213582D01*
X125047309Y-76219357D01*
X125048799Y-76225307D01*
X125049699Y-76231374D01*
X125050000Y-76237500D01*
X125050000Y-76362500D01*
X125049699Y-76368626D01*
X125048799Y-76374693D01*
X125047309Y-76380643D01*
X125045242Y-76386418D01*
X125042620Y-76391962D01*
X125039467Y-76397223D01*
X125035813Y-76402150D01*
X125031694Y-76406694D01*
X125027150Y-76410813D01*
X125022223Y-76414467D01*
X125016962Y-76417620D01*
X125011418Y-76420242D01*
X125005643Y-76422309D01*
X124999693Y-76423799D01*
X124993626Y-76424699D01*
X124987500Y-76425000D01*
X124237500Y-76425000D01*
X124231374Y-76424699D01*
X124225307Y-76423799D01*
X124219357Y-76422309D01*
X124213582Y-76420242D01*
X124208038Y-76417620D01*
X124202777Y-76414467D01*
X124197850Y-76410813D01*
X124193306Y-76406694D01*
X124189187Y-76402150D01*
X124185533Y-76397223D01*
X124182380Y-76391962D01*
X124179758Y-76386418D01*
X124177691Y-76380643D01*
X124176201Y-76374693D01*
X124175301Y-76368626D01*
X124175000Y-76362500D01*
X124175000Y-76237500D01*
X124175301Y-76231374D01*
X124176201Y-76225307D01*
X124177691Y-76219357D01*
X124179758Y-76213582D01*
X124182380Y-76208038D01*
X124185533Y-76202777D01*
X124189187Y-76197850D01*
X124193306Y-76193306D01*
X124197850Y-76189187D01*
X124202777Y-76185533D01*
X124208038Y-76182380D01*
X124213582Y-76179758D01*
X124219357Y-76177691D01*
X124225307Y-76176201D01*
X124231374Y-76175301D01*
X124237500Y-76175000D01*
X124987500Y-76175000D01*
X124993626Y-76175301D01*
X124993626Y-76175301D01*
G37*
D15*
X124612500Y-76300000D03*
D10*
G36*
X124993626Y-76675301D02*
G01*
X124999693Y-76676201D01*
X125005643Y-76677691D01*
X125011418Y-76679758D01*
X125016962Y-76682380D01*
X125022223Y-76685533D01*
X125027150Y-76689187D01*
X125031694Y-76693306D01*
X125035813Y-76697850D01*
X125039467Y-76702777D01*
X125042620Y-76708038D01*
X125045242Y-76713582D01*
X125047309Y-76719357D01*
X125048799Y-76725307D01*
X125049699Y-76731374D01*
X125050000Y-76737500D01*
X125050000Y-76862500D01*
X125049699Y-76868626D01*
X125048799Y-76874693D01*
X125047309Y-76880643D01*
X125045242Y-76886418D01*
X125042620Y-76891962D01*
X125039467Y-76897223D01*
X125035813Y-76902150D01*
X125031694Y-76906694D01*
X125027150Y-76910813D01*
X125022223Y-76914467D01*
X125016962Y-76917620D01*
X125011418Y-76920242D01*
X125005643Y-76922309D01*
X124999693Y-76923799D01*
X124993626Y-76924699D01*
X124987500Y-76925000D01*
X124237500Y-76925000D01*
X124231374Y-76924699D01*
X124225307Y-76923799D01*
X124219357Y-76922309D01*
X124213582Y-76920242D01*
X124208038Y-76917620D01*
X124202777Y-76914467D01*
X124197850Y-76910813D01*
X124193306Y-76906694D01*
X124189187Y-76902150D01*
X124185533Y-76897223D01*
X124182380Y-76891962D01*
X124179758Y-76886418D01*
X124177691Y-76880643D01*
X124176201Y-76874693D01*
X124175301Y-76868626D01*
X124175000Y-76862500D01*
X124175000Y-76737500D01*
X124175301Y-76731374D01*
X124176201Y-76725307D01*
X124177691Y-76719357D01*
X124179758Y-76713582D01*
X124182380Y-76708038D01*
X124185533Y-76702777D01*
X124189187Y-76697850D01*
X124193306Y-76693306D01*
X124197850Y-76689187D01*
X124202777Y-76685533D01*
X124208038Y-76682380D01*
X124213582Y-76679758D01*
X124219357Y-76677691D01*
X124225307Y-76676201D01*
X124231374Y-76675301D01*
X124237500Y-76675000D01*
X124987500Y-76675000D01*
X124993626Y-76675301D01*
X124993626Y-76675301D01*
G37*
D15*
X124612500Y-76800000D03*
D10*
G36*
X124993626Y-77175301D02*
G01*
X124999693Y-77176201D01*
X125005643Y-77177691D01*
X125011418Y-77179758D01*
X125016962Y-77182380D01*
X125022223Y-77185533D01*
X125027150Y-77189187D01*
X125031694Y-77193306D01*
X125035813Y-77197850D01*
X125039467Y-77202777D01*
X125042620Y-77208038D01*
X125045242Y-77213582D01*
X125047309Y-77219357D01*
X125048799Y-77225307D01*
X125049699Y-77231374D01*
X125050000Y-77237500D01*
X125050000Y-77362500D01*
X125049699Y-77368626D01*
X125048799Y-77374693D01*
X125047309Y-77380643D01*
X125045242Y-77386418D01*
X125042620Y-77391962D01*
X125039467Y-77397223D01*
X125035813Y-77402150D01*
X125031694Y-77406694D01*
X125027150Y-77410813D01*
X125022223Y-77414467D01*
X125016962Y-77417620D01*
X125011418Y-77420242D01*
X125005643Y-77422309D01*
X124999693Y-77423799D01*
X124993626Y-77424699D01*
X124987500Y-77425000D01*
X124237500Y-77425000D01*
X124231374Y-77424699D01*
X124225307Y-77423799D01*
X124219357Y-77422309D01*
X124213582Y-77420242D01*
X124208038Y-77417620D01*
X124202777Y-77414467D01*
X124197850Y-77410813D01*
X124193306Y-77406694D01*
X124189187Y-77402150D01*
X124185533Y-77397223D01*
X124182380Y-77391962D01*
X124179758Y-77386418D01*
X124177691Y-77380643D01*
X124176201Y-77374693D01*
X124175301Y-77368626D01*
X124175000Y-77362500D01*
X124175000Y-77237500D01*
X124175301Y-77231374D01*
X124176201Y-77225307D01*
X124177691Y-77219357D01*
X124179758Y-77213582D01*
X124182380Y-77208038D01*
X124185533Y-77202777D01*
X124189187Y-77197850D01*
X124193306Y-77193306D01*
X124197850Y-77189187D01*
X124202777Y-77185533D01*
X124208038Y-77182380D01*
X124213582Y-77179758D01*
X124219357Y-77177691D01*
X124225307Y-77176201D01*
X124231374Y-77175301D01*
X124237500Y-77175000D01*
X124987500Y-77175000D01*
X124993626Y-77175301D01*
X124993626Y-77175301D01*
G37*
D15*
X124612500Y-77300000D03*
D10*
G36*
X124993626Y-77675301D02*
G01*
X124999693Y-77676201D01*
X125005643Y-77677691D01*
X125011418Y-77679758D01*
X125016962Y-77682380D01*
X125022223Y-77685533D01*
X125027150Y-77689187D01*
X125031694Y-77693306D01*
X125035813Y-77697850D01*
X125039467Y-77702777D01*
X125042620Y-77708038D01*
X125045242Y-77713582D01*
X125047309Y-77719357D01*
X125048799Y-77725307D01*
X125049699Y-77731374D01*
X125050000Y-77737500D01*
X125050000Y-77862500D01*
X125049699Y-77868626D01*
X125048799Y-77874693D01*
X125047309Y-77880643D01*
X125045242Y-77886418D01*
X125042620Y-77891962D01*
X125039467Y-77897223D01*
X125035813Y-77902150D01*
X125031694Y-77906694D01*
X125027150Y-77910813D01*
X125022223Y-77914467D01*
X125016962Y-77917620D01*
X125011418Y-77920242D01*
X125005643Y-77922309D01*
X124999693Y-77923799D01*
X124993626Y-77924699D01*
X124987500Y-77925000D01*
X124237500Y-77925000D01*
X124231374Y-77924699D01*
X124225307Y-77923799D01*
X124219357Y-77922309D01*
X124213582Y-77920242D01*
X124208038Y-77917620D01*
X124202777Y-77914467D01*
X124197850Y-77910813D01*
X124193306Y-77906694D01*
X124189187Y-77902150D01*
X124185533Y-77897223D01*
X124182380Y-77891962D01*
X124179758Y-77886418D01*
X124177691Y-77880643D01*
X124176201Y-77874693D01*
X124175301Y-77868626D01*
X124175000Y-77862500D01*
X124175000Y-77737500D01*
X124175301Y-77731374D01*
X124176201Y-77725307D01*
X124177691Y-77719357D01*
X124179758Y-77713582D01*
X124182380Y-77708038D01*
X124185533Y-77702777D01*
X124189187Y-77697850D01*
X124193306Y-77693306D01*
X124197850Y-77689187D01*
X124202777Y-77685533D01*
X124208038Y-77682380D01*
X124213582Y-77679758D01*
X124219357Y-77677691D01*
X124225307Y-77676201D01*
X124231374Y-77675301D01*
X124237500Y-77675000D01*
X124987500Y-77675000D01*
X124993626Y-77675301D01*
X124993626Y-77675301D01*
G37*
D15*
X124612500Y-77800000D03*
D10*
G36*
X124993626Y-78175301D02*
G01*
X124999693Y-78176201D01*
X125005643Y-78177691D01*
X125011418Y-78179758D01*
X125016962Y-78182380D01*
X125022223Y-78185533D01*
X125027150Y-78189187D01*
X125031694Y-78193306D01*
X125035813Y-78197850D01*
X125039467Y-78202777D01*
X125042620Y-78208038D01*
X125045242Y-78213582D01*
X125047309Y-78219357D01*
X125048799Y-78225307D01*
X125049699Y-78231374D01*
X125050000Y-78237500D01*
X125050000Y-78362500D01*
X125049699Y-78368626D01*
X125048799Y-78374693D01*
X125047309Y-78380643D01*
X125045242Y-78386418D01*
X125042620Y-78391962D01*
X125039467Y-78397223D01*
X125035813Y-78402150D01*
X125031694Y-78406694D01*
X125027150Y-78410813D01*
X125022223Y-78414467D01*
X125016962Y-78417620D01*
X125011418Y-78420242D01*
X125005643Y-78422309D01*
X124999693Y-78423799D01*
X124993626Y-78424699D01*
X124987500Y-78425000D01*
X124237500Y-78425000D01*
X124231374Y-78424699D01*
X124225307Y-78423799D01*
X124219357Y-78422309D01*
X124213582Y-78420242D01*
X124208038Y-78417620D01*
X124202777Y-78414467D01*
X124197850Y-78410813D01*
X124193306Y-78406694D01*
X124189187Y-78402150D01*
X124185533Y-78397223D01*
X124182380Y-78391962D01*
X124179758Y-78386418D01*
X124177691Y-78380643D01*
X124176201Y-78374693D01*
X124175301Y-78368626D01*
X124175000Y-78362500D01*
X124175000Y-78237500D01*
X124175301Y-78231374D01*
X124176201Y-78225307D01*
X124177691Y-78219357D01*
X124179758Y-78213582D01*
X124182380Y-78208038D01*
X124185533Y-78202777D01*
X124189187Y-78197850D01*
X124193306Y-78193306D01*
X124197850Y-78189187D01*
X124202777Y-78185533D01*
X124208038Y-78182380D01*
X124213582Y-78179758D01*
X124219357Y-78177691D01*
X124225307Y-78176201D01*
X124231374Y-78175301D01*
X124237500Y-78175000D01*
X124987500Y-78175000D01*
X124993626Y-78175301D01*
X124993626Y-78175301D01*
G37*
D15*
X124612500Y-78300000D03*
D10*
G36*
X124993626Y-78675301D02*
G01*
X124999693Y-78676201D01*
X125005643Y-78677691D01*
X125011418Y-78679758D01*
X125016962Y-78682380D01*
X125022223Y-78685533D01*
X125027150Y-78689187D01*
X125031694Y-78693306D01*
X125035813Y-78697850D01*
X125039467Y-78702777D01*
X125042620Y-78708038D01*
X125045242Y-78713582D01*
X125047309Y-78719357D01*
X125048799Y-78725307D01*
X125049699Y-78731374D01*
X125050000Y-78737500D01*
X125050000Y-78862500D01*
X125049699Y-78868626D01*
X125048799Y-78874693D01*
X125047309Y-78880643D01*
X125045242Y-78886418D01*
X125042620Y-78891962D01*
X125039467Y-78897223D01*
X125035813Y-78902150D01*
X125031694Y-78906694D01*
X125027150Y-78910813D01*
X125022223Y-78914467D01*
X125016962Y-78917620D01*
X125011418Y-78920242D01*
X125005643Y-78922309D01*
X124999693Y-78923799D01*
X124993626Y-78924699D01*
X124987500Y-78925000D01*
X124237500Y-78925000D01*
X124231374Y-78924699D01*
X124225307Y-78923799D01*
X124219357Y-78922309D01*
X124213582Y-78920242D01*
X124208038Y-78917620D01*
X124202777Y-78914467D01*
X124197850Y-78910813D01*
X124193306Y-78906694D01*
X124189187Y-78902150D01*
X124185533Y-78897223D01*
X124182380Y-78891962D01*
X124179758Y-78886418D01*
X124177691Y-78880643D01*
X124176201Y-78874693D01*
X124175301Y-78868626D01*
X124175000Y-78862500D01*
X124175000Y-78737500D01*
X124175301Y-78731374D01*
X124176201Y-78725307D01*
X124177691Y-78719357D01*
X124179758Y-78713582D01*
X124182380Y-78708038D01*
X124185533Y-78702777D01*
X124189187Y-78697850D01*
X124193306Y-78693306D01*
X124197850Y-78689187D01*
X124202777Y-78685533D01*
X124208038Y-78682380D01*
X124213582Y-78679758D01*
X124219357Y-78677691D01*
X124225307Y-78676201D01*
X124231374Y-78675301D01*
X124237500Y-78675000D01*
X124987500Y-78675000D01*
X124993626Y-78675301D01*
X124993626Y-78675301D01*
G37*
D15*
X124612500Y-78800000D03*
D10*
G36*
X124993626Y-79175301D02*
G01*
X124999693Y-79176201D01*
X125005643Y-79177691D01*
X125011418Y-79179758D01*
X125016962Y-79182380D01*
X125022223Y-79185533D01*
X125027150Y-79189187D01*
X125031694Y-79193306D01*
X125035813Y-79197850D01*
X125039467Y-79202777D01*
X125042620Y-79208038D01*
X125045242Y-79213582D01*
X125047309Y-79219357D01*
X125048799Y-79225307D01*
X125049699Y-79231374D01*
X125050000Y-79237500D01*
X125050000Y-79362500D01*
X125049699Y-79368626D01*
X125048799Y-79374693D01*
X125047309Y-79380643D01*
X125045242Y-79386418D01*
X125042620Y-79391962D01*
X125039467Y-79397223D01*
X125035813Y-79402150D01*
X125031694Y-79406694D01*
X125027150Y-79410813D01*
X125022223Y-79414467D01*
X125016962Y-79417620D01*
X125011418Y-79420242D01*
X125005643Y-79422309D01*
X124999693Y-79423799D01*
X124993626Y-79424699D01*
X124987500Y-79425000D01*
X124237500Y-79425000D01*
X124231374Y-79424699D01*
X124225307Y-79423799D01*
X124219357Y-79422309D01*
X124213582Y-79420242D01*
X124208038Y-79417620D01*
X124202777Y-79414467D01*
X124197850Y-79410813D01*
X124193306Y-79406694D01*
X124189187Y-79402150D01*
X124185533Y-79397223D01*
X124182380Y-79391962D01*
X124179758Y-79386418D01*
X124177691Y-79380643D01*
X124176201Y-79374693D01*
X124175301Y-79368626D01*
X124175000Y-79362500D01*
X124175000Y-79237500D01*
X124175301Y-79231374D01*
X124176201Y-79225307D01*
X124177691Y-79219357D01*
X124179758Y-79213582D01*
X124182380Y-79208038D01*
X124185533Y-79202777D01*
X124189187Y-79197850D01*
X124193306Y-79193306D01*
X124197850Y-79189187D01*
X124202777Y-79185533D01*
X124208038Y-79182380D01*
X124213582Y-79179758D01*
X124219357Y-79177691D01*
X124225307Y-79176201D01*
X124231374Y-79175301D01*
X124237500Y-79175000D01*
X124987500Y-79175000D01*
X124993626Y-79175301D01*
X124993626Y-79175301D01*
G37*
D15*
X124612500Y-79300000D03*
D10*
G36*
X125368626Y-79550301D02*
G01*
X125374693Y-79551201D01*
X125380643Y-79552691D01*
X125386418Y-79554758D01*
X125391962Y-79557380D01*
X125397223Y-79560533D01*
X125402150Y-79564187D01*
X125406694Y-79568306D01*
X125410813Y-79572850D01*
X125414467Y-79577777D01*
X125417620Y-79583038D01*
X125420242Y-79588582D01*
X125422309Y-79594357D01*
X125423799Y-79600307D01*
X125424699Y-79606374D01*
X125425000Y-79612500D01*
X125425000Y-80362500D01*
X125424699Y-80368626D01*
X125423799Y-80374693D01*
X125422309Y-80380643D01*
X125420242Y-80386418D01*
X125417620Y-80391962D01*
X125414467Y-80397223D01*
X125410813Y-80402150D01*
X125406694Y-80406694D01*
X125402150Y-80410813D01*
X125397223Y-80414467D01*
X125391962Y-80417620D01*
X125386418Y-80420242D01*
X125380643Y-80422309D01*
X125374693Y-80423799D01*
X125368626Y-80424699D01*
X125362500Y-80425000D01*
X125237500Y-80425000D01*
X125231374Y-80424699D01*
X125225307Y-80423799D01*
X125219357Y-80422309D01*
X125213582Y-80420242D01*
X125208038Y-80417620D01*
X125202777Y-80414467D01*
X125197850Y-80410813D01*
X125193306Y-80406694D01*
X125189187Y-80402150D01*
X125185533Y-80397223D01*
X125182380Y-80391962D01*
X125179758Y-80386418D01*
X125177691Y-80380643D01*
X125176201Y-80374693D01*
X125175301Y-80368626D01*
X125175000Y-80362500D01*
X125175000Y-79612500D01*
X125175301Y-79606374D01*
X125176201Y-79600307D01*
X125177691Y-79594357D01*
X125179758Y-79588582D01*
X125182380Y-79583038D01*
X125185533Y-79577777D01*
X125189187Y-79572850D01*
X125193306Y-79568306D01*
X125197850Y-79564187D01*
X125202777Y-79560533D01*
X125208038Y-79557380D01*
X125213582Y-79554758D01*
X125219357Y-79552691D01*
X125225307Y-79551201D01*
X125231374Y-79550301D01*
X125237500Y-79550000D01*
X125362500Y-79550000D01*
X125368626Y-79550301D01*
X125368626Y-79550301D01*
G37*
D15*
X125300000Y-79987500D03*
D10*
G36*
X125868626Y-79550301D02*
G01*
X125874693Y-79551201D01*
X125880643Y-79552691D01*
X125886418Y-79554758D01*
X125891962Y-79557380D01*
X125897223Y-79560533D01*
X125902150Y-79564187D01*
X125906694Y-79568306D01*
X125910813Y-79572850D01*
X125914467Y-79577777D01*
X125917620Y-79583038D01*
X125920242Y-79588582D01*
X125922309Y-79594357D01*
X125923799Y-79600307D01*
X125924699Y-79606374D01*
X125925000Y-79612500D01*
X125925000Y-80362500D01*
X125924699Y-80368626D01*
X125923799Y-80374693D01*
X125922309Y-80380643D01*
X125920242Y-80386418D01*
X125917620Y-80391962D01*
X125914467Y-80397223D01*
X125910813Y-80402150D01*
X125906694Y-80406694D01*
X125902150Y-80410813D01*
X125897223Y-80414467D01*
X125891962Y-80417620D01*
X125886418Y-80420242D01*
X125880643Y-80422309D01*
X125874693Y-80423799D01*
X125868626Y-80424699D01*
X125862500Y-80425000D01*
X125737500Y-80425000D01*
X125731374Y-80424699D01*
X125725307Y-80423799D01*
X125719357Y-80422309D01*
X125713582Y-80420242D01*
X125708038Y-80417620D01*
X125702777Y-80414467D01*
X125697850Y-80410813D01*
X125693306Y-80406694D01*
X125689187Y-80402150D01*
X125685533Y-80397223D01*
X125682380Y-80391962D01*
X125679758Y-80386418D01*
X125677691Y-80380643D01*
X125676201Y-80374693D01*
X125675301Y-80368626D01*
X125675000Y-80362500D01*
X125675000Y-79612500D01*
X125675301Y-79606374D01*
X125676201Y-79600307D01*
X125677691Y-79594357D01*
X125679758Y-79588582D01*
X125682380Y-79583038D01*
X125685533Y-79577777D01*
X125689187Y-79572850D01*
X125693306Y-79568306D01*
X125697850Y-79564187D01*
X125702777Y-79560533D01*
X125708038Y-79557380D01*
X125713582Y-79554758D01*
X125719357Y-79552691D01*
X125725307Y-79551201D01*
X125731374Y-79550301D01*
X125737500Y-79550000D01*
X125862500Y-79550000D01*
X125868626Y-79550301D01*
X125868626Y-79550301D01*
G37*
D15*
X125800000Y-79987500D03*
D10*
G36*
X126368626Y-79550301D02*
G01*
X126374693Y-79551201D01*
X126380643Y-79552691D01*
X126386418Y-79554758D01*
X126391962Y-79557380D01*
X126397223Y-79560533D01*
X126402150Y-79564187D01*
X126406694Y-79568306D01*
X126410813Y-79572850D01*
X126414467Y-79577777D01*
X126417620Y-79583038D01*
X126420242Y-79588582D01*
X126422309Y-79594357D01*
X126423799Y-79600307D01*
X126424699Y-79606374D01*
X126425000Y-79612500D01*
X126425000Y-80362500D01*
X126424699Y-80368626D01*
X126423799Y-80374693D01*
X126422309Y-80380643D01*
X126420242Y-80386418D01*
X126417620Y-80391962D01*
X126414467Y-80397223D01*
X126410813Y-80402150D01*
X126406694Y-80406694D01*
X126402150Y-80410813D01*
X126397223Y-80414467D01*
X126391962Y-80417620D01*
X126386418Y-80420242D01*
X126380643Y-80422309D01*
X126374693Y-80423799D01*
X126368626Y-80424699D01*
X126362500Y-80425000D01*
X126237500Y-80425000D01*
X126231374Y-80424699D01*
X126225307Y-80423799D01*
X126219357Y-80422309D01*
X126213582Y-80420242D01*
X126208038Y-80417620D01*
X126202777Y-80414467D01*
X126197850Y-80410813D01*
X126193306Y-80406694D01*
X126189187Y-80402150D01*
X126185533Y-80397223D01*
X126182380Y-80391962D01*
X126179758Y-80386418D01*
X126177691Y-80380643D01*
X126176201Y-80374693D01*
X126175301Y-80368626D01*
X126175000Y-80362500D01*
X126175000Y-79612500D01*
X126175301Y-79606374D01*
X126176201Y-79600307D01*
X126177691Y-79594357D01*
X126179758Y-79588582D01*
X126182380Y-79583038D01*
X126185533Y-79577777D01*
X126189187Y-79572850D01*
X126193306Y-79568306D01*
X126197850Y-79564187D01*
X126202777Y-79560533D01*
X126208038Y-79557380D01*
X126213582Y-79554758D01*
X126219357Y-79552691D01*
X126225307Y-79551201D01*
X126231374Y-79550301D01*
X126237500Y-79550000D01*
X126362500Y-79550000D01*
X126368626Y-79550301D01*
X126368626Y-79550301D01*
G37*
D15*
X126300000Y-79987500D03*
D10*
G36*
X126868626Y-79550301D02*
G01*
X126874693Y-79551201D01*
X126880643Y-79552691D01*
X126886418Y-79554758D01*
X126891962Y-79557380D01*
X126897223Y-79560533D01*
X126902150Y-79564187D01*
X126906694Y-79568306D01*
X126910813Y-79572850D01*
X126914467Y-79577777D01*
X126917620Y-79583038D01*
X126920242Y-79588582D01*
X126922309Y-79594357D01*
X126923799Y-79600307D01*
X126924699Y-79606374D01*
X126925000Y-79612500D01*
X126925000Y-80362500D01*
X126924699Y-80368626D01*
X126923799Y-80374693D01*
X126922309Y-80380643D01*
X126920242Y-80386418D01*
X126917620Y-80391962D01*
X126914467Y-80397223D01*
X126910813Y-80402150D01*
X126906694Y-80406694D01*
X126902150Y-80410813D01*
X126897223Y-80414467D01*
X126891962Y-80417620D01*
X126886418Y-80420242D01*
X126880643Y-80422309D01*
X126874693Y-80423799D01*
X126868626Y-80424699D01*
X126862500Y-80425000D01*
X126737500Y-80425000D01*
X126731374Y-80424699D01*
X126725307Y-80423799D01*
X126719357Y-80422309D01*
X126713582Y-80420242D01*
X126708038Y-80417620D01*
X126702777Y-80414467D01*
X126697850Y-80410813D01*
X126693306Y-80406694D01*
X126689187Y-80402150D01*
X126685533Y-80397223D01*
X126682380Y-80391962D01*
X126679758Y-80386418D01*
X126677691Y-80380643D01*
X126676201Y-80374693D01*
X126675301Y-80368626D01*
X126675000Y-80362500D01*
X126675000Y-79612500D01*
X126675301Y-79606374D01*
X126676201Y-79600307D01*
X126677691Y-79594357D01*
X126679758Y-79588582D01*
X126682380Y-79583038D01*
X126685533Y-79577777D01*
X126689187Y-79572850D01*
X126693306Y-79568306D01*
X126697850Y-79564187D01*
X126702777Y-79560533D01*
X126708038Y-79557380D01*
X126713582Y-79554758D01*
X126719357Y-79552691D01*
X126725307Y-79551201D01*
X126731374Y-79550301D01*
X126737500Y-79550000D01*
X126862500Y-79550000D01*
X126868626Y-79550301D01*
X126868626Y-79550301D01*
G37*
D15*
X126800000Y-79987500D03*
D10*
G36*
X127368626Y-79550301D02*
G01*
X127374693Y-79551201D01*
X127380643Y-79552691D01*
X127386418Y-79554758D01*
X127391962Y-79557380D01*
X127397223Y-79560533D01*
X127402150Y-79564187D01*
X127406694Y-79568306D01*
X127410813Y-79572850D01*
X127414467Y-79577777D01*
X127417620Y-79583038D01*
X127420242Y-79588582D01*
X127422309Y-79594357D01*
X127423799Y-79600307D01*
X127424699Y-79606374D01*
X127425000Y-79612500D01*
X127425000Y-80362500D01*
X127424699Y-80368626D01*
X127423799Y-80374693D01*
X127422309Y-80380643D01*
X127420242Y-80386418D01*
X127417620Y-80391962D01*
X127414467Y-80397223D01*
X127410813Y-80402150D01*
X127406694Y-80406694D01*
X127402150Y-80410813D01*
X127397223Y-80414467D01*
X127391962Y-80417620D01*
X127386418Y-80420242D01*
X127380643Y-80422309D01*
X127374693Y-80423799D01*
X127368626Y-80424699D01*
X127362500Y-80425000D01*
X127237500Y-80425000D01*
X127231374Y-80424699D01*
X127225307Y-80423799D01*
X127219357Y-80422309D01*
X127213582Y-80420242D01*
X127208038Y-80417620D01*
X127202777Y-80414467D01*
X127197850Y-80410813D01*
X127193306Y-80406694D01*
X127189187Y-80402150D01*
X127185533Y-80397223D01*
X127182380Y-80391962D01*
X127179758Y-80386418D01*
X127177691Y-80380643D01*
X127176201Y-80374693D01*
X127175301Y-80368626D01*
X127175000Y-80362500D01*
X127175000Y-79612500D01*
X127175301Y-79606374D01*
X127176201Y-79600307D01*
X127177691Y-79594357D01*
X127179758Y-79588582D01*
X127182380Y-79583038D01*
X127185533Y-79577777D01*
X127189187Y-79572850D01*
X127193306Y-79568306D01*
X127197850Y-79564187D01*
X127202777Y-79560533D01*
X127208038Y-79557380D01*
X127213582Y-79554758D01*
X127219357Y-79552691D01*
X127225307Y-79551201D01*
X127231374Y-79550301D01*
X127237500Y-79550000D01*
X127362500Y-79550000D01*
X127368626Y-79550301D01*
X127368626Y-79550301D01*
G37*
D15*
X127300000Y-79987500D03*
D10*
G36*
X127868626Y-79550301D02*
G01*
X127874693Y-79551201D01*
X127880643Y-79552691D01*
X127886418Y-79554758D01*
X127891962Y-79557380D01*
X127897223Y-79560533D01*
X127902150Y-79564187D01*
X127906694Y-79568306D01*
X127910813Y-79572850D01*
X127914467Y-79577777D01*
X127917620Y-79583038D01*
X127920242Y-79588582D01*
X127922309Y-79594357D01*
X127923799Y-79600307D01*
X127924699Y-79606374D01*
X127925000Y-79612500D01*
X127925000Y-80362500D01*
X127924699Y-80368626D01*
X127923799Y-80374693D01*
X127922309Y-80380643D01*
X127920242Y-80386418D01*
X127917620Y-80391962D01*
X127914467Y-80397223D01*
X127910813Y-80402150D01*
X127906694Y-80406694D01*
X127902150Y-80410813D01*
X127897223Y-80414467D01*
X127891962Y-80417620D01*
X127886418Y-80420242D01*
X127880643Y-80422309D01*
X127874693Y-80423799D01*
X127868626Y-80424699D01*
X127862500Y-80425000D01*
X127737500Y-80425000D01*
X127731374Y-80424699D01*
X127725307Y-80423799D01*
X127719357Y-80422309D01*
X127713582Y-80420242D01*
X127708038Y-80417620D01*
X127702777Y-80414467D01*
X127697850Y-80410813D01*
X127693306Y-80406694D01*
X127689187Y-80402150D01*
X127685533Y-80397223D01*
X127682380Y-80391962D01*
X127679758Y-80386418D01*
X127677691Y-80380643D01*
X127676201Y-80374693D01*
X127675301Y-80368626D01*
X127675000Y-80362500D01*
X127675000Y-79612500D01*
X127675301Y-79606374D01*
X127676201Y-79600307D01*
X127677691Y-79594357D01*
X127679758Y-79588582D01*
X127682380Y-79583038D01*
X127685533Y-79577777D01*
X127689187Y-79572850D01*
X127693306Y-79568306D01*
X127697850Y-79564187D01*
X127702777Y-79560533D01*
X127708038Y-79557380D01*
X127713582Y-79554758D01*
X127719357Y-79552691D01*
X127725307Y-79551201D01*
X127731374Y-79550301D01*
X127737500Y-79550000D01*
X127862500Y-79550000D01*
X127868626Y-79550301D01*
X127868626Y-79550301D01*
G37*
D15*
X127800000Y-79987500D03*
D10*
G36*
X128368626Y-79550301D02*
G01*
X128374693Y-79551201D01*
X128380643Y-79552691D01*
X128386418Y-79554758D01*
X128391962Y-79557380D01*
X128397223Y-79560533D01*
X128402150Y-79564187D01*
X128406694Y-79568306D01*
X128410813Y-79572850D01*
X128414467Y-79577777D01*
X128417620Y-79583038D01*
X128420242Y-79588582D01*
X128422309Y-79594357D01*
X128423799Y-79600307D01*
X128424699Y-79606374D01*
X128425000Y-79612500D01*
X128425000Y-80362500D01*
X128424699Y-80368626D01*
X128423799Y-80374693D01*
X128422309Y-80380643D01*
X128420242Y-80386418D01*
X128417620Y-80391962D01*
X128414467Y-80397223D01*
X128410813Y-80402150D01*
X128406694Y-80406694D01*
X128402150Y-80410813D01*
X128397223Y-80414467D01*
X128391962Y-80417620D01*
X128386418Y-80420242D01*
X128380643Y-80422309D01*
X128374693Y-80423799D01*
X128368626Y-80424699D01*
X128362500Y-80425000D01*
X128237500Y-80425000D01*
X128231374Y-80424699D01*
X128225307Y-80423799D01*
X128219357Y-80422309D01*
X128213582Y-80420242D01*
X128208038Y-80417620D01*
X128202777Y-80414467D01*
X128197850Y-80410813D01*
X128193306Y-80406694D01*
X128189187Y-80402150D01*
X128185533Y-80397223D01*
X128182380Y-80391962D01*
X128179758Y-80386418D01*
X128177691Y-80380643D01*
X128176201Y-80374693D01*
X128175301Y-80368626D01*
X128175000Y-80362500D01*
X128175000Y-79612500D01*
X128175301Y-79606374D01*
X128176201Y-79600307D01*
X128177691Y-79594357D01*
X128179758Y-79588582D01*
X128182380Y-79583038D01*
X128185533Y-79577777D01*
X128189187Y-79572850D01*
X128193306Y-79568306D01*
X128197850Y-79564187D01*
X128202777Y-79560533D01*
X128208038Y-79557380D01*
X128213582Y-79554758D01*
X128219357Y-79552691D01*
X128225307Y-79551201D01*
X128231374Y-79550301D01*
X128237500Y-79550000D01*
X128362500Y-79550000D01*
X128368626Y-79550301D01*
X128368626Y-79550301D01*
G37*
D15*
X128300000Y-79987500D03*
D10*
G36*
X128868626Y-79550301D02*
G01*
X128874693Y-79551201D01*
X128880643Y-79552691D01*
X128886418Y-79554758D01*
X128891962Y-79557380D01*
X128897223Y-79560533D01*
X128902150Y-79564187D01*
X128906694Y-79568306D01*
X128910813Y-79572850D01*
X128914467Y-79577777D01*
X128917620Y-79583038D01*
X128920242Y-79588582D01*
X128922309Y-79594357D01*
X128923799Y-79600307D01*
X128924699Y-79606374D01*
X128925000Y-79612500D01*
X128925000Y-80362500D01*
X128924699Y-80368626D01*
X128923799Y-80374693D01*
X128922309Y-80380643D01*
X128920242Y-80386418D01*
X128917620Y-80391962D01*
X128914467Y-80397223D01*
X128910813Y-80402150D01*
X128906694Y-80406694D01*
X128902150Y-80410813D01*
X128897223Y-80414467D01*
X128891962Y-80417620D01*
X128886418Y-80420242D01*
X128880643Y-80422309D01*
X128874693Y-80423799D01*
X128868626Y-80424699D01*
X128862500Y-80425000D01*
X128737500Y-80425000D01*
X128731374Y-80424699D01*
X128725307Y-80423799D01*
X128719357Y-80422309D01*
X128713582Y-80420242D01*
X128708038Y-80417620D01*
X128702777Y-80414467D01*
X128697850Y-80410813D01*
X128693306Y-80406694D01*
X128689187Y-80402150D01*
X128685533Y-80397223D01*
X128682380Y-80391962D01*
X128679758Y-80386418D01*
X128677691Y-80380643D01*
X128676201Y-80374693D01*
X128675301Y-80368626D01*
X128675000Y-80362500D01*
X128675000Y-79612500D01*
X128675301Y-79606374D01*
X128676201Y-79600307D01*
X128677691Y-79594357D01*
X128679758Y-79588582D01*
X128682380Y-79583038D01*
X128685533Y-79577777D01*
X128689187Y-79572850D01*
X128693306Y-79568306D01*
X128697850Y-79564187D01*
X128702777Y-79560533D01*
X128708038Y-79557380D01*
X128713582Y-79554758D01*
X128719357Y-79552691D01*
X128725307Y-79551201D01*
X128731374Y-79550301D01*
X128737500Y-79550000D01*
X128862500Y-79550000D01*
X128868626Y-79550301D01*
X128868626Y-79550301D01*
G37*
D15*
X128800000Y-79987500D03*
D10*
G36*
X129868626Y-79175301D02*
G01*
X129874693Y-79176201D01*
X129880643Y-79177691D01*
X129886418Y-79179758D01*
X129891962Y-79182380D01*
X129897223Y-79185533D01*
X129902150Y-79189187D01*
X129906694Y-79193306D01*
X129910813Y-79197850D01*
X129914467Y-79202777D01*
X129917620Y-79208038D01*
X129920242Y-79213582D01*
X129922309Y-79219357D01*
X129923799Y-79225307D01*
X129924699Y-79231374D01*
X129925000Y-79237500D01*
X129925000Y-79362500D01*
X129924699Y-79368626D01*
X129923799Y-79374693D01*
X129922309Y-79380643D01*
X129920242Y-79386418D01*
X129917620Y-79391962D01*
X129914467Y-79397223D01*
X129910813Y-79402150D01*
X129906694Y-79406694D01*
X129902150Y-79410813D01*
X129897223Y-79414467D01*
X129891962Y-79417620D01*
X129886418Y-79420242D01*
X129880643Y-79422309D01*
X129874693Y-79423799D01*
X129868626Y-79424699D01*
X129862500Y-79425000D01*
X129112500Y-79425000D01*
X129106374Y-79424699D01*
X129100307Y-79423799D01*
X129094357Y-79422309D01*
X129088582Y-79420242D01*
X129083038Y-79417620D01*
X129077777Y-79414467D01*
X129072850Y-79410813D01*
X129068306Y-79406694D01*
X129064187Y-79402150D01*
X129060533Y-79397223D01*
X129057380Y-79391962D01*
X129054758Y-79386418D01*
X129052691Y-79380643D01*
X129051201Y-79374693D01*
X129050301Y-79368626D01*
X129050000Y-79362500D01*
X129050000Y-79237500D01*
X129050301Y-79231374D01*
X129051201Y-79225307D01*
X129052691Y-79219357D01*
X129054758Y-79213582D01*
X129057380Y-79208038D01*
X129060533Y-79202777D01*
X129064187Y-79197850D01*
X129068306Y-79193306D01*
X129072850Y-79189187D01*
X129077777Y-79185533D01*
X129083038Y-79182380D01*
X129088582Y-79179758D01*
X129094357Y-79177691D01*
X129100307Y-79176201D01*
X129106374Y-79175301D01*
X129112500Y-79175000D01*
X129862500Y-79175000D01*
X129868626Y-79175301D01*
X129868626Y-79175301D01*
G37*
D15*
X129487500Y-79300000D03*
D10*
G36*
X129868626Y-78675301D02*
G01*
X129874693Y-78676201D01*
X129880643Y-78677691D01*
X129886418Y-78679758D01*
X129891962Y-78682380D01*
X129897223Y-78685533D01*
X129902150Y-78689187D01*
X129906694Y-78693306D01*
X129910813Y-78697850D01*
X129914467Y-78702777D01*
X129917620Y-78708038D01*
X129920242Y-78713582D01*
X129922309Y-78719357D01*
X129923799Y-78725307D01*
X129924699Y-78731374D01*
X129925000Y-78737500D01*
X129925000Y-78862500D01*
X129924699Y-78868626D01*
X129923799Y-78874693D01*
X129922309Y-78880643D01*
X129920242Y-78886418D01*
X129917620Y-78891962D01*
X129914467Y-78897223D01*
X129910813Y-78902150D01*
X129906694Y-78906694D01*
X129902150Y-78910813D01*
X129897223Y-78914467D01*
X129891962Y-78917620D01*
X129886418Y-78920242D01*
X129880643Y-78922309D01*
X129874693Y-78923799D01*
X129868626Y-78924699D01*
X129862500Y-78925000D01*
X129112500Y-78925000D01*
X129106374Y-78924699D01*
X129100307Y-78923799D01*
X129094357Y-78922309D01*
X129088582Y-78920242D01*
X129083038Y-78917620D01*
X129077777Y-78914467D01*
X129072850Y-78910813D01*
X129068306Y-78906694D01*
X129064187Y-78902150D01*
X129060533Y-78897223D01*
X129057380Y-78891962D01*
X129054758Y-78886418D01*
X129052691Y-78880643D01*
X129051201Y-78874693D01*
X129050301Y-78868626D01*
X129050000Y-78862500D01*
X129050000Y-78737500D01*
X129050301Y-78731374D01*
X129051201Y-78725307D01*
X129052691Y-78719357D01*
X129054758Y-78713582D01*
X129057380Y-78708038D01*
X129060533Y-78702777D01*
X129064187Y-78697850D01*
X129068306Y-78693306D01*
X129072850Y-78689187D01*
X129077777Y-78685533D01*
X129083038Y-78682380D01*
X129088582Y-78679758D01*
X129094357Y-78677691D01*
X129100307Y-78676201D01*
X129106374Y-78675301D01*
X129112500Y-78675000D01*
X129862500Y-78675000D01*
X129868626Y-78675301D01*
X129868626Y-78675301D01*
G37*
D15*
X129487500Y-78800000D03*
D10*
G36*
X129868626Y-78175301D02*
G01*
X129874693Y-78176201D01*
X129880643Y-78177691D01*
X129886418Y-78179758D01*
X129891962Y-78182380D01*
X129897223Y-78185533D01*
X129902150Y-78189187D01*
X129906694Y-78193306D01*
X129910813Y-78197850D01*
X129914467Y-78202777D01*
X129917620Y-78208038D01*
X129920242Y-78213582D01*
X129922309Y-78219357D01*
X129923799Y-78225307D01*
X129924699Y-78231374D01*
X129925000Y-78237500D01*
X129925000Y-78362500D01*
X129924699Y-78368626D01*
X129923799Y-78374693D01*
X129922309Y-78380643D01*
X129920242Y-78386418D01*
X129917620Y-78391962D01*
X129914467Y-78397223D01*
X129910813Y-78402150D01*
X129906694Y-78406694D01*
X129902150Y-78410813D01*
X129897223Y-78414467D01*
X129891962Y-78417620D01*
X129886418Y-78420242D01*
X129880643Y-78422309D01*
X129874693Y-78423799D01*
X129868626Y-78424699D01*
X129862500Y-78425000D01*
X129112500Y-78425000D01*
X129106374Y-78424699D01*
X129100307Y-78423799D01*
X129094357Y-78422309D01*
X129088582Y-78420242D01*
X129083038Y-78417620D01*
X129077777Y-78414467D01*
X129072850Y-78410813D01*
X129068306Y-78406694D01*
X129064187Y-78402150D01*
X129060533Y-78397223D01*
X129057380Y-78391962D01*
X129054758Y-78386418D01*
X129052691Y-78380643D01*
X129051201Y-78374693D01*
X129050301Y-78368626D01*
X129050000Y-78362500D01*
X129050000Y-78237500D01*
X129050301Y-78231374D01*
X129051201Y-78225307D01*
X129052691Y-78219357D01*
X129054758Y-78213582D01*
X129057380Y-78208038D01*
X129060533Y-78202777D01*
X129064187Y-78197850D01*
X129068306Y-78193306D01*
X129072850Y-78189187D01*
X129077777Y-78185533D01*
X129083038Y-78182380D01*
X129088582Y-78179758D01*
X129094357Y-78177691D01*
X129100307Y-78176201D01*
X129106374Y-78175301D01*
X129112500Y-78175000D01*
X129862500Y-78175000D01*
X129868626Y-78175301D01*
X129868626Y-78175301D01*
G37*
D15*
X129487500Y-78300000D03*
D10*
G36*
X129868626Y-77675301D02*
G01*
X129874693Y-77676201D01*
X129880643Y-77677691D01*
X129886418Y-77679758D01*
X129891962Y-77682380D01*
X129897223Y-77685533D01*
X129902150Y-77689187D01*
X129906694Y-77693306D01*
X129910813Y-77697850D01*
X129914467Y-77702777D01*
X129917620Y-77708038D01*
X129920242Y-77713582D01*
X129922309Y-77719357D01*
X129923799Y-77725307D01*
X129924699Y-77731374D01*
X129925000Y-77737500D01*
X129925000Y-77862500D01*
X129924699Y-77868626D01*
X129923799Y-77874693D01*
X129922309Y-77880643D01*
X129920242Y-77886418D01*
X129917620Y-77891962D01*
X129914467Y-77897223D01*
X129910813Y-77902150D01*
X129906694Y-77906694D01*
X129902150Y-77910813D01*
X129897223Y-77914467D01*
X129891962Y-77917620D01*
X129886418Y-77920242D01*
X129880643Y-77922309D01*
X129874693Y-77923799D01*
X129868626Y-77924699D01*
X129862500Y-77925000D01*
X129112500Y-77925000D01*
X129106374Y-77924699D01*
X129100307Y-77923799D01*
X129094357Y-77922309D01*
X129088582Y-77920242D01*
X129083038Y-77917620D01*
X129077777Y-77914467D01*
X129072850Y-77910813D01*
X129068306Y-77906694D01*
X129064187Y-77902150D01*
X129060533Y-77897223D01*
X129057380Y-77891962D01*
X129054758Y-77886418D01*
X129052691Y-77880643D01*
X129051201Y-77874693D01*
X129050301Y-77868626D01*
X129050000Y-77862500D01*
X129050000Y-77737500D01*
X129050301Y-77731374D01*
X129051201Y-77725307D01*
X129052691Y-77719357D01*
X129054758Y-77713582D01*
X129057380Y-77708038D01*
X129060533Y-77702777D01*
X129064187Y-77697850D01*
X129068306Y-77693306D01*
X129072850Y-77689187D01*
X129077777Y-77685533D01*
X129083038Y-77682380D01*
X129088582Y-77679758D01*
X129094357Y-77677691D01*
X129100307Y-77676201D01*
X129106374Y-77675301D01*
X129112500Y-77675000D01*
X129862500Y-77675000D01*
X129868626Y-77675301D01*
X129868626Y-77675301D01*
G37*
D15*
X129487500Y-77800000D03*
D10*
G36*
X129868626Y-77175301D02*
G01*
X129874693Y-77176201D01*
X129880643Y-77177691D01*
X129886418Y-77179758D01*
X129891962Y-77182380D01*
X129897223Y-77185533D01*
X129902150Y-77189187D01*
X129906694Y-77193306D01*
X129910813Y-77197850D01*
X129914467Y-77202777D01*
X129917620Y-77208038D01*
X129920242Y-77213582D01*
X129922309Y-77219357D01*
X129923799Y-77225307D01*
X129924699Y-77231374D01*
X129925000Y-77237500D01*
X129925000Y-77362500D01*
X129924699Y-77368626D01*
X129923799Y-77374693D01*
X129922309Y-77380643D01*
X129920242Y-77386418D01*
X129917620Y-77391962D01*
X129914467Y-77397223D01*
X129910813Y-77402150D01*
X129906694Y-77406694D01*
X129902150Y-77410813D01*
X129897223Y-77414467D01*
X129891962Y-77417620D01*
X129886418Y-77420242D01*
X129880643Y-77422309D01*
X129874693Y-77423799D01*
X129868626Y-77424699D01*
X129862500Y-77425000D01*
X129112500Y-77425000D01*
X129106374Y-77424699D01*
X129100307Y-77423799D01*
X129094357Y-77422309D01*
X129088582Y-77420242D01*
X129083038Y-77417620D01*
X129077777Y-77414467D01*
X129072850Y-77410813D01*
X129068306Y-77406694D01*
X129064187Y-77402150D01*
X129060533Y-77397223D01*
X129057380Y-77391962D01*
X129054758Y-77386418D01*
X129052691Y-77380643D01*
X129051201Y-77374693D01*
X129050301Y-77368626D01*
X129050000Y-77362500D01*
X129050000Y-77237500D01*
X129050301Y-77231374D01*
X129051201Y-77225307D01*
X129052691Y-77219357D01*
X129054758Y-77213582D01*
X129057380Y-77208038D01*
X129060533Y-77202777D01*
X129064187Y-77197850D01*
X129068306Y-77193306D01*
X129072850Y-77189187D01*
X129077777Y-77185533D01*
X129083038Y-77182380D01*
X129088582Y-77179758D01*
X129094357Y-77177691D01*
X129100307Y-77176201D01*
X129106374Y-77175301D01*
X129112500Y-77175000D01*
X129862500Y-77175000D01*
X129868626Y-77175301D01*
X129868626Y-77175301D01*
G37*
D15*
X129487500Y-77300000D03*
D10*
G36*
X129868626Y-76675301D02*
G01*
X129874693Y-76676201D01*
X129880643Y-76677691D01*
X129886418Y-76679758D01*
X129891962Y-76682380D01*
X129897223Y-76685533D01*
X129902150Y-76689187D01*
X129906694Y-76693306D01*
X129910813Y-76697850D01*
X129914467Y-76702777D01*
X129917620Y-76708038D01*
X129920242Y-76713582D01*
X129922309Y-76719357D01*
X129923799Y-76725307D01*
X129924699Y-76731374D01*
X129925000Y-76737500D01*
X129925000Y-76862500D01*
X129924699Y-76868626D01*
X129923799Y-76874693D01*
X129922309Y-76880643D01*
X129920242Y-76886418D01*
X129917620Y-76891962D01*
X129914467Y-76897223D01*
X129910813Y-76902150D01*
X129906694Y-76906694D01*
X129902150Y-76910813D01*
X129897223Y-76914467D01*
X129891962Y-76917620D01*
X129886418Y-76920242D01*
X129880643Y-76922309D01*
X129874693Y-76923799D01*
X129868626Y-76924699D01*
X129862500Y-76925000D01*
X129112500Y-76925000D01*
X129106374Y-76924699D01*
X129100307Y-76923799D01*
X129094357Y-76922309D01*
X129088582Y-76920242D01*
X129083038Y-76917620D01*
X129077777Y-76914467D01*
X129072850Y-76910813D01*
X129068306Y-76906694D01*
X129064187Y-76902150D01*
X129060533Y-76897223D01*
X129057380Y-76891962D01*
X129054758Y-76886418D01*
X129052691Y-76880643D01*
X129051201Y-76874693D01*
X129050301Y-76868626D01*
X129050000Y-76862500D01*
X129050000Y-76737500D01*
X129050301Y-76731374D01*
X129051201Y-76725307D01*
X129052691Y-76719357D01*
X129054758Y-76713582D01*
X129057380Y-76708038D01*
X129060533Y-76702777D01*
X129064187Y-76697850D01*
X129068306Y-76693306D01*
X129072850Y-76689187D01*
X129077777Y-76685533D01*
X129083038Y-76682380D01*
X129088582Y-76679758D01*
X129094357Y-76677691D01*
X129100307Y-76676201D01*
X129106374Y-76675301D01*
X129112500Y-76675000D01*
X129862500Y-76675000D01*
X129868626Y-76675301D01*
X129868626Y-76675301D01*
G37*
D15*
X129487500Y-76800000D03*
D10*
G36*
X129868626Y-76175301D02*
G01*
X129874693Y-76176201D01*
X129880643Y-76177691D01*
X129886418Y-76179758D01*
X129891962Y-76182380D01*
X129897223Y-76185533D01*
X129902150Y-76189187D01*
X129906694Y-76193306D01*
X129910813Y-76197850D01*
X129914467Y-76202777D01*
X129917620Y-76208038D01*
X129920242Y-76213582D01*
X129922309Y-76219357D01*
X129923799Y-76225307D01*
X129924699Y-76231374D01*
X129925000Y-76237500D01*
X129925000Y-76362500D01*
X129924699Y-76368626D01*
X129923799Y-76374693D01*
X129922309Y-76380643D01*
X129920242Y-76386418D01*
X129917620Y-76391962D01*
X129914467Y-76397223D01*
X129910813Y-76402150D01*
X129906694Y-76406694D01*
X129902150Y-76410813D01*
X129897223Y-76414467D01*
X129891962Y-76417620D01*
X129886418Y-76420242D01*
X129880643Y-76422309D01*
X129874693Y-76423799D01*
X129868626Y-76424699D01*
X129862500Y-76425000D01*
X129112500Y-76425000D01*
X129106374Y-76424699D01*
X129100307Y-76423799D01*
X129094357Y-76422309D01*
X129088582Y-76420242D01*
X129083038Y-76417620D01*
X129077777Y-76414467D01*
X129072850Y-76410813D01*
X129068306Y-76406694D01*
X129064187Y-76402150D01*
X129060533Y-76397223D01*
X129057380Y-76391962D01*
X129054758Y-76386418D01*
X129052691Y-76380643D01*
X129051201Y-76374693D01*
X129050301Y-76368626D01*
X129050000Y-76362500D01*
X129050000Y-76237500D01*
X129050301Y-76231374D01*
X129051201Y-76225307D01*
X129052691Y-76219357D01*
X129054758Y-76213582D01*
X129057380Y-76208038D01*
X129060533Y-76202777D01*
X129064187Y-76197850D01*
X129068306Y-76193306D01*
X129072850Y-76189187D01*
X129077777Y-76185533D01*
X129083038Y-76182380D01*
X129088582Y-76179758D01*
X129094357Y-76177691D01*
X129100307Y-76176201D01*
X129106374Y-76175301D01*
X129112500Y-76175000D01*
X129862500Y-76175000D01*
X129868626Y-76175301D01*
X129868626Y-76175301D01*
G37*
D15*
X129487500Y-76300000D03*
D10*
G36*
X129868626Y-75675301D02*
G01*
X129874693Y-75676201D01*
X129880643Y-75677691D01*
X129886418Y-75679758D01*
X129891962Y-75682380D01*
X129897223Y-75685533D01*
X129902150Y-75689187D01*
X129906694Y-75693306D01*
X129910813Y-75697850D01*
X129914467Y-75702777D01*
X129917620Y-75708038D01*
X129920242Y-75713582D01*
X129922309Y-75719357D01*
X129923799Y-75725307D01*
X129924699Y-75731374D01*
X129925000Y-75737500D01*
X129925000Y-75862500D01*
X129924699Y-75868626D01*
X129923799Y-75874693D01*
X129922309Y-75880643D01*
X129920242Y-75886418D01*
X129917620Y-75891962D01*
X129914467Y-75897223D01*
X129910813Y-75902150D01*
X129906694Y-75906694D01*
X129902150Y-75910813D01*
X129897223Y-75914467D01*
X129891962Y-75917620D01*
X129886418Y-75920242D01*
X129880643Y-75922309D01*
X129874693Y-75923799D01*
X129868626Y-75924699D01*
X129862500Y-75925000D01*
X129112500Y-75925000D01*
X129106374Y-75924699D01*
X129100307Y-75923799D01*
X129094357Y-75922309D01*
X129088582Y-75920242D01*
X129083038Y-75917620D01*
X129077777Y-75914467D01*
X129072850Y-75910813D01*
X129068306Y-75906694D01*
X129064187Y-75902150D01*
X129060533Y-75897223D01*
X129057380Y-75891962D01*
X129054758Y-75886418D01*
X129052691Y-75880643D01*
X129051201Y-75874693D01*
X129050301Y-75868626D01*
X129050000Y-75862500D01*
X129050000Y-75737500D01*
X129050301Y-75731374D01*
X129051201Y-75725307D01*
X129052691Y-75719357D01*
X129054758Y-75713582D01*
X129057380Y-75708038D01*
X129060533Y-75702777D01*
X129064187Y-75697850D01*
X129068306Y-75693306D01*
X129072850Y-75689187D01*
X129077777Y-75685533D01*
X129083038Y-75682380D01*
X129088582Y-75679758D01*
X129094357Y-75677691D01*
X129100307Y-75676201D01*
X129106374Y-75675301D01*
X129112500Y-75675000D01*
X129862500Y-75675000D01*
X129868626Y-75675301D01*
X129868626Y-75675301D01*
G37*
D15*
X129487500Y-75800000D03*
D10*
G36*
X128868626Y-74675301D02*
G01*
X128874693Y-74676201D01*
X128880643Y-74677691D01*
X128886418Y-74679758D01*
X128891962Y-74682380D01*
X128897223Y-74685533D01*
X128902150Y-74689187D01*
X128906694Y-74693306D01*
X128910813Y-74697850D01*
X128914467Y-74702777D01*
X128917620Y-74708038D01*
X128920242Y-74713582D01*
X128922309Y-74719357D01*
X128923799Y-74725307D01*
X128924699Y-74731374D01*
X128925000Y-74737500D01*
X128925000Y-75487500D01*
X128924699Y-75493626D01*
X128923799Y-75499693D01*
X128922309Y-75505643D01*
X128920242Y-75511418D01*
X128917620Y-75516962D01*
X128914467Y-75522223D01*
X128910813Y-75527150D01*
X128906694Y-75531694D01*
X128902150Y-75535813D01*
X128897223Y-75539467D01*
X128891962Y-75542620D01*
X128886418Y-75545242D01*
X128880643Y-75547309D01*
X128874693Y-75548799D01*
X128868626Y-75549699D01*
X128862500Y-75550000D01*
X128737500Y-75550000D01*
X128731374Y-75549699D01*
X128725307Y-75548799D01*
X128719357Y-75547309D01*
X128713582Y-75545242D01*
X128708038Y-75542620D01*
X128702777Y-75539467D01*
X128697850Y-75535813D01*
X128693306Y-75531694D01*
X128689187Y-75527150D01*
X128685533Y-75522223D01*
X128682380Y-75516962D01*
X128679758Y-75511418D01*
X128677691Y-75505643D01*
X128676201Y-75499693D01*
X128675301Y-75493626D01*
X128675000Y-75487500D01*
X128675000Y-74737500D01*
X128675301Y-74731374D01*
X128676201Y-74725307D01*
X128677691Y-74719357D01*
X128679758Y-74713582D01*
X128682380Y-74708038D01*
X128685533Y-74702777D01*
X128689187Y-74697850D01*
X128693306Y-74693306D01*
X128697850Y-74689187D01*
X128702777Y-74685533D01*
X128708038Y-74682380D01*
X128713582Y-74679758D01*
X128719357Y-74677691D01*
X128725307Y-74676201D01*
X128731374Y-74675301D01*
X128737500Y-74675000D01*
X128862500Y-74675000D01*
X128868626Y-74675301D01*
X128868626Y-74675301D01*
G37*
D15*
X128800000Y-75112500D03*
D10*
G36*
X128368626Y-74675301D02*
G01*
X128374693Y-74676201D01*
X128380643Y-74677691D01*
X128386418Y-74679758D01*
X128391962Y-74682380D01*
X128397223Y-74685533D01*
X128402150Y-74689187D01*
X128406694Y-74693306D01*
X128410813Y-74697850D01*
X128414467Y-74702777D01*
X128417620Y-74708038D01*
X128420242Y-74713582D01*
X128422309Y-74719357D01*
X128423799Y-74725307D01*
X128424699Y-74731374D01*
X128425000Y-74737500D01*
X128425000Y-75487500D01*
X128424699Y-75493626D01*
X128423799Y-75499693D01*
X128422309Y-75505643D01*
X128420242Y-75511418D01*
X128417620Y-75516962D01*
X128414467Y-75522223D01*
X128410813Y-75527150D01*
X128406694Y-75531694D01*
X128402150Y-75535813D01*
X128397223Y-75539467D01*
X128391962Y-75542620D01*
X128386418Y-75545242D01*
X128380643Y-75547309D01*
X128374693Y-75548799D01*
X128368626Y-75549699D01*
X128362500Y-75550000D01*
X128237500Y-75550000D01*
X128231374Y-75549699D01*
X128225307Y-75548799D01*
X128219357Y-75547309D01*
X128213582Y-75545242D01*
X128208038Y-75542620D01*
X128202777Y-75539467D01*
X128197850Y-75535813D01*
X128193306Y-75531694D01*
X128189187Y-75527150D01*
X128185533Y-75522223D01*
X128182380Y-75516962D01*
X128179758Y-75511418D01*
X128177691Y-75505643D01*
X128176201Y-75499693D01*
X128175301Y-75493626D01*
X128175000Y-75487500D01*
X128175000Y-74737500D01*
X128175301Y-74731374D01*
X128176201Y-74725307D01*
X128177691Y-74719357D01*
X128179758Y-74713582D01*
X128182380Y-74708038D01*
X128185533Y-74702777D01*
X128189187Y-74697850D01*
X128193306Y-74693306D01*
X128197850Y-74689187D01*
X128202777Y-74685533D01*
X128208038Y-74682380D01*
X128213582Y-74679758D01*
X128219357Y-74677691D01*
X128225307Y-74676201D01*
X128231374Y-74675301D01*
X128237500Y-74675000D01*
X128362500Y-74675000D01*
X128368626Y-74675301D01*
X128368626Y-74675301D01*
G37*
D15*
X128300000Y-75112500D03*
D10*
G36*
X127868626Y-74675301D02*
G01*
X127874693Y-74676201D01*
X127880643Y-74677691D01*
X127886418Y-74679758D01*
X127891962Y-74682380D01*
X127897223Y-74685533D01*
X127902150Y-74689187D01*
X127906694Y-74693306D01*
X127910813Y-74697850D01*
X127914467Y-74702777D01*
X127917620Y-74708038D01*
X127920242Y-74713582D01*
X127922309Y-74719357D01*
X127923799Y-74725307D01*
X127924699Y-74731374D01*
X127925000Y-74737500D01*
X127925000Y-75487500D01*
X127924699Y-75493626D01*
X127923799Y-75499693D01*
X127922309Y-75505643D01*
X127920242Y-75511418D01*
X127917620Y-75516962D01*
X127914467Y-75522223D01*
X127910813Y-75527150D01*
X127906694Y-75531694D01*
X127902150Y-75535813D01*
X127897223Y-75539467D01*
X127891962Y-75542620D01*
X127886418Y-75545242D01*
X127880643Y-75547309D01*
X127874693Y-75548799D01*
X127868626Y-75549699D01*
X127862500Y-75550000D01*
X127737500Y-75550000D01*
X127731374Y-75549699D01*
X127725307Y-75548799D01*
X127719357Y-75547309D01*
X127713582Y-75545242D01*
X127708038Y-75542620D01*
X127702777Y-75539467D01*
X127697850Y-75535813D01*
X127693306Y-75531694D01*
X127689187Y-75527150D01*
X127685533Y-75522223D01*
X127682380Y-75516962D01*
X127679758Y-75511418D01*
X127677691Y-75505643D01*
X127676201Y-75499693D01*
X127675301Y-75493626D01*
X127675000Y-75487500D01*
X127675000Y-74737500D01*
X127675301Y-74731374D01*
X127676201Y-74725307D01*
X127677691Y-74719357D01*
X127679758Y-74713582D01*
X127682380Y-74708038D01*
X127685533Y-74702777D01*
X127689187Y-74697850D01*
X127693306Y-74693306D01*
X127697850Y-74689187D01*
X127702777Y-74685533D01*
X127708038Y-74682380D01*
X127713582Y-74679758D01*
X127719357Y-74677691D01*
X127725307Y-74676201D01*
X127731374Y-74675301D01*
X127737500Y-74675000D01*
X127862500Y-74675000D01*
X127868626Y-74675301D01*
X127868626Y-74675301D01*
G37*
D15*
X127800000Y-75112500D03*
D10*
G36*
X127368626Y-74675301D02*
G01*
X127374693Y-74676201D01*
X127380643Y-74677691D01*
X127386418Y-74679758D01*
X127391962Y-74682380D01*
X127397223Y-74685533D01*
X127402150Y-74689187D01*
X127406694Y-74693306D01*
X127410813Y-74697850D01*
X127414467Y-74702777D01*
X127417620Y-74708038D01*
X127420242Y-74713582D01*
X127422309Y-74719357D01*
X127423799Y-74725307D01*
X127424699Y-74731374D01*
X127425000Y-74737500D01*
X127425000Y-75487500D01*
X127424699Y-75493626D01*
X127423799Y-75499693D01*
X127422309Y-75505643D01*
X127420242Y-75511418D01*
X127417620Y-75516962D01*
X127414467Y-75522223D01*
X127410813Y-75527150D01*
X127406694Y-75531694D01*
X127402150Y-75535813D01*
X127397223Y-75539467D01*
X127391962Y-75542620D01*
X127386418Y-75545242D01*
X127380643Y-75547309D01*
X127374693Y-75548799D01*
X127368626Y-75549699D01*
X127362500Y-75550000D01*
X127237500Y-75550000D01*
X127231374Y-75549699D01*
X127225307Y-75548799D01*
X127219357Y-75547309D01*
X127213582Y-75545242D01*
X127208038Y-75542620D01*
X127202777Y-75539467D01*
X127197850Y-75535813D01*
X127193306Y-75531694D01*
X127189187Y-75527150D01*
X127185533Y-75522223D01*
X127182380Y-75516962D01*
X127179758Y-75511418D01*
X127177691Y-75505643D01*
X127176201Y-75499693D01*
X127175301Y-75493626D01*
X127175000Y-75487500D01*
X127175000Y-74737500D01*
X127175301Y-74731374D01*
X127176201Y-74725307D01*
X127177691Y-74719357D01*
X127179758Y-74713582D01*
X127182380Y-74708038D01*
X127185533Y-74702777D01*
X127189187Y-74697850D01*
X127193306Y-74693306D01*
X127197850Y-74689187D01*
X127202777Y-74685533D01*
X127208038Y-74682380D01*
X127213582Y-74679758D01*
X127219357Y-74677691D01*
X127225307Y-74676201D01*
X127231374Y-74675301D01*
X127237500Y-74675000D01*
X127362500Y-74675000D01*
X127368626Y-74675301D01*
X127368626Y-74675301D01*
G37*
D15*
X127300000Y-75112500D03*
D10*
G36*
X126868626Y-74675301D02*
G01*
X126874693Y-74676201D01*
X126880643Y-74677691D01*
X126886418Y-74679758D01*
X126891962Y-74682380D01*
X126897223Y-74685533D01*
X126902150Y-74689187D01*
X126906694Y-74693306D01*
X126910813Y-74697850D01*
X126914467Y-74702777D01*
X126917620Y-74708038D01*
X126920242Y-74713582D01*
X126922309Y-74719357D01*
X126923799Y-74725307D01*
X126924699Y-74731374D01*
X126925000Y-74737500D01*
X126925000Y-75487500D01*
X126924699Y-75493626D01*
X126923799Y-75499693D01*
X126922309Y-75505643D01*
X126920242Y-75511418D01*
X126917620Y-75516962D01*
X126914467Y-75522223D01*
X126910813Y-75527150D01*
X126906694Y-75531694D01*
X126902150Y-75535813D01*
X126897223Y-75539467D01*
X126891962Y-75542620D01*
X126886418Y-75545242D01*
X126880643Y-75547309D01*
X126874693Y-75548799D01*
X126868626Y-75549699D01*
X126862500Y-75550000D01*
X126737500Y-75550000D01*
X126731374Y-75549699D01*
X126725307Y-75548799D01*
X126719357Y-75547309D01*
X126713582Y-75545242D01*
X126708038Y-75542620D01*
X126702777Y-75539467D01*
X126697850Y-75535813D01*
X126693306Y-75531694D01*
X126689187Y-75527150D01*
X126685533Y-75522223D01*
X126682380Y-75516962D01*
X126679758Y-75511418D01*
X126677691Y-75505643D01*
X126676201Y-75499693D01*
X126675301Y-75493626D01*
X126675000Y-75487500D01*
X126675000Y-74737500D01*
X126675301Y-74731374D01*
X126676201Y-74725307D01*
X126677691Y-74719357D01*
X126679758Y-74713582D01*
X126682380Y-74708038D01*
X126685533Y-74702777D01*
X126689187Y-74697850D01*
X126693306Y-74693306D01*
X126697850Y-74689187D01*
X126702777Y-74685533D01*
X126708038Y-74682380D01*
X126713582Y-74679758D01*
X126719357Y-74677691D01*
X126725307Y-74676201D01*
X126731374Y-74675301D01*
X126737500Y-74675000D01*
X126862500Y-74675000D01*
X126868626Y-74675301D01*
X126868626Y-74675301D01*
G37*
D15*
X126800000Y-75112500D03*
D10*
G36*
X126368626Y-74675301D02*
G01*
X126374693Y-74676201D01*
X126380643Y-74677691D01*
X126386418Y-74679758D01*
X126391962Y-74682380D01*
X126397223Y-74685533D01*
X126402150Y-74689187D01*
X126406694Y-74693306D01*
X126410813Y-74697850D01*
X126414467Y-74702777D01*
X126417620Y-74708038D01*
X126420242Y-74713582D01*
X126422309Y-74719357D01*
X126423799Y-74725307D01*
X126424699Y-74731374D01*
X126425000Y-74737500D01*
X126425000Y-75487500D01*
X126424699Y-75493626D01*
X126423799Y-75499693D01*
X126422309Y-75505643D01*
X126420242Y-75511418D01*
X126417620Y-75516962D01*
X126414467Y-75522223D01*
X126410813Y-75527150D01*
X126406694Y-75531694D01*
X126402150Y-75535813D01*
X126397223Y-75539467D01*
X126391962Y-75542620D01*
X126386418Y-75545242D01*
X126380643Y-75547309D01*
X126374693Y-75548799D01*
X126368626Y-75549699D01*
X126362500Y-75550000D01*
X126237500Y-75550000D01*
X126231374Y-75549699D01*
X126225307Y-75548799D01*
X126219357Y-75547309D01*
X126213582Y-75545242D01*
X126208038Y-75542620D01*
X126202777Y-75539467D01*
X126197850Y-75535813D01*
X126193306Y-75531694D01*
X126189187Y-75527150D01*
X126185533Y-75522223D01*
X126182380Y-75516962D01*
X126179758Y-75511418D01*
X126177691Y-75505643D01*
X126176201Y-75499693D01*
X126175301Y-75493626D01*
X126175000Y-75487500D01*
X126175000Y-74737500D01*
X126175301Y-74731374D01*
X126176201Y-74725307D01*
X126177691Y-74719357D01*
X126179758Y-74713582D01*
X126182380Y-74708038D01*
X126185533Y-74702777D01*
X126189187Y-74697850D01*
X126193306Y-74693306D01*
X126197850Y-74689187D01*
X126202777Y-74685533D01*
X126208038Y-74682380D01*
X126213582Y-74679758D01*
X126219357Y-74677691D01*
X126225307Y-74676201D01*
X126231374Y-74675301D01*
X126237500Y-74675000D01*
X126362500Y-74675000D01*
X126368626Y-74675301D01*
X126368626Y-74675301D01*
G37*
D15*
X126300000Y-75112500D03*
D10*
G36*
X125868626Y-74675301D02*
G01*
X125874693Y-74676201D01*
X125880643Y-74677691D01*
X125886418Y-74679758D01*
X125891962Y-74682380D01*
X125897223Y-74685533D01*
X125902150Y-74689187D01*
X125906694Y-74693306D01*
X125910813Y-74697850D01*
X125914467Y-74702777D01*
X125917620Y-74708038D01*
X125920242Y-74713582D01*
X125922309Y-74719357D01*
X125923799Y-74725307D01*
X125924699Y-74731374D01*
X125925000Y-74737500D01*
X125925000Y-75487500D01*
X125924699Y-75493626D01*
X125923799Y-75499693D01*
X125922309Y-75505643D01*
X125920242Y-75511418D01*
X125917620Y-75516962D01*
X125914467Y-75522223D01*
X125910813Y-75527150D01*
X125906694Y-75531694D01*
X125902150Y-75535813D01*
X125897223Y-75539467D01*
X125891962Y-75542620D01*
X125886418Y-75545242D01*
X125880643Y-75547309D01*
X125874693Y-75548799D01*
X125868626Y-75549699D01*
X125862500Y-75550000D01*
X125737500Y-75550000D01*
X125731374Y-75549699D01*
X125725307Y-75548799D01*
X125719357Y-75547309D01*
X125713582Y-75545242D01*
X125708038Y-75542620D01*
X125702777Y-75539467D01*
X125697850Y-75535813D01*
X125693306Y-75531694D01*
X125689187Y-75527150D01*
X125685533Y-75522223D01*
X125682380Y-75516962D01*
X125679758Y-75511418D01*
X125677691Y-75505643D01*
X125676201Y-75499693D01*
X125675301Y-75493626D01*
X125675000Y-75487500D01*
X125675000Y-74737500D01*
X125675301Y-74731374D01*
X125676201Y-74725307D01*
X125677691Y-74719357D01*
X125679758Y-74713582D01*
X125682380Y-74708038D01*
X125685533Y-74702777D01*
X125689187Y-74697850D01*
X125693306Y-74693306D01*
X125697850Y-74689187D01*
X125702777Y-74685533D01*
X125708038Y-74682380D01*
X125713582Y-74679758D01*
X125719357Y-74677691D01*
X125725307Y-74676201D01*
X125731374Y-74675301D01*
X125737500Y-74675000D01*
X125862500Y-74675000D01*
X125868626Y-74675301D01*
X125868626Y-74675301D01*
G37*
D15*
X125800000Y-75112500D03*
D10*
G36*
X125368626Y-74675301D02*
G01*
X125374693Y-74676201D01*
X125380643Y-74677691D01*
X125386418Y-74679758D01*
X125391962Y-74682380D01*
X125397223Y-74685533D01*
X125402150Y-74689187D01*
X125406694Y-74693306D01*
X125410813Y-74697850D01*
X125414467Y-74702777D01*
X125417620Y-74708038D01*
X125420242Y-74713582D01*
X125422309Y-74719357D01*
X125423799Y-74725307D01*
X125424699Y-74731374D01*
X125425000Y-74737500D01*
X125425000Y-75487500D01*
X125424699Y-75493626D01*
X125423799Y-75499693D01*
X125422309Y-75505643D01*
X125420242Y-75511418D01*
X125417620Y-75516962D01*
X125414467Y-75522223D01*
X125410813Y-75527150D01*
X125406694Y-75531694D01*
X125402150Y-75535813D01*
X125397223Y-75539467D01*
X125391962Y-75542620D01*
X125386418Y-75545242D01*
X125380643Y-75547309D01*
X125374693Y-75548799D01*
X125368626Y-75549699D01*
X125362500Y-75550000D01*
X125237500Y-75550000D01*
X125231374Y-75549699D01*
X125225307Y-75548799D01*
X125219357Y-75547309D01*
X125213582Y-75545242D01*
X125208038Y-75542620D01*
X125202777Y-75539467D01*
X125197850Y-75535813D01*
X125193306Y-75531694D01*
X125189187Y-75527150D01*
X125185533Y-75522223D01*
X125182380Y-75516962D01*
X125179758Y-75511418D01*
X125177691Y-75505643D01*
X125176201Y-75499693D01*
X125175301Y-75493626D01*
X125175000Y-75487500D01*
X125175000Y-74737500D01*
X125175301Y-74731374D01*
X125176201Y-74725307D01*
X125177691Y-74719357D01*
X125179758Y-74713582D01*
X125182380Y-74708038D01*
X125185533Y-74702777D01*
X125189187Y-74697850D01*
X125193306Y-74693306D01*
X125197850Y-74689187D01*
X125202777Y-74685533D01*
X125208038Y-74682380D01*
X125213582Y-74679758D01*
X125219357Y-74677691D01*
X125225307Y-74676201D01*
X125231374Y-74675301D01*
X125237500Y-74675000D01*
X125362500Y-74675000D01*
X125368626Y-74675301D01*
X125368626Y-74675301D01*
G37*
D15*
X125300000Y-75112500D03*
D16*
X118250000Y-72650000D03*
X117300000Y-72650000D03*
X116350000Y-72650000D03*
X116350000Y-74850000D03*
X118250000Y-74850000D03*
D17*
X121400000Y-79710000D03*
X120900000Y-79710000D03*
X120400000Y-79710000D03*
X119900000Y-79710000D03*
X119400000Y-79710000D03*
X119400000Y-84110000D03*
X119900000Y-84110000D03*
X120400000Y-84110000D03*
X120900000Y-84110000D03*
X121400000Y-84110000D03*
M02*
